%TF.GenerationSoftware,KiCad,Pcbnew,9.0.6*%
%TF.CreationDate,2025-11-19T18:33:24-08:00*%
%TF.ProjectId,pyramid_clock,70797261-6d69-4645-9f63-6c6f636b2e6b,rev?*%
%TF.SameCoordinates,Original*%
%TF.FileFunction,Soldermask,Top*%
%TF.FilePolarity,Negative*%
%FSLAX46Y46*%
G04 Gerber Fmt 4.6, Leading zero omitted, Abs format (unit mm)*
G04 Created by KiCad (PCBNEW 9.0.6) date 2025-11-19 18:33:24*
%MOMM*%
%LPD*%
G01*
G04 APERTURE LIST*
G04 Aperture macros list*
%AMRoundRect*
0 Rectangle with rounded corners*
0 $1 Rounding radius*
0 $2 $3 $4 $5 $6 $7 $8 $9 X,Y pos of 4 corners*
0 Add a 4 corners polygon primitive as box body*
4,1,4,$2,$3,$4,$5,$6,$7,$8,$9,$2,$3,0*
0 Add four circle primitives for the rounded corners*
1,1,$1+$1,$2,$3*
1,1,$1+$1,$4,$5*
1,1,$1+$1,$6,$7*
1,1,$1+$1,$8,$9*
0 Add four rect primitives between the rounded corners*
20,1,$1+$1,$2,$3,$4,$5,0*
20,1,$1+$1,$4,$5,$6,$7,0*
20,1,$1+$1,$6,$7,$8,$9,0*
20,1,$1+$1,$8,$9,$2,$3,0*%
G04 Aperture macros list end*
%ADD10R,1.500000X1.000000*%
%ADD11RoundRect,0.250000X0.475000X-0.337500X0.475000X0.337500X-0.475000X0.337500X-0.475000X-0.337500X0*%
%ADD12RoundRect,0.250000X0.450000X-0.350000X0.450000X0.350000X-0.450000X0.350000X-0.450000X-0.350000X0*%
G04 APERTURE END LIST*
D10*
%TO.C,D8*%
X158481119Y-82755705D03*
X158481119Y-85955705D03*
X163381119Y-85955705D03*
X163381119Y-82755705D03*
%TD*%
%TO.C,D4*%
X136618664Y-128850989D03*
X136618664Y-132050989D03*
X141518664Y-132050989D03*
X141518664Y-128850989D03*
%TD*%
D11*
%TO.C,C6*%
X85500000Y-133037500D03*
X85500000Y-130962500D03*
%TD*%
%TO.C,C4*%
X133500000Y-133037500D03*
X133500000Y-130962500D03*
%TD*%
D10*
%TO.C,D5*%
X112643247Y-128850989D03*
X112643247Y-132050989D03*
X117543247Y-132050989D03*
X117543247Y-128850989D03*
%TD*%
%TO.C,D10*%
X118500000Y-82800000D03*
X118500000Y-86000000D03*
X123400000Y-86000000D03*
X123400000Y-82800000D03*
%TD*%
D11*
%TO.C,C11*%
X145500000Y-36537500D03*
X145500000Y-34462500D03*
%TD*%
%TO.C,C9*%
X135500000Y-87037500D03*
X135500000Y-84962500D03*
%TD*%
%TO.C,C10*%
X115500000Y-87037500D03*
X115500000Y-84962500D03*
%TD*%
%TO.C,C3*%
X157500000Y-133037500D03*
X157500000Y-130962500D03*
%TD*%
D10*
%TO.C,D3*%
X160594082Y-128850989D03*
X160594082Y-132050989D03*
X165494082Y-132050989D03*
X165494082Y-128850989D03*
%TD*%
D11*
%TO.C,C2*%
X181500000Y-133037500D03*
X181500000Y-130962500D03*
%TD*%
D10*
%TO.C,D11*%
X148550000Y-32400000D03*
X148550000Y-35600000D03*
X153450000Y-35600000D03*
X153450000Y-32400000D03*
%TD*%
D11*
%TO.C,C1*%
X205500000Y-133037500D03*
X205500000Y-130962500D03*
%TD*%
D10*
%TO.C,D1*%
X208616486Y-128779421D03*
X208616486Y-131979421D03*
X213516486Y-131979421D03*
X213516486Y-128779421D03*
%TD*%
D11*
%TO.C,C7*%
X175500000Y-87037500D03*
X175500000Y-84962500D03*
%TD*%
%TO.C,C8*%
X155500000Y-87037500D03*
X155500000Y-84962500D03*
%TD*%
D12*
%TO.C,R1*%
X146500000Y-106500000D03*
X146500000Y-104500000D03*
%TD*%
D11*
%TO.C,C5*%
X109500000Y-133037500D03*
X109500000Y-130962500D03*
%TD*%
D10*
%TO.C,D7*%
X178503116Y-82755705D03*
X178503116Y-85955705D03*
X183403116Y-85955705D03*
X183403116Y-82755705D03*
%TD*%
%TO.C,D2*%
X184641068Y-128707853D03*
X184641068Y-131907853D03*
X189541068Y-131907853D03*
X189541068Y-128707853D03*
%TD*%
%TO.C,D9*%
X138505254Y-82801839D03*
X138505254Y-86001839D03*
X143405254Y-86001839D03*
X143405254Y-82801839D03*
%TD*%
%TO.C,D6*%
X88562912Y-128850989D03*
X88562912Y-132050989D03*
X93462912Y-132050989D03*
X93462912Y-128850989D03*
%TD*%
M02*
