%TF.GenerationSoftware,KiCad,Pcbnew,9.0.6*%
%TF.CreationDate,2025-11-19T18:33:24-08:00*%
%TF.ProjectId,pyramid_clock,70797261-6d69-4645-9f63-6c6f636b2e6b,rev?*%
%TF.SameCoordinates,Original*%
%TF.FileFunction,Legend,Bot*%
%TF.FilePolarity,Positive*%
%FSLAX46Y46*%
G04 Gerber Fmt 4.6, Leading zero omitted, Abs format (unit mm)*
G04 Created by KiCad (PCBNEW 9.0.6) date 2025-11-19 18:33:24*
%MOMM*%
%LPD*%
G01*
G04 APERTURE LIST*
%ADD10C,0.100000*%
%ADD11C,0.200000*%
%ADD12C,0.150000*%
%ADD13C,0.000000*%
%ADD14C,0.127000*%
G04 APERTURE END LIST*
D10*
G36*
X170397155Y-74745000D02*
G01*
X170825435Y-74745000D01*
X171212682Y-73178609D01*
X171286505Y-72832578D01*
X171344024Y-73097826D01*
X171762045Y-74745000D01*
X172188310Y-74745000D01*
X172809298Y-72529228D01*
X172444399Y-72529228D01*
X172069425Y-74034253D01*
X171981314Y-74439635D01*
X171946510Y-74288143D01*
X171483242Y-72529228D01*
X171087752Y-72529228D01*
X170700505Y-74050556D01*
X170606166Y-74439635D01*
X170542602Y-74154970D01*
X170122565Y-72529228D01*
X169761880Y-72529228D01*
X170397155Y-74745000D01*
G37*
G36*
X167366590Y-74745000D02*
G01*
X167794870Y-74745000D01*
X168182117Y-73178609D01*
X168255939Y-72832578D01*
X168313459Y-73097826D01*
X168731480Y-74745000D01*
X169157745Y-74745000D01*
X169778732Y-72529228D01*
X169413834Y-72529228D01*
X169038860Y-74034253D01*
X168950749Y-74439635D01*
X168915945Y-74288143D01*
X168452677Y-72529228D01*
X168057187Y-72529228D01*
X167669940Y-74050556D01*
X167575601Y-74439635D01*
X167512037Y-74154970D01*
X167092000Y-72529228D01*
X166731314Y-72529228D01*
X167366590Y-74745000D01*
G37*
G36*
X164336025Y-74745000D02*
G01*
X164764305Y-74745000D01*
X165151552Y-73178609D01*
X165225374Y-72832578D01*
X165282893Y-73097826D01*
X165700915Y-74745000D01*
X166127180Y-74745000D01*
X166748167Y-72529228D01*
X166383268Y-72529228D01*
X166008295Y-74034253D01*
X165920184Y-74439635D01*
X165885379Y-74288143D01*
X165422112Y-72529228D01*
X165026621Y-72529228D01*
X164639374Y-74050556D01*
X164545036Y-74439635D01*
X164481471Y-74154970D01*
X164061435Y-72529228D01*
X163700749Y-72529228D01*
X164336025Y-74745000D01*
G37*
G36*
X163559699Y-74745000D02*
G01*
X163559699Y-74299501D01*
X163159996Y-74299501D01*
X163159996Y-74745000D01*
X163559699Y-74745000D01*
G37*
G36*
X161608526Y-72506014D02*
G01*
X161748480Y-72538892D01*
X161860501Y-72589495D01*
X161958564Y-72662649D01*
X162045154Y-72761288D01*
X162120620Y-72889731D01*
X162128863Y-72889731D01*
X162133992Y-72744651D01*
X162143335Y-72588213D01*
X162149380Y-72529228D01*
X162505852Y-72529228D01*
X162493579Y-72981322D01*
X162493579Y-75612550D01*
X162124650Y-75612550D01*
X162124650Y-74752144D01*
X162132893Y-74406479D01*
X162122635Y-74406479D01*
X162040086Y-74543468D01*
X161934097Y-74648450D01*
X161801942Y-74725292D01*
X161637941Y-74774245D01*
X161434053Y-74791894D01*
X161245813Y-74774348D01*
X161089070Y-74724835D01*
X160957433Y-74645378D01*
X160846622Y-74534343D01*
X160754951Y-74386637D01*
X160683509Y-74194210D01*
X160636026Y-73946644D01*
X160618985Y-73639862D01*
X161005774Y-73639862D01*
X161023531Y-73958329D01*
X161068709Y-74175380D01*
X161131803Y-74317452D01*
X161203107Y-74404842D01*
X161291071Y-74466860D01*
X161399003Y-74505522D01*
X161532422Y-74519319D01*
X161686630Y-74504736D01*
X161809473Y-74464305D01*
X161907618Y-74400509D01*
X161985432Y-74312323D01*
X162056706Y-74166602D01*
X162105836Y-73958570D01*
X162124650Y-73668621D01*
X162106686Y-73370380D01*
X162060170Y-73159192D01*
X162007464Y-73034457D01*
X161944438Y-72940302D01*
X161871676Y-72871229D01*
X161784270Y-72822298D01*
X161672034Y-72790535D01*
X161528392Y-72778906D01*
X161395843Y-72792529D01*
X161288708Y-72830680D01*
X161201494Y-72891812D01*
X161130887Y-72977841D01*
X161068122Y-73117611D01*
X161023337Y-73329847D01*
X161005774Y-73639862D01*
X160618985Y-73639862D01*
X160618527Y-73631618D01*
X160634305Y-73327996D01*
X160676910Y-73090889D01*
X160740556Y-72908002D01*
X160821492Y-72768831D01*
X160933003Y-72650922D01*
X161068585Y-72566163D01*
X161233180Y-72513012D01*
X161434237Y-72494057D01*
X161608526Y-72506014D01*
G37*
G36*
X160051944Y-75612550D02*
G01*
X160197461Y-75606355D01*
X160306018Y-75590019D01*
X160306018Y-75313414D01*
X160133827Y-75325687D01*
X160010988Y-75308343D01*
X159897815Y-75256170D01*
X159790445Y-75164752D01*
X159687243Y-75024640D01*
X159588860Y-74822302D01*
X159554055Y-74734741D01*
X160433146Y-72529228D01*
X160039671Y-72529228D01*
X159572373Y-73753618D01*
X159547827Y-73822128D01*
X159455686Y-74089391D01*
X159371606Y-74343281D01*
X159228174Y-73939914D01*
X158742375Y-72529228D01*
X158353113Y-72529228D01*
X159205643Y-74745000D01*
X159347993Y-75072727D01*
X159461731Y-75270549D01*
X159590778Y-75424763D01*
X159725147Y-75527737D01*
X159877281Y-75590893D01*
X160051944Y-75612550D01*
G37*
G36*
X158053794Y-74745000D02*
G01*
X158053794Y-73045252D01*
X158066067Y-72529228D01*
X157717654Y-72529228D01*
X157701351Y-72976376D01*
X157693108Y-72976376D01*
X157623676Y-72788858D01*
X157555778Y-72664413D01*
X157490325Y-72586931D01*
X157407791Y-72531002D01*
X157302038Y-72495315D01*
X157166459Y-72482334D01*
X157016799Y-72502850D01*
X157016799Y-72841004D01*
X157096815Y-72826276D01*
X157213537Y-72820488D01*
X157323100Y-72833248D01*
X157415790Y-72869895D01*
X157495471Y-72930553D01*
X157564148Y-73018691D01*
X157626988Y-73156554D01*
X157669233Y-73341591D01*
X157685048Y-73586556D01*
X157685048Y-74745000D01*
X158053794Y-74745000D01*
G37*
G36*
X156052971Y-72503152D02*
G01*
X156261222Y-72559406D01*
X156419104Y-72644778D01*
X156536872Y-72757445D01*
X156620364Y-72900318D01*
X156670219Y-73080607D01*
X156284804Y-73115411D01*
X156257804Y-72998196D01*
X156212341Y-72911005D01*
X156149615Y-72847233D01*
X156069530Y-72804233D01*
X155953306Y-72774564D01*
X155788930Y-72763152D01*
X155629313Y-72778430D01*
X155512696Y-72819281D01*
X155428427Y-72881671D01*
X155369049Y-72968359D01*
X155328922Y-73094565D01*
X155313572Y-73274230D01*
X155313572Y-73396779D01*
X155811644Y-73405022D01*
X156071380Y-73425296D01*
X156272636Y-73467808D01*
X156426454Y-73527691D01*
X156542175Y-73601943D01*
X156639525Y-73702028D01*
X156709471Y-73820823D01*
X156753127Y-73962095D01*
X156768588Y-74131339D01*
X156748167Y-74329973D01*
X156691297Y-74488410D01*
X156600610Y-74615490D01*
X156511531Y-74689228D01*
X156401380Y-74744030D01*
X156265620Y-74779204D01*
X156098324Y-74791894D01*
X155922040Y-74779159D01*
X155771488Y-74743114D01*
X155642384Y-74685832D01*
X155528111Y-74603616D01*
X155418563Y-74485630D01*
X155313389Y-74324596D01*
X155301116Y-74324596D01*
X155281535Y-74474921D01*
X155245161Y-74583839D01*
X155195603Y-74661102D01*
X155126032Y-74717930D01*
X155029638Y-74754733D01*
X154897382Y-74768447D01*
X154753182Y-74760219D01*
X154612534Y-74735657D01*
X154612534Y-74506130D01*
X154733434Y-74520418D01*
X154809106Y-74510050D01*
X154861660Y-74482128D01*
X154897382Y-74437254D01*
X154927994Y-74342754D01*
X154940430Y-74189225D01*
X154940430Y-73837698D01*
X155313572Y-73837698D01*
X155335915Y-74004212D01*
X155404797Y-74169441D01*
X155473339Y-74269584D01*
X155555937Y-74353643D01*
X155653741Y-74422965D01*
X155762214Y-74473648D01*
X155881652Y-74504618D01*
X156014427Y-74515289D01*
X156130646Y-74503174D01*
X156221271Y-74469725D01*
X156292131Y-74416737D01*
X156344401Y-74345302D01*
X156377437Y-74254161D01*
X156389401Y-74137568D01*
X156370155Y-73982258D01*
X156317776Y-73868656D01*
X156232057Y-73780528D01*
X156111697Y-73716615D01*
X155961291Y-73680819D01*
X155717305Y-73663309D01*
X155313572Y-73655066D01*
X155313572Y-73837698D01*
X154940430Y-73837698D01*
X154940430Y-73230999D01*
X154955233Y-73050238D01*
X154996677Y-72900949D01*
X155062152Y-72777215D01*
X155151639Y-72674675D01*
X155261459Y-72595347D01*
X155398689Y-72535390D01*
X155569299Y-72496463D01*
X155780686Y-72482334D01*
X156052971Y-72503152D01*
G37*
G36*
X153039915Y-74745000D02*
G01*
X153039915Y-73336146D01*
X153052610Y-73120000D01*
X153084383Y-72978490D01*
X153128026Y-72890464D01*
X153196549Y-72825681D01*
X153298220Y-72783287D01*
X153445664Y-72767182D01*
X153593891Y-72787866D01*
X153716120Y-72847421D01*
X153818806Y-72947983D01*
X153891283Y-73075622D01*
X153938594Y-73241856D01*
X153956009Y-73457229D01*
X153956009Y-74745000D01*
X154322740Y-74745000D01*
X154322740Y-73002205D01*
X154335013Y-72529228D01*
X153986784Y-72529228D01*
X153982754Y-72583817D01*
X153977625Y-72686032D01*
X153970481Y-72903286D01*
X153964252Y-72903286D01*
X153874940Y-72753033D01*
X153784135Y-72646395D01*
X153691677Y-72574841D01*
X153585529Y-72524806D01*
X153461704Y-72493415D01*
X153316520Y-72482334D01*
X153150990Y-72495009D01*
X153020477Y-72529698D01*
X152917916Y-72583084D01*
X152833049Y-72659890D01*
X152764920Y-72764484D01*
X152714034Y-72903286D01*
X152707806Y-72903286D01*
X152621579Y-72761866D01*
X152529113Y-72656356D01*
X152430285Y-72580886D01*
X152317697Y-72527459D01*
X152187401Y-72494077D01*
X152035711Y-72482334D01*
X151867382Y-72495694D01*
X151734246Y-72532367D01*
X151629202Y-72589060D01*
X151546981Y-72665150D01*
X151486197Y-72758738D01*
X151438359Y-72884150D01*
X151406189Y-73049557D01*
X151394207Y-73264705D01*
X151394207Y-74745000D01*
X151759106Y-74745000D01*
X151759106Y-73336146D01*
X151771800Y-73120000D01*
X151803573Y-72978490D01*
X151847216Y-72890464D01*
X151915739Y-72825681D01*
X152017411Y-72783287D01*
X152164854Y-72767182D01*
X152317058Y-72788018D01*
X152440037Y-72847453D01*
X152540927Y-72946884D01*
X152611659Y-73073750D01*
X152658059Y-73240229D01*
X152675200Y-73457229D01*
X152675200Y-74745000D01*
X153039915Y-74745000D01*
G37*
G36*
X150836417Y-72061015D02*
G01*
X150836417Y-71708572D01*
X150467672Y-71708572D01*
X150467672Y-72061015D01*
X150836417Y-72061015D01*
G37*
G36*
X150836417Y-74745000D02*
G01*
X150836417Y-72529228D01*
X150467672Y-72529228D01*
X150467672Y-74745000D01*
X150836417Y-74745000D01*
G37*
G36*
X148502677Y-72623018D02*
G01*
X148498647Y-72869398D01*
X148502677Y-72869398D01*
X148580813Y-72743664D01*
X148670800Y-72646854D01*
X148773237Y-72575024D01*
X148888816Y-72525368D01*
X149027268Y-72493669D01*
X149193274Y-72482334D01*
X149381370Y-72499914D01*
X149538047Y-72549538D01*
X149669691Y-72629207D01*
X149780565Y-72740597D01*
X149872335Y-72888855D01*
X149943882Y-73082094D01*
X149991450Y-73330802D01*
X150008984Y-73647372D01*
X149993827Y-73944221D01*
X149952630Y-74179645D01*
X149890641Y-74364455D01*
X149811330Y-74507962D01*
X149701534Y-74629627D01*
X149565973Y-74717135D01*
X149399292Y-74772179D01*
X149193274Y-74791894D01*
X149028639Y-74780632D01*
X148890405Y-74749039D01*
X148774153Y-74699387D01*
X148671943Y-74626890D01*
X148581596Y-74526307D01*
X148502677Y-74392557D01*
X148494434Y-74392557D01*
X148487290Y-74595157D01*
X148473917Y-74745000D01*
X148121475Y-74745000D01*
X148133748Y-74288693D01*
X148133748Y-73610369D01*
X148502677Y-73610369D01*
X148521840Y-73916078D01*
X148571820Y-74135249D01*
X148644094Y-74288510D01*
X148723592Y-74382366D01*
X148822783Y-74449611D01*
X148945737Y-74491880D01*
X149098935Y-74507046D01*
X149233544Y-74493146D01*
X149341547Y-74454331D01*
X149428754Y-74392271D01*
X149498638Y-74304996D01*
X149560267Y-74163283D01*
X149604292Y-73948420D01*
X149621553Y-73635099D01*
X149604277Y-73323398D01*
X149559976Y-73107030D01*
X149497539Y-72962088D01*
X149426818Y-72872356D01*
X149338815Y-72808759D01*
X149230116Y-72769091D01*
X149094905Y-72754909D01*
X148942968Y-72769343D01*
X148821035Y-72809494D01*
X148722788Y-72873067D01*
X148644094Y-72961172D01*
X148571854Y-73106481D01*
X148521880Y-73315984D01*
X148502677Y-73610369D01*
X148133748Y-73610369D01*
X148133748Y-71708572D01*
X148502677Y-71708572D01*
X148502677Y-72623018D01*
G37*
G36*
X147288546Y-73626673D02*
G01*
X147269766Y-73922648D01*
X147220642Y-74136104D01*
X147149327Y-74286495D01*
X147071035Y-74380033D01*
X146977242Y-74445863D01*
X146864956Y-74486470D01*
X146729108Y-74500818D01*
X146601729Y-74488248D01*
X146493424Y-74452371D01*
X146400296Y-74394023D01*
X146326210Y-74314017D01*
X146271387Y-74206756D01*
X146237263Y-74065027D01*
X145864305Y-74089757D01*
X145898551Y-74245188D01*
X145955351Y-74380246D01*
X146034356Y-74498131D01*
X146136880Y-74601018D01*
X146256194Y-74682795D01*
X146390970Y-74742127D01*
X146544005Y-74779009D01*
X146718849Y-74791894D01*
X146948033Y-74771529D01*
X147138093Y-74714244D01*
X147296654Y-74622942D01*
X147429046Y-74496605D01*
X147529838Y-74344307D01*
X147606300Y-74155377D01*
X147655964Y-73922094D01*
X147673961Y-73635099D01*
X147655952Y-73350414D01*
X147606194Y-73118476D01*
X147529463Y-72930121D01*
X147428131Y-72777807D01*
X147295181Y-72651049D01*
X147137106Y-72559712D01*
X146948832Y-72502587D01*
X146723063Y-72482334D01*
X146502231Y-72503310D01*
X146316308Y-72562842D01*
X146158312Y-72658921D01*
X146028630Y-72789594D01*
X145935007Y-72949648D01*
X145876578Y-73145270D01*
X146255765Y-73174030D01*
X146285943Y-73055852D01*
X146334607Y-72959176D01*
X146401395Y-72880205D01*
X146485510Y-72821930D01*
X146593768Y-72784750D01*
X146733138Y-72771212D01*
X146877063Y-72784955D01*
X146991998Y-72823113D01*
X147084105Y-72883447D01*
X147157387Y-72967034D01*
X147223220Y-73105483D01*
X147270131Y-73316712D01*
X147288546Y-73626673D01*
G37*
G36*
X145470829Y-74745000D02*
G01*
X145470829Y-71708572D01*
X145101901Y-71708572D01*
X145101901Y-74745000D01*
X145470829Y-74745000D01*
G37*
G36*
X143892813Y-72501767D02*
G01*
X144090233Y-72555907D01*
X144252117Y-72640969D01*
X144384691Y-72756678D01*
X144491453Y-72906276D01*
X144572804Y-73096180D01*
X144626000Y-73335422D01*
X144645411Y-73635099D01*
X144627310Y-73919452D01*
X144577233Y-74151716D01*
X144499885Y-74340899D01*
X144397565Y-74494406D01*
X144263654Y-74620925D01*
X144101089Y-74712975D01*
X143903912Y-74771115D01*
X143663738Y-74791894D01*
X143421901Y-74771862D01*
X143222308Y-74715773D01*
X143056966Y-74627105D01*
X142920018Y-74505764D01*
X142815119Y-74357330D01*
X142735155Y-74169065D01*
X142682843Y-73931992D01*
X142663746Y-73635099D01*
X143050993Y-73635099D01*
X143070327Y-73937968D01*
X143120697Y-74154318D01*
X143193509Y-74304996D01*
X143273159Y-74395881D01*
X143375057Y-74461950D01*
X143504117Y-74504057D01*
X143667768Y-74519319D01*
X143816356Y-74504171D01*
X143936916Y-74461699D01*
X144035457Y-74393611D01*
X144115648Y-74297852D01*
X144189031Y-74142812D01*
X144239033Y-73927768D01*
X144257981Y-73635099D01*
X144238425Y-73333777D01*
X144187446Y-73118434D01*
X144113633Y-72968316D01*
X144033036Y-72877403D01*
X143931494Y-72811624D01*
X143804510Y-72769940D01*
X143645236Y-72754909D01*
X143486745Y-72769809D01*
X143362040Y-72810892D01*
X143263815Y-72875354D01*
X143187281Y-72964103D01*
X143118166Y-73111187D01*
X143069746Y-73327256D01*
X143050993Y-73635099D01*
X142663746Y-73635099D01*
X142681933Y-73333204D01*
X142731427Y-73094814D01*
X142806367Y-72908121D01*
X142903532Y-72763335D01*
X143032386Y-72645838D01*
X143194585Y-72558702D01*
X143397590Y-72502652D01*
X143651464Y-72482334D01*
X143892813Y-72501767D01*
G37*
G36*
X141924973Y-73626673D02*
G01*
X141906193Y-73922648D01*
X141857069Y-74136104D01*
X141785754Y-74286495D01*
X141707462Y-74380033D01*
X141613669Y-74445863D01*
X141501383Y-74486470D01*
X141365535Y-74500818D01*
X141238156Y-74488248D01*
X141129851Y-74452371D01*
X141036723Y-74394023D01*
X140962637Y-74314017D01*
X140907814Y-74206756D01*
X140873691Y-74065027D01*
X140500732Y-74089757D01*
X140534978Y-74245188D01*
X140591778Y-74380246D01*
X140670783Y-74498131D01*
X140773307Y-74601018D01*
X140892621Y-74682795D01*
X141027397Y-74742127D01*
X141180432Y-74779009D01*
X141355276Y-74791894D01*
X141584460Y-74771529D01*
X141774520Y-74714244D01*
X141933081Y-74622942D01*
X142065474Y-74496605D01*
X142166265Y-74344307D01*
X142242727Y-74155377D01*
X142292391Y-73922094D01*
X142310388Y-73635099D01*
X142292379Y-73350414D01*
X142242621Y-73118476D01*
X142165890Y-72930121D01*
X142064558Y-72777807D01*
X141931608Y-72651049D01*
X141773533Y-72559712D01*
X141585259Y-72502587D01*
X141359490Y-72482334D01*
X141138658Y-72503310D01*
X140952735Y-72562842D01*
X140794739Y-72658921D01*
X140665057Y-72789594D01*
X140571434Y-72949648D01*
X140513005Y-73145270D01*
X140892192Y-73174030D01*
X140922370Y-73055852D01*
X140971034Y-72959176D01*
X141037822Y-72880205D01*
X141121937Y-72821930D01*
X141230195Y-72784750D01*
X141369565Y-72771212D01*
X141513490Y-72784955D01*
X141628425Y-72823113D01*
X141720532Y-72883447D01*
X141793814Y-72967034D01*
X141859647Y-73105483D01*
X141906558Y-73316712D01*
X141924973Y-73626673D01*
G37*
G36*
X138717820Y-74745000D02*
G01*
X139467951Y-73733285D01*
X139738328Y-73956584D01*
X139738328Y-74745000D01*
X140107257Y-74745000D01*
X140107257Y-71708572D01*
X139738328Y-71708572D01*
X139738328Y-73604324D01*
X138764898Y-72529228D01*
X138332588Y-72529228D01*
X139232195Y-73481409D01*
X138285327Y-74745000D01*
X138717820Y-74745000D01*
G37*
G36*
X137908338Y-74745000D02*
G01*
X137908338Y-74299501D01*
X137508635Y-74299501D01*
X137508635Y-74745000D01*
X137908338Y-74745000D01*
G37*
G36*
X136561400Y-73626673D02*
G01*
X136542620Y-73922648D01*
X136493496Y-74136104D01*
X136422182Y-74286495D01*
X136343889Y-74380033D01*
X136250096Y-74445863D01*
X136137810Y-74486470D01*
X136001962Y-74500818D01*
X135874583Y-74488248D01*
X135766278Y-74452371D01*
X135673150Y-74394023D01*
X135599064Y-74314017D01*
X135544241Y-74206756D01*
X135510118Y-74065027D01*
X135137159Y-74089757D01*
X135171405Y-74245188D01*
X135228205Y-74380246D01*
X135307210Y-74498131D01*
X135409734Y-74601018D01*
X135529048Y-74682795D01*
X135663824Y-74742127D01*
X135816860Y-74779009D01*
X135991703Y-74791894D01*
X136220887Y-74771529D01*
X136410947Y-74714244D01*
X136569508Y-74622942D01*
X136701901Y-74496605D01*
X136802692Y-74344307D01*
X136879154Y-74155377D01*
X136928818Y-73922094D01*
X136946815Y-73635099D01*
X136928806Y-73350414D01*
X136879048Y-73118476D01*
X136802317Y-72930121D01*
X136700985Y-72777807D01*
X136568035Y-72651049D01*
X136409960Y-72559712D01*
X136221686Y-72502587D01*
X135995917Y-72482334D01*
X135775085Y-72503310D01*
X135589162Y-72562842D01*
X135431166Y-72658921D01*
X135301485Y-72789594D01*
X135207861Y-72949648D01*
X135149432Y-73145270D01*
X135528619Y-73174030D01*
X135558797Y-73055852D01*
X135607461Y-72959176D01*
X135674249Y-72880205D01*
X135758365Y-72821930D01*
X135866622Y-72784750D01*
X136005992Y-72771212D01*
X136149917Y-72784955D01*
X136264852Y-72823113D01*
X136356959Y-72883447D01*
X136430242Y-72967034D01*
X136496074Y-73105483D01*
X136542985Y-73316712D01*
X136561400Y-73626673D01*
G37*
G36*
X134097698Y-72501767D02*
G01*
X134295118Y-72555907D01*
X134457002Y-72640969D01*
X134589576Y-72756678D01*
X134696338Y-72906276D01*
X134777689Y-73096180D01*
X134830885Y-73335422D01*
X134850296Y-73635099D01*
X134832195Y-73919452D01*
X134782118Y-74151716D01*
X134704770Y-74340899D01*
X134602450Y-74494406D01*
X134468539Y-74620925D01*
X134305974Y-74712975D01*
X134108797Y-74771115D01*
X133868623Y-74791894D01*
X133626785Y-74771862D01*
X133427193Y-74715773D01*
X133261851Y-74627105D01*
X133124903Y-74505764D01*
X133020004Y-74357330D01*
X132940040Y-74169065D01*
X132887728Y-73931992D01*
X132868631Y-73635099D01*
X133255878Y-73635099D01*
X133275212Y-73937968D01*
X133325582Y-74154318D01*
X133398394Y-74304996D01*
X133478044Y-74395881D01*
X133579942Y-74461950D01*
X133709002Y-74504057D01*
X133872653Y-74519319D01*
X134021241Y-74504171D01*
X134141801Y-74461699D01*
X134240342Y-74393611D01*
X134320533Y-74297852D01*
X134393916Y-74142812D01*
X134443917Y-73927768D01*
X134462865Y-73635099D01*
X134443310Y-73333777D01*
X134392331Y-73118434D01*
X134318518Y-72968316D01*
X134237921Y-72877403D01*
X134136379Y-72811624D01*
X134009395Y-72769940D01*
X133850121Y-72754909D01*
X133691630Y-72769809D01*
X133566925Y-72810892D01*
X133468700Y-72875354D01*
X133392166Y-72964103D01*
X133323051Y-73111187D01*
X133274631Y-73327256D01*
X133255878Y-73635099D01*
X132868631Y-73635099D01*
X132886817Y-73333204D01*
X132936312Y-73094814D01*
X133011252Y-72908121D01*
X133108417Y-72763335D01*
X133237271Y-72645838D01*
X133399470Y-72558702D01*
X133602475Y-72502652D01*
X133856349Y-72482334D01*
X134097698Y-72501767D01*
G37*
G36*
X131119608Y-74745000D02*
G01*
X131119608Y-73336146D01*
X131132303Y-73120000D01*
X131164076Y-72978490D01*
X131207719Y-72890464D01*
X131276242Y-72825681D01*
X131377913Y-72783287D01*
X131525357Y-72767182D01*
X131673584Y-72787866D01*
X131795813Y-72847421D01*
X131898499Y-72947983D01*
X131970976Y-73075622D01*
X132018287Y-73241856D01*
X132035702Y-73457229D01*
X132035702Y-74745000D01*
X132402433Y-74745000D01*
X132402433Y-73002205D01*
X132414706Y-72529228D01*
X132066477Y-72529228D01*
X132062447Y-72583817D01*
X132057318Y-72686032D01*
X132050173Y-72903286D01*
X132043945Y-72903286D01*
X131954633Y-72753033D01*
X131863828Y-72646395D01*
X131771370Y-72574841D01*
X131665222Y-72524806D01*
X131541397Y-72493415D01*
X131396213Y-72482334D01*
X131230683Y-72495009D01*
X131100170Y-72529698D01*
X130997609Y-72583084D01*
X130912742Y-72659890D01*
X130844613Y-72764484D01*
X130793727Y-72903286D01*
X130787499Y-72903286D01*
X130701272Y-72761866D01*
X130608806Y-72656356D01*
X130509978Y-72580886D01*
X130397390Y-72527459D01*
X130267094Y-72494077D01*
X130115404Y-72482334D01*
X129947075Y-72495694D01*
X129813939Y-72532367D01*
X129708895Y-72589060D01*
X129626674Y-72665150D01*
X129565890Y-72758738D01*
X129518051Y-72884150D01*
X129485882Y-73049557D01*
X129473900Y-73264705D01*
X129473900Y-74745000D01*
X129838799Y-74745000D01*
X129838799Y-73336146D01*
X129851493Y-73120000D01*
X129883266Y-72978490D01*
X129926909Y-72890464D01*
X129995432Y-72825681D01*
X130097104Y-72783287D01*
X130244547Y-72767182D01*
X130396751Y-72788018D01*
X130519730Y-72847453D01*
X130620620Y-72946884D01*
X130691351Y-73073750D01*
X130737752Y-73240229D01*
X130754893Y-73457229D01*
X130754893Y-74745000D01*
X131119608Y-74745000D01*
G37*
D11*
G36*
X200159324Y-109575000D02*
G01*
X199151822Y-109575000D01*
X199151822Y-107875069D01*
X197956254Y-107875069D01*
X197598807Y-107851299D01*
X197288817Y-107783698D01*
X197018972Y-107676011D01*
X196773679Y-107523100D01*
X196573119Y-107336280D01*
X196412639Y-107113032D01*
X196296152Y-106862685D01*
X196225157Y-106588730D01*
X196202136Y-106303061D01*
X197215282Y-106303061D01*
X197242824Y-106551013D01*
X197319088Y-106743971D01*
X197440901Y-106894740D01*
X197602899Y-107004006D01*
X197812274Y-107074032D01*
X198082649Y-107099598D01*
X199151822Y-107099598D01*
X199151822Y-105550488D01*
X198110127Y-105550488D01*
X197809283Y-105576317D01*
X197587666Y-105645282D01*
X197426465Y-105749471D01*
X197312754Y-105888278D01*
X197241252Y-106068488D01*
X197215282Y-106303061D01*
X196202136Y-106303061D01*
X196200758Y-106285964D01*
X196232595Y-105929587D01*
X196322582Y-105630799D01*
X196466724Y-105378489D01*
X196666957Y-105164890D01*
X196908239Y-105000286D01*
X197202733Y-104876618D01*
X197561274Y-104796975D01*
X197997164Y-104768300D01*
X200159324Y-104768300D01*
X200159324Y-109575000D01*
G37*
G36*
X193123909Y-107601517D02*
G01*
X193123909Y-109575000D01*
X194128052Y-109575000D01*
X194128052Y-107601517D01*
X195842637Y-104768300D01*
X194787203Y-104768300D01*
X193632850Y-106800401D01*
X192464759Y-104768300D01*
X191409324Y-104768300D01*
X193123909Y-107601517D01*
G37*
G36*
X190829247Y-109575000D02*
G01*
X189821746Y-109575000D01*
X189821746Y-107757833D01*
X188639916Y-107757833D01*
X187523115Y-109575000D01*
X186389218Y-109575000D01*
X187690421Y-107563049D01*
X187382504Y-107455348D01*
X187126837Y-107294705D01*
X186915256Y-107079143D01*
X186757053Y-106821177D01*
X186661298Y-106532586D01*
X186632395Y-106245969D01*
X187642489Y-106245969D01*
X187668614Y-106466746D01*
X187741929Y-106642579D01*
X187861086Y-106783914D01*
X188018023Y-106885166D01*
X188226901Y-106951209D01*
X188503140Y-106975645D01*
X189821746Y-106975645D01*
X189821746Y-105550488D01*
X188530617Y-105550488D01*
X188227641Y-105575147D01*
X188006274Y-105640619D01*
X187847077Y-105738577D01*
X187736238Y-105867464D01*
X187667338Y-106032762D01*
X187642489Y-106245969D01*
X186632395Y-106245969D01*
X186628270Y-106205059D01*
X186660084Y-105864884D01*
X186750025Y-105580732D01*
X186894497Y-105341454D01*
X187096301Y-105139549D01*
X187336682Y-104986148D01*
X187630635Y-104870227D01*
X187988962Y-104795312D01*
X188424677Y-104768300D01*
X190829247Y-104768300D01*
X190829247Y-109575000D01*
G37*
G36*
X186072007Y-109575000D02*
G01*
X185064506Y-109575000D01*
X184637691Y-108340352D01*
X182803427Y-108340352D01*
X182376613Y-109575000D01*
X181379186Y-109575000D01*
X182104290Y-107581978D01*
X183028741Y-107581978D01*
X184412072Y-107581978D01*
X183824668Y-105860371D01*
X183742541Y-105581324D01*
X183722086Y-105506524D01*
X183650339Y-105741303D01*
X183503488Y-106204143D01*
X183028741Y-107581978D01*
X182104290Y-107581978D01*
X183127965Y-104768300D01*
X184316512Y-104768300D01*
X186072007Y-109575000D01*
G37*
G36*
X176731245Y-109575000D02*
G01*
X176731245Y-106661488D01*
X176729718Y-106463651D01*
X176697051Y-105614296D01*
X177055783Y-106893518D01*
X177923150Y-109575000D01*
X178640613Y-109575000D01*
X179507981Y-106893518D01*
X179873429Y-105614296D01*
X179832518Y-106661488D01*
X179832518Y-109575000D01*
X180727363Y-109575000D01*
X180727363Y-104768300D01*
X179378227Y-104768300D01*
X178517576Y-107456498D01*
X178442471Y-107715701D01*
X178278523Y-108360502D01*
X178063284Y-107589610D01*
X177178515Y-104768300D01*
X175836400Y-104768300D01*
X175836400Y-109575000D01*
X176731245Y-109575000D01*
G37*
G36*
X174899729Y-109575000D02*
G01*
X174899729Y-104768300D01*
X173892227Y-104768300D01*
X173892227Y-109575000D01*
X174899729Y-109575000D01*
G37*
G36*
X172955556Y-109575000D02*
G01*
X171008635Y-109575000D01*
X170556448Y-109540905D01*
X170150948Y-109442238D01*
X169784368Y-109281603D01*
X169532182Y-109118562D01*
X169311831Y-108924428D01*
X169120811Y-108697333D01*
X168957911Y-108434080D01*
X168799035Y-108054260D01*
X168700227Y-107624646D01*
X168665736Y-107135929D01*
X169679954Y-107135929D01*
X169706792Y-107519729D01*
X169782296Y-107843603D01*
X169901394Y-108117535D01*
X170062499Y-108349511D01*
X170268756Y-108543673D01*
X170504996Y-108681589D01*
X170777189Y-108766488D01*
X171094120Y-108796170D01*
X171948054Y-108796170D01*
X171948054Y-105547130D01*
X171234254Y-105547130D01*
X170861164Y-105575874D01*
X170552224Y-105656287D01*
X170295785Y-105782866D01*
X170082955Y-105954710D01*
X169914119Y-106169077D01*
X169788838Y-106430416D01*
X169708728Y-106748501D01*
X169679954Y-107135929D01*
X168665736Y-107135929D01*
X168695836Y-106673968D01*
X168781125Y-106276440D01*
X168916354Y-105933463D01*
X169099507Y-105636896D01*
X169331908Y-105380739D01*
X169604827Y-105170103D01*
X169921938Y-105001762D01*
X170289950Y-104876187D01*
X170717291Y-104796496D01*
X171213799Y-104768300D01*
X172955556Y-104768300D01*
X172955556Y-109575000D01*
G37*
G36*
X129719033Y-108860589D02*
G01*
X129425003Y-108834356D01*
X129172030Y-108759403D01*
X128952291Y-108638056D01*
X128760280Y-108468159D01*
X128593302Y-108243278D01*
X128451718Y-107953227D01*
X127573970Y-108282955D01*
X127738428Y-108618055D01*
X127931749Y-108897594D01*
X128153697Y-109128292D01*
X128405922Y-109314881D01*
X128685201Y-109459361D01*
X128994003Y-109564882D01*
X129336845Y-109630412D01*
X129719033Y-109653157D01*
X130188881Y-109623379D01*
X130594517Y-109538930D01*
X130945563Y-109405011D01*
X131250024Y-109223794D01*
X131513912Y-108994312D01*
X131733499Y-108722429D01*
X131907789Y-108409166D01*
X132037020Y-108048381D01*
X132118636Y-107632171D01*
X132147417Y-107151195D01*
X132119221Y-106666451D01*
X132039642Y-106250958D01*
X131914372Y-105894634D01*
X131746469Y-105588898D01*
X131536199Y-105327006D01*
X131282183Y-105106702D01*
X130985425Y-104931782D01*
X130639380Y-104801773D01*
X130235437Y-104719341D01*
X129763302Y-104690143D01*
X129335871Y-104714101D01*
X128969021Y-104781705D01*
X128654088Y-104888023D01*
X128383635Y-105030251D01*
X128139450Y-105218112D01*
X127934706Y-105444354D01*
X127766808Y-105712968D01*
X127635641Y-106030120D01*
X128523464Y-106272836D01*
X128622528Y-106047860D01*
X128768407Y-105857239D01*
X128965849Y-105696423D01*
X129194170Y-105579464D01*
X129451029Y-105507641D01*
X129742846Y-105482711D01*
X130080103Y-105512231D01*
X130358205Y-105595019D01*
X130588678Y-105726478D01*
X130779657Y-105907693D01*
X130925027Y-106126635D01*
X131035405Y-106398917D01*
X131107170Y-106735861D01*
X131133199Y-107151195D01*
X131106579Y-107572752D01*
X131033002Y-107916514D01*
X130919503Y-108195954D01*
X130769582Y-108422173D01*
X130572861Y-108609955D01*
X130337927Y-108745496D01*
X130057025Y-108830428D01*
X129719033Y-108860589D01*
G37*
G36*
X126915430Y-109575000D02*
G01*
X126915430Y-104768300D01*
X125907928Y-104768300D01*
X125907928Y-108796170D01*
X123325671Y-108796170D01*
X123325671Y-109575000D01*
X126915430Y-109575000D01*
G37*
G36*
X120856051Y-104719331D02*
G01*
X121257619Y-104802334D01*
X121607493Y-104934329D01*
X121913134Y-105113362D01*
X122180172Y-105340439D01*
X122403671Y-105609853D01*
X122580392Y-105918950D01*
X122710995Y-106273555D01*
X122793264Y-106681281D01*
X122822225Y-107151195D01*
X122793366Y-107621688D01*
X122711180Y-108032326D01*
X122580373Y-108391704D01*
X122402995Y-108707053D01*
X122178340Y-108983932D01*
X121909514Y-109218810D01*
X121603567Y-109403165D01*
X121255156Y-109538539D01*
X120857066Y-109623387D01*
X120400557Y-109653157D01*
X119916316Y-109617563D01*
X119489017Y-109515330D01*
X119109429Y-109350296D01*
X118848486Y-109181811D01*
X118621371Y-108981414D01*
X118425370Y-108747211D01*
X118259158Y-108475907D01*
X118097103Y-108084536D01*
X117996707Y-107645890D01*
X117961793Y-107151195D01*
X118990055Y-107151195D01*
X119016638Y-107564749D01*
X119090480Y-107905432D01*
X119205068Y-108185616D01*
X119357335Y-108415457D01*
X119555974Y-108607033D01*
X119790727Y-108744559D01*
X120068840Y-108830276D01*
X120400863Y-108860589D01*
X120718796Y-108830206D01*
X120990810Y-108743372D01*
X121226061Y-108602260D01*
X121430652Y-108403244D01*
X121588741Y-108166732D01*
X121706345Y-107885279D01*
X121781280Y-107550293D01*
X121808007Y-107151195D01*
X121781640Y-106754672D01*
X121708032Y-106424927D01*
X121593065Y-106150733D01*
X121439200Y-105922958D01*
X121239866Y-105733638D01*
X121004539Y-105597570D01*
X120726002Y-105512717D01*
X120393841Y-105482711D01*
X120067521Y-105512728D01*
X119792455Y-105597858D01*
X119558622Y-105734888D01*
X119359167Y-105926317D01*
X119204804Y-106155806D01*
X119089760Y-106430302D01*
X119016304Y-106758522D01*
X118990055Y-107151195D01*
X117961793Y-107151195D01*
X117990612Y-106687908D01*
X118072691Y-106283737D01*
X118203383Y-105930108D01*
X118380754Y-105619842D01*
X118605678Y-105347461D01*
X118873687Y-105117626D01*
X119180043Y-104936635D01*
X119530319Y-104803335D01*
X119931940Y-104719580D01*
X120393841Y-104690143D01*
X120856051Y-104719331D01*
G37*
G36*
X114952110Y-108860589D02*
G01*
X114658081Y-108834356D01*
X114405107Y-108759403D01*
X114185369Y-108638056D01*
X113993357Y-108468159D01*
X113826379Y-108243278D01*
X113684795Y-107953227D01*
X112807047Y-108282955D01*
X112971505Y-108618055D01*
X113164826Y-108897594D01*
X113386774Y-109128292D01*
X113638999Y-109314881D01*
X113918278Y-109459361D01*
X114227080Y-109564882D01*
X114569923Y-109630412D01*
X114952110Y-109653157D01*
X115421959Y-109623379D01*
X115827595Y-109538930D01*
X116178641Y-109405011D01*
X116483102Y-109223794D01*
X116746990Y-108994312D01*
X116966577Y-108722429D01*
X117140866Y-108409166D01*
X117270097Y-108048381D01*
X117351714Y-107632171D01*
X117380495Y-107151195D01*
X117352298Y-106666451D01*
X117272720Y-106250958D01*
X117147450Y-105894634D01*
X116979546Y-105588898D01*
X116769277Y-105327006D01*
X116515260Y-105106702D01*
X116218502Y-104931782D01*
X115872458Y-104801773D01*
X115468514Y-104719341D01*
X114996379Y-104690143D01*
X114568949Y-104714101D01*
X114202098Y-104781705D01*
X113887165Y-104888023D01*
X113616712Y-105030251D01*
X113372527Y-105218112D01*
X113167784Y-105444354D01*
X112999885Y-105712968D01*
X112868719Y-106030120D01*
X113756541Y-106272836D01*
X113855606Y-106047860D01*
X114001485Y-105857239D01*
X114198926Y-105696423D01*
X114427248Y-105579464D01*
X114684107Y-105507641D01*
X114975924Y-105482711D01*
X115313181Y-105512231D01*
X115591283Y-105595019D01*
X115821756Y-105726478D01*
X116012735Y-105907693D01*
X116158105Y-106126635D01*
X116268482Y-106398917D01*
X116340247Y-106735861D01*
X116366276Y-107151195D01*
X116339657Y-107572752D01*
X116266080Y-107916514D01*
X116152580Y-108195954D01*
X116002660Y-108422173D01*
X115805938Y-108609955D01*
X115571005Y-108745496D01*
X115290102Y-108830428D01*
X114952110Y-108860589D01*
G37*
G36*
X108818256Y-109575000D02*
G01*
X110546580Y-107367655D01*
X111141006Y-107821641D01*
X111141006Y-109575000D01*
X112148508Y-109575000D01*
X112148508Y-104768300D01*
X111141006Y-104768300D01*
X111141006Y-106948168D01*
X108972129Y-104768300D01*
X107797016Y-104768300D01*
X109853235Y-106801622D01*
X107629710Y-109575000D01*
X108818256Y-109575000D01*
G37*
D12*
X151533333Y-102116033D02*
X151533333Y-102682700D01*
X151533333Y-102682700D02*
X151500000Y-102749366D01*
X151500000Y-102749366D02*
X151466666Y-102782700D01*
X151466666Y-102782700D02*
X151400000Y-102816033D01*
X151400000Y-102816033D02*
X151266666Y-102816033D01*
X151266666Y-102816033D02*
X151200000Y-102782700D01*
X151200000Y-102782700D02*
X151166666Y-102749366D01*
X151166666Y-102749366D02*
X151133333Y-102682700D01*
X151133333Y-102682700D02*
X151133333Y-102116033D01*
X150433333Y-102816033D02*
X150833333Y-102816033D01*
X150633333Y-102816033D02*
X150633333Y-102116033D01*
X150633333Y-102116033D02*
X150700000Y-102216033D01*
X150700000Y-102216033D02*
X150766667Y-102282700D01*
X150766667Y-102282700D02*
X150833333Y-102316033D01*
D13*
%TO.C,G\u002A\u002A\u002A*%
G36*
X151040283Y-66082082D02*
G01*
X151106691Y-66122165D01*
X151146499Y-66188181D01*
X151147060Y-66227581D01*
X151125286Y-66285158D01*
X151086357Y-66339974D01*
X151038282Y-66377979D01*
X150984539Y-66392729D01*
X150913457Y-66379617D01*
X150848577Y-66331818D01*
X150813111Y-66273460D01*
X150809875Y-66202706D01*
X150845023Y-66127824D01*
X150871231Y-66096659D01*
X150909440Y-66076116D01*
X150968339Y-66071077D01*
X151040283Y-66082082D01*
G37*
G36*
X154934831Y-68774940D02*
G01*
X154997579Y-68806991D01*
X155043371Y-68869689D01*
X155058041Y-68927983D01*
X155043727Y-69002796D01*
X154991972Y-69071896D01*
X154941027Y-69106771D01*
X154875710Y-69121367D01*
X154815184Y-69107835D01*
X154764822Y-69072152D01*
X154729994Y-69020298D01*
X154716071Y-68958253D01*
X154728425Y-68891995D01*
X154772426Y-68827503D01*
X154794271Y-68808357D01*
X154864077Y-68774931D01*
X154934831Y-68774940D01*
G37*
G36*
X145794304Y-68814812D02*
G01*
X145866095Y-68847223D01*
X145915733Y-68901190D01*
X145936062Y-68967167D01*
X145924598Y-69036734D01*
X145878857Y-69101468D01*
X145817685Y-69144034D01*
X145747293Y-69155766D01*
X145668834Y-69130311D01*
X145656643Y-69123263D01*
X145606104Y-69073408D01*
X145576167Y-69008560D01*
X145570646Y-68941174D01*
X145593352Y-68883705D01*
X145606033Y-68870384D01*
X145663185Y-68835471D01*
X145732566Y-68814676D01*
X145794304Y-68814812D01*
G37*
G36*
X149741049Y-63530703D02*
G01*
X149803434Y-63566608D01*
X149849046Y-63622615D01*
X149866746Y-63687922D01*
X149856496Y-63739597D01*
X149818161Y-63802625D01*
X149762102Y-63844856D01*
X149713448Y-63856056D01*
X149646220Y-63854184D01*
X149584069Y-63838370D01*
X149543486Y-63811155D01*
X149527219Y-63782821D01*
X149516564Y-63715642D01*
X149533464Y-63646248D01*
X149572669Y-63584488D01*
X149628928Y-63540209D01*
X149696989Y-63523261D01*
X149741049Y-63530703D01*
G37*
G36*
X152367925Y-68776338D02*
G01*
X152433746Y-68823567D01*
X152470966Y-68877096D01*
X152485670Y-68948754D01*
X152464674Y-69017186D01*
X152408765Y-69074487D01*
X152366159Y-69102225D01*
X152332760Y-69115683D01*
X152300431Y-69110365D01*
X152252195Y-69087705D01*
X152252056Y-69087636D01*
X152187961Y-69037663D01*
X152157593Y-68972930D01*
X152162280Y-68900516D01*
X152203352Y-68827499D01*
X152235639Y-68796140D01*
X152300431Y-68767220D01*
X152367925Y-68776338D01*
G37*
G36*
X152358993Y-60989110D02*
G01*
X152418492Y-61037969D01*
X152452910Y-61077916D01*
X152483264Y-61145961D01*
X152475006Y-61213163D01*
X152428238Y-61282087D01*
X152387822Y-61315800D01*
X152318497Y-61341526D01*
X152249917Y-61336430D01*
X152190603Y-61303787D01*
X152149075Y-61246870D01*
X152133852Y-61168954D01*
X152141587Y-61107148D01*
X152171137Y-61054618D01*
X152230386Y-61004834D01*
X152252620Y-60990901D01*
X152306809Y-60973968D01*
X152358993Y-60989110D01*
G37*
G36*
X153614871Y-66058413D02*
G01*
X153683904Y-66092033D01*
X153724460Y-66140956D01*
X153739254Y-66206744D01*
X153721564Y-66274130D01*
X153671885Y-66333213D01*
X153658443Y-66343383D01*
X153591677Y-66377464D01*
X153530858Y-66375413D01*
X153468797Y-66337378D01*
X153460399Y-66329876D01*
X153424783Y-66281212D01*
X153414954Y-66217615D01*
X153415218Y-66207781D01*
X153435476Y-66136352D01*
X153481565Y-66084818D01*
X153544394Y-66057423D01*
X153614871Y-66058413D01*
G37*
G36*
X154947772Y-66077994D02*
G01*
X155008013Y-66112813D01*
X155048048Y-66168786D01*
X155064435Y-66236676D01*
X155053730Y-66307246D01*
X155012490Y-66371259D01*
X154969275Y-66404390D01*
X154905038Y-66423646D01*
X154843888Y-66414037D01*
X154791424Y-66381295D01*
X154753243Y-66331150D01*
X154734944Y-66269336D01*
X154742125Y-66201582D01*
X154780384Y-66133622D01*
X154798031Y-66114005D01*
X154844676Y-66080325D01*
X154900593Y-66071077D01*
X154947772Y-66077994D01*
G37*
G36*
X147186650Y-68792687D02*
G01*
X147235194Y-68820278D01*
X147274806Y-68870541D01*
X147287047Y-68943231D01*
X147286767Y-68952916D01*
X147267457Y-69022233D01*
X147225225Y-69084866D01*
X147170462Y-69124649D01*
X147125352Y-69130616D01*
X147062045Y-69115907D01*
X147008088Y-69081929D01*
X146985645Y-69043772D01*
X146972648Y-68978983D01*
X146975442Y-68909381D01*
X146995008Y-68852171D01*
X146998842Y-68846410D01*
X147051286Y-68801838D01*
X147119343Y-68782237D01*
X147186650Y-68792687D01*
G37*
G36*
X149706559Y-66071923D02*
G01*
X149764289Y-66086388D01*
X149806614Y-66124605D01*
X149843453Y-66194111D01*
X149850857Y-66212169D01*
X149864566Y-66265854D01*
X149853937Y-66310280D01*
X149816186Y-66362655D01*
X149771787Y-66403284D01*
X149707741Y-66425203D01*
X149641633Y-66408648D01*
X149575717Y-66353705D01*
X149555944Y-66328616D01*
X149520904Y-66254200D01*
X149518512Y-66184376D01*
X149546199Y-66126006D01*
X149601395Y-66085953D01*
X149681532Y-66071077D01*
X149706559Y-66071923D01*
G37*
G36*
X151034900Y-63582961D02*
G01*
X151090964Y-63619994D01*
X151124385Y-63648588D01*
X151149945Y-63689072D01*
X151156308Y-63744359D01*
X151148556Y-63801933D01*
X151115813Y-63870365D01*
X151064538Y-63910297D01*
X151000500Y-63921021D01*
X150934248Y-63902943D01*
X150874708Y-63858570D01*
X150830809Y-63790406D01*
X150823452Y-63770586D01*
X150817522Y-63709602D01*
X150844928Y-63657659D01*
X150908439Y-63608258D01*
X150940666Y-63589840D01*
X150990038Y-63573246D01*
X151034900Y-63582961D01*
G37*
G36*
X151095319Y-68810927D02*
G01*
X151139181Y-68865302D01*
X151154994Y-68943231D01*
X151146755Y-69010256D01*
X151110217Y-69082470D01*
X151046658Y-69128431D01*
X151006405Y-69138052D01*
X150936447Y-69129955D01*
X150871461Y-69097819D01*
X150822725Y-69048132D01*
X150801520Y-68987383D01*
X150801029Y-68978279D01*
X150802193Y-68901327D01*
X150819472Y-68851412D01*
X150859418Y-68818487D01*
X150928580Y-68792506D01*
X150946009Y-68787858D01*
X151029048Y-68783860D01*
X151095319Y-68810927D01*
G37*
G36*
X153605365Y-68808270D02*
G01*
X153673239Y-68833175D01*
X153720463Y-68880355D01*
X153744755Y-68940885D01*
X153743834Y-69005841D01*
X153715420Y-69066298D01*
X153657231Y-69113332D01*
X153643964Y-69119810D01*
X153593826Y-69135854D01*
X153547559Y-69129070D01*
X153488576Y-69097945D01*
X153447819Y-69068232D01*
X153427385Y-69032897D01*
X153422769Y-68977089D01*
X153425084Y-68941817D01*
X153450968Y-68868781D01*
X153503194Y-68822582D01*
X153578799Y-68806461D01*
X153605365Y-68808270D01*
G37*
G36*
X147213234Y-66085726D02*
G01*
X147238782Y-66117082D01*
X147250718Y-66141291D01*
X147262965Y-66208296D01*
X147257879Y-66282607D01*
X147237365Y-66349351D01*
X147203331Y-66393656D01*
X147195578Y-66398762D01*
X147126936Y-66421433D01*
X147057355Y-66412446D01*
X146996137Y-66376913D01*
X146952585Y-66319951D01*
X146936000Y-66246673D01*
X146938475Y-66216027D01*
X146968071Y-66147805D01*
X147028964Y-66100369D01*
X147118429Y-66076264D01*
X147130892Y-66074922D01*
X147182305Y-66073380D01*
X147213234Y-66085726D01*
G37*
G36*
X148445931Y-63574726D02*
G01*
X148502423Y-63602490D01*
X148504526Y-63604496D01*
X148529011Y-63651951D01*
X148538021Y-63720441D01*
X148531239Y-63795886D01*
X148508345Y-63864201D01*
X148503119Y-63873945D01*
X148477367Y-63907636D01*
X148444888Y-63918561D01*
X148397022Y-63907179D01*
X148325109Y-63873952D01*
X148304487Y-63862685D01*
X148238028Y-63808298D01*
X148206655Y-63746534D01*
X148211565Y-63681702D01*
X148253958Y-63618112D01*
X148303159Y-63586441D01*
X148374232Y-63569708D01*
X148445931Y-63574726D01*
G37*
G36*
X149751243Y-68775907D02*
G01*
X149815259Y-68818895D01*
X149826919Y-68831591D01*
X149862186Y-68899349D01*
X149862595Y-68970594D01*
X149829671Y-69037080D01*
X149764942Y-69090562D01*
X149734522Y-69107493D01*
X149717732Y-69117161D01*
X149715537Y-69116878D01*
X149689360Y-69107600D01*
X149643770Y-69089217D01*
X149615749Y-69075202D01*
X149559620Y-69023413D01*
X149536530Y-68958977D01*
X149547936Y-68889870D01*
X149595297Y-68824070D01*
X149615600Y-68806684D01*
X149684494Y-68771842D01*
X149751243Y-68775907D01*
G37*
G36*
X151047129Y-60962737D02*
G01*
X151103282Y-61001223D01*
X151141880Y-61065441D01*
X151155873Y-61152004D01*
X151150686Y-61192416D01*
X151114361Y-61265037D01*
X151048846Y-61320091D01*
X151038492Y-61325684D01*
X151003002Y-61339622D01*
X150969928Y-61335766D01*
X150921207Y-61313131D01*
X150866246Y-61269040D01*
X150821692Y-61198196D01*
X150804616Y-61120550D01*
X150805151Y-61113105D01*
X150824460Y-61063983D01*
X150864734Y-61012118D01*
X150910362Y-60976510D01*
X150980473Y-60953370D01*
X151047129Y-60962737D01*
G37*
G36*
X153678990Y-63559913D02*
G01*
X153750039Y-63594476D01*
X153756504Y-63602779D01*
X153769353Y-63644027D01*
X153774462Y-63701500D01*
X153769863Y-63760598D01*
X153750005Y-63806982D01*
X153706561Y-63856885D01*
X153659091Y-63896643D01*
X153607920Y-63913394D01*
X153556255Y-63895462D01*
X153496449Y-63842315D01*
X153479243Y-63822960D01*
X153437413Y-63755634D01*
X153431560Y-63693286D01*
X153460741Y-63630321D01*
X153463462Y-63626618D01*
X153522842Y-63577577D01*
X153598971Y-63554811D01*
X153678990Y-63559913D01*
G37*
G36*
X148504092Y-66081224D02*
G01*
X148549276Y-66132307D01*
X148566445Y-66170643D01*
X148568579Y-66207355D01*
X148550236Y-66254578D01*
X148539676Y-66275088D01*
X148485178Y-66347078D01*
X148420923Y-66389369D01*
X148388965Y-66399344D01*
X148363378Y-66395627D01*
X148327467Y-66372737D01*
X148288565Y-66334884D01*
X148253621Y-66283630D01*
X148242450Y-66260119D01*
X148233693Y-66216721D01*
X148247897Y-66169475D01*
X148260349Y-66145897D01*
X148311193Y-66091788D01*
X148375279Y-66062170D01*
X148442836Y-66058247D01*
X148504092Y-66081224D01*
G37*
G36*
X151006546Y-58451149D02*
G01*
X151059593Y-58470403D01*
X151107765Y-58516999D01*
X151142613Y-58579958D01*
X151155686Y-58648306D01*
X151152362Y-58685146D01*
X151120576Y-58758458D01*
X151054481Y-58813332D01*
X151031329Y-58825545D01*
X150993811Y-58837391D01*
X150958369Y-58828752D01*
X150908535Y-58797884D01*
X150877788Y-58773790D01*
X150849835Y-58734507D01*
X150838755Y-58680242D01*
X150840604Y-58599472D01*
X150848057Y-58567476D01*
X150885087Y-58510630D01*
X150941317Y-58467944D01*
X151003890Y-58451101D01*
X151006546Y-58451149D01*
G37*
G36*
X152324102Y-66077016D02*
G01*
X152394365Y-66111572D01*
X152404476Y-66119856D01*
X152430847Y-66150480D01*
X152442943Y-66191317D01*
X152445846Y-66256692D01*
X152445617Y-66281200D01*
X152440437Y-66336793D01*
X152424379Y-66372736D01*
X152392122Y-66403577D01*
X152364786Y-66420908D01*
X152292985Y-66437356D01*
X152219778Y-66420261D01*
X152155555Y-66371053D01*
X152134842Y-66344215D01*
X152117834Y-66299251D01*
X152120154Y-66238539D01*
X152143024Y-66165333D01*
X152190435Y-66107600D01*
X152253460Y-66076927D01*
X152324102Y-66077016D01*
G37*
G36*
X156262310Y-68810070D02*
G01*
X156303550Y-68828653D01*
X156342775Y-68871806D01*
X156353149Y-68886138D01*
X156381311Y-68934578D01*
X156392616Y-68970468D01*
X156390934Y-68987106D01*
X156371076Y-69043960D01*
X156337185Y-69100253D01*
X156299808Y-69137050D01*
X156296874Y-69138713D01*
X156229114Y-69156445D01*
X156160495Y-69142654D01*
X156100162Y-69103210D01*
X156057257Y-69043983D01*
X156040923Y-68970843D01*
X156043658Y-68933885D01*
X156071276Y-68864291D01*
X156127141Y-68821218D01*
X156209412Y-68806461D01*
X156262310Y-68810070D01*
G37*
G36*
X148431763Y-68813401D02*
G01*
X148473306Y-68824188D01*
X148501056Y-68850606D01*
X148529860Y-68902690D01*
X148539351Y-68922694D01*
X148559058Y-68993328D01*
X148547156Y-69056161D01*
X148502040Y-69123961D01*
X148495098Y-69131179D01*
X148445380Y-69153550D01*
X148381608Y-69152658D01*
X148315482Y-69131857D01*
X148258704Y-69094501D01*
X148222974Y-69043947D01*
X148220797Y-69037822D01*
X148211931Y-68965339D01*
X148227113Y-68892610D01*
X148262928Y-68837296D01*
X148271381Y-68830476D01*
X148319301Y-68811986D01*
X148392998Y-68810191D01*
X148431763Y-68813401D01*
G37*
G36*
X149742331Y-61007109D02*
G01*
X149806732Y-61063913D01*
X149823694Y-61085719D01*
X149859592Y-61154574D01*
X149860249Y-61218714D01*
X149826362Y-61286022D01*
X149820138Y-61294554D01*
X149789921Y-61325618D01*
X149751694Y-61339551D01*
X149690043Y-61342769D01*
X149686916Y-61342765D01*
X149625918Y-61339041D01*
X149589141Y-61324766D01*
X149562614Y-61294667D01*
X149560195Y-61290806D01*
X149536392Y-61235778D01*
X149521134Y-61172285D01*
X149518089Y-61134078D01*
X149528615Y-61088908D01*
X149564634Y-61044540D01*
X149608484Y-61009595D01*
X149675685Y-60988958D01*
X149742331Y-61007109D01*
G37*
G36*
X152375502Y-63514200D02*
G01*
X152391110Y-63523313D01*
X152435447Y-63567365D01*
X152470609Y-63624609D01*
X152484923Y-63677615D01*
X152478619Y-63709618D01*
X152452749Y-63764320D01*
X152416457Y-63814610D01*
X152380206Y-63843875D01*
X152355135Y-63852352D01*
X152276366Y-63856158D01*
X152209349Y-63823963D01*
X152159634Y-63757929D01*
X152155842Y-63749922D01*
X152139039Y-63705881D01*
X152141890Y-63671765D01*
X152165314Y-63626292D01*
X152167281Y-63623010D01*
X152211392Y-63568655D01*
X152263674Y-63526331D01*
X152292193Y-63511143D01*
X152332928Y-63501612D01*
X152375502Y-63514200D01*
G37*
G36*
X150451949Y-66236628D02*
G01*
X150434709Y-66333459D01*
X150430191Y-66348512D01*
X150411496Y-66412598D01*
X150391991Y-66481384D01*
X150390112Y-66488001D01*
X150354738Y-66579962D01*
X150300646Y-66666872D01*
X150220282Y-66761038D01*
X150109692Y-66856054D01*
X149964666Y-66932354D01*
X149798385Y-66976304D01*
X149721249Y-66982515D01*
X149590447Y-66971946D01*
X149460413Y-66939275D01*
X149343312Y-66887947D01*
X149251308Y-66821405D01*
X149158901Y-66725306D01*
X149069952Y-66609165D01*
X149010899Y-66494122D01*
X148978122Y-66372719D01*
X148968205Y-66240229D01*
X149241539Y-66240229D01*
X149243549Y-66294213D01*
X149268108Y-66417542D01*
X149322834Y-66521951D01*
X149410550Y-66611793D01*
X149534079Y-66691423D01*
X149592819Y-66714658D01*
X149663362Y-66730276D01*
X149732247Y-66736355D01*
X149787694Y-66731883D01*
X149817923Y-66715846D01*
X149825670Y-66707694D01*
X149859518Y-66696308D01*
X149881222Y-66693071D01*
X149939721Y-66663984D01*
X150003864Y-66610861D01*
X150065351Y-66541263D01*
X150115885Y-66462749D01*
X150161800Y-66353394D01*
X150180665Y-66236249D01*
X150163713Y-66122125D01*
X150110247Y-66006852D01*
X150019570Y-65886262D01*
X149949713Y-65823590D01*
X149855287Y-65780238D01*
X149742773Y-65767736D01*
X149608011Y-65785058D01*
X149477761Y-65827008D01*
X149373398Y-65893355D01*
X149299692Y-65983780D01*
X149255964Y-66099125D01*
X149241539Y-66240229D01*
X148968205Y-66240229D01*
X148968000Y-66237494D01*
X148968041Y-66219927D01*
X148970828Y-66131069D01*
X148980430Y-66061732D01*
X149000249Y-65995203D01*
X149033687Y-65914769D01*
X149044883Y-65892111D01*
X149100707Y-65808462D01*
X149173938Y-65726256D01*
X149251405Y-65660853D01*
X149301181Y-65626911D01*
X149378651Y-65578132D01*
X149443457Y-65546882D01*
X149507707Y-65529161D01*
X149583512Y-65520969D01*
X149682980Y-65518308D01*
X149704137Y-65518099D01*
X149790345Y-65518379D01*
X149852241Y-65522645D01*
X149902127Y-65533312D01*
X149952301Y-65552794D01*
X150015064Y-65583507D01*
X150067584Y-65612188D01*
X150202517Y-65708343D01*
X150309245Y-65820676D01*
X150382559Y-65944077D01*
X150410967Y-66015131D01*
X150444409Y-66133311D01*
X150451921Y-66236249D01*
X150451949Y-66236628D01*
G37*
G36*
X153032000Y-61152391D02*
G01*
X153031374Y-61228476D01*
X153027456Y-61300851D01*
X153017772Y-61357270D01*
X152999876Y-61410694D01*
X152971326Y-61474083D01*
X152935374Y-61541857D01*
X152888200Y-61617190D01*
X152844908Y-61673985D01*
X152798550Y-61715665D01*
X152711535Y-61772522D01*
X152607759Y-61824650D01*
X152499770Y-61865949D01*
X152400113Y-61890315D01*
X152380274Y-61893130D01*
X152212656Y-61899119D01*
X152061713Y-61870159D01*
X151926107Y-61805638D01*
X151804501Y-61704943D01*
X151695559Y-61567461D01*
X151671200Y-61530127D01*
X151627569Y-61460901D01*
X151594329Y-61405052D01*
X151577232Y-61372077D01*
X151554573Y-61295020D01*
X151542110Y-61155203D01*
X151550432Y-61084322D01*
X151821791Y-61084322D01*
X151822908Y-61204489D01*
X151856346Y-61324403D01*
X151920312Y-61437110D01*
X152013016Y-61535655D01*
X152039939Y-61557856D01*
X152086066Y-61591163D01*
X152129410Y-61610510D01*
X152183915Y-61621028D01*
X152263527Y-61627850D01*
X152300815Y-61630083D01*
X152381564Y-61629870D01*
X152446057Y-61617329D01*
X152504530Y-61587970D01*
X152567221Y-61537303D01*
X152644368Y-61460840D01*
X152681446Y-61421942D01*
X152722953Y-61373361D01*
X152746992Y-61331842D01*
X152760027Y-61284834D01*
X152768522Y-61219786D01*
X152771655Y-61186506D01*
X152772743Y-61076287D01*
X152754657Y-60983747D01*
X152715067Y-60894706D01*
X152706070Y-60878740D01*
X152668260Y-60820021D01*
X152627309Y-60776838D01*
X152572084Y-60739393D01*
X152491454Y-60697886D01*
X152461048Y-60683343D01*
X152403040Y-60658307D01*
X152359117Y-60647660D01*
X152314449Y-60649040D01*
X152254203Y-60660083D01*
X152190764Y-60674844D01*
X152083524Y-60712785D01*
X151999784Y-60766999D01*
X151929652Y-60844925D01*
X151863235Y-60954000D01*
X151854784Y-60970858D01*
X151821791Y-61084322D01*
X151550432Y-61084322D01*
X151559247Y-61009237D01*
X151603188Y-60865263D01*
X151671133Y-60731422D01*
X151760284Y-60615854D01*
X151867842Y-60526700D01*
X151978219Y-60467744D01*
X152142056Y-60416106D01*
X152311538Y-60402405D01*
X152483986Y-60426767D01*
X152656724Y-60489320D01*
X152668815Y-60495190D01*
X152729151Y-60530088D01*
X152783812Y-60574487D01*
X152841438Y-60636361D01*
X152910670Y-60723684D01*
X152913516Y-60727446D01*
X152964525Y-60801168D01*
X152998745Y-60869453D01*
X153019309Y-60943372D01*
X153029350Y-61033995D01*
X153030297Y-61076287D01*
X153032000Y-61152391D01*
G37*
G36*
X151780926Y-63775685D02*
G01*
X151750661Y-63921846D01*
X151714799Y-64019266D01*
X151670500Y-64115603D01*
X151622130Y-64189074D01*
X151563668Y-64248433D01*
X151489098Y-64302438D01*
X151482713Y-64306506D01*
X151410267Y-64349662D01*
X151342122Y-64385636D01*
X151292261Y-64406999D01*
X151227673Y-64427669D01*
X151166077Y-64447269D01*
X151103068Y-64461761D01*
X150968948Y-64463675D01*
X150818402Y-64431960D01*
X150653223Y-64366897D01*
X150617783Y-64348819D01*
X150490215Y-64257510D01*
X150389537Y-64137898D01*
X150315973Y-63990231D01*
X150300857Y-63950628D01*
X150279510Y-63896504D01*
X150278672Y-63894322D01*
X150267912Y-63844320D01*
X150261003Y-63771325D01*
X150258092Y-63687697D01*
X150258302Y-63673766D01*
X150518949Y-63673766D01*
X150520826Y-63778907D01*
X150546404Y-63873740D01*
X150606145Y-63986445D01*
X150689478Y-64082523D01*
X150788627Y-64151168D01*
X150868053Y-64181137D01*
X150957928Y-64199863D01*
X151044705Y-64205395D01*
X151117418Y-64197061D01*
X151165100Y-64174192D01*
X151172340Y-64168531D01*
X151210098Y-64156308D01*
X151217809Y-64155551D01*
X151263688Y-64136249D01*
X151320293Y-64097393D01*
X151376201Y-64047712D01*
X151419988Y-63995934D01*
X151440741Y-63956846D01*
X151468480Y-63877556D01*
X151489509Y-63784061D01*
X151513943Y-63638538D01*
X151450106Y-63506221D01*
X151390635Y-63401257D01*
X151321137Y-63322028D01*
X151239520Y-63271876D01*
X151139626Y-63245631D01*
X151124784Y-63243521D01*
X151049524Y-63235084D01*
X150990308Y-63235677D01*
X150929555Y-63246769D01*
X150849685Y-63269825D01*
X150816927Y-63281058D01*
X150761621Y-63308896D01*
X150710019Y-63351393D01*
X150649760Y-63417691D01*
X150609791Y-63468171D01*
X150547779Y-63572501D01*
X150518949Y-63673766D01*
X150258302Y-63673766D01*
X150259324Y-63605797D01*
X150264843Y-63537984D01*
X150274798Y-63496619D01*
X150293306Y-63459098D01*
X150317798Y-63407800D01*
X150338912Y-63372485D01*
X150391235Y-63306890D01*
X150459822Y-63234456D01*
X150535140Y-63164421D01*
X150607659Y-63106026D01*
X150667846Y-63068507D01*
X150671972Y-63066565D01*
X150769079Y-63025300D01*
X150856364Y-63000070D01*
X150949984Y-62987446D01*
X151066097Y-62984000D01*
X151095054Y-62984315D01*
X151230928Y-62997656D01*
X151344840Y-63034121D01*
X151447735Y-63098489D01*
X151550554Y-63195537D01*
X151653418Y-63326427D01*
X151731227Y-63474062D01*
X151774089Y-63625119D01*
X151774698Y-63638538D01*
X151780926Y-63775685D01*
G37*
G36*
X153029077Y-66325304D02*
G01*
X153023760Y-66393095D01*
X153008699Y-66459935D01*
X152981442Y-66534519D01*
X152939534Y-66625542D01*
X152880522Y-66741700D01*
X152822493Y-66815379D01*
X152724964Y-66882586D01*
X152589639Y-66940000D01*
X152416539Y-66987612D01*
X152403330Y-66990452D01*
X152343547Y-67001251D01*
X152299308Y-67006274D01*
X152259949Y-67003746D01*
X152183536Y-66990181D01*
X152094335Y-66968090D01*
X152006012Y-66940973D01*
X151932233Y-66912327D01*
X151882245Y-66886272D01*
X151817517Y-66844700D01*
X151760120Y-66800394D01*
X151719071Y-66760458D01*
X151703385Y-66731996D01*
X151699142Y-66718797D01*
X151677891Y-66679389D01*
X151644769Y-66627923D01*
X151623395Y-66595004D01*
X151596619Y-66546390D01*
X151586154Y-66515964D01*
X151583309Y-66500553D01*
X151562016Y-66465062D01*
X151556879Y-66457352D01*
X151545530Y-66413233D01*
X151539240Y-66345119D01*
X151537962Y-66263951D01*
X151540534Y-66205873D01*
X151791663Y-66205873D01*
X151791983Y-66290952D01*
X151816962Y-66370481D01*
X151869892Y-66473201D01*
X151939989Y-66569562D01*
X152020422Y-66651720D01*
X152104358Y-66711834D01*
X152184964Y-66742058D01*
X152212201Y-66746097D01*
X152321611Y-66749783D01*
X152424527Y-66728314D01*
X152536301Y-66678933D01*
X152541141Y-66676343D01*
X152640336Y-66606110D01*
X152709177Y-66517216D01*
X152750015Y-66405426D01*
X152765199Y-66266503D01*
X152761857Y-66176225D01*
X152733628Y-66051948D01*
X152675873Y-65950304D01*
X152587053Y-65867847D01*
X152535328Y-65835412D01*
X152407986Y-65785802D01*
X152276408Y-65773344D01*
X152145818Y-65798111D01*
X152021441Y-65860171D01*
X151943412Y-65925983D01*
X151872358Y-66014039D01*
X151820114Y-66110452D01*
X151791663Y-66205873D01*
X151540534Y-66205873D01*
X151541650Y-66180671D01*
X151550259Y-66106219D01*
X151563743Y-66051538D01*
X151577443Y-66016974D01*
X151642322Y-65878931D01*
X151715502Y-65770545D01*
X151804585Y-65684084D01*
X151917177Y-65611816D01*
X152060881Y-65546008D01*
X152087931Y-65538615D01*
X152154032Y-65530058D01*
X152238327Y-65525473D01*
X152329402Y-65524849D01*
X152415841Y-65528169D01*
X152486228Y-65535421D01*
X152529150Y-65546589D01*
X152561989Y-65563440D01*
X152611923Y-65588716D01*
X152630164Y-65597919D01*
X152695210Y-65633658D01*
X152747009Y-65669913D01*
X152804226Y-65719363D01*
X152820478Y-65734370D01*
X152897884Y-65814964D01*
X152952786Y-65894579D01*
X152989519Y-65983145D01*
X153012418Y-66090589D01*
X153025818Y-66226839D01*
X153027106Y-66247866D01*
X153027580Y-66266503D01*
X153029077Y-66325304D01*
G37*
G36*
X155650154Y-66240510D02*
G01*
X155636100Y-66387912D01*
X155590820Y-66527804D01*
X155511793Y-66661608D01*
X155396508Y-66794814D01*
X155386524Y-66804791D01*
X155320489Y-66866731D01*
X155261903Y-66909971D01*
X155199198Y-66940287D01*
X155120805Y-66963457D01*
X155015154Y-66985260D01*
X154980362Y-66991711D01*
X154927261Y-67001299D01*
X154897916Y-67006232D01*
X154877809Y-67005990D01*
X154822206Y-66997531D01*
X154749610Y-66981722D01*
X154672541Y-66961667D01*
X154603517Y-66940470D01*
X154555057Y-66921233D01*
X154478288Y-66875473D01*
X154365835Y-66781838D01*
X154269027Y-66669016D01*
X154193232Y-66544858D01*
X154143818Y-66417214D01*
X154126154Y-66293938D01*
X154126626Y-66277290D01*
X154395271Y-66277290D01*
X154403595Y-66366339D01*
X154424389Y-66434007D01*
X154424898Y-66434972D01*
X154458697Y-66483109D01*
X154510209Y-66539563D01*
X154570822Y-66596721D01*
X154631924Y-66646972D01*
X154684903Y-66682705D01*
X154721147Y-66696308D01*
X154732868Y-66697830D01*
X154761154Y-66715846D01*
X154777236Y-66727184D01*
X154825730Y-66736004D01*
X154893548Y-66735552D01*
X154969704Y-66726734D01*
X155043209Y-66710457D01*
X155103077Y-66687628D01*
X155168722Y-66647732D01*
X155249344Y-66583078D01*
X155313412Y-66513825D01*
X155351038Y-66449470D01*
X155374912Y-66381674D01*
X155400703Y-66298426D01*
X155412389Y-66235469D01*
X155410376Y-66183083D01*
X155395071Y-66131549D01*
X155366883Y-66071148D01*
X155342390Y-66025842D01*
X155256762Y-65906898D01*
X155157052Y-65823560D01*
X155041337Y-65774518D01*
X154907692Y-65758461D01*
X154818431Y-65765001D01*
X154705529Y-65798184D01*
X154703302Y-65799241D01*
X154621187Y-65850163D01*
X154539658Y-65920064D01*
X154470487Y-65997479D01*
X154425450Y-66070941D01*
X154415848Y-66097600D01*
X154399370Y-66182498D01*
X154395271Y-66277290D01*
X154126626Y-66277290D01*
X154126720Y-66273991D01*
X154137138Y-66187311D01*
X154157672Y-66090293D01*
X154184370Y-65999395D01*
X154213279Y-65931075D01*
X154226993Y-65907670D01*
X154293150Y-65814780D01*
X154372414Y-65726294D01*
X154454816Y-65652503D01*
X154530386Y-65603700D01*
X154565232Y-65586980D01*
X154621524Y-65559660D01*
X154658312Y-65541400D01*
X154686388Y-65531366D01*
X154738435Y-65524000D01*
X154789663Y-65517504D01*
X154848216Y-65501834D01*
X154882668Y-65492705D01*
X154942249Y-65490663D01*
X155022093Y-65503864D01*
X155077354Y-65517758D01*
X155239724Y-65581726D01*
X155379382Y-65673039D01*
X155493290Y-65788135D01*
X155578412Y-65923453D01*
X155631713Y-66075432D01*
X155649591Y-66235469D01*
X155650154Y-66240510D01*
G37*
G36*
X154359979Y-63698817D02*
G01*
X154357007Y-63775667D01*
X154349763Y-63846661D01*
X154338331Y-63900920D01*
X154301593Y-64010198D01*
X154266992Y-64096130D01*
X154231627Y-64161446D01*
X154190617Y-64215089D01*
X154139081Y-64266002D01*
X154038834Y-64345050D01*
X153918682Y-64408662D01*
X153784231Y-64446443D01*
X153748755Y-64453018D01*
X153700039Y-64462044D01*
X153676769Y-64466351D01*
X153675267Y-64466557D01*
X153641255Y-64464620D01*
X153581887Y-64456650D01*
X153508874Y-64444685D01*
X153433927Y-64430761D01*
X153368758Y-64416916D01*
X153325077Y-64405185D01*
X153278402Y-64386812D01*
X153176596Y-64332869D01*
X153084511Y-64267063D01*
X153016482Y-64198971D01*
X153008321Y-64188250D01*
X152928310Y-64050962D01*
X152881827Y-63896972D01*
X152869042Y-63737628D01*
X153114231Y-63737628D01*
X153128539Y-63858936D01*
X153174658Y-63970204D01*
X153251927Y-64066362D01*
X153359682Y-64142340D01*
X153368135Y-64146598D01*
X153450087Y-64177194D01*
X153544202Y-64198549D01*
X153634769Y-64207929D01*
X153706077Y-64202602D01*
X153753501Y-64189454D01*
X153880689Y-64131546D01*
X153980553Y-64046331D01*
X154054283Y-63932566D01*
X154103071Y-63789013D01*
X154111720Y-63686399D01*
X154086749Y-63569038D01*
X154026477Y-63455642D01*
X153932746Y-63350949D01*
X153853415Y-63289800D01*
X153762933Y-63248931D01*
X153662038Y-63236084D01*
X153539920Y-63248438D01*
X153510645Y-63253755D01*
X153418644Y-63274332D01*
X153352875Y-63298357D01*
X153303185Y-63330415D01*
X153259420Y-63375090D01*
X153183701Y-63485171D01*
X153132398Y-63611350D01*
X153114231Y-63737628D01*
X152869042Y-63737628D01*
X152867876Y-63723095D01*
X152868102Y-63706156D01*
X152872486Y-63610536D01*
X152884573Y-63532628D01*
X152908137Y-63455150D01*
X152946950Y-63360820D01*
X152963684Y-63329511D01*
X153019430Y-63255806D01*
X153094090Y-63180000D01*
X153176800Y-63112513D01*
X153256692Y-63063766D01*
X153295532Y-63045126D01*
X153351929Y-63018011D01*
X153388312Y-63000457D01*
X153399356Y-62997022D01*
X153447269Y-62990349D01*
X153518411Y-62985728D01*
X153601848Y-62984000D01*
X153605060Y-62984002D01*
X153752144Y-62990705D01*
X153871988Y-63013050D01*
X153974494Y-63055073D01*
X154069568Y-63120809D01*
X154167113Y-63214292D01*
X154186649Y-63235632D01*
X154235589Y-63294523D01*
X154269671Y-63343732D01*
X154282462Y-63374331D01*
X154285481Y-63396007D01*
X154302000Y-63423615D01*
X154314163Y-63441317D01*
X154321539Y-63482231D01*
X154325814Y-63513845D01*
X154341077Y-63540846D01*
X154342433Y-63541913D01*
X154352775Y-63571061D01*
X154358596Y-63626988D01*
X154359740Y-63686399D01*
X154359979Y-63698817D01*
G37*
G36*
X146543164Y-68996110D02*
G01*
X146524017Y-69087626D01*
X146484217Y-69182312D01*
X146475712Y-69203253D01*
X146467077Y-69247176D01*
X146466321Y-69257119D01*
X146444482Y-69313894D01*
X146397305Y-69382895D01*
X146331321Y-69457311D01*
X146253056Y-69530330D01*
X146169041Y-69595142D01*
X146085805Y-69644935D01*
X146035565Y-69668613D01*
X145984867Y-69687015D01*
X145931309Y-69697568D01*
X145862825Y-69702512D01*
X145767346Y-69704089D01*
X145676565Y-69703756D01*
X145607505Y-69700002D01*
X145553770Y-69690618D01*
X145503184Y-69673428D01*
X145443574Y-69646260D01*
X145329170Y-69580302D01*
X145212551Y-69478802D01*
X145121315Y-69351667D01*
X145051353Y-69194163D01*
X145050642Y-69192075D01*
X145038091Y-69136681D01*
X145028879Y-69061999D01*
X145023231Y-68977708D01*
X145022503Y-68944759D01*
X145291045Y-68944759D01*
X145296878Y-69074296D01*
X145336850Y-69193302D01*
X145340666Y-69200459D01*
X145382078Y-69261695D01*
X145436406Y-69323690D01*
X145494906Y-69378189D01*
X145548834Y-69416941D01*
X145589444Y-69431692D01*
X145608939Y-69434403D01*
X145636692Y-69451231D01*
X145643490Y-69456593D01*
X145681825Y-69465515D01*
X145741136Y-69468911D01*
X145808930Y-69466945D01*
X145872716Y-69459776D01*
X145920000Y-69447566D01*
X145965598Y-69427823D01*
X146042326Y-69388860D01*
X146100713Y-69346085D01*
X146153150Y-69289354D01*
X146212027Y-69208526D01*
X146216156Y-69202492D01*
X146245864Y-69154063D01*
X146262618Y-69109232D01*
X146270025Y-69053794D01*
X146271692Y-68973543D01*
X146271086Y-68926259D01*
X146264843Y-68850986D01*
X146249033Y-68789999D01*
X146220225Y-68726850D01*
X146172159Y-68650530D01*
X146078465Y-68554848D01*
X145967254Y-68490208D01*
X145844027Y-68458556D01*
X145714288Y-68461834D01*
X145583541Y-68501985D01*
X145581078Y-68503116D01*
X145502176Y-68545371D01*
X145442888Y-68594307D01*
X145393335Y-68660286D01*
X145343640Y-68753671D01*
X145319223Y-68812943D01*
X145291045Y-68944759D01*
X145022503Y-68944759D01*
X145021371Y-68893490D01*
X145023525Y-68819025D01*
X145029916Y-68763994D01*
X145040769Y-68738077D01*
X145050801Y-68726779D01*
X145060308Y-68690311D01*
X145064458Y-68662218D01*
X145094667Y-68594876D01*
X145148880Y-68517369D01*
X145220849Y-68436396D01*
X145304324Y-68358653D01*
X145393057Y-68290838D01*
X145480799Y-68239648D01*
X145486379Y-68236999D01*
X145569964Y-68202595D01*
X145645634Y-68185716D01*
X145735791Y-68181231D01*
X145876910Y-68192317D01*
X146027378Y-68234955D01*
X146166851Y-68311870D01*
X146300882Y-68425461D01*
X146316999Y-68441777D01*
X146372581Y-68501930D01*
X146416419Y-68555166D01*
X146440171Y-68591538D01*
X146470945Y-68663482D01*
X146517203Y-68791748D01*
X146541085Y-68900054D01*
X146542676Y-68973543D01*
X146543164Y-68996110D01*
G37*
G36*
X154356488Y-69071461D02*
G01*
X154349780Y-69124662D01*
X154341077Y-69148384D01*
X154330948Y-69159906D01*
X154321539Y-69196537D01*
X154314294Y-69232334D01*
X154288153Y-69292396D01*
X154248687Y-69361275D01*
X154201957Y-69430168D01*
X154154026Y-69490275D01*
X154110958Y-69532794D01*
X154078814Y-69548923D01*
X154053700Y-69558656D01*
X154018692Y-69588000D01*
X153990233Y-69613900D01*
X153963472Y-69627077D01*
X153941510Y-69635308D01*
X153905920Y-69661269D01*
X153879401Y-69677598D01*
X153816015Y-69694908D01*
X153718767Y-69705721D01*
X153592792Y-69711207D01*
X153445900Y-69705280D01*
X153324557Y-69681792D01*
X153222412Y-69638643D01*
X153133111Y-69573736D01*
X153050302Y-69484974D01*
X152987931Y-69402853D01*
X152932284Y-69311906D01*
X152891003Y-69215137D01*
X152855790Y-69095951D01*
X152846161Y-69052666D01*
X152845174Y-69043354D01*
X153109124Y-69043354D01*
X153122671Y-69148224D01*
X153151241Y-69231436D01*
X153160490Y-69247340D01*
X153203214Y-69302721D01*
X153248222Y-69341428D01*
X153294912Y-69371602D01*
X153329251Y-69398184D01*
X153356883Y-69418847D01*
X153403231Y-69444940D01*
X153494313Y-69474407D01*
X153615092Y-69479056D01*
X153738640Y-69449453D01*
X153859392Y-69387081D01*
X153971785Y-69293423D01*
X154014380Y-69245606D01*
X154083715Y-69133368D01*
X154114355Y-69016904D01*
X154106190Y-68896532D01*
X154098340Y-68864556D01*
X154076590Y-68790959D01*
X154054759Y-68732400D01*
X154034223Y-68694197D01*
X153996189Y-68638513D01*
X153953575Y-68586462D01*
X153914678Y-68547960D01*
X153887800Y-68532923D01*
X153887391Y-68532915D01*
X153858392Y-68522243D01*
X153816555Y-68497391D01*
X153805422Y-68490348D01*
X153746709Y-68461507D01*
X153680928Y-68437774D01*
X153603974Y-68426318D01*
X153504678Y-68443725D01*
X153400215Y-68498018D01*
X153398712Y-68499026D01*
X153358883Y-68523001D01*
X153334465Y-68532923D01*
X153332345Y-68533160D01*
X153304941Y-68551598D01*
X153265452Y-68592851D01*
X153221427Y-68647612D01*
X153180414Y-68706571D01*
X153149964Y-68760420D01*
X153127251Y-68826362D01*
X153110637Y-68931256D01*
X153109124Y-69043354D01*
X152845174Y-69043354D01*
X152841179Y-69005652D01*
X152842866Y-68950995D01*
X152851610Y-68878481D01*
X152867795Y-68777896D01*
X152886303Y-68711656D01*
X152933452Y-68611505D01*
X152999203Y-68508593D01*
X153076112Y-68412971D01*
X153156736Y-68334692D01*
X153233633Y-68283808D01*
X153401135Y-68219246D01*
X153560173Y-68188562D01*
X153709397Y-68194498D01*
X153852104Y-68237621D01*
X153991589Y-68318493D01*
X154131152Y-68437682D01*
X154204372Y-68514615D01*
X154279637Y-68614598D01*
X154327696Y-68715501D01*
X154353153Y-68827850D01*
X154360616Y-68962173D01*
X154360194Y-68998368D01*
X154359254Y-69016904D01*
X154356488Y-69071461D01*
G37*
G36*
X151771328Y-58715075D02*
G01*
X151749535Y-58799929D01*
X151711755Y-58894839D01*
X151654697Y-59010728D01*
X151615851Y-59077831D01*
X151541656Y-59170916D01*
X151449958Y-59244132D01*
X151333648Y-59302644D01*
X151185616Y-59351620D01*
X151170070Y-59354991D01*
X151101385Y-59360627D01*
X151012697Y-59359584D01*
X150917839Y-59352734D01*
X150830649Y-59340949D01*
X150764961Y-59325101D01*
X150731245Y-59310791D01*
X150654830Y-59267082D01*
X150574119Y-59210193D01*
X150502408Y-59149892D01*
X150452995Y-59095947D01*
X150430596Y-59061725D01*
X150392966Y-58998350D01*
X150354998Y-58929327D01*
X150336420Y-58892785D01*
X150315175Y-58841618D01*
X150303161Y-58790105D01*
X150297826Y-58725347D01*
X150296990Y-58662516D01*
X150532780Y-58662516D01*
X150553301Y-58738419D01*
X150593917Y-58824288D01*
X150629014Y-58884567D01*
X150678476Y-58948809D01*
X150738677Y-59000144D01*
X150818705Y-59045902D01*
X150927650Y-59093413D01*
X150996546Y-59111454D01*
X151095290Y-59106155D01*
X151205796Y-59066346D01*
X151300334Y-59010624D01*
X151389207Y-58932943D01*
X151447342Y-58848638D01*
X151469809Y-58801575D01*
X151490741Y-58759073D01*
X151500103Y-58733825D01*
X151509581Y-58659794D01*
X151505418Y-58570642D01*
X151488806Y-58480580D01*
X151460937Y-58403814D01*
X151430736Y-58349428D01*
X151382447Y-58280199D01*
X151336717Y-58233650D01*
X151299441Y-58216615D01*
X151289163Y-58215301D01*
X151273539Y-58200702D01*
X151273489Y-58199671D01*
X151254613Y-58176178D01*
X151209436Y-58149674D01*
X151149334Y-58124888D01*
X151085680Y-58106548D01*
X151029848Y-58099384D01*
X150991386Y-58101549D01*
X150878382Y-58130033D01*
X150770946Y-58186260D01*
X150680008Y-58263474D01*
X150616496Y-58354918D01*
X150596457Y-58397645D01*
X150553892Y-58501826D01*
X150532822Y-58586884D01*
X150532780Y-58662516D01*
X150296990Y-58662516D01*
X150296616Y-58634443D01*
X150297078Y-58592150D01*
X150300545Y-58512489D01*
X150306667Y-58450396D01*
X150314557Y-58416619D01*
X150334827Y-58375634D01*
X150361770Y-58316206D01*
X150387311Y-58255956D01*
X150406365Y-58206942D01*
X150413846Y-58181221D01*
X150416251Y-58175955D01*
X150440161Y-58148108D01*
X150484224Y-58104515D01*
X150541663Y-58052025D01*
X150594931Y-58007136D01*
X150695458Y-57938232D01*
X150796845Y-57894533D01*
X150911220Y-57871583D01*
X151050711Y-57864923D01*
X151105714Y-57865276D01*
X151179209Y-57868800D01*
X151235645Y-57878542D01*
X151289017Y-57897437D01*
X151353319Y-57928423D01*
X151374980Y-57939745D01*
X151477865Y-58004088D01*
X151560422Y-58079140D01*
X151631357Y-58174213D01*
X151699375Y-58298620D01*
X151711617Y-58323892D01*
X151747667Y-58403974D01*
X151768866Y-58466504D01*
X151778849Y-58524461D01*
X151781254Y-58590822D01*
X151780427Y-58629357D01*
X151777196Y-58659794D01*
X151771328Y-58715075D01*
G37*
G36*
X149163385Y-68962769D02*
G01*
X149163249Y-68980985D01*
X149159924Y-69052150D01*
X149153052Y-69104873D01*
X149143846Y-69128846D01*
X149131599Y-69146885D01*
X149124308Y-69188020D01*
X149122030Y-69210684D01*
X149096647Y-69282051D01*
X149048135Y-69364368D01*
X148982761Y-69449132D01*
X148906795Y-69527843D01*
X148826503Y-69591997D01*
X148793857Y-69613287D01*
X148687986Y-69671539D01*
X148567462Y-69719783D01*
X148478326Y-69738520D01*
X148354825Y-69733165D01*
X148212609Y-69696689D01*
X148049692Y-69628744D01*
X148035533Y-69621845D01*
X147963705Y-69582320D01*
X147908501Y-69539574D01*
X147858422Y-69483098D01*
X147801966Y-69402384D01*
X147780060Y-69368764D01*
X147730081Y-69285367D01*
X147697844Y-69213651D01*
X147679775Y-69140963D01*
X147672295Y-69054652D01*
X147672251Y-69044141D01*
X147911876Y-69044141D01*
X147918000Y-69100014D01*
X147932462Y-69128846D01*
X147942799Y-69140866D01*
X147952000Y-69177856D01*
X147952528Y-69182539D01*
X147971068Y-69219472D01*
X148009839Y-69269791D01*
X148060265Y-69324117D01*
X148113768Y-69373069D01*
X148161774Y-69407269D01*
X148196610Y-69422234D01*
X148243659Y-69431692D01*
X148266383Y-69434856D01*
X148293923Y-69451231D01*
X148309724Y-69459847D01*
X148355934Y-69466804D01*
X148419239Y-69468452D01*
X148487195Y-69465080D01*
X148547355Y-69456977D01*
X148587276Y-69444430D01*
X148628303Y-69419941D01*
X148737179Y-69342560D01*
X148819528Y-69263751D01*
X148871650Y-69187508D01*
X148889846Y-69117823D01*
X148890092Y-69110683D01*
X148897673Y-69059244D01*
X148912552Y-68998978D01*
X148919304Y-68974271D01*
X148924928Y-68919081D01*
X148910273Y-68869711D01*
X148863416Y-68773489D01*
X148813242Y-68684751D01*
X148763445Y-68616921D01*
X148707406Y-68561209D01*
X148638504Y-68508824D01*
X148617141Y-68494516D01*
X148563449Y-68466177D01*
X148506920Y-68452620D01*
X148429559Y-68448664D01*
X148376835Y-68450834D01*
X148246741Y-68481679D01*
X148131261Y-68547718D01*
X148032636Y-68647399D01*
X147953106Y-68779166D01*
X147937048Y-68824147D01*
X147922049Y-68895219D01*
X147913442Y-68972213D01*
X147911876Y-69044141D01*
X147672251Y-69044141D01*
X147671829Y-68942068D01*
X147672246Y-68917078D01*
X147675953Y-68820929D01*
X147683861Y-68750095D01*
X147697742Y-68693289D01*
X147719369Y-68639222D01*
X147726068Y-68626045D01*
X147762539Y-68570215D01*
X147814531Y-68504022D01*
X147875511Y-68434373D01*
X147938946Y-68368177D01*
X147998300Y-68312342D01*
X148047042Y-68273775D01*
X148078636Y-68259384D01*
X148098222Y-68257091D01*
X148142765Y-68242244D01*
X148184693Y-68223376D01*
X148320325Y-68188906D01*
X148462811Y-68187416D01*
X148606013Y-68216566D01*
X148743795Y-68274021D01*
X148870019Y-68357442D01*
X148978549Y-68464493D01*
X149063247Y-68592835D01*
X149093289Y-68656253D01*
X149115730Y-68713153D01*
X149124308Y-68748378D01*
X149127182Y-68769015D01*
X149143846Y-68796692D01*
X149146147Y-68799183D01*
X149154915Y-68830811D01*
X149161065Y-68888777D01*
X149162015Y-68919081D01*
X149163385Y-68962769D01*
G37*
G36*
X156971054Y-68976745D02*
G01*
X156962855Y-69056468D01*
X156949862Y-69128846D01*
X156908068Y-69249596D01*
X156834419Y-69378486D01*
X156738467Y-69495499D01*
X156626816Y-69593891D01*
X156506074Y-69666915D01*
X156382846Y-69707826D01*
X156380646Y-69708219D01*
X156320225Y-69714006D01*
X156238737Y-69715830D01*
X156153167Y-69713287D01*
X156111626Y-69710590D01*
X156040150Y-69703226D01*
X155980152Y-69690553D01*
X155916059Y-69668713D01*
X155832296Y-69633853D01*
X155808973Y-69620469D01*
X155755520Y-69579268D01*
X155690855Y-69521519D01*
X155623280Y-69455467D01*
X155561096Y-69389358D01*
X155512605Y-69331440D01*
X155486107Y-69289958D01*
X155474337Y-69259797D01*
X155445567Y-69168000D01*
X155424985Y-69076114D01*
X155416849Y-69001846D01*
X155416854Y-68998280D01*
X155418697Y-68981448D01*
X155689231Y-68981448D01*
X155695842Y-69049954D01*
X155736804Y-69164897D01*
X155813251Y-69272575D01*
X155834144Y-69293758D01*
X155892792Y-69343068D01*
X155957185Y-69387399D01*
X156016007Y-69419393D01*
X156057944Y-69431692D01*
X156081844Y-69435014D01*
X156109308Y-69451231D01*
X156128487Y-69460018D01*
X156177006Y-69467018D01*
X156242346Y-69469043D01*
X156324713Y-69462438D01*
X156425228Y-69431356D01*
X156509590Y-69370617D01*
X156586164Y-69275513D01*
X156619515Y-69222807D01*
X156670110Y-69123387D01*
X156697194Y-69029792D01*
X156705231Y-68929036D01*
X156702207Y-68884553D01*
X156670770Y-68771752D01*
X156610168Y-68662762D01*
X156526587Y-68567212D01*
X156426214Y-68494733D01*
X156419085Y-68491028D01*
X156323163Y-68460886D01*
X156210139Y-68453012D01*
X156093634Y-68467146D01*
X155987269Y-68503032D01*
X155937870Y-68528536D01*
X155867624Y-68577186D01*
X155815256Y-68638103D01*
X155767874Y-68724287D01*
X155752227Y-68756952D01*
X155724989Y-68813150D01*
X155706631Y-68850158D01*
X155701210Y-68865596D01*
X155692619Y-68917289D01*
X155689231Y-68981448D01*
X155418697Y-68981448D01*
X155423420Y-68938320D01*
X155439103Y-68870641D01*
X155459562Y-68810777D01*
X155480456Y-68774262D01*
X155486903Y-68763608D01*
X155493846Y-68727035D01*
X155496045Y-68712618D01*
X155513946Y-68662835D01*
X155544916Y-68597180D01*
X155582974Y-68527005D01*
X155622138Y-68463661D01*
X155656426Y-68418501D01*
X155666733Y-68407772D01*
X155747309Y-68340197D01*
X155842452Y-68280223D01*
X155933462Y-68239905D01*
X155947163Y-68235443D01*
X156007396Y-68214320D01*
X156052756Y-68196270D01*
X156054375Y-68195576D01*
X156100948Y-68187075D01*
X156172588Y-68185386D01*
X156256721Y-68189864D01*
X156340768Y-68199863D01*
X156412154Y-68214735D01*
X156434895Y-68221770D01*
X156502791Y-68246619D01*
X156572185Y-68275930D01*
X156611305Y-68297800D01*
X156684526Y-68354752D01*
X156759029Y-68428883D01*
X156828306Y-68512068D01*
X156885848Y-68596181D01*
X156925147Y-68673098D01*
X156939692Y-68734693D01*
X156943781Y-68764869D01*
X156960993Y-68800408D01*
X156963172Y-68803309D01*
X156971585Y-68839187D01*
X156974088Y-68900659D01*
X156972956Y-68929036D01*
X156971054Y-68976745D01*
G37*
G36*
X147834475Y-66254275D02*
G01*
X147834303Y-66280837D01*
X147828305Y-66360728D01*
X147810009Y-66429367D01*
X147774318Y-66508275D01*
X147732760Y-66583402D01*
X147674703Y-66673929D01*
X147613536Y-66757426D01*
X147556140Y-66824594D01*
X147509398Y-66866138D01*
X147491464Y-66876637D01*
X147436111Y-66903643D01*
X147371847Y-66930425D01*
X147340618Y-66939708D01*
X147271470Y-66952336D01*
X147186864Y-66961831D01*
X147095833Y-66967850D01*
X147007407Y-66970049D01*
X146930618Y-66968088D01*
X146874498Y-66961621D01*
X146848077Y-66950308D01*
X146835080Y-66939588D01*
X146797390Y-66930769D01*
X146781554Y-66929079D01*
X146721534Y-66906030D01*
X146649051Y-66861200D01*
X146572881Y-66801258D01*
X146501801Y-66732873D01*
X146444589Y-66662713D01*
X146426614Y-66635409D01*
X146354817Y-66489607D01*
X146316958Y-66337468D01*
X146316054Y-66290423D01*
X146587865Y-66290423D01*
X146606143Y-66397633D01*
X146658035Y-66500473D01*
X146740073Y-66594409D01*
X146848787Y-66674910D01*
X146980708Y-66737442D01*
X147017021Y-66750195D01*
X147089853Y-66770152D01*
X147135986Y-66771557D01*
X147160692Y-66754923D01*
X147170390Y-66745512D01*
X147205807Y-66734143D01*
X147241901Y-66721177D01*
X147296963Y-66685368D01*
X147360512Y-66634252D01*
X147423903Y-66575356D01*
X147478488Y-66516212D01*
X147515621Y-66464350D01*
X147542067Y-66407868D01*
X147559521Y-66336650D01*
X147565815Y-66244176D01*
X147564921Y-66182024D01*
X147557871Y-66119287D01*
X147545234Y-66086341D01*
X147534953Y-66073247D01*
X147522154Y-66036557D01*
X147512872Y-66008563D01*
X147479535Y-65959531D01*
X147430059Y-65903246D01*
X147373027Y-65848502D01*
X147317019Y-65804093D01*
X147270619Y-65778813D01*
X147246849Y-65772762D01*
X147168887Y-65764380D01*
X147073325Y-65764469D01*
X146974601Y-65772661D01*
X146887154Y-65788589D01*
X146854894Y-65801045D01*
X146794918Y-65836112D01*
X146732842Y-65882194D01*
X146681019Y-65929799D01*
X146651800Y-65969434D01*
X146651032Y-65971263D01*
X146643786Y-65991236D01*
X146636061Y-66019771D01*
X146626193Y-66064333D01*
X146612517Y-66132387D01*
X146593367Y-66231395D01*
X146587865Y-66290423D01*
X146316054Y-66290423D01*
X146314036Y-66185362D01*
X146347047Y-66039659D01*
X146361802Y-66002889D01*
X146415208Y-65899350D01*
X146481798Y-65799137D01*
X146553457Y-65713626D01*
X146622070Y-65654189D01*
X146628135Y-65650176D01*
X146713545Y-65594655D01*
X146778730Y-65557154D01*
X146835193Y-65534100D01*
X146894437Y-65521920D01*
X146967966Y-65517041D01*
X147067284Y-65515889D01*
X147105356Y-65515917D01*
X147210356Y-65518947D01*
X147278296Y-65526608D01*
X147310537Y-65539029D01*
X147324906Y-65550273D01*
X147361349Y-65563077D01*
X147372186Y-65564861D01*
X147416174Y-65585645D01*
X147475176Y-65624517D01*
X147541255Y-65674879D01*
X147606470Y-65730128D01*
X147662882Y-65783664D01*
X147702551Y-65828887D01*
X147717539Y-65859197D01*
X147717543Y-65859504D01*
X147727769Y-65887530D01*
X147751721Y-65929235D01*
X147792357Y-66005328D01*
X147824203Y-66117729D01*
X147833715Y-66244176D01*
X147834475Y-66254275D01*
G37*
G36*
X149146955Y-63801946D02*
G01*
X149144942Y-63808928D01*
X149130304Y-63879282D01*
X149124308Y-63944711D01*
X149123991Y-63955735D01*
X149101291Y-64044801D01*
X149046361Y-64137392D01*
X148964310Y-64228578D01*
X148860249Y-64313425D01*
X148739288Y-64387002D01*
X148606539Y-64444378D01*
X148600648Y-64446309D01*
X148537862Y-64459674D01*
X148469769Y-64465590D01*
X148453262Y-64465351D01*
X148387971Y-64459779D01*
X148313501Y-64448660D01*
X148241873Y-64434302D01*
X148185106Y-64419018D01*
X148155221Y-64405118D01*
X148144829Y-64398477D01*
X148108053Y-64390769D01*
X148095007Y-64389948D01*
X148025660Y-64365391D01*
X147944518Y-64308630D01*
X147855507Y-64222285D01*
X147847938Y-64213945D01*
X147801644Y-64160128D01*
X147768983Y-64117355D01*
X147756616Y-64094249D01*
X147756092Y-64090433D01*
X147741608Y-64058169D01*
X147713468Y-64013822D01*
X147699500Y-63992406D01*
X147684334Y-63957948D01*
X147675482Y-63913262D01*
X147671344Y-63848741D01*
X147670321Y-63754779D01*
X147674865Y-63660978D01*
X147913745Y-63660978D01*
X147913976Y-63743416D01*
X147928799Y-63828715D01*
X147956885Y-63901233D01*
X147969609Y-63922829D01*
X148034592Y-64012185D01*
X148107692Y-64086250D01*
X148178576Y-64134164D01*
X148226975Y-64157301D01*
X148269235Y-64178126D01*
X148271444Y-64179164D01*
X148315419Y-64188829D01*
X148381168Y-64193379D01*
X148453555Y-64192877D01*
X148517442Y-64187384D01*
X148557692Y-64176961D01*
X148594134Y-64158227D01*
X148643982Y-64134149D01*
X148709269Y-64093182D01*
X148789134Y-64013636D01*
X148851292Y-63916150D01*
X148852177Y-63914299D01*
X148877449Y-63836087D01*
X148889929Y-63744000D01*
X148889631Y-63650742D01*
X148876572Y-63569020D01*
X148850769Y-63511538D01*
X148850683Y-63511428D01*
X148823629Y-63470301D01*
X148812127Y-63439930D01*
X148807502Y-63426201D01*
X148777973Y-63389375D01*
X148729678Y-63345331D01*
X148672604Y-63302003D01*
X148616738Y-63267324D01*
X148572069Y-63249229D01*
X148514739Y-63237639D01*
X148453208Y-63225016D01*
X148381348Y-63223860D01*
X148288523Y-63247332D01*
X148191731Y-63291334D01*
X148101154Y-63350180D01*
X148026976Y-63418182D01*
X147979377Y-63489654D01*
X147975173Y-63499288D01*
X147950337Y-63554149D01*
X147930819Y-63594312D01*
X147929435Y-63597044D01*
X147913745Y-63660978D01*
X147674865Y-63660978D01*
X147677973Y-63596836D01*
X147704246Y-63460332D01*
X147752348Y-63344797D01*
X147825480Y-63242643D01*
X147926839Y-63146283D01*
X147975780Y-63107573D01*
X148072871Y-63044098D01*
X148169232Y-63004027D01*
X148277710Y-62982842D01*
X148411154Y-62976028D01*
X148492008Y-62976635D01*
X148587980Y-62983731D01*
X148665927Y-63001029D01*
X148738249Y-63031665D01*
X148817347Y-63078777D01*
X148834851Y-63091758D01*
X148882557Y-63136178D01*
X148937015Y-63195297D01*
X148991359Y-63260637D01*
X149038723Y-63323723D01*
X149072240Y-63376078D01*
X149085043Y-63409226D01*
X149087719Y-63426892D01*
X149103044Y-63467842D01*
X149105355Y-63472365D01*
X149132893Y-63549264D01*
X149150472Y-63640987D01*
X149155893Y-63730794D01*
X149154234Y-63744000D01*
X149146955Y-63801946D01*
G37*
G36*
X150458831Y-61159730D02*
G01*
X150455948Y-61239946D01*
X150449014Y-61306496D01*
X150439223Y-61346692D01*
X150426289Y-61374418D01*
X150399617Y-61432615D01*
X150369514Y-61499077D01*
X150326201Y-61574232D01*
X150265806Y-61651617D01*
X150197389Y-61721680D01*
X150129784Y-61775385D01*
X150071822Y-61803694D01*
X150064514Y-61805676D01*
X150008528Y-61825593D01*
X149948019Y-61852558D01*
X149898014Y-61869927D01*
X149810108Y-61884534D01*
X149710098Y-61889514D01*
X149612704Y-61884308D01*
X149532647Y-61868355D01*
X149408189Y-61821157D01*
X149301188Y-61762297D01*
X149210748Y-61687600D01*
X149131244Y-61591372D01*
X149057046Y-61467915D01*
X148982526Y-61311533D01*
X148980414Y-61305573D01*
X148973911Y-61257137D01*
X148972940Y-61184086D01*
X148974678Y-61147384D01*
X149241539Y-61147384D01*
X149241674Y-61165600D01*
X149245000Y-61236765D01*
X149251871Y-61289489D01*
X149261077Y-61313461D01*
X149271480Y-61325642D01*
X149280616Y-61362748D01*
X149281717Y-61369209D01*
X149303929Y-61404768D01*
X149348096Y-61451935D01*
X149405484Y-61503289D01*
X149467358Y-61551410D01*
X149524981Y-61588876D01*
X149569620Y-61608266D01*
X149570117Y-61608377D01*
X149627456Y-61621865D01*
X149690923Y-61637633D01*
X149700046Y-61639933D01*
X149745467Y-61650110D01*
X149769077Y-61653227D01*
X149777941Y-61651394D01*
X149909247Y-61604481D01*
X150024267Y-61523137D01*
X150124844Y-61406083D01*
X150142316Y-61380414D01*
X150167931Y-61336086D01*
X150181721Y-61293067D01*
X150187061Y-61237906D01*
X150187327Y-61157154D01*
X150185826Y-61099091D01*
X150178936Y-61027184D01*
X150164092Y-60972255D01*
X150138481Y-60920674D01*
X150128341Y-60903638D01*
X150044794Y-60784043D01*
X149958670Y-60701554D01*
X149865414Y-60654697D01*
X149760470Y-60641997D01*
X149639283Y-60661981D01*
X149497297Y-60713173D01*
X149446446Y-60742363D01*
X149387583Y-60789167D01*
X149334240Y-60842537D01*
X149295543Y-60893253D01*
X149280616Y-60932098D01*
X149277607Y-60953694D01*
X149261077Y-60981308D01*
X149258777Y-60983798D01*
X149250009Y-61015427D01*
X149243858Y-61073392D01*
X149241539Y-61147384D01*
X148974678Y-61147384D01*
X148977017Y-61097977D01*
X148985658Y-61010365D01*
X148998380Y-60932806D01*
X149015945Y-60873356D01*
X149073144Y-60759791D01*
X149155112Y-60651302D01*
X149253498Y-60558109D01*
X149359947Y-60490431D01*
X149384692Y-60478741D01*
X149449766Y-60449076D01*
X149501343Y-60426931D01*
X149542485Y-60417160D01*
X149607720Y-60410034D01*
X149685444Y-60406163D01*
X149765377Y-60405609D01*
X149837236Y-60408433D01*
X149890743Y-60414697D01*
X149915616Y-60424461D01*
X149925952Y-60434051D01*
X149961720Y-60444000D01*
X149998170Y-60450214D01*
X150045159Y-60467420D01*
X150084501Y-60488812D01*
X150101079Y-60507500D01*
X150103780Y-60513743D01*
X150128728Y-60522154D01*
X150154806Y-60533265D01*
X150198905Y-60571439D01*
X150251273Y-60629606D01*
X150305748Y-60700246D01*
X150356167Y-60775836D01*
X150396368Y-60848854D01*
X150425827Y-60915277D01*
X150445771Y-60978963D01*
X150455543Y-61047854D01*
X150458777Y-61138832D01*
X150458824Y-61157154D01*
X150458831Y-61159730D01*
G37*
G36*
X151782943Y-68992329D02*
G01*
X151762549Y-69126725D01*
X151709512Y-69264431D01*
X151622906Y-69412972D01*
X151545012Y-69510503D01*
X151448015Y-69591822D01*
X151322148Y-69664811D01*
X151309178Y-69670983D01*
X151263667Y-69687252D01*
X151208340Y-69697332D01*
X151133464Y-69702532D01*
X151029308Y-69704158D01*
X151008230Y-69704152D01*
X150887391Y-69700733D01*
X150793101Y-69689386D01*
X150714707Y-69667257D01*
X150641557Y-69631492D01*
X150562998Y-69579237D01*
X150547880Y-69567684D01*
X150490942Y-69515779D01*
X150433961Y-69453457D01*
X150384230Y-69389835D01*
X150349042Y-69334027D01*
X150335692Y-69295150D01*
X150335090Y-69290284D01*
X150316154Y-69275384D01*
X150305020Y-69268578D01*
X150296616Y-69237461D01*
X150293491Y-69215020D01*
X150277077Y-69187461D01*
X150270099Y-69169364D01*
X150263493Y-69117789D01*
X150259120Y-69040085D01*
X150258145Y-68980348D01*
X150492000Y-68980348D01*
X150492421Y-69010221D01*
X150501810Y-69094074D01*
X150527573Y-69160227D01*
X150575039Y-69224343D01*
X150597592Y-69253697D01*
X150609231Y-69278074D01*
X150618934Y-69296169D01*
X150656283Y-69329149D01*
X150712943Y-69366984D01*
X150779541Y-69403568D01*
X150846704Y-69432793D01*
X150893222Y-69447792D01*
X151027590Y-69467004D01*
X151154891Y-69447787D01*
X151275154Y-69390137D01*
X151308843Y-69365657D01*
X151366387Y-69315077D01*
X151417800Y-69260646D01*
X151454755Y-69211529D01*
X151468923Y-69176891D01*
X151471757Y-69156542D01*
X151488462Y-69128846D01*
X151490502Y-69126759D01*
X151499393Y-69096015D01*
X151505641Y-69038769D01*
X151508000Y-68965441D01*
X151507989Y-68955880D01*
X151505846Y-68876982D01*
X151497529Y-68821057D01*
X151479480Y-68773505D01*
X151448142Y-68719725D01*
X151421767Y-68678637D01*
X151387974Y-68630902D01*
X151354385Y-68594678D01*
X151310102Y-68558888D01*
X151244231Y-68512455D01*
X151192468Y-68478776D01*
X151144314Y-68456955D01*
X151091326Y-68448082D01*
X151016448Y-68447276D01*
X150938656Y-68451755D01*
X150876420Y-68465438D01*
X150827817Y-68491238D01*
X150819922Y-68496746D01*
X150777776Y-68522465D01*
X150751047Y-68532923D01*
X150742157Y-68535818D01*
X150709042Y-68561766D01*
X150664428Y-68607678D01*
X150615752Y-68665014D01*
X150570451Y-68725238D01*
X150535962Y-68779814D01*
X150524091Y-68803463D01*
X150499366Y-68882551D01*
X150492000Y-68980348D01*
X150258145Y-68980348D01*
X150257539Y-68943231D01*
X150258699Y-68859604D01*
X150262696Y-68778642D01*
X150269008Y-68722781D01*
X150277077Y-68699000D01*
X150285121Y-68691421D01*
X150296616Y-68657698D01*
X150304997Y-68628566D01*
X150333871Y-68575354D01*
X150376323Y-68512195D01*
X150424987Y-68449162D01*
X150472501Y-68396326D01*
X150511502Y-68363760D01*
X150518024Y-68359826D01*
X150555046Y-68333705D01*
X150570154Y-68316056D01*
X150575536Y-68308596D01*
X150609833Y-68289362D01*
X150668050Y-68265692D01*
X150741124Y-68240810D01*
X150819989Y-68217941D01*
X150895579Y-68200309D01*
X150993582Y-68188891D01*
X151106193Y-68196873D01*
X151228476Y-68228829D01*
X151369576Y-68286422D01*
X151397611Y-68303677D01*
X151447652Y-68343612D01*
X151505520Y-68396108D01*
X151563668Y-68453626D01*
X151614547Y-68508623D01*
X151650610Y-68553558D01*
X151664308Y-68580889D01*
X151666066Y-68595129D01*
X151679077Y-68611077D01*
X151695495Y-68626534D01*
X151714973Y-68664808D01*
X151729511Y-68703356D01*
X151771622Y-68853714D01*
X151780747Y-68965441D01*
X151782943Y-68992329D01*
G37*
G36*
X153070628Y-59669936D02*
G01*
X153101267Y-59728480D01*
X153168499Y-59852959D01*
X153222892Y-59946934D01*
X153266580Y-60014154D01*
X153267557Y-60015555D01*
X153290609Y-60053432D01*
X153326230Y-60117108D01*
X153369739Y-60198041D01*
X153416457Y-60287692D01*
X153459539Y-60368715D01*
X153525339Y-60485230D01*
X153592969Y-60598438D01*
X153653088Y-60692366D01*
X153694692Y-60755294D01*
X153736007Y-60820829D01*
X153764097Y-60869086D01*
X153774462Y-60892635D01*
X153774962Y-60897835D01*
X153789391Y-60912923D01*
X153793760Y-60914922D01*
X153813600Y-60940527D01*
X153837645Y-60986192D01*
X153864786Y-61042028D01*
X153898347Y-61104678D01*
X153929194Y-61156982D01*
X153950308Y-61186461D01*
X153955566Y-61192563D01*
X153965019Y-61206821D01*
X153981630Y-61235004D01*
X154009348Y-61283851D01*
X154052125Y-61360100D01*
X154056836Y-61368425D01*
X154093731Y-61429802D01*
X154128442Y-61482554D01*
X154130121Y-61484936D01*
X154154975Y-61523976D01*
X154165231Y-61547419D01*
X154169612Y-61558705D01*
X154190874Y-61595424D01*
X154223846Y-61645615D01*
X154245704Y-61678727D01*
X154272144Y-61723867D01*
X154282462Y-61749320D01*
X154287331Y-61763491D01*
X154312130Y-61792453D01*
X154316906Y-61796898D01*
X154345845Y-61835404D01*
X154374612Y-61887653D01*
X154381182Y-61901514D01*
X154403871Y-61945442D01*
X154418569Y-61968000D01*
X154430633Y-61986926D01*
X154456798Y-62033851D01*
X154492959Y-62101401D01*
X154535174Y-62182334D01*
X154541879Y-62194995D01*
X154575246Y-62258001D01*
X154617985Y-62334318D01*
X154653408Y-62392998D01*
X154676472Y-62425364D01*
X154699930Y-62456836D01*
X154712308Y-62489453D01*
X154713895Y-62499540D01*
X154731846Y-62515077D01*
X154739538Y-62517157D01*
X154751385Y-62540700D01*
X154759602Y-62566659D01*
X154785577Y-62605195D01*
X154798374Y-62620140D01*
X154816545Y-62644054D01*
X154837525Y-62676486D01*
X154866719Y-62725976D01*
X154909530Y-62801061D01*
X154914410Y-62809665D01*
X154951453Y-62874694D01*
X154988867Y-62940038D01*
X155008261Y-62974341D01*
X155047458Y-63045376D01*
X155086326Y-63117426D01*
X155111006Y-63162686D01*
X155147980Y-63227071D01*
X155176982Y-63273734D01*
X155192053Y-63297658D01*
X155226020Y-63357546D01*
X155260253Y-63423615D01*
X155275068Y-63452080D01*
X155315808Y-63523672D01*
X155366860Y-63607937D01*
X155420577Y-63692071D01*
X155455586Y-63745851D01*
X155495542Y-63808926D01*
X155522825Y-63854136D01*
X155532923Y-63874166D01*
X155536533Y-63883486D01*
X155556616Y-63918295D01*
X155588437Y-63967172D01*
X155613739Y-64005925D01*
X155660037Y-64081513D01*
X155702987Y-64156308D01*
X155732599Y-64210197D01*
X155781254Y-64298716D01*
X155826497Y-64381000D01*
X155827774Y-64383319D01*
X155877921Y-64469811D01*
X155935132Y-64561653D01*
X155992887Y-64648974D01*
X156044661Y-64721902D01*
X156083132Y-64769576D01*
X156083933Y-64770569D01*
X156106726Y-64801293D01*
X156119077Y-64834069D01*
X156120664Y-64844155D01*
X156138616Y-64859692D01*
X156144090Y-64860532D01*
X156158154Y-64880595D01*
X156162349Y-64894437D01*
X156183596Y-64934782D01*
X156216769Y-64986692D01*
X156238974Y-65019902D01*
X156265171Y-65062512D01*
X156275385Y-65084384D01*
X156278891Y-65093979D01*
X156298758Y-65129343D01*
X156330326Y-65178556D01*
X156359088Y-65224032D01*
X156403556Y-65300647D01*
X156444661Y-65377461D01*
X156457569Y-65402620D01*
X156515298Y-65509742D01*
X156580532Y-65624178D01*
X156647001Y-65735374D01*
X156708435Y-65832776D01*
X156758565Y-65905830D01*
X156794834Y-65961319D01*
X156838164Y-66037926D01*
X156876509Y-66115038D01*
X156884639Y-66132017D01*
X156908146Y-66172231D01*
X156924763Y-66188308D01*
X156931851Y-66191973D01*
X156939692Y-66218687D01*
X156949462Y-66248477D01*
X156976023Y-66299614D01*
X157013488Y-66360341D01*
X157050862Y-66418557D01*
X157089658Y-66482950D01*
X157115361Y-66530231D01*
X157142989Y-66582812D01*
X157176047Y-66637692D01*
X157178695Y-66641671D01*
X157196093Y-66668635D01*
X157216069Y-66701532D01*
X157242731Y-66747415D01*
X157280186Y-66813336D01*
X157332544Y-66906346D01*
X157342235Y-66923371D01*
X157370639Y-66970871D01*
X157389868Y-66999600D01*
X157403174Y-67019961D01*
X157430244Y-67066731D01*
X157462920Y-67126600D01*
X157479914Y-67158444D01*
X157547815Y-67282281D01*
X157606277Y-67382270D01*
X157629519Y-67418774D01*
X157660847Y-67467979D01*
X157675652Y-67490967D01*
X157719601Y-67565099D01*
X157758812Y-67638174D01*
X157775610Y-67670358D01*
X157809076Y-67727676D01*
X157836205Y-67766169D01*
X157847745Y-67779726D01*
X157865118Y-67802786D01*
X157885688Y-67834790D01*
X157914733Y-67884134D01*
X157957530Y-67959215D01*
X157962477Y-67967933D01*
X157999588Y-68032920D01*
X158037145Y-68098192D01*
X158042487Y-68107471D01*
X158080802Y-68175699D01*
X158115579Y-68239846D01*
X158121097Y-68250291D01*
X158139912Y-68285208D01*
X158158846Y-68318296D01*
X158183148Y-68358235D01*
X158218062Y-68413704D01*
X158268834Y-68493382D01*
X158302069Y-68546824D01*
X158340371Y-68611742D01*
X158366495Y-68659923D01*
X158368242Y-68663465D01*
X158390443Y-68705541D01*
X158405046Y-68728308D01*
X158411630Y-68737540D01*
X158433302Y-68773881D01*
X158462189Y-68826000D01*
X158466753Y-68834343D01*
X158503839Y-68897682D01*
X158552299Y-68975639D01*
X158602877Y-69053264D01*
X158613341Y-69068949D01*
X158662325Y-69143907D01*
X158706107Y-69213110D01*
X158736266Y-69263303D01*
X158740669Y-69271077D01*
X158779531Y-69339768D01*
X158817672Y-69407269D01*
X158824629Y-69419479D01*
X158860380Y-69479808D01*
X158891646Y-69529384D01*
X158921336Y-69578065D01*
X158952827Y-69636846D01*
X158954449Y-69640149D01*
X158977413Y-69682373D01*
X158993820Y-69705231D01*
X158998143Y-69709884D01*
X159019371Y-69740905D01*
X159047582Y-69788269D01*
X159051786Y-69795720D01*
X159091604Y-69866275D01*
X159130288Y-69934808D01*
X159137173Y-69946852D01*
X159173611Y-70007262D01*
X159206175Y-70056923D01*
X159235712Y-70100233D01*
X159301850Y-70211141D01*
X159348956Y-70312318D01*
X159350045Y-70316112D01*
X159372658Y-70394886D01*
X159374004Y-70404112D01*
X159377563Y-70459680D01*
X159364736Y-70499865D01*
X159329841Y-70544529D01*
X159273961Y-70607069D01*
X158885056Y-70615356D01*
X158864253Y-70615814D01*
X158746838Y-70618969D01*
X158644196Y-70622665D01*
X158562401Y-70626616D01*
X158507528Y-70630537D01*
X158485653Y-70634142D01*
X158469152Y-70635662D01*
X158416671Y-70636908D01*
X158331627Y-70637652D01*
X158217480Y-70637900D01*
X158077690Y-70637659D01*
X157915718Y-70636935D01*
X157735023Y-70635736D01*
X157539066Y-70634067D01*
X157331308Y-70631936D01*
X157210041Y-70630649D01*
X156986963Y-70628573D01*
X156766820Y-70626878D01*
X156554773Y-70625585D01*
X156355986Y-70624713D01*
X156175622Y-70624283D01*
X156018843Y-70624315D01*
X155890813Y-70624831D01*
X155796692Y-70625850D01*
X155792160Y-70625927D01*
X155664453Y-70627807D01*
X155543034Y-70629114D01*
X155436099Y-70629793D01*
X155351843Y-70629792D01*
X155298462Y-70629059D01*
X155262808Y-70628521D01*
X155190986Y-70628008D01*
X155086666Y-70627538D01*
X154953171Y-70627116D01*
X154793825Y-70626750D01*
X154611949Y-70626445D01*
X154410868Y-70626209D01*
X154193903Y-70626047D01*
X153964378Y-70625968D01*
X153725616Y-70625976D01*
X153502010Y-70626016D01*
X153268041Y-70626037D01*
X153044966Y-70626037D01*
X152836308Y-70626016D01*
X152645588Y-70625975D01*
X152476331Y-70625915D01*
X152332060Y-70625838D01*
X152216296Y-70625744D01*
X152132563Y-70625634D01*
X152084385Y-70625509D01*
X152071096Y-70625450D01*
X151918079Y-70624894D01*
X151729592Y-70624392D01*
X151508912Y-70623943D01*
X151259318Y-70623548D01*
X150984088Y-70623206D01*
X150686499Y-70622917D01*
X150369829Y-70622680D01*
X150037355Y-70622497D01*
X149692355Y-70622365D01*
X149338108Y-70622286D01*
X148977890Y-70622259D01*
X148614980Y-70622283D01*
X148252655Y-70622360D01*
X147894193Y-70622487D01*
X147542872Y-70622666D01*
X147201969Y-70622896D01*
X146874762Y-70623176D01*
X146564529Y-70623507D01*
X146274548Y-70623889D01*
X146008096Y-70624321D01*
X145768451Y-70624802D01*
X145558890Y-70625334D01*
X145382692Y-70625915D01*
X145129956Y-70626682D01*
X144867747Y-70627084D01*
X144608587Y-70627107D01*
X144356981Y-70626766D01*
X144117430Y-70626080D01*
X143894440Y-70625063D01*
X143692512Y-70623734D01*
X143516150Y-70622109D01*
X143369857Y-70620204D01*
X143258138Y-70618037D01*
X143110860Y-70614316D01*
X142978718Y-70610566D01*
X142876963Y-70606850D01*
X142801004Y-70602745D01*
X142746253Y-70597824D01*
X142708122Y-70591663D01*
X142682022Y-70583837D01*
X142663365Y-70573921D01*
X142647561Y-70561490D01*
X142618961Y-70525627D01*
X142602118Y-70455119D01*
X142615906Y-70367555D01*
X142645656Y-70298655D01*
X142988320Y-70298655D01*
X142992991Y-70323016D01*
X142997735Y-70323823D01*
X143035259Y-70325776D01*
X143107000Y-70327775D01*
X143209541Y-70329798D01*
X143339467Y-70331824D01*
X143493362Y-70333829D01*
X143667810Y-70335793D01*
X143859394Y-70337692D01*
X144064699Y-70339505D01*
X144280310Y-70341210D01*
X144502809Y-70342785D01*
X144728781Y-70344207D01*
X144954809Y-70345455D01*
X145177479Y-70346507D01*
X145393374Y-70347340D01*
X145599079Y-70347932D01*
X145791176Y-70348262D01*
X145966250Y-70348307D01*
X146120886Y-70348045D01*
X146251667Y-70347455D01*
X146355177Y-70346513D01*
X146428000Y-70345199D01*
X146428352Y-70345190D01*
X146464122Y-70344803D01*
X146536871Y-70344479D01*
X146644545Y-70344218D01*
X146785090Y-70344016D01*
X146956452Y-70343871D01*
X147156577Y-70343781D01*
X147383412Y-70343744D01*
X147634904Y-70343758D01*
X147908997Y-70343820D01*
X148203639Y-70343928D01*
X148516776Y-70344080D01*
X148846354Y-70344274D01*
X149190319Y-70344507D01*
X149546618Y-70344777D01*
X149913196Y-70345082D01*
X150288001Y-70345420D01*
X150668978Y-70345788D01*
X151054073Y-70346185D01*
X151441233Y-70346607D01*
X151828404Y-70347053D01*
X152213533Y-70347521D01*
X152594565Y-70348007D01*
X152969446Y-70348511D01*
X153336124Y-70349030D01*
X153692544Y-70349561D01*
X154036653Y-70350102D01*
X154366397Y-70350651D01*
X154679721Y-70351206D01*
X154974573Y-70351765D01*
X155248899Y-70352325D01*
X155500644Y-70352884D01*
X155727756Y-70353440D01*
X155928180Y-70353991D01*
X156099862Y-70354534D01*
X156240749Y-70355067D01*
X156348788Y-70355588D01*
X156421923Y-70356094D01*
X156433920Y-70356191D01*
X156536921Y-70356437D01*
X156672588Y-70355993D01*
X156835338Y-70354916D01*
X157019583Y-70353260D01*
X157219738Y-70351080D01*
X157430219Y-70348431D01*
X157645439Y-70345368D01*
X157859814Y-70341946D01*
X157860955Y-70341926D01*
X158104581Y-70338029D01*
X158311432Y-70335219D01*
X158483784Y-70333507D01*
X158623914Y-70332905D01*
X158734100Y-70333421D01*
X158816617Y-70335068D01*
X158873743Y-70337856D01*
X158907754Y-70341795D01*
X158920928Y-70346896D01*
X158921284Y-70347461D01*
X158953562Y-70367681D01*
X158995272Y-70363289D01*
X159027493Y-70336186D01*
X159033426Y-70316112D01*
X159023782Y-70277472D01*
X158989387Y-70220319D01*
X158968758Y-70189652D01*
X158942773Y-70148279D01*
X158932616Y-70127850D01*
X158925621Y-70113212D01*
X158901586Y-70071289D01*
X158864471Y-70009479D01*
X158818500Y-69934918D01*
X158786018Y-69882493D01*
X158653181Y-69659177D01*
X158533440Y-69441461D01*
X158517270Y-69412622D01*
X158473544Y-69342521D01*
X158427055Y-69275384D01*
X158400976Y-69239024D01*
X158368301Y-69189615D01*
X158351025Y-69158154D01*
X158334621Y-69125192D01*
X158306493Y-69080000D01*
X158277398Y-69035065D01*
X158239774Y-68971659D01*
X158190793Y-68884756D01*
X158127210Y-68768722D01*
X158098369Y-68717753D01*
X158046734Y-68632087D01*
X157996418Y-68553799D01*
X157961446Y-68500066D01*
X157913861Y-68422566D01*
X157876603Y-68357077D01*
X157860377Y-68327260D01*
X157829366Y-68273906D01*
X157806897Y-68239846D01*
X157792469Y-68218438D01*
X157761817Y-68166202D01*
X157716667Y-68084535D01*
X157656011Y-67971605D01*
X157578839Y-67825579D01*
X157520280Y-67714159D01*
X157068794Y-67723734D01*
X157022855Y-67724495D01*
X156926688Y-67725540D01*
X156795608Y-67726553D01*
X156632043Y-67727528D01*
X156438424Y-67728459D01*
X156217180Y-67729339D01*
X155970739Y-67730161D01*
X155701532Y-67730918D01*
X155411988Y-67731604D01*
X155104536Y-67732212D01*
X154781606Y-67732736D01*
X154445627Y-67733168D01*
X154099029Y-67733502D01*
X153744241Y-67733732D01*
X153383692Y-67733851D01*
X153176342Y-67733888D01*
X152811504Y-67733968D01*
X152450708Y-67734064D01*
X152096649Y-67734175D01*
X151752021Y-67734299D01*
X151419520Y-67734434D01*
X151101840Y-67734580D01*
X150801677Y-67734735D01*
X150521726Y-67734898D01*
X150264681Y-67735066D01*
X150033238Y-67735239D01*
X149830092Y-67735416D01*
X149657938Y-67735594D01*
X149519470Y-67735772D01*
X149417385Y-67735950D01*
X149307134Y-67736173D01*
X148889118Y-67736829D01*
X148477993Y-67737177D01*
X148076443Y-67737224D01*
X147687148Y-67736979D01*
X147312790Y-67736450D01*
X146956053Y-67735646D01*
X146619617Y-67734573D01*
X146306166Y-67733242D01*
X146018380Y-67731659D01*
X145758942Y-67729834D01*
X145530535Y-67727774D01*
X145335840Y-67725487D01*
X145177539Y-67722982D01*
X145068326Y-67720936D01*
X144904591Y-67718079D01*
X144773626Y-67716525D01*
X144671412Y-67716687D01*
X144593933Y-67718979D01*
X144537170Y-67723814D01*
X144497105Y-67731606D01*
X144469721Y-67742769D01*
X144451000Y-67757717D01*
X144436923Y-67776863D01*
X144423474Y-67800621D01*
X144404517Y-67834823D01*
X144370054Y-67895860D01*
X144348803Y-67931120D01*
X144337121Y-67946769D01*
X144329009Y-67959037D01*
X144307365Y-67998720D01*
X144279374Y-68054231D01*
X144260679Y-68091361D01*
X144226508Y-68154741D01*
X144198908Y-68200769D01*
X144185466Y-68221151D01*
X144142264Y-68290299D01*
X144101143Y-68360622D01*
X144068552Y-68420834D01*
X144050940Y-68459654D01*
X144042268Y-68477930D01*
X144022491Y-68493846D01*
X144018922Y-68494250D01*
X144005231Y-68512525D01*
X143998494Y-68532298D01*
X143976157Y-68577160D01*
X143943600Y-68634640D01*
X143928795Y-68659949D01*
X143886268Y-68735347D01*
X143837309Y-68824785D01*
X143789815Y-68913923D01*
X143766697Y-68957860D01*
X143722490Y-69041019D01*
X143683474Y-69113394D01*
X143656061Y-69163038D01*
X143651579Y-69170934D01*
X143611933Y-69240821D01*
X143573833Y-69308050D01*
X143548771Y-69350315D01*
X143505781Y-69419060D01*
X143460301Y-69488780D01*
X143425942Y-69541225D01*
X143373973Y-69623482D01*
X143330457Y-69695461D01*
X143307532Y-69734671D01*
X143268614Y-69800789D01*
X143238301Y-69851769D01*
X143236997Y-69853949D01*
X143209481Y-69904338D01*
X143191572Y-69944577D01*
X143182708Y-69962882D01*
X143162798Y-69978769D01*
X143157765Y-69979703D01*
X143145539Y-70000176D01*
X143145526Y-70000758D01*
X143134398Y-70031169D01*
X143108712Y-70073445D01*
X143087675Y-70103875D01*
X143038632Y-70182679D01*
X143004523Y-70249740D01*
X142988320Y-70298655D01*
X142645656Y-70298655D01*
X142659618Y-70266321D01*
X142732545Y-70154800D01*
X142743361Y-70140260D01*
X142780078Y-70087881D01*
X142805437Y-70047339D01*
X142810311Y-70038459D01*
X142837068Y-69990712D01*
X142868937Y-69934808D01*
X142873855Y-69926251D01*
X142913358Y-69857223D01*
X142950683Y-69791617D01*
X142966280Y-69765363D01*
X143004596Y-69704278D01*
X143053775Y-69628324D01*
X143106991Y-69548136D01*
X143144930Y-69491063D01*
X143185666Y-69428004D01*
X143213430Y-69382813D01*
X143223692Y-69362693D01*
X143227212Y-69353286D01*
X143247081Y-69318210D01*
X143278634Y-69269136D01*
X143307429Y-69223625D01*
X143351934Y-69147024D01*
X143393097Y-69070231D01*
X143405929Y-69045599D01*
X143449848Y-68965949D01*
X143502688Y-68874635D01*
X143555688Y-68786923D01*
X143580582Y-68746629D01*
X143628694Y-68667810D01*
X143669815Y-68599285D01*
X143697065Y-68552461D01*
X143704059Y-68540179D01*
X143732578Y-68493698D01*
X143753072Y-68465515D01*
X143761668Y-68452043D01*
X143770769Y-68411784D01*
X143773884Y-68392794D01*
X143790308Y-68376615D01*
X143795782Y-68375775D01*
X143809846Y-68355712D01*
X143813286Y-68343477D01*
X143833463Y-68304131D01*
X143865695Y-68253136D01*
X143880938Y-68229667D01*
X143919875Y-68160402D01*
X143947774Y-68098192D01*
X143953653Y-68082750D01*
X143973832Y-68041481D01*
X143989618Y-68024923D01*
X143993353Y-68024349D01*
X144005231Y-68005203D01*
X144010459Y-67991121D01*
X144033146Y-67948899D01*
X144069674Y-67887490D01*
X144115520Y-67814703D01*
X144117426Y-67811751D01*
X144194959Y-67691393D01*
X144255544Y-67596372D01*
X144303523Y-67519476D01*
X144343241Y-67453495D01*
X144361836Y-67421144D01*
X144722252Y-67421144D01*
X144732437Y-67422547D01*
X144779161Y-67424633D01*
X144862166Y-67426713D01*
X144979781Y-67428774D01*
X145130334Y-67430804D01*
X145312156Y-67432791D01*
X145523575Y-67434720D01*
X145762920Y-67436581D01*
X146028521Y-67438359D01*
X146318707Y-67440043D01*
X146631807Y-67441620D01*
X146966151Y-67443076D01*
X147320067Y-67444400D01*
X147691885Y-67445579D01*
X148079934Y-67446600D01*
X148133386Y-67446728D01*
X148491729Y-67447652D01*
X148839996Y-67448663D01*
X149176115Y-67449750D01*
X149498015Y-67450901D01*
X149803624Y-67452107D01*
X150090871Y-67453356D01*
X150357684Y-67454637D01*
X150601992Y-67455939D01*
X150821724Y-67457251D01*
X151014807Y-67458562D01*
X151179170Y-67459862D01*
X151312743Y-67461139D01*
X151413453Y-67462382D01*
X151479229Y-67463581D01*
X151508000Y-67464725D01*
X151532764Y-67466765D01*
X151614779Y-67466823D01*
X151694528Y-67459469D01*
X151712560Y-67458173D01*
X151769823Y-67456419D01*
X151862209Y-67454765D01*
X151987403Y-67453222D01*
X152143089Y-67451801D01*
X152326952Y-67450513D01*
X152536677Y-67449368D01*
X152769947Y-67448377D01*
X153024447Y-67447551D01*
X153297862Y-67446901D01*
X153587875Y-67446437D01*
X153892172Y-67446170D01*
X154208438Y-67446112D01*
X154534355Y-67446272D01*
X154778680Y-67446421D01*
X155095284Y-67446455D01*
X155399590Y-67446307D01*
X155689366Y-67445988D01*
X155962379Y-67445505D01*
X156216400Y-67444869D01*
X156449195Y-67444086D01*
X156658535Y-67443167D01*
X156842186Y-67442121D01*
X156997919Y-67440956D01*
X157123500Y-67439680D01*
X157216699Y-67438304D01*
X157275284Y-67436835D01*
X157297024Y-67435284D01*
X157299507Y-67433590D01*
X157307569Y-67418774D01*
X157301534Y-67391501D01*
X157278930Y-67345048D01*
X157237288Y-67272692D01*
X157160247Y-67141000D01*
X157042603Y-66930769D01*
X157001663Y-66855482D01*
X156943360Y-66750301D01*
X156897654Y-66671225D01*
X156861315Y-66612735D01*
X156831113Y-66569308D01*
X156817388Y-66550615D01*
X156797366Y-66521412D01*
X156774751Y-66485208D01*
X156745488Y-66435188D01*
X156705521Y-66364544D01*
X156650795Y-66266461D01*
X156622394Y-66215530D01*
X156541465Y-66071886D01*
X156471403Y-65949843D01*
X156414697Y-65853703D01*
X156373837Y-65787769D01*
X156360413Y-65766629D01*
X156325499Y-65707544D01*
X156301203Y-65660769D01*
X156298409Y-65654511D01*
X156274304Y-65600176D01*
X156247523Y-65539435D01*
X156235185Y-65514061D01*
X156196615Y-65447591D01*
X156152656Y-65383127D01*
X156134894Y-65358487D01*
X156084882Y-65281298D01*
X156042851Y-65206853D01*
X156036827Y-65194950D01*
X156013631Y-65151271D01*
X155990448Y-65117490D01*
X155962396Y-65092497D01*
X155924588Y-65075184D01*
X155872140Y-65064439D01*
X155800167Y-65059153D01*
X155703786Y-65058216D01*
X155578110Y-65060519D01*
X155418255Y-65064952D01*
X155342583Y-65066920D01*
X155185354Y-65070168D01*
X155003177Y-65073103D01*
X154805016Y-65075617D01*
X154599839Y-65077603D01*
X154396614Y-65078953D01*
X154204308Y-65079559D01*
X154091212Y-65079690D01*
X153893490Y-65079959D01*
X153691338Y-65080276D01*
X153493458Y-65080627D01*
X153308551Y-65080996D01*
X153145319Y-65081366D01*
X153012462Y-65081722D01*
X152889263Y-65082071D01*
X152587201Y-65082776D01*
X152270702Y-65083320D01*
X151942093Y-65083707D01*
X151603700Y-65083943D01*
X151257850Y-65084035D01*
X150906870Y-65083987D01*
X150553087Y-65083806D01*
X150198826Y-65083496D01*
X149846416Y-65083064D01*
X149498182Y-65082515D01*
X149156451Y-65081855D01*
X148823551Y-65081090D01*
X148501807Y-65080224D01*
X148193546Y-65079263D01*
X147901095Y-65078214D01*
X147626781Y-65077082D01*
X147372930Y-65075872D01*
X147141870Y-65074590D01*
X146935926Y-65073241D01*
X146757426Y-65071832D01*
X146608696Y-65070368D01*
X146492062Y-65068854D01*
X146409852Y-65067296D01*
X146364393Y-65065699D01*
X146295912Y-65061683D01*
X146197601Y-65057881D01*
X146127507Y-65060267D01*
X146078705Y-65070786D01*
X146044267Y-65091382D01*
X146017267Y-65123999D01*
X145990778Y-65170582D01*
X145985943Y-65179774D01*
X145960333Y-65228558D01*
X145924631Y-65296646D01*
X145885000Y-65372284D01*
X145873851Y-65393380D01*
X145831925Y-65469850D01*
X145793331Y-65536358D01*
X145765232Y-65580454D01*
X145760938Y-65586603D01*
X145735149Y-65629763D01*
X145724616Y-65658901D01*
X145723747Y-65665200D01*
X145705077Y-65680308D01*
X145693721Y-65687635D01*
X145685539Y-65719384D01*
X145682805Y-65742073D01*
X145670885Y-65758614D01*
X145656633Y-65769075D01*
X145635880Y-65802575D01*
X145613675Y-65847588D01*
X145582690Y-65906277D01*
X145550680Y-65964117D01*
X145523917Y-66009797D01*
X145508674Y-66032000D01*
X145505957Y-66035239D01*
X145488494Y-66065078D01*
X145465074Y-66112347D01*
X145459865Y-66123114D01*
X145430072Y-66174094D01*
X145402592Y-66207547D01*
X145386556Y-66224566D01*
X145372923Y-66255400D01*
X145364656Y-66279865D01*
X145338731Y-66317338D01*
X145329947Y-66327652D01*
X145286391Y-66387357D01*
X145247135Y-66452558D01*
X145222902Y-66505808D01*
X145214433Y-66524055D01*
X145194798Y-66540000D01*
X145188032Y-66542062D01*
X145177539Y-66565623D01*
X145166941Y-66594498D01*
X145138462Y-66633191D01*
X145111374Y-66665948D01*
X145099385Y-66688240D01*
X145097784Y-66692998D01*
X145080286Y-66724221D01*
X145047598Y-66776130D01*
X145004838Y-66840480D01*
X144959153Y-66912019D01*
X144908146Y-66999796D01*
X144857482Y-67093609D01*
X144810389Y-67186826D01*
X144770093Y-67272819D01*
X144739820Y-67344956D01*
X144722798Y-67396608D01*
X144722252Y-67421144D01*
X144361836Y-67421144D01*
X144379039Y-67391216D01*
X144415262Y-67325427D01*
X144456251Y-67248917D01*
X144477029Y-67211256D01*
X144525468Y-67129606D01*
X144571846Y-67057769D01*
X144594440Y-67023666D01*
X144643684Y-66943560D01*
X144687039Y-66866621D01*
X144700106Y-66841937D01*
X144751672Y-66746506D01*
X144786906Y-66685229D01*
X144806308Y-66657231D01*
X144812888Y-66647991D01*
X144834562Y-66611651D01*
X144863466Y-66559538D01*
X144881085Y-66527879D01*
X144908130Y-66483460D01*
X144924701Y-66461846D01*
X144934440Y-66451375D01*
X144951894Y-66425298D01*
X144979300Y-66379222D01*
X145019509Y-66308340D01*
X145075372Y-66207846D01*
X145092500Y-66177814D01*
X145125761Y-66123986D01*
X145150764Y-66089077D01*
X145165842Y-66068122D01*
X145177539Y-66037738D01*
X145181766Y-66023496D01*
X145205878Y-65993727D01*
X145218061Y-65980730D01*
X145251888Y-65933143D01*
X145296658Y-65860921D01*
X145348253Y-65770849D01*
X145402553Y-65669713D01*
X145418663Y-65640222D01*
X145461237Y-65568859D01*
X145505961Y-65500116D01*
X145531209Y-65461618D01*
X145557935Y-65415180D01*
X145568308Y-65388595D01*
X145568878Y-65382855D01*
X145583077Y-65367692D01*
X145585151Y-65367190D01*
X145603415Y-65346292D01*
X145625458Y-65304192D01*
X145630862Y-65292697D01*
X145660120Y-65239433D01*
X145702255Y-65169877D01*
X145750087Y-65096025D01*
X145760155Y-65080905D01*
X145813755Y-64997501D01*
X145864675Y-64914170D01*
X145903090Y-64846910D01*
X145928371Y-64799737D01*
X145954432Y-64751090D01*
X146276442Y-64751090D01*
X146277012Y-64787999D01*
X146302598Y-64808756D01*
X146333823Y-64813929D01*
X146397657Y-64817188D01*
X146483837Y-64818004D01*
X146583631Y-64816517D01*
X146688308Y-64812864D01*
X146789137Y-64807185D01*
X146877385Y-64799619D01*
X146883301Y-64799175D01*
X146927838Y-64797747D01*
X147009075Y-64796409D01*
X147125183Y-64795163D01*
X147274333Y-64794015D01*
X147454693Y-64792968D01*
X147664436Y-64792026D01*
X147901731Y-64791194D01*
X148164749Y-64790474D01*
X148451660Y-64789872D01*
X148760634Y-64789392D01*
X149089843Y-64789036D01*
X149437456Y-64788810D01*
X149801644Y-64788717D01*
X150180577Y-64788761D01*
X150572425Y-64788946D01*
X150975360Y-64789277D01*
X151387552Y-64789757D01*
X151387954Y-64789758D01*
X151885574Y-64790391D01*
X152345502Y-64790905D01*
X152769119Y-64791293D01*
X153157807Y-64791550D01*
X153512950Y-64791669D01*
X153835930Y-64791643D01*
X154128129Y-64791466D01*
X154390931Y-64791132D01*
X154625716Y-64790635D01*
X154833869Y-64789967D01*
X155016771Y-64789123D01*
X155175804Y-64788096D01*
X155312353Y-64786880D01*
X155427798Y-64785469D01*
X155523523Y-64783855D01*
X155600909Y-64782033D01*
X155661341Y-64779997D01*
X155706199Y-64777739D01*
X155736867Y-64775254D01*
X155754726Y-64772535D01*
X155761161Y-64769576D01*
X155761088Y-64757039D01*
X155744128Y-64718043D01*
X155710648Y-64670178D01*
X155690853Y-64645254D01*
X155661643Y-64603892D01*
X155650154Y-64580338D01*
X155645855Y-64567921D01*
X155624598Y-64529629D01*
X155591539Y-64478692D01*
X155569274Y-64445469D01*
X155543118Y-64403306D01*
X155532923Y-64382063D01*
X155532617Y-64380148D01*
X155525619Y-64364794D01*
X155507780Y-64333816D01*
X155476977Y-64283807D01*
X155431083Y-64211361D01*
X155367975Y-64113074D01*
X155285527Y-63985538D01*
X155257165Y-63941308D01*
X155218058Y-63878560D01*
X155191207Y-63833142D01*
X155181231Y-63812708D01*
X155180915Y-63810792D01*
X155167559Y-63784675D01*
X155140615Y-63743838D01*
X155138837Y-63741305D01*
X155109354Y-63694107D01*
X155067818Y-63621547D01*
X155019107Y-63532528D01*
X154968104Y-63435954D01*
X154919687Y-63340729D01*
X154902079Y-63312317D01*
X154883269Y-63296768D01*
X154879389Y-63295989D01*
X154868616Y-63276005D01*
X154868578Y-63275305D01*
X154857118Y-63248346D01*
X154829166Y-63200025D01*
X154790462Y-63140308D01*
X154787965Y-63136621D01*
X154749754Y-63077423D01*
X154722625Y-63030338D01*
X154712308Y-63005270D01*
X154712170Y-63003867D01*
X154700068Y-62975645D01*
X154672250Y-62925888D01*
X154634154Y-62864399D01*
X154629238Y-62856760D01*
X154592154Y-62796776D01*
X154565939Y-62750264D01*
X154556000Y-62726744D01*
X154553183Y-62716050D01*
X154532889Y-62677220D01*
X154499538Y-62624895D01*
X154460923Y-62570347D01*
X154424836Y-62524852D01*
X154399069Y-62499683D01*
X154383709Y-62495905D01*
X154329166Y-62492044D01*
X154238299Y-62490380D01*
X154112722Y-62490916D01*
X153954052Y-62493654D01*
X153763905Y-62498597D01*
X153729589Y-62499511D01*
X153609608Y-62501809D01*
X153455635Y-62503765D01*
X153271405Y-62505369D01*
X153060651Y-62506614D01*
X152827107Y-62507491D01*
X152574505Y-62507992D01*
X152306579Y-62508107D01*
X152027063Y-62507829D01*
X151739690Y-62507149D01*
X151448194Y-62506058D01*
X151156308Y-62504548D01*
X150882079Y-62502923D01*
X150472762Y-62500501D01*
X150099754Y-62498307D01*
X149761348Y-62496342D01*
X149455839Y-62494609D01*
X149181523Y-62493108D01*
X148936693Y-62491841D01*
X148719645Y-62490809D01*
X148528673Y-62490014D01*
X148362072Y-62489456D01*
X148218136Y-62489138D01*
X148095161Y-62489061D01*
X147991440Y-62489226D01*
X147905269Y-62489635D01*
X147834942Y-62490289D01*
X147778754Y-62491189D01*
X147735000Y-62492337D01*
X147701973Y-62493734D01*
X147677970Y-62495381D01*
X147661284Y-62497281D01*
X147650211Y-62499434D01*
X147643044Y-62501841D01*
X147638079Y-62504505D01*
X147633610Y-62507426D01*
X147614724Y-62524130D01*
X147577529Y-62568423D01*
X147538092Y-62625001D01*
X147504913Y-62677618D01*
X147451387Y-62763832D01*
X147402833Y-62843538D01*
X147363227Y-62910105D01*
X147336547Y-62956902D01*
X147326769Y-62977300D01*
X147326762Y-62977431D01*
X147316193Y-62997555D01*
X147289373Y-63040587D01*
X147251975Y-63097418D01*
X147213467Y-63156073D01*
X147181447Y-63207469D01*
X147164497Y-63238000D01*
X147153928Y-63258783D01*
X147126785Y-63306692D01*
X147091889Y-63365000D01*
X147066452Y-63407866D01*
X147036835Y-63461947D01*
X147020781Y-63496884D01*
X147012112Y-63515160D01*
X146992337Y-63531077D01*
X146987698Y-63531838D01*
X146975077Y-63551687D01*
X146974863Y-63553493D01*
X146961836Y-63582352D01*
X146932627Y-63632175D01*
X146892822Y-63693341D01*
X146847047Y-63763083D01*
X146802162Y-63835717D01*
X146769876Y-63892538D01*
X146741246Y-63946598D01*
X146687770Y-64042817D01*
X146639264Y-64124247D01*
X146599830Y-64184135D01*
X146573570Y-64215727D01*
X146558661Y-64230963D01*
X146545231Y-64258261D01*
X146545091Y-64260063D01*
X146532557Y-64290012D01*
X146505921Y-64332481D01*
X146486260Y-64362178D01*
X146448868Y-64424263D01*
X146411249Y-64491804D01*
X146387957Y-64535237D01*
X146347514Y-64609374D01*
X146313790Y-64669786D01*
X146301343Y-64692388D01*
X146276442Y-64751090D01*
X145954432Y-64751090D01*
X145975248Y-64712235D01*
X146018806Y-64630898D01*
X146046267Y-64582029D01*
X146098359Y-64496732D01*
X146148080Y-64422534D01*
X146159513Y-64406103D01*
X146204761Y-64335023D01*
X146255439Y-64248605D01*
X146302579Y-64161974D01*
X146320480Y-64127793D01*
X146361920Y-64050892D01*
X146398223Y-63986335D01*
X146423125Y-63945376D01*
X146454461Y-63894650D01*
X146487320Y-63833923D01*
X146493858Y-63821116D01*
X146522946Y-63768369D01*
X146563457Y-63698280D01*
X146608731Y-63622450D01*
X146629527Y-63587832D01*
X146666472Y-63524198D01*
X146692007Y-63477219D01*
X146701539Y-63455173D01*
X146710363Y-63436166D01*
X146736769Y-63402876D01*
X146739936Y-63399430D01*
X146794338Y-63331440D01*
X146860669Y-63235617D01*
X146934589Y-63119035D01*
X147011755Y-62988772D01*
X147087828Y-62851901D01*
X147158467Y-62715498D01*
X147176076Y-62687086D01*
X147194885Y-62671537D01*
X147198892Y-62670696D01*
X147209539Y-62650482D01*
X147213733Y-62636640D01*
X147234981Y-62596295D01*
X147268154Y-62544384D01*
X147290087Y-62511249D01*
X147316474Y-62466653D01*
X147326769Y-62441971D01*
X147335181Y-62421454D01*
X147361156Y-62386876D01*
X147371899Y-62372806D01*
X147402109Y-62324531D01*
X147440459Y-62256284D01*
X147462352Y-62214254D01*
X147803535Y-62214254D01*
X147804525Y-62215359D01*
X147815665Y-62218667D01*
X147840191Y-62221640D01*
X147879708Y-62224286D01*
X147935821Y-62226616D01*
X148010138Y-62228638D01*
X148104263Y-62230362D01*
X148219802Y-62231797D01*
X148358361Y-62232953D01*
X148521545Y-62233838D01*
X148710960Y-62234463D01*
X148928212Y-62234837D01*
X149174906Y-62234968D01*
X149452649Y-62234867D01*
X149763045Y-62234543D01*
X150107701Y-62234004D01*
X150488221Y-62233261D01*
X150906213Y-62232322D01*
X151117115Y-62231816D01*
X151455718Y-62230967D01*
X151782501Y-62230104D01*
X152095366Y-62229235D01*
X152392217Y-62228367D01*
X152670957Y-62227507D01*
X152929489Y-62226662D01*
X153165718Y-62225841D01*
X153377546Y-62225050D01*
X153562877Y-62224298D01*
X153719614Y-62223590D01*
X153845661Y-62222935D01*
X153938921Y-62222340D01*
X153997297Y-62221812D01*
X154018692Y-62221359D01*
X154025690Y-62220903D01*
X154065312Y-62223940D01*
X154120944Y-62232066D01*
X154166244Y-62238119D01*
X154199878Y-62234249D01*
X154215556Y-62215423D01*
X154217256Y-62194995D01*
X154200430Y-62137340D01*
X154159284Y-62052770D01*
X154094652Y-61942916D01*
X154007371Y-61809407D01*
X154005492Y-61806636D01*
X153967776Y-61749421D01*
X153940970Y-61705798D01*
X153930769Y-61685015D01*
X153924927Y-61672681D01*
X153901184Y-61633264D01*
X153863400Y-61574268D01*
X153816147Y-61502956D01*
X153787733Y-61459967D01*
X153732053Y-61372070D01*
X153682418Y-61289370D01*
X153646997Y-61225282D01*
X153624852Y-61183344D01*
X153575299Y-61095805D01*
X153527158Y-61017073D01*
X153497295Y-60969419D01*
X153471693Y-60925040D01*
X153461846Y-60902859D01*
X153461809Y-60902209D01*
X153450483Y-60877314D01*
X153425057Y-60837785D01*
X153419069Y-60829283D01*
X153400881Y-60802299D01*
X153380522Y-60769600D01*
X153353789Y-60724076D01*
X153316476Y-60658617D01*
X153264380Y-60566115D01*
X153254798Y-60549294D01*
X153225953Y-60501214D01*
X153206013Y-60471605D01*
X153202676Y-60466931D01*
X153181798Y-60432047D01*
X153150153Y-60375006D01*
X153113173Y-60305528D01*
X153056266Y-60196827D01*
X153005673Y-60101995D01*
X152967032Y-60033648D01*
X152937117Y-59987428D01*
X152912704Y-59958974D01*
X152890566Y-59943928D01*
X152867479Y-59937930D01*
X152840216Y-59936621D01*
X152808375Y-59939753D01*
X152757321Y-59956149D01*
X152753763Y-59957423D01*
X152715544Y-59962533D01*
X152640711Y-59967467D01*
X152531243Y-59972161D01*
X152389116Y-59976553D01*
X152216310Y-59980579D01*
X152014801Y-59984175D01*
X151786567Y-59987277D01*
X151613312Y-59989316D01*
X151427288Y-59991507D01*
X151252975Y-59993560D01*
X151094934Y-59995424D01*
X150957724Y-59997042D01*
X150845907Y-59998363D01*
X150764043Y-59999332D01*
X150716692Y-59999895D01*
X150645215Y-60000250D01*
X150527356Y-59999462D01*
X150392130Y-59997370D01*
X150245180Y-59994170D01*
X150092152Y-59990055D01*
X149938688Y-59985220D01*
X149790433Y-59979859D01*
X149653030Y-59974166D01*
X149532124Y-59968336D01*
X149433357Y-59962563D01*
X149362375Y-59957042D01*
X149324820Y-59951966D01*
X149317373Y-59950137D01*
X149245746Y-59940918D01*
X149187683Y-59953567D01*
X149169537Y-59964345D01*
X149121889Y-60011037D01*
X149064831Y-60085735D01*
X149002298Y-60183018D01*
X148938223Y-60297461D01*
X148927908Y-60317046D01*
X148884165Y-60397661D01*
X148850796Y-60454970D01*
X148831200Y-60483077D01*
X148830559Y-60483770D01*
X148815059Y-60508572D01*
X148792649Y-60551461D01*
X148770924Y-60591281D01*
X148733047Y-60654321D01*
X148690104Y-60721351D01*
X148653066Y-60780001D01*
X148626460Y-60827527D01*
X148616308Y-60853235D01*
X148615768Y-60858720D01*
X148601379Y-60873846D01*
X148597010Y-60875845D01*
X148577170Y-60901450D01*
X148553124Y-60947115D01*
X148525983Y-61002951D01*
X148492423Y-61065601D01*
X148461575Y-61117905D01*
X148440462Y-61147384D01*
X148432545Y-61156368D01*
X148406685Y-61191000D01*
X148377140Y-61234479D01*
X148352853Y-61273361D01*
X148342769Y-61294204D01*
X148342705Y-61294774D01*
X148331023Y-61317615D01*
X148303115Y-61362711D01*
X148264616Y-61420923D01*
X148262174Y-61424528D01*
X148223938Y-61483856D01*
X148196787Y-61531208D01*
X148186462Y-61556620D01*
X148185724Y-61562221D01*
X148166923Y-61577231D01*
X148161174Y-61578182D01*
X148147385Y-61598637D01*
X148147372Y-61599213D01*
X148136259Y-61629623D01*
X148110595Y-61671907D01*
X148107262Y-61676657D01*
X148071048Y-61732101D01*
X148035050Y-61792154D01*
X148023943Y-61811392D01*
X147988968Y-61870316D01*
X147943680Y-61945279D01*
X147895046Y-62024709D01*
X147867995Y-62070113D01*
X147831931Y-62136862D01*
X147809090Y-62187715D01*
X147803535Y-62214254D01*
X147462352Y-62214254D01*
X147481217Y-62178038D01*
X147505136Y-62131568D01*
X147540625Y-62067454D01*
X147568291Y-62023433D01*
X147583599Y-62007077D01*
X147587917Y-62006386D01*
X147600308Y-61986789D01*
X147605822Y-61972286D01*
X147629224Y-61929930D01*
X147666754Y-61868685D01*
X147713802Y-61796289D01*
X147745192Y-61748542D01*
X147794735Y-61670538D01*
X147835388Y-61603349D01*
X147860561Y-61557692D01*
X147874473Y-61529966D01*
X147920305Y-61447919D01*
X147980853Y-61351664D01*
X148061091Y-61233153D01*
X148103268Y-61169320D01*
X148142927Y-61103553D01*
X148168438Y-61054577D01*
X148172012Y-61046611D01*
X148194003Y-61007143D01*
X148210770Y-60991077D01*
X148214825Y-60990271D01*
X148225539Y-60970174D01*
X148229733Y-60956332D01*
X148250981Y-60915987D01*
X148284154Y-60864077D01*
X148306358Y-60830867D01*
X148332556Y-60788257D01*
X148342769Y-60766384D01*
X148346465Y-60756570D01*
X148366823Y-60721192D01*
X148399030Y-60672115D01*
X148428340Y-60628406D01*
X148478990Y-60547067D01*
X148534702Y-60449768D01*
X148601177Y-60326769D01*
X148628711Y-60277392D01*
X148665016Y-60218631D01*
X148693055Y-60180231D01*
X148731226Y-60131709D01*
X148782829Y-60056902D01*
X148837965Y-59970283D01*
X148889111Y-59883699D01*
X148928745Y-59809000D01*
X148947229Y-59771995D01*
X148981242Y-59708544D01*
X149005884Y-59667346D01*
X149319729Y-59667346D01*
X149319765Y-59711308D01*
X149891229Y-59711308D01*
X149939037Y-59711292D01*
X150083710Y-59711127D01*
X150258935Y-59710794D01*
X150458617Y-59710310D01*
X150676662Y-59709694D01*
X150906975Y-59708964D01*
X151143461Y-59708138D01*
X151380027Y-59707233D01*
X151610577Y-59706267D01*
X151664034Y-59706030D01*
X151897497Y-59704908D01*
X152095400Y-59703740D01*
X152260649Y-59702431D01*
X152396154Y-59700883D01*
X152504825Y-59699003D01*
X152589568Y-59696692D01*
X152653294Y-59693857D01*
X152698911Y-59690401D01*
X152729328Y-59686228D01*
X152747452Y-59681242D01*
X152756194Y-59675348D01*
X152758462Y-59668449D01*
X152749087Y-59636574D01*
X152721290Y-59595336D01*
X152706911Y-59578627D01*
X152682695Y-59545376D01*
X152653400Y-59498500D01*
X152615917Y-59432671D01*
X152567139Y-59342562D01*
X152503958Y-59222846D01*
X152447108Y-59115043D01*
X152393253Y-59015113D01*
X152350816Y-58939590D01*
X152316561Y-58882741D01*
X152287251Y-58838830D01*
X152286241Y-58837398D01*
X152260937Y-58795431D01*
X152250462Y-58766155D01*
X152250266Y-58763669D01*
X152237968Y-58729431D01*
X152210682Y-58674956D01*
X152174211Y-58611112D01*
X152134362Y-58548769D01*
X152123921Y-58532423D01*
X152092152Y-58475685D01*
X152060655Y-58412000D01*
X152049556Y-58389155D01*
X152013715Y-58321992D01*
X151967415Y-58240669D01*
X151917859Y-58158000D01*
X151893113Y-58117747D01*
X151845297Y-58039226D01*
X151804440Y-57971220D01*
X151777378Y-57925065D01*
X151750990Y-57881171D01*
X151708519Y-57814414D01*
X151662756Y-57745407D01*
X151660928Y-57742712D01*
X151623189Y-57685375D01*
X151596363Y-57641503D01*
X151586154Y-57620400D01*
X151582723Y-57610983D01*
X151563083Y-57575748D01*
X151531826Y-57526520D01*
X151516207Y-57502438D01*
X151477799Y-57438901D01*
X151449385Y-57386231D01*
X151439838Y-57367489D01*
X151405863Y-57307852D01*
X151366944Y-57245941D01*
X151348508Y-57216980D01*
X151322733Y-57170685D01*
X151312616Y-57143364D01*
X151311830Y-57137508D01*
X151293077Y-57122461D01*
X151287603Y-57121621D01*
X151273539Y-57101559D01*
X151269344Y-57087717D01*
X151248096Y-57047371D01*
X151214923Y-56995461D01*
X151192748Y-56962259D01*
X151166530Y-56919436D01*
X151156308Y-56897265D01*
X151156207Y-56895218D01*
X151141136Y-56861224D01*
X151108986Y-56820062D01*
X151072024Y-56785365D01*
X151042516Y-56770769D01*
X151040366Y-56770884D01*
X151010263Y-56790253D01*
X150983263Y-56834269D01*
X150978919Y-56844746D01*
X150942434Y-56930096D01*
X150915243Y-56986864D01*
X150893501Y-57022389D01*
X150873361Y-57044008D01*
X150857480Y-57061397D01*
X150843692Y-57095546D01*
X150841886Y-57106816D01*
X150824154Y-57122461D01*
X150818680Y-57123301D01*
X150804616Y-57143364D01*
X150800421Y-57157206D01*
X150779173Y-57197551D01*
X150746000Y-57249461D01*
X150723680Y-57282696D01*
X150697563Y-57324456D01*
X150687385Y-57345130D01*
X150687126Y-57346256D01*
X150674733Y-57369972D01*
X150648031Y-57415392D01*
X150612955Y-57472895D01*
X150575438Y-57532860D01*
X150541416Y-57585664D01*
X150516820Y-57621687D01*
X150495291Y-57654386D01*
X150451241Y-57730561D01*
X150391118Y-57842041D01*
X150366586Y-57887069D01*
X150329091Y-57951586D01*
X150299136Y-57998349D01*
X150294732Y-58004651D01*
X150258507Y-58060564D01*
X150222587Y-58121131D01*
X150185810Y-58186714D01*
X150155848Y-58239676D01*
X150137654Y-58270847D01*
X150127279Y-58286965D01*
X150120769Y-58294769D01*
X150108627Y-58311574D01*
X150086577Y-58348500D01*
X150067885Y-58382146D01*
X150037731Y-58436423D01*
X150019083Y-58467082D01*
X150001070Y-58490154D01*
X149995241Y-58497958D01*
X149973625Y-58534575D01*
X149941490Y-58593313D01*
X149903378Y-58666000D01*
X149881296Y-58708199D01*
X149845560Y-58773299D01*
X149818005Y-58819428D01*
X149803269Y-58838590D01*
X149800478Y-58840192D01*
X149788616Y-58864881D01*
X149788599Y-58865495D01*
X149777443Y-58894794D01*
X149751826Y-58936522D01*
X149747408Y-58942847D01*
X149711344Y-58998535D01*
X149675510Y-59058977D01*
X149638733Y-59124560D01*
X149608771Y-59177522D01*
X149590577Y-59208693D01*
X149580202Y-59224811D01*
X149573692Y-59232615D01*
X149561550Y-59249420D01*
X149539500Y-59286346D01*
X149520808Y-59319993D01*
X149490654Y-59374269D01*
X149472478Y-59405010D01*
X149456198Y-59428000D01*
X149448916Y-59438618D01*
X149427461Y-59476654D01*
X149399396Y-59530577D01*
X149380102Y-59566326D01*
X149353431Y-59607392D01*
X149336159Y-59623384D01*
X149325910Y-59633017D01*
X149319729Y-59667346D01*
X149005884Y-59667346D01*
X149008806Y-59662461D01*
X149014506Y-59653819D01*
X149048057Y-59599908D01*
X149082943Y-59540346D01*
X149088110Y-59531196D01*
X149126207Y-59463799D01*
X149161548Y-59401369D01*
X149164434Y-59396274D01*
X149197151Y-59338451D01*
X149225048Y-59289023D01*
X149245078Y-59255395D01*
X149261077Y-59232615D01*
X149265701Y-59227087D01*
X149289212Y-59190028D01*
X149328027Y-59120892D01*
X149383022Y-59018139D01*
X149409995Y-58968164D01*
X149438400Y-58918208D01*
X149455671Y-58891139D01*
X149466477Y-58875964D01*
X149484514Y-58846736D01*
X149512172Y-58798990D01*
X149552494Y-58727472D01*
X149608521Y-58626923D01*
X149634077Y-58581615D01*
X149698987Y-58470329D01*
X149771578Y-58349677D01*
X149843034Y-58234205D01*
X149904539Y-58138461D01*
X149936838Y-58087452D01*
X149984822Y-58005447D01*
X150023006Y-57933308D01*
X150039216Y-57901234D01*
X150082721Y-57822502D01*
X150124893Y-57753941D01*
X150144027Y-57724581D01*
X150169433Y-57682656D01*
X150179385Y-57661631D01*
X150179472Y-57661117D01*
X150191367Y-57639073D01*
X150220449Y-57591689D01*
X150262594Y-57525549D01*
X150313680Y-57447234D01*
X150367250Y-57364426D01*
X150416009Y-57286184D01*
X150453629Y-57222769D01*
X150474757Y-57182966D01*
X150477248Y-57177476D01*
X150499259Y-57138445D01*
X150516308Y-57122461D01*
X150520046Y-57121802D01*
X150531077Y-57102272D01*
X150531094Y-57101922D01*
X150542172Y-57077569D01*
X150570855Y-57028206D01*
X150612905Y-56960836D01*
X150664083Y-56882464D01*
X150715338Y-56804062D01*
X150765683Y-56724055D01*
X150805401Y-56657740D01*
X150828784Y-56614407D01*
X150840326Y-56591436D01*
X150877976Y-56526823D01*
X150920594Y-56462984D01*
X150932667Y-56446617D01*
X150970251Y-56403947D01*
X151005781Y-56384571D01*
X151052784Y-56380000D01*
X151116760Y-56390530D01*
X151179662Y-56432501D01*
X151189076Y-56441857D01*
X151221405Y-56480500D01*
X151234462Y-56507627D01*
X151244258Y-56531434D01*
X151273539Y-56565615D01*
X151299594Y-56593095D01*
X151312616Y-56616191D01*
X151319142Y-56634339D01*
X151341597Y-56676725D01*
X151373371Y-56730446D01*
X151407431Y-56784108D01*
X151436742Y-56826313D01*
X151454269Y-56845666D01*
X151455398Y-56846219D01*
X151468923Y-56869230D01*
X151475650Y-56888311D01*
X151497881Y-56932520D01*
X151530268Y-56989717D01*
X151539870Y-57005922D01*
X151593411Y-57097050D01*
X151645264Y-57186973D01*
X151705672Y-57293423D01*
X151712189Y-57304819D01*
X151749560Y-57366570D01*
X151783826Y-57418554D01*
X151785506Y-57420936D01*
X151810359Y-57459976D01*
X151820616Y-57483419D01*
X151824162Y-57493223D01*
X151844170Y-57528819D01*
X151875942Y-57578095D01*
X151894506Y-57606077D01*
X151925912Y-57656285D01*
X151943881Y-57689077D01*
X151954304Y-57709745D01*
X151981206Y-57757686D01*
X152015798Y-57816077D01*
X152038894Y-57855274D01*
X152078656Y-57927213D01*
X152108775Y-57987038D01*
X152117027Y-58004098D01*
X152140703Y-58044256D01*
X152157379Y-58060308D01*
X152164643Y-58064273D01*
X152172308Y-58091484D01*
X152172375Y-58093402D01*
X152184628Y-58131401D01*
X152211618Y-58177865D01*
X152231251Y-58207534D01*
X152268607Y-58269630D01*
X152306168Y-58337189D01*
X152328828Y-58378770D01*
X152372492Y-58456294D01*
X152424314Y-58546318D01*
X152477351Y-58636692D01*
X152516186Y-58702979D01*
X152567258Y-58792479D01*
X152611188Y-58871979D01*
X152641422Y-58929769D01*
X152661720Y-58970057D01*
X152686044Y-59015561D01*
X152699614Y-59037231D01*
X152700263Y-59037914D01*
X152715915Y-59062710D01*
X152738357Y-59105615D01*
X152748032Y-59124313D01*
X152782310Y-59183966D01*
X152821364Y-59245905D01*
X152840302Y-59275162D01*
X152865728Y-59317905D01*
X152875693Y-59340077D01*
X152880942Y-59352751D01*
X152903219Y-59390499D01*
X152937029Y-59441723D01*
X152938043Y-59443203D01*
X152978746Y-59507199D01*
X153026302Y-59588519D01*
X153069818Y-59668449D01*
X153070628Y-59669936D01*
G37*
D14*
%TO.C,U1*%
X142082500Y-88380750D02*
X142082500Y-89380750D01*
X142082500Y-107709248D02*
X142082500Y-108709248D01*
X142082500Y-108709248D02*
X142754041Y-109380750D01*
X142754041Y-109380750D02*
X159882500Y-109380750D01*
X146478500Y-103452750D02*
X155477500Y-103452750D01*
X146478500Y-110805750D02*
X146478500Y-103452750D01*
X155477500Y-103452750D02*
X155477500Y-110804750D01*
X155477500Y-110804750D02*
X146482500Y-110804750D01*
X159882500Y-88380750D02*
X142082500Y-88380750D01*
X159882500Y-108380750D02*
X159882500Y-109380750D01*
X159882852Y-88407974D02*
X159882852Y-89407974D01*
%TD*%
M02*
