%TF.GenerationSoftware,KiCad,Pcbnew,9.0.6*%
%TF.CreationDate,2025-11-19T18:33:23-08:00*%
%TF.ProjectId,pyramid_clock,70797261-6d69-4645-9f63-6c6f636b2e6b,rev?*%
%TF.SameCoordinates,Original*%
%TF.FileFunction,Copper,L1,Top*%
%TF.FilePolarity,Positive*%
%FSLAX46Y46*%
G04 Gerber Fmt 4.6, Leading zero omitted, Abs format (unit mm)*
G04 Created by KiCad (PCBNEW 9.0.6) date 2025-11-19 18:33:23*
%MOMM*%
%LPD*%
G01*
G04 APERTURE LIST*
G04 Aperture macros list*
%AMRoundRect*
0 Rectangle with rounded corners*
0 $1 Rounding radius*
0 $2 $3 $4 $5 $6 $7 $8 $9 X,Y pos of 4 corners*
0 Add a 4 corners polygon primitive as box body*
4,1,4,$2,$3,$4,$5,$6,$7,$8,$9,$2,$3,0*
0 Add four circle primitives for the rounded corners*
1,1,$1+$1,$2,$3*
1,1,$1+$1,$4,$5*
1,1,$1+$1,$6,$7*
1,1,$1+$1,$8,$9*
0 Add four rect primitives between the rounded corners*
20,1,$1+$1,$2,$3,$4,$5,0*
20,1,$1+$1,$4,$5,$6,$7,0*
20,1,$1+$1,$6,$7,$8,$9,0*
20,1,$1+$1,$8,$9,$2,$3,0*%
G04 Aperture macros list end*
%TA.AperFunction,SMDPad,CuDef*%
%ADD10R,1.500000X1.000000*%
%TD*%
%TA.AperFunction,SMDPad,CuDef*%
%ADD11RoundRect,0.250000X0.475000X-0.337500X0.475000X0.337500X-0.475000X0.337500X-0.475000X-0.337500X0*%
%TD*%
%TA.AperFunction,SMDPad,CuDef*%
%ADD12RoundRect,0.250000X0.450000X-0.350000X0.450000X0.350000X-0.450000X0.350000X-0.450000X-0.350000X0*%
%TD*%
%TA.AperFunction,ViaPad*%
%ADD13C,6.000000*%
%TD*%
%TA.AperFunction,ViaPad*%
%ADD14C,3.000000*%
%TD*%
%TA.AperFunction,ViaPad*%
%ADD15C,0.600000*%
%TD*%
%TA.AperFunction,Conductor*%
%ADD16C,0.400000*%
%TD*%
%TA.AperFunction,Conductor*%
%ADD17C,0.200000*%
%TD*%
G04 APERTURE END LIST*
D10*
%TO.P,D8,1,VSS*%
%TO.N,Net-(D1-VSS)*%
X158481119Y-82755705D03*
%TO.P,D8,2,DIN*%
%TO.N,Net-(D8-DIN)*%
X158481119Y-85955705D03*
%TO.P,D8,3,VDD*%
%TO.N,Net-(D1-VDD)*%
X163381119Y-85955705D03*
%TO.P,D8,4,DOUT*%
%TO.N,Net-(D7-DIN)*%
X163381119Y-82755705D03*
%TD*%
%TO.P,D4,1,VSS*%
%TO.N,Net-(D1-VSS)*%
X136618664Y-128850989D03*
%TO.P,D4,2,DIN*%
%TO.N,Net-(D4-DIN)*%
X136618664Y-132050989D03*
%TO.P,D4,3,VDD*%
%TO.N,Net-(D1-VDD)*%
X141518664Y-132050989D03*
%TO.P,D4,4,DOUT*%
%TO.N,Net-(D3-DIN)*%
X141518664Y-128850989D03*
%TD*%
D11*
%TO.P,C6,1*%
%TO.N,Net-(D1-VDD)*%
X85500000Y-133037500D03*
%TO.P,C6,2*%
%TO.N,Net-(D1-VSS)*%
X85500000Y-130962500D03*
%TD*%
%TO.P,C4,1*%
%TO.N,Net-(D1-VDD)*%
X133500000Y-133037500D03*
%TO.P,C4,2*%
%TO.N,Net-(D1-VSS)*%
X133500000Y-130962500D03*
%TD*%
D10*
%TO.P,D5,1,VSS*%
%TO.N,Net-(D1-VSS)*%
X112643247Y-128850989D03*
%TO.P,D5,2,DIN*%
%TO.N,Net-(D5-DIN)*%
X112643247Y-132050989D03*
%TO.P,D5,3,VDD*%
%TO.N,Net-(D1-VDD)*%
X117543247Y-132050989D03*
%TO.P,D5,4,DOUT*%
%TO.N,Net-(D4-DIN)*%
X117543247Y-128850989D03*
%TD*%
%TO.P,D10,1,VSS*%
%TO.N,Net-(D1-VSS)*%
X118500000Y-82800000D03*
%TO.P,D10,2,DIN*%
%TO.N,Net-(D10-DIN)*%
X118500000Y-86000000D03*
%TO.P,D10,3,VDD*%
%TO.N,Net-(D1-VDD)*%
X123400000Y-86000000D03*
%TO.P,D10,4,DOUT*%
%TO.N,Net-(D10-DOUT)*%
X123400000Y-82800000D03*
%TD*%
D11*
%TO.P,C11,1*%
%TO.N,Net-(D1-VDD)*%
X145500000Y-36537500D03*
%TO.P,C11,2*%
%TO.N,Net-(D1-VSS)*%
X145500000Y-34462500D03*
%TD*%
%TO.P,C9,1*%
%TO.N,Net-(D1-VDD)*%
X135500000Y-87037500D03*
%TO.P,C9,2*%
%TO.N,Net-(D1-VSS)*%
X135500000Y-84962500D03*
%TD*%
%TO.P,C10,1*%
%TO.N,Net-(D1-VDD)*%
X115500000Y-87037500D03*
%TO.P,C10,2*%
%TO.N,Net-(D1-VSS)*%
X115500000Y-84962500D03*
%TD*%
%TO.P,C3,1*%
%TO.N,Net-(D1-VDD)*%
X157500000Y-133037500D03*
%TO.P,C3,2*%
%TO.N,Net-(D1-VSS)*%
X157500000Y-130962500D03*
%TD*%
D10*
%TO.P,D3,1,VSS*%
%TO.N,Net-(D1-VSS)*%
X160594082Y-128850989D03*
%TO.P,D3,2,DIN*%
%TO.N,Net-(D3-DIN)*%
X160594082Y-132050989D03*
%TO.P,D3,3,VDD*%
%TO.N,Net-(D1-VDD)*%
X165494082Y-132050989D03*
%TO.P,D3,4,DOUT*%
%TO.N,Net-(D2-DIN)*%
X165494082Y-128850989D03*
%TD*%
D11*
%TO.P,C2,1*%
%TO.N,Net-(D1-VDD)*%
X181500000Y-133037500D03*
%TO.P,C2,2*%
%TO.N,Net-(D1-VSS)*%
X181500000Y-130962500D03*
%TD*%
D10*
%TO.P,D11,1,VSS*%
%TO.N,Net-(D1-VSS)*%
X148550000Y-32400000D03*
%TO.P,D11,2,DIN*%
%TO.N,Net-(D11-DIN)*%
X148550000Y-35600000D03*
%TO.P,D11,3,VDD*%
%TO.N,Net-(D1-VDD)*%
X153450000Y-35600000D03*
%TO.P,D11,4,DOUT*%
%TO.N,Net-(D10-DIN)*%
X153450000Y-32400000D03*
%TD*%
D11*
%TO.P,C1,1*%
%TO.N,Net-(D1-VDD)*%
X205500000Y-133037500D03*
%TO.P,C1,2*%
%TO.N,Net-(D1-VSS)*%
X205500000Y-130962500D03*
%TD*%
D10*
%TO.P,D1,1,VSS*%
%TO.N,Net-(D1-VSS)*%
X208616486Y-128779421D03*
%TO.P,D1,2,DIN*%
%TO.N,Net-(D1-DIN)*%
X208616486Y-131979421D03*
%TO.P,D1,3,VDD*%
%TO.N,Net-(D1-VDD)*%
X213516486Y-131979421D03*
%TO.P,D1,4,DOUT*%
%TO.N,unconnected-(D1-DOUT-Pad4)*%
X213516486Y-128779421D03*
%TD*%
D11*
%TO.P,C7,1*%
%TO.N,Net-(D1-VDD)*%
X175500000Y-87037500D03*
%TO.P,C7,2*%
%TO.N,Net-(D1-VSS)*%
X175500000Y-84962500D03*
%TD*%
%TO.P,C8,1*%
%TO.N,Net-(D1-VDD)*%
X155500000Y-87037500D03*
%TO.P,C8,2*%
%TO.N,Net-(D1-VSS)*%
X155500000Y-84962500D03*
%TD*%
D12*
%TO.P,R1,1*%
%TO.N,unconnected-(R1-Pad1)*%
X146500000Y-106500000D03*
%TO.P,R1,2*%
%TO.N,Net-(D11-DIN)*%
X146500000Y-104500000D03*
%TD*%
D11*
%TO.P,C5,1*%
%TO.N,Net-(D1-VDD)*%
X109500000Y-133037500D03*
%TO.P,C5,2*%
%TO.N,Net-(D1-VSS)*%
X109500000Y-130962500D03*
%TD*%
D10*
%TO.P,D7,1,VSS*%
%TO.N,Net-(D1-VSS)*%
X178503116Y-82755705D03*
%TO.P,D7,2,DIN*%
%TO.N,Net-(D7-DIN)*%
X178503116Y-85955705D03*
%TO.P,D7,3,VDD*%
%TO.N,Net-(D1-VDD)*%
X183403116Y-85955705D03*
%TO.P,D7,4,DOUT*%
%TO.N,Net-(D6-DIN)*%
X183403116Y-82755705D03*
%TD*%
%TO.P,D2,1,VSS*%
%TO.N,Net-(D1-VSS)*%
X184641068Y-128707853D03*
%TO.P,D2,2,DIN*%
%TO.N,Net-(D2-DIN)*%
X184641068Y-131907853D03*
%TO.P,D2,3,VDD*%
%TO.N,Net-(D1-VDD)*%
X189541068Y-131907853D03*
%TO.P,D2,4,DOUT*%
%TO.N,Net-(D1-DIN)*%
X189541068Y-128707853D03*
%TD*%
%TO.P,D9,1,VSS*%
%TO.N,Net-(D1-VSS)*%
X138505254Y-82801839D03*
%TO.P,D9,2,DIN*%
%TO.N,Net-(D10-DOUT)*%
X138505254Y-86001839D03*
%TO.P,D9,3,VDD*%
%TO.N,Net-(D1-VDD)*%
X143405254Y-86001839D03*
%TO.P,D9,4,DOUT*%
%TO.N,Net-(D8-DIN)*%
X143405254Y-82801839D03*
%TD*%
%TO.P,D6,1,VSS*%
%TO.N,Net-(D1-VSS)*%
X88562912Y-128850989D03*
%TO.P,D6,2,DIN*%
%TO.N,Net-(D6-DIN)*%
X88562912Y-132050989D03*
%TO.P,D6,3,VDD*%
%TO.N,Net-(D1-VDD)*%
X93462912Y-132050989D03*
%TO.P,D6,4,DOUT*%
%TO.N,Net-(D5-DIN)*%
X93462912Y-128850989D03*
%TD*%
D13*
%TO.N,Net-(D1-VSS)*%
X162500000Y-121000000D03*
D14*
%TO.N,Net-(D1-VDD)*%
X158000000Y-108000000D03*
D15*
%TO.N,unconnected-(R1-Pad1)*%
X145000000Y-106500750D03*
%TD*%
D16*
%TO.N,Net-(D1-VSS)*%
X146037500Y-34462500D02*
X147000000Y-33500000D01*
X136537500Y-84962500D02*
X135500000Y-84962500D01*
X112643247Y-128850989D02*
X112643247Y-128856753D01*
X156537500Y-84962500D02*
X155500000Y-84962500D01*
X138505254Y-82994746D02*
X136537500Y-84962500D01*
X158481119Y-82755705D02*
X158481119Y-83018881D01*
X148550000Y-32400000D02*
X148550000Y-32450000D01*
X178503116Y-82755705D02*
X178503116Y-82996884D01*
X138505254Y-83005254D02*
X138505254Y-82801839D01*
X145500000Y-34462500D02*
X146037500Y-34462500D01*
X136618664Y-128850989D02*
X136618664Y-128881336D01*
X147000000Y-33500000D02*
X146000000Y-34500000D01*
X176537500Y-84962500D02*
X175500000Y-84962500D01*
X138505254Y-82801839D02*
X138505254Y-82994746D01*
%TO.N,Net-(D1-VDD)*%
X117992258Y-132500000D02*
X119000000Y-132500000D01*
X165494082Y-132050989D02*
X164507571Y-133037500D01*
X189541068Y-131907853D02*
X190407853Y-131907853D01*
X117543247Y-132050989D02*
X116556736Y-133037500D01*
X135500000Y-87037500D02*
X135462500Y-87037500D01*
X133500000Y-133500000D02*
X133500000Y-133037500D01*
X183403116Y-85955705D02*
X182321321Y-87037500D01*
X142369593Y-87037500D02*
X135500000Y-87037500D01*
X93462912Y-132050989D02*
X94050989Y-132050989D01*
X141518664Y-132050989D02*
X140532153Y-133037500D01*
X115537500Y-87037500D02*
X115500000Y-87037500D01*
X117543247Y-132050989D02*
X117992258Y-132500000D01*
X165494082Y-132050989D02*
X166050989Y-132050989D01*
X183403116Y-85955705D02*
X183955705Y-85955705D01*
X190407853Y-131907853D02*
X191500000Y-133000000D01*
X181537500Y-133037500D02*
X181500000Y-133037500D01*
X94050989Y-132050989D02*
X95000000Y-133000000D01*
X175500000Y-87037500D02*
X175462500Y-87037500D01*
X163381119Y-85955705D02*
X163955705Y-85955705D01*
X189541068Y-131907853D02*
X188411421Y-133037500D01*
X214037065Y-132500000D02*
X215000000Y-132500000D01*
X109500000Y-133037500D02*
X109462500Y-133037500D01*
X141518664Y-132050989D02*
X142050989Y-132050989D01*
X142050989Y-132050989D02*
X143000000Y-133000000D01*
X157500000Y-133500000D02*
X157500000Y-133037500D01*
X124000000Y-86000000D02*
X125000000Y-87000000D01*
X163381119Y-85955705D02*
X162299324Y-87037500D01*
X213516486Y-131979421D02*
X214037065Y-132500000D01*
X93462912Y-132050989D02*
X92000000Y-133000000D01*
X213516486Y-131979421D02*
X212458407Y-133037500D01*
X123400000Y-86000000D02*
X122500000Y-86000000D01*
X122500000Y-86000000D02*
X122000000Y-86500000D01*
X143405254Y-86001839D02*
X142369593Y-87037500D01*
X124000000Y-86000000D02*
X123400000Y-86000000D01*
X166050989Y-132050989D02*
X167000000Y-133000000D01*
X163955705Y-85955705D02*
X165000000Y-87000000D01*
X183955705Y-85955705D02*
X185000000Y-87000000D01*
X109500000Y-133500000D02*
X109500000Y-133037500D01*
D17*
%TO.N,Net-(D1-DIN)*%
X192812636Y-131979421D02*
X189541068Y-128707853D01*
X208616486Y-131979421D02*
X192812636Y-131979421D01*
%TO.N,Net-(D2-DIN)*%
X184641068Y-131907853D02*
X168550946Y-131907853D01*
X168550946Y-131907853D02*
X165494082Y-128850989D01*
%TO.N,Net-(D3-DIN)*%
X160594082Y-132050989D02*
X144718664Y-132050989D01*
X144718664Y-132050989D02*
X141518664Y-128850989D01*
%TO.N,Net-(D4-DIN)*%
X136618664Y-132050989D02*
X120743247Y-132050989D01*
X120743247Y-132050989D02*
X117543247Y-128850989D01*
%TO.N,Net-(D5-DIN)*%
X96662912Y-132050989D02*
X93462912Y-128850989D01*
X112643247Y-132050989D02*
X96662912Y-132050989D01*
%TO.N,Net-(D6-DIN)*%
X83500000Y-132000000D02*
X88562912Y-132050989D01*
X183403116Y-82755705D02*
X186500000Y-85852589D01*
X82500000Y-130500000D02*
X83500000Y-132000000D01*
X186500000Y-98000000D02*
X170500000Y-114000000D01*
X186500000Y-85852589D02*
X186500000Y-98000000D01*
X170500000Y-114000000D02*
X97000000Y-114000000D01*
X97000000Y-114000000D02*
X82500000Y-128500000D01*
X82500000Y-128500000D02*
X82500000Y-130500000D01*
%TO.N,Net-(D7-DIN)*%
X166581119Y-85955705D02*
X163381119Y-82755705D01*
X178503116Y-85955705D02*
X166581119Y-85955705D01*
%TO.N,Net-(D8-DIN)*%
X146559120Y-85955705D02*
X143405254Y-82801839D01*
X158481119Y-85955705D02*
X146559120Y-85955705D01*
%TO.N,Net-(D10-DOUT)*%
X126601839Y-86001839D02*
X123400000Y-82800000D01*
X138505254Y-86001839D02*
X126601839Y-86001839D01*
%TO.N,Net-(D10-DIN)*%
X141000000Y-41500000D02*
X153500000Y-41500000D01*
X155400000Y-32400000D02*
X153450000Y-32400000D01*
X113000000Y-85500000D02*
X113000000Y-83000000D01*
X156000000Y-33000000D02*
X155400000Y-32400000D01*
X118500000Y-86000000D02*
X113500000Y-86000000D01*
X113500000Y-86000000D02*
X113000000Y-85500000D01*
X153500000Y-41500000D02*
X156000000Y-39000000D01*
X113000000Y-83000000D02*
X141000000Y-41500000D01*
X156000000Y-39000000D02*
X156000000Y-33000000D01*
%TO.N,Net-(D11-DIN)*%
X144867846Y-100138842D02*
X115896430Y-100123182D01*
X107000000Y-84500000D02*
X139500000Y-35425357D01*
X146500000Y-104500000D02*
X146500000Y-101777684D01*
X107000000Y-91000000D02*
X107000000Y-84500000D01*
X115896430Y-100123182D02*
X107000000Y-91000000D01*
X146500000Y-101777684D02*
X144867846Y-100138842D01*
X139500000Y-35425357D02*
X148550000Y-35600000D01*
%TO.N,unconnected-(R1-Pad1)*%
X145000750Y-106500000D02*
X145000000Y-106500750D01*
X146500000Y-106500000D02*
X145000750Y-106500000D01*
%TD*%
%TA.AperFunction,Conductor*%
%TO.N,Net-(D1-VDD)*%
G36*
X155342539Y-33519685D02*
G01*
X155388294Y-33572489D01*
X155399500Y-33624000D01*
X155399500Y-38699903D01*
X155379815Y-38766942D01*
X155363181Y-38787584D01*
X153287584Y-40863181D01*
X153226261Y-40896666D01*
X153199903Y-40899500D01*
X141021013Y-40899500D01*
X140963103Y-40895443D01*
X140942217Y-40899500D01*
X140920937Y-40899500D01*
X140869080Y-40913395D01*
X140860636Y-40915344D01*
X140807891Y-40925591D01*
X140807882Y-40925594D01*
X140799485Y-40929687D01*
X140799486Y-40929688D01*
X140788760Y-40934917D01*
X140768216Y-40940423D01*
X140717967Y-40969432D01*
X140714052Y-40971342D01*
X140714054Y-40971342D01*
X140665770Y-40994885D01*
X140658709Y-41001021D01*
X140639385Y-41014802D01*
X140631286Y-41019478D01*
X140631281Y-41019482D01*
X140593293Y-41057469D01*
X140590222Y-41060539D01*
X140546424Y-41098604D01*
X140534529Y-41116232D01*
X140519482Y-41131280D01*
X140492620Y-41177805D01*
X140488026Y-41185155D01*
X112541196Y-82606349D01*
X112541195Y-82606348D01*
X112534517Y-82616245D01*
X112519480Y-82631284D01*
X112490466Y-82681536D01*
X112488039Y-82685135D01*
X112488031Y-82685149D01*
X112457990Y-82729674D01*
X112454945Y-82738510D01*
X112451060Y-82749791D01*
X112440423Y-82768216D01*
X112425404Y-82824265D01*
X112423986Y-82828383D01*
X112406492Y-82879169D01*
X112406491Y-82879175D01*
X112405838Y-82888491D01*
X112405839Y-82888492D01*
X112405005Y-82900397D01*
X112399500Y-82920943D01*
X112399500Y-82978984D01*
X112399197Y-82983310D01*
X112399197Y-82983312D01*
X112395442Y-83036897D01*
X112395443Y-83036900D01*
X112397224Y-83046068D01*
X112399500Y-83069715D01*
X112399500Y-85413330D01*
X112399499Y-85413348D01*
X112399499Y-85579054D01*
X112399498Y-85579054D01*
X112440423Y-85731786D01*
X112440424Y-85731787D01*
X112464525Y-85773531D01*
X112519480Y-85868716D01*
X112631284Y-85980520D01*
X112631285Y-85980521D01*
X113131284Y-86480520D01*
X113131286Y-86480521D01*
X113131290Y-86480524D01*
X113251129Y-86549712D01*
X113268216Y-86559577D01*
X113420943Y-86600501D01*
X113420945Y-86600501D01*
X113586654Y-86600501D01*
X113586670Y-86600500D01*
X114151000Y-86600500D01*
X114218039Y-86620185D01*
X114263794Y-86672989D01*
X114275000Y-86724500D01*
X114275000Y-86787500D01*
X116724999Y-86787500D01*
X116724999Y-86724500D01*
X116744684Y-86657461D01*
X116797488Y-86611706D01*
X116848999Y-86600500D01*
X117167209Y-86600500D01*
X117234248Y-86620185D01*
X117280003Y-86672989D01*
X117283391Y-86681167D01*
X117306202Y-86742328D01*
X117306206Y-86742335D01*
X117392452Y-86857544D01*
X117392455Y-86857547D01*
X117507664Y-86943793D01*
X117507671Y-86943797D01*
X117642517Y-86994091D01*
X117642516Y-86994091D01*
X117649444Y-86994835D01*
X117702127Y-87000500D01*
X119297872Y-87000499D01*
X119357483Y-86994091D01*
X119492331Y-86943796D01*
X119607546Y-86857546D01*
X119693796Y-86742331D01*
X119744091Y-86607483D01*
X119750500Y-86547873D01*
X119750499Y-86123997D01*
X119770183Y-86056961D01*
X119822987Y-86011206D01*
X119874499Y-86000000D01*
X122026000Y-86000000D01*
X122093039Y-86019685D01*
X122138794Y-86072489D01*
X122150000Y-86124000D01*
X122150000Y-86547844D01*
X122156401Y-86607372D01*
X122156403Y-86607379D01*
X122206645Y-86742086D01*
X122206649Y-86742093D01*
X122292809Y-86857187D01*
X122292812Y-86857190D01*
X122407906Y-86943350D01*
X122407913Y-86943354D01*
X122542620Y-86993596D01*
X122542627Y-86993598D01*
X122602155Y-86999999D01*
X122602172Y-87000000D01*
X123150000Y-87000000D01*
X123150000Y-86124000D01*
X123169685Y-86056961D01*
X123222489Y-86011206D01*
X123274000Y-86000000D01*
X123526000Y-86000000D01*
X123593039Y-86019685D01*
X123638794Y-86072489D01*
X123650000Y-86124000D01*
X123650000Y-87000000D01*
X124197828Y-87000000D01*
X124197844Y-86999999D01*
X124257372Y-86993598D01*
X124257379Y-86993596D01*
X124392086Y-86943354D01*
X124392093Y-86943350D01*
X124507187Y-86857190D01*
X124507190Y-86857187D01*
X124593350Y-86742093D01*
X124593354Y-86742086D01*
X124643596Y-86607379D01*
X124643598Y-86607372D01*
X124649999Y-86547844D01*
X124650000Y-86547827D01*
X124650000Y-86124000D01*
X124669685Y-86056961D01*
X124722489Y-86011206D01*
X124774000Y-86000000D01*
X125699403Y-86000000D01*
X125766442Y-86019685D01*
X125787084Y-86036319D01*
X126116978Y-86366213D01*
X126116988Y-86366224D01*
X126121318Y-86370554D01*
X126121319Y-86370555D01*
X126233123Y-86482359D01*
X126290148Y-86515282D01*
X126342026Y-86545234D01*
X126361026Y-86556204D01*
X126370054Y-86561416D01*
X126522782Y-86602339D01*
X134151000Y-86602339D01*
X134218039Y-86622024D01*
X134263794Y-86674828D01*
X134275000Y-86726339D01*
X134275000Y-86787500D01*
X136724999Y-86787500D01*
X136724999Y-86726339D01*
X136744684Y-86659300D01*
X136797488Y-86613545D01*
X136848999Y-86602339D01*
X137172463Y-86602339D01*
X137239502Y-86622024D01*
X137285257Y-86674828D01*
X137288645Y-86683006D01*
X137311456Y-86744167D01*
X137311460Y-86744174D01*
X137397706Y-86859383D01*
X137397709Y-86859386D01*
X137512918Y-86945632D01*
X137512925Y-86945636D01*
X137647771Y-86995930D01*
X137647770Y-86995930D01*
X137654698Y-86996674D01*
X137707381Y-87002339D01*
X139303126Y-87002338D01*
X139362737Y-86995930D01*
X139497585Y-86945635D01*
X139612800Y-86859385D01*
X139699050Y-86744170D01*
X139749345Y-86609322D01*
X139755754Y-86549712D01*
X139755754Y-86549683D01*
X142155254Y-86549683D01*
X142161655Y-86609211D01*
X142161657Y-86609218D01*
X142211899Y-86743925D01*
X142211903Y-86743932D01*
X142298063Y-86859026D01*
X142298066Y-86859029D01*
X142413160Y-86945189D01*
X142413167Y-86945193D01*
X142547874Y-86995435D01*
X142547881Y-86995437D01*
X142607409Y-87001838D01*
X142607426Y-87001839D01*
X143155254Y-87001839D01*
X143655254Y-87001839D01*
X144203082Y-87001839D01*
X144203098Y-87001838D01*
X144262626Y-86995437D01*
X144262633Y-86995435D01*
X144397340Y-86945193D01*
X144397347Y-86945189D01*
X144512441Y-86859029D01*
X144512444Y-86859026D01*
X144598604Y-86743932D01*
X144598608Y-86743925D01*
X144648850Y-86609218D01*
X144648852Y-86609211D01*
X144655253Y-86549683D01*
X144655254Y-86549666D01*
X144655254Y-86251839D01*
X143655254Y-86251839D01*
X143655254Y-87001839D01*
X143155254Y-87001839D01*
X143155254Y-86251839D01*
X142155254Y-86251839D01*
X142155254Y-86549683D01*
X139755754Y-86549683D01*
X139755753Y-86123997D01*
X139775438Y-86056961D01*
X139828242Y-86011206D01*
X139879753Y-86000000D01*
X145702818Y-86000000D01*
X145769857Y-86019685D01*
X145790499Y-86036319D01*
X146074259Y-86320079D01*
X146074269Y-86320090D01*
X146078599Y-86324420D01*
X146078600Y-86324421D01*
X146190404Y-86436225D01*
X146270311Y-86482359D01*
X146327335Y-86515282D01*
X146480063Y-86556205D01*
X154151000Y-86556205D01*
X154218039Y-86575890D01*
X154263794Y-86628694D01*
X154275000Y-86680205D01*
X154275000Y-86787500D01*
X156724999Y-86787500D01*
X156724999Y-86680205D01*
X156744684Y-86613166D01*
X156797488Y-86567411D01*
X156848999Y-86556205D01*
X157148328Y-86556205D01*
X157215367Y-86575890D01*
X157261122Y-86628694D01*
X157264510Y-86636872D01*
X157287321Y-86698033D01*
X157287325Y-86698040D01*
X157373571Y-86813249D01*
X157373574Y-86813252D01*
X157488783Y-86899498D01*
X157488790Y-86899502D01*
X157623636Y-86949796D01*
X157623635Y-86949796D01*
X157630563Y-86950540D01*
X157683246Y-86956205D01*
X159278991Y-86956204D01*
X159338602Y-86949796D01*
X159473450Y-86899501D01*
X159588665Y-86813251D01*
X159674915Y-86698036D01*
X159725210Y-86563188D01*
X159731619Y-86503578D01*
X159731619Y-86124000D01*
X159751304Y-86056961D01*
X159804108Y-86011206D01*
X159855619Y-86000000D01*
X162007119Y-86000000D01*
X162074158Y-86019685D01*
X162119913Y-86072489D01*
X162131119Y-86124000D01*
X162131119Y-86503549D01*
X162137520Y-86563077D01*
X162137522Y-86563084D01*
X162187764Y-86697791D01*
X162187768Y-86697798D01*
X162273928Y-86812892D01*
X162273931Y-86812895D01*
X162389025Y-86899055D01*
X162389032Y-86899059D01*
X162523739Y-86949301D01*
X162523746Y-86949303D01*
X162583274Y-86955704D01*
X162583291Y-86955705D01*
X163131119Y-86955705D01*
X163131119Y-86079705D01*
X163150804Y-86012666D01*
X163165421Y-86000000D01*
X163595483Y-86000000D01*
X163619913Y-86028194D01*
X163631119Y-86079705D01*
X163631119Y-86955705D01*
X164178947Y-86955705D01*
X164178963Y-86955704D01*
X164238491Y-86949303D01*
X164238498Y-86949301D01*
X164373205Y-86899059D01*
X164373212Y-86899055D01*
X164488306Y-86812895D01*
X164488309Y-86812892D01*
X164574469Y-86697798D01*
X164574473Y-86697791D01*
X164624715Y-86563084D01*
X164624717Y-86563077D01*
X164631118Y-86503549D01*
X164631119Y-86503532D01*
X164631119Y-86124000D01*
X164650804Y-86056961D01*
X164703608Y-86011206D01*
X164755119Y-86000000D01*
X165724817Y-86000000D01*
X165791856Y-86019685D01*
X165812498Y-86036319D01*
X166096258Y-86320079D01*
X166096268Y-86320090D01*
X166100598Y-86324420D01*
X166100599Y-86324421D01*
X166212403Y-86436225D01*
X166212405Y-86436226D01*
X166212409Y-86436229D01*
X166329047Y-86503569D01*
X166349335Y-86515282D01*
X166461138Y-86545239D01*
X166502061Y-86556205D01*
X166502062Y-86556205D01*
X174151000Y-86556205D01*
X174218039Y-86575890D01*
X174263794Y-86628694D01*
X174275000Y-86680205D01*
X174275000Y-86787500D01*
X176724999Y-86787500D01*
X176724999Y-86680205D01*
X176744684Y-86613166D01*
X176797488Y-86567411D01*
X176848999Y-86556205D01*
X177170325Y-86556205D01*
X177237364Y-86575890D01*
X177283119Y-86628694D01*
X177286507Y-86636872D01*
X177309318Y-86698033D01*
X177309322Y-86698040D01*
X177395568Y-86813249D01*
X177395571Y-86813252D01*
X177510780Y-86899498D01*
X177510787Y-86899502D01*
X177645633Y-86949796D01*
X177645632Y-86949796D01*
X177652560Y-86950540D01*
X177705243Y-86956205D01*
X179300988Y-86956204D01*
X179360599Y-86949796D01*
X179495447Y-86899501D01*
X179610662Y-86813251D01*
X179696912Y-86698036D01*
X179747207Y-86563188D01*
X179753616Y-86503578D01*
X179753616Y-86124000D01*
X179773301Y-86056961D01*
X179826105Y-86011206D01*
X179877616Y-86000000D01*
X182029116Y-86000000D01*
X182096155Y-86019685D01*
X182141910Y-86072489D01*
X182153116Y-86124000D01*
X182153116Y-86503549D01*
X182159517Y-86563077D01*
X182159519Y-86563084D01*
X182209761Y-86697791D01*
X182209765Y-86697798D01*
X182295925Y-86812892D01*
X182295928Y-86812895D01*
X182411022Y-86899055D01*
X182411029Y-86899059D01*
X182545736Y-86949301D01*
X182545743Y-86949303D01*
X182605271Y-86955704D01*
X182605288Y-86955705D01*
X183153116Y-86955705D01*
X183153116Y-86079705D01*
X183172801Y-86012666D01*
X183187418Y-86000000D01*
X183617480Y-86000000D01*
X183641910Y-86028194D01*
X183653116Y-86079705D01*
X183653116Y-86955705D01*
X184200944Y-86955705D01*
X184200960Y-86955704D01*
X184260488Y-86949303D01*
X184260495Y-86949301D01*
X184395202Y-86899059D01*
X184395209Y-86899055D01*
X184510303Y-86812895D01*
X184510306Y-86812892D01*
X184596466Y-86697798D01*
X184596470Y-86697791D01*
X184646712Y-86563084D01*
X184646714Y-86563077D01*
X184653115Y-86503549D01*
X184653116Y-86503532D01*
X184653116Y-86124000D01*
X184655666Y-86115314D01*
X184654378Y-86106353D01*
X184665356Y-86082312D01*
X184672801Y-86056961D01*
X184679641Y-86051033D01*
X184683403Y-86042797D01*
X184705637Y-86028507D01*
X184725605Y-86011206D01*
X184736119Y-86008918D01*
X184742181Y-86005023D01*
X184777116Y-86000000D01*
X184938000Y-86000000D01*
X185005039Y-86019685D01*
X185037200Y-86049600D01*
X185751379Y-87001839D01*
X185874700Y-87166266D01*
X185899176Y-87231708D01*
X185899500Y-87240666D01*
X185899500Y-97699903D01*
X185879815Y-97766942D01*
X185863181Y-97787584D01*
X170287584Y-113363181D01*
X170226261Y-113396666D01*
X170199903Y-113399500D01*
X97086670Y-113399500D01*
X97086654Y-113399499D01*
X97079058Y-113399499D01*
X96920943Y-113399499D01*
X96844579Y-113419961D01*
X96768214Y-113440423D01*
X96768209Y-113440426D01*
X96631290Y-113519475D01*
X96631282Y-113519481D01*
X82019481Y-128131282D01*
X82019477Y-128131287D01*
X82002912Y-128159981D01*
X81996009Y-128171938D01*
X81940423Y-128268215D01*
X81899499Y-128420943D01*
X81899499Y-128420945D01*
X81899499Y-128589046D01*
X81899500Y-128589059D01*
X81899500Y-130440534D01*
X81895656Y-130459754D01*
X81899500Y-130519352D01*
X81899500Y-130579062D01*
X81901395Y-130586133D01*
X81905360Y-130610225D01*
X81905832Y-130617533D01*
X81905833Y-130617542D01*
X81922032Y-130665427D01*
X81923685Y-130670314D01*
X81925997Y-130677951D01*
X81934584Y-130709994D01*
X81940423Y-130731784D01*
X81950221Y-130748755D01*
X81956501Y-130767318D01*
X81989613Y-130816985D01*
X81991608Y-130820441D01*
X81991615Y-130820451D01*
X82019479Y-130868715D01*
X82024655Y-130873891D01*
X82040148Y-130892789D01*
X82511705Y-131600125D01*
X82987940Y-132314477D01*
X83015791Y-132363858D01*
X83031644Y-132380034D01*
X83038106Y-132389727D01*
X83038106Y-132389728D01*
X83044204Y-132398874D01*
X83044208Y-132398879D01*
X83083311Y-132433243D01*
X83090015Y-132439592D01*
X83117294Y-132467426D01*
X83126464Y-132476782D01*
X83135933Y-132482377D01*
X83154710Y-132495990D01*
X83162975Y-132503254D01*
X83162976Y-132503254D01*
X83162977Y-132503255D01*
X83209653Y-132526334D01*
X83209652Y-132526334D01*
X83213803Y-132528386D01*
X83262592Y-132557214D01*
X83284403Y-132563294D01*
X83304710Y-132573335D01*
X83360312Y-132584455D01*
X83414900Y-132599673D01*
X83437539Y-132599901D01*
X83459754Y-132604344D01*
X83511737Y-132600990D01*
X83520940Y-132600740D01*
X84152254Y-132607098D01*
X84219086Y-132627456D01*
X84264307Y-132680718D01*
X84275000Y-132731091D01*
X84275000Y-132787500D01*
X86724999Y-132787500D01*
X86724999Y-132758264D01*
X86744684Y-132691225D01*
X86797488Y-132645470D01*
X86850243Y-132634270D01*
X87226361Y-132638058D01*
X87293196Y-132658417D01*
X87338416Y-132711679D01*
X87341291Y-132718719D01*
X87369114Y-132793317D01*
X87369118Y-132793324D01*
X87455364Y-132908533D01*
X87455367Y-132908536D01*
X87570576Y-132994782D01*
X87570583Y-132994786D01*
X87705429Y-133045080D01*
X87705428Y-133045080D01*
X87712356Y-133045824D01*
X87765039Y-133051489D01*
X89360784Y-133051488D01*
X89420395Y-133045080D01*
X89555243Y-132994785D01*
X89670458Y-132908535D01*
X89756708Y-132793320D01*
X89807003Y-132658472D01*
X89813412Y-132598862D01*
X89813412Y-132598833D01*
X92212912Y-132598833D01*
X92219313Y-132658361D01*
X92219315Y-132658368D01*
X92269557Y-132793075D01*
X92269561Y-132793082D01*
X92355720Y-132908175D01*
X92355724Y-132908179D01*
X92470818Y-132994339D01*
X92470825Y-132994343D01*
X92605532Y-133044585D01*
X92605539Y-133044587D01*
X92665067Y-133050988D01*
X92665084Y-133050989D01*
X93212912Y-133050989D01*
X93712912Y-133050989D01*
X94260740Y-133050989D01*
X94260756Y-133050988D01*
X94320284Y-133044587D01*
X94320291Y-133044585D01*
X94454998Y-132994343D01*
X94455005Y-132994339D01*
X94570099Y-132908179D01*
X94570104Y-132908175D01*
X94656262Y-132793082D01*
X94656266Y-132793075D01*
X94706508Y-132658368D01*
X94706510Y-132658361D01*
X94712911Y-132598833D01*
X94712912Y-132598816D01*
X94712912Y-132300989D01*
X93712912Y-132300989D01*
X93712912Y-133050989D01*
X93212912Y-133050989D01*
X93212912Y-132300989D01*
X92212912Y-132300989D01*
X92212912Y-132598833D01*
X89813412Y-132598833D01*
X89813411Y-132123998D01*
X89833096Y-132056961D01*
X89885900Y-132011206D01*
X89937411Y-132000000D01*
X95711326Y-132000000D01*
X95778365Y-132019685D01*
X95799007Y-132036319D01*
X96178051Y-132415363D01*
X96178061Y-132415374D01*
X96182391Y-132419704D01*
X96182392Y-132419705D01*
X96294196Y-132531509D01*
X96294198Y-132531510D01*
X96294202Y-132531513D01*
X96416613Y-132602186D01*
X96431128Y-132610566D01*
X96542931Y-132640523D01*
X96583854Y-132651489D01*
X96583855Y-132651489D01*
X108151000Y-132651489D01*
X108218039Y-132671174D01*
X108263794Y-132723978D01*
X108275000Y-132775489D01*
X108275000Y-132787500D01*
X110724999Y-132787500D01*
X110724999Y-132775489D01*
X110744684Y-132708450D01*
X110797488Y-132662695D01*
X110848999Y-132651489D01*
X111310456Y-132651489D01*
X111377495Y-132671174D01*
X111423250Y-132723978D01*
X111426638Y-132732156D01*
X111449449Y-132793317D01*
X111449453Y-132793324D01*
X111535699Y-132908533D01*
X111535702Y-132908536D01*
X111650911Y-132994782D01*
X111650918Y-132994786D01*
X111785764Y-133045080D01*
X111785763Y-133045080D01*
X111792691Y-133045824D01*
X111845374Y-133051489D01*
X113441119Y-133051488D01*
X113500730Y-133045080D01*
X113635578Y-132994785D01*
X113750793Y-132908535D01*
X113837043Y-132793320D01*
X113887338Y-132658472D01*
X113893747Y-132598862D01*
X113893747Y-132598833D01*
X116293247Y-132598833D01*
X116299648Y-132658361D01*
X116299650Y-132658368D01*
X116349892Y-132793075D01*
X116349896Y-132793082D01*
X116436055Y-132908175D01*
X116436059Y-132908179D01*
X116551153Y-132994339D01*
X116551160Y-132994343D01*
X116685867Y-133044585D01*
X116685874Y-133044587D01*
X116745402Y-133050988D01*
X116745419Y-133050989D01*
X117293247Y-133050989D01*
X117793247Y-133050989D01*
X118341075Y-133050989D01*
X118341091Y-133050988D01*
X118400619Y-133044587D01*
X118400626Y-133044585D01*
X118535333Y-132994343D01*
X118535340Y-132994339D01*
X118650434Y-132908179D01*
X118650439Y-132908175D01*
X118736597Y-132793082D01*
X118736601Y-132793075D01*
X118786843Y-132658368D01*
X118786845Y-132658361D01*
X118793246Y-132598833D01*
X118793247Y-132598816D01*
X118793247Y-132300989D01*
X117793247Y-132300989D01*
X117793247Y-133050989D01*
X117293247Y-133050989D01*
X117293247Y-132300989D01*
X116293247Y-132300989D01*
X116293247Y-132598833D01*
X113893747Y-132598833D01*
X113893746Y-132123998D01*
X113913431Y-132056961D01*
X113966235Y-132011206D01*
X114017746Y-132000000D01*
X119791661Y-132000000D01*
X119858700Y-132019685D01*
X119879342Y-132036319D01*
X120258386Y-132415363D01*
X120258396Y-132415374D01*
X120262726Y-132419704D01*
X120262727Y-132419705D01*
X120374531Y-132531509D01*
X120374533Y-132531510D01*
X120374537Y-132531513D01*
X120496948Y-132602186D01*
X120511463Y-132610566D01*
X120623266Y-132640523D01*
X120664189Y-132651489D01*
X120664190Y-132651489D01*
X132151000Y-132651489D01*
X132218039Y-132671174D01*
X132263794Y-132723978D01*
X132275000Y-132775489D01*
X132275000Y-132787500D01*
X134724999Y-132787500D01*
X134724999Y-132775489D01*
X134744684Y-132708450D01*
X134797488Y-132662695D01*
X134848999Y-132651489D01*
X135285873Y-132651489D01*
X135352912Y-132671174D01*
X135398667Y-132723978D01*
X135402055Y-132732156D01*
X135424866Y-132793317D01*
X135424870Y-132793324D01*
X135511116Y-132908533D01*
X135511119Y-132908536D01*
X135626328Y-132994782D01*
X135626335Y-132994786D01*
X135761181Y-133045080D01*
X135761180Y-133045080D01*
X135768108Y-133045824D01*
X135820791Y-133051489D01*
X137416536Y-133051488D01*
X137476147Y-133045080D01*
X137610995Y-132994785D01*
X137726210Y-132908535D01*
X137812460Y-132793320D01*
X137862755Y-132658472D01*
X137869164Y-132598862D01*
X137869164Y-132598833D01*
X140268664Y-132598833D01*
X140275065Y-132658361D01*
X140275067Y-132658368D01*
X140325309Y-132793075D01*
X140325313Y-132793082D01*
X140411472Y-132908175D01*
X140411476Y-132908179D01*
X140526570Y-132994339D01*
X140526577Y-132994343D01*
X140661284Y-133044585D01*
X140661291Y-133044587D01*
X140720819Y-133050988D01*
X140720836Y-133050989D01*
X141268664Y-133050989D01*
X141768664Y-133050989D01*
X142316492Y-133050989D01*
X142316508Y-133050988D01*
X142376036Y-133044587D01*
X142376043Y-133044585D01*
X142510750Y-132994343D01*
X142510757Y-132994339D01*
X142625851Y-132908179D01*
X142625856Y-132908175D01*
X142712014Y-132793082D01*
X142712018Y-132793075D01*
X142762260Y-132658368D01*
X142762262Y-132658361D01*
X142768663Y-132598833D01*
X142768664Y-132598816D01*
X142768664Y-132300989D01*
X141768664Y-132300989D01*
X141768664Y-133050989D01*
X141268664Y-133050989D01*
X141268664Y-132300989D01*
X140268664Y-132300989D01*
X140268664Y-132598833D01*
X137869164Y-132598833D01*
X137869163Y-132123998D01*
X137888848Y-132056961D01*
X137941652Y-132011206D01*
X137993163Y-132000000D01*
X143767078Y-132000000D01*
X143834117Y-132019685D01*
X143854759Y-132036319D01*
X144233803Y-132415363D01*
X144233813Y-132415374D01*
X144238143Y-132419704D01*
X144238144Y-132419705D01*
X144349948Y-132531509D01*
X144349950Y-132531510D01*
X144349954Y-132531513D01*
X144472365Y-132602186D01*
X144486880Y-132610566D01*
X144598683Y-132640523D01*
X144639606Y-132651489D01*
X144639607Y-132651489D01*
X156151000Y-132651489D01*
X156218039Y-132671174D01*
X156263794Y-132723978D01*
X156275000Y-132775489D01*
X156275000Y-132787500D01*
X158724999Y-132787500D01*
X158724999Y-132775489D01*
X158744684Y-132708450D01*
X158797488Y-132662695D01*
X158848999Y-132651489D01*
X159261291Y-132651489D01*
X159328330Y-132671174D01*
X159374085Y-132723978D01*
X159377473Y-132732156D01*
X159400284Y-132793317D01*
X159400288Y-132793324D01*
X159486534Y-132908533D01*
X159486537Y-132908536D01*
X159601746Y-132994782D01*
X159601753Y-132994786D01*
X159736599Y-133045080D01*
X159736598Y-133045080D01*
X159743526Y-133045824D01*
X159796209Y-133051489D01*
X161391954Y-133051488D01*
X161451565Y-133045080D01*
X161586413Y-132994785D01*
X161701628Y-132908535D01*
X161787878Y-132793320D01*
X161838173Y-132658472D01*
X161844582Y-132598862D01*
X161844582Y-132598833D01*
X164244082Y-132598833D01*
X164250483Y-132658361D01*
X164250485Y-132658368D01*
X164300727Y-132793075D01*
X164300731Y-132793082D01*
X164386890Y-132908175D01*
X164386894Y-132908179D01*
X164501988Y-132994339D01*
X164501995Y-132994343D01*
X164636702Y-133044585D01*
X164636709Y-133044587D01*
X164696237Y-133050988D01*
X164696254Y-133050989D01*
X165244082Y-133050989D01*
X165744082Y-133050989D01*
X166291910Y-133050989D01*
X166291926Y-133050988D01*
X166351454Y-133044587D01*
X166351461Y-133044585D01*
X166486168Y-132994343D01*
X166486175Y-132994339D01*
X166601269Y-132908179D01*
X166601274Y-132908175D01*
X166687432Y-132793082D01*
X166687436Y-132793075D01*
X166737678Y-132658368D01*
X166737680Y-132658361D01*
X166744081Y-132598833D01*
X166744082Y-132598816D01*
X166744082Y-132300989D01*
X165744082Y-132300989D01*
X165744082Y-133050989D01*
X165244082Y-133050989D01*
X165244082Y-132300989D01*
X164244082Y-132300989D01*
X164244082Y-132598833D01*
X161844582Y-132598833D01*
X161844581Y-132123998D01*
X161864266Y-132056961D01*
X161917070Y-132011206D01*
X161968581Y-132000000D01*
X167742495Y-132000000D01*
X167809534Y-132019685D01*
X167830176Y-132036319D01*
X168182230Y-132388373D01*
X168182232Y-132388374D01*
X168182236Y-132388377D01*
X168306192Y-132459942D01*
X168319162Y-132467430D01*
X168471889Y-132508354D01*
X168471891Y-132508354D01*
X168637600Y-132508354D01*
X168637616Y-132508353D01*
X180152159Y-132508353D01*
X180219198Y-132528038D01*
X180264953Y-132580842D01*
X180275517Y-132644950D01*
X180275001Y-132649999D01*
X180275000Y-132650026D01*
X180275000Y-132787500D01*
X182724999Y-132787500D01*
X182724999Y-132650028D01*
X182724998Y-132650013D01*
X182724481Y-132644947D01*
X182737255Y-132576255D01*
X182785139Y-132525374D01*
X182847840Y-132508353D01*
X183308277Y-132508353D01*
X183375316Y-132528038D01*
X183421071Y-132580842D01*
X183424459Y-132589020D01*
X183447270Y-132650181D01*
X183447274Y-132650188D01*
X183533520Y-132765397D01*
X183533523Y-132765400D01*
X183648732Y-132851646D01*
X183648739Y-132851650D01*
X183783585Y-132901944D01*
X183783584Y-132901944D01*
X183790512Y-132902688D01*
X183843195Y-132908353D01*
X185438940Y-132908352D01*
X185498551Y-132901944D01*
X185633399Y-132851649D01*
X185748614Y-132765399D01*
X185834864Y-132650184D01*
X185885159Y-132515336D01*
X185891568Y-132455726D01*
X185891568Y-132124000D01*
X185911253Y-132056961D01*
X185964057Y-132011206D01*
X186015568Y-132000000D01*
X188167068Y-132000000D01*
X188234107Y-132019685D01*
X188279862Y-132072489D01*
X188291068Y-132124000D01*
X188291068Y-132455697D01*
X188297469Y-132515225D01*
X188297471Y-132515232D01*
X188347713Y-132649939D01*
X188347717Y-132649946D01*
X188433877Y-132765040D01*
X188433880Y-132765043D01*
X188548974Y-132851203D01*
X188548981Y-132851207D01*
X188683688Y-132901449D01*
X188683695Y-132901451D01*
X188743223Y-132907852D01*
X188743240Y-132907853D01*
X189291068Y-132907853D01*
X189291068Y-132031853D01*
X189300421Y-132000000D01*
X189784139Y-132000000D01*
X189791068Y-132031853D01*
X189791068Y-132907853D01*
X190338896Y-132907853D01*
X190338912Y-132907852D01*
X190398440Y-132901451D01*
X190398447Y-132901449D01*
X190533154Y-132851207D01*
X190533161Y-132851203D01*
X190648255Y-132765043D01*
X190648258Y-132765040D01*
X190734418Y-132649946D01*
X190734422Y-132649939D01*
X190784664Y-132515232D01*
X190784666Y-132515225D01*
X190791067Y-132455697D01*
X190791068Y-132455680D01*
X190791068Y-132124000D01*
X190810753Y-132056961D01*
X190863557Y-132011206D01*
X190915068Y-132000000D01*
X191932618Y-132000000D01*
X191999657Y-132019685D01*
X192020299Y-132036319D01*
X192327775Y-132343795D01*
X192327785Y-132343806D01*
X192332115Y-132348136D01*
X192332116Y-132348137D01*
X192443920Y-132459941D01*
X192518941Y-132503254D01*
X192580851Y-132538998D01*
X192733579Y-132579922D01*
X192733582Y-132579922D01*
X192899289Y-132579922D01*
X192899305Y-132579921D01*
X204151000Y-132579921D01*
X204218039Y-132599606D01*
X204263794Y-132652410D01*
X204275000Y-132703921D01*
X204275000Y-132787500D01*
X206724999Y-132787500D01*
X206724999Y-132703921D01*
X206744684Y-132636882D01*
X206797488Y-132591127D01*
X206848999Y-132579921D01*
X207283695Y-132579921D01*
X207350734Y-132599606D01*
X207396489Y-132652410D01*
X207399877Y-132660588D01*
X207422688Y-132721749D01*
X207422692Y-132721756D01*
X207508938Y-132836965D01*
X207508941Y-132836968D01*
X207624150Y-132923214D01*
X207624157Y-132923218D01*
X207759003Y-132973512D01*
X207759002Y-132973512D01*
X207765930Y-132974256D01*
X207818613Y-132979921D01*
X209414358Y-132979920D01*
X209473969Y-132973512D01*
X209608817Y-132923217D01*
X209724032Y-132836967D01*
X209810282Y-132721752D01*
X209860577Y-132586904D01*
X209866986Y-132527294D01*
X209866986Y-132124000D01*
X209886671Y-132056961D01*
X209939475Y-132011206D01*
X209990986Y-132000000D01*
X212142486Y-132000000D01*
X212209525Y-132019685D01*
X212255280Y-132072489D01*
X212266486Y-132124000D01*
X212266486Y-132527265D01*
X212272887Y-132586793D01*
X212272889Y-132586800D01*
X212323131Y-132721507D01*
X212323135Y-132721514D01*
X212409295Y-132836608D01*
X212409298Y-132836611D01*
X212524392Y-132922771D01*
X212524399Y-132922775D01*
X212659106Y-132973017D01*
X212659113Y-132973019D01*
X212718641Y-132979420D01*
X212718658Y-132979421D01*
X213266486Y-132979421D01*
X213266486Y-132103421D01*
X213286171Y-132036382D01*
X213328158Y-132000000D01*
X213710300Y-132000000D01*
X213755280Y-132051910D01*
X213766486Y-132103421D01*
X213766486Y-132979421D01*
X214314314Y-132979421D01*
X214314330Y-132979420D01*
X214373858Y-132973019D01*
X214373865Y-132973017D01*
X214508572Y-132922775D01*
X214508579Y-132922771D01*
X214623673Y-132836611D01*
X214623676Y-132836608D01*
X214709836Y-132721514D01*
X214709840Y-132721507D01*
X214760082Y-132586800D01*
X214760084Y-132586793D01*
X214766485Y-132527265D01*
X214766486Y-132527248D01*
X214766486Y-132124000D01*
X214786171Y-132056961D01*
X214838975Y-132011206D01*
X214890486Y-132000000D01*
X224242002Y-132000000D01*
X224309041Y-132019685D01*
X224354796Y-132072489D01*
X224364740Y-132141647D01*
X224338830Y-132201462D01*
X220537630Y-136952962D01*
X220480379Y-136993014D01*
X220440802Y-136999500D01*
X81563456Y-136999500D01*
X81496417Y-136979815D01*
X81462553Y-136947574D01*
X78946419Y-133424986D01*
X84275001Y-133424986D01*
X84285494Y-133527697D01*
X84340641Y-133694119D01*
X84340643Y-133694124D01*
X84432684Y-133843345D01*
X84556654Y-133967315D01*
X84705875Y-134059356D01*
X84705880Y-134059358D01*
X84872302Y-134114505D01*
X84872309Y-134114506D01*
X84975019Y-134124999D01*
X85249999Y-134124999D01*
X85750000Y-134124999D01*
X86024972Y-134124999D01*
X86024986Y-134124998D01*
X86127697Y-134114505D01*
X86294119Y-134059358D01*
X86294124Y-134059356D01*
X86443345Y-133967315D01*
X86567315Y-133843345D01*
X86659356Y-133694124D01*
X86659358Y-133694119D01*
X86714505Y-133527697D01*
X86714506Y-133527690D01*
X86724999Y-133424986D01*
X108275001Y-133424986D01*
X108285494Y-133527697D01*
X108340641Y-133694119D01*
X108340643Y-133694124D01*
X108432684Y-133843345D01*
X108556654Y-133967315D01*
X108705875Y-134059356D01*
X108705880Y-134059358D01*
X108872302Y-134114505D01*
X108872309Y-134114506D01*
X108975019Y-134124999D01*
X109249999Y-134124999D01*
X109750000Y-134124999D01*
X110024972Y-134124999D01*
X110024986Y-134124998D01*
X110127697Y-134114505D01*
X110294119Y-134059358D01*
X110294124Y-134059356D01*
X110443345Y-133967315D01*
X110567315Y-133843345D01*
X110659356Y-133694124D01*
X110659358Y-133694119D01*
X110714505Y-133527697D01*
X110714506Y-133527690D01*
X110724999Y-133424986D01*
X132275001Y-133424986D01*
X132285494Y-133527697D01*
X132340641Y-133694119D01*
X132340643Y-133694124D01*
X132432684Y-133843345D01*
X132556654Y-133967315D01*
X132705875Y-134059356D01*
X132705880Y-134059358D01*
X132872302Y-134114505D01*
X132872309Y-134114506D01*
X132975019Y-134124999D01*
X133249999Y-134124999D01*
X133750000Y-134124999D01*
X134024972Y-134124999D01*
X134024986Y-134124998D01*
X134127697Y-134114505D01*
X134294119Y-134059358D01*
X134294124Y-134059356D01*
X134443345Y-133967315D01*
X134567315Y-133843345D01*
X134659356Y-133694124D01*
X134659358Y-133694119D01*
X134714505Y-133527697D01*
X134714506Y-133527690D01*
X134724999Y-133424986D01*
X156275001Y-133424986D01*
X156285494Y-133527697D01*
X156340641Y-133694119D01*
X156340643Y-133694124D01*
X156432684Y-133843345D01*
X156556654Y-133967315D01*
X156705875Y-134059356D01*
X156705880Y-134059358D01*
X156872302Y-134114505D01*
X156872309Y-134114506D01*
X156975019Y-134124999D01*
X157249999Y-134124999D01*
X157750000Y-134124999D01*
X158024972Y-134124999D01*
X158024986Y-134124998D01*
X158127697Y-134114505D01*
X158294119Y-134059358D01*
X158294124Y-134059356D01*
X158443345Y-133967315D01*
X158567315Y-133843345D01*
X158659356Y-133694124D01*
X158659358Y-133694119D01*
X158714505Y-133527697D01*
X158714506Y-133527690D01*
X158724999Y-133424986D01*
X180275001Y-133424986D01*
X180285494Y-133527697D01*
X180340641Y-133694119D01*
X180340643Y-133694124D01*
X180432684Y-133843345D01*
X180556654Y-133967315D01*
X180705875Y-134059356D01*
X180705880Y-134059358D01*
X180872302Y-134114505D01*
X180872309Y-134114506D01*
X180975019Y-134124999D01*
X181249999Y-134124999D01*
X181750000Y-134124999D01*
X182024972Y-134124999D01*
X182024986Y-134124998D01*
X182127697Y-134114505D01*
X182294119Y-134059358D01*
X182294124Y-134059356D01*
X182443345Y-133967315D01*
X182567315Y-133843345D01*
X182659356Y-133694124D01*
X182659358Y-133694119D01*
X182714505Y-133527697D01*
X182714506Y-133527690D01*
X182724999Y-133424986D01*
X204275001Y-133424986D01*
X204285494Y-133527697D01*
X204340641Y-133694119D01*
X204340643Y-133694124D01*
X204432684Y-133843345D01*
X204556654Y-133967315D01*
X204705875Y-134059356D01*
X204705880Y-134059358D01*
X204872302Y-134114505D01*
X204872309Y-134114506D01*
X204975019Y-134124999D01*
X205249999Y-134124999D01*
X205750000Y-134124999D01*
X206024972Y-134124999D01*
X206024986Y-134124998D01*
X206127697Y-134114505D01*
X206294119Y-134059358D01*
X206294124Y-134059356D01*
X206443345Y-133967315D01*
X206567315Y-133843345D01*
X206659356Y-133694124D01*
X206659358Y-133694119D01*
X206714505Y-133527697D01*
X206714506Y-133527690D01*
X206724999Y-133424986D01*
X206725000Y-133424973D01*
X206725000Y-133287500D01*
X205750000Y-133287500D01*
X205750000Y-134124999D01*
X205249999Y-134124999D01*
X205250000Y-134124998D01*
X205250000Y-133287500D01*
X204275001Y-133287500D01*
X204275001Y-133424986D01*
X182724999Y-133424986D01*
X182725000Y-133424973D01*
X182725000Y-133287500D01*
X181750000Y-133287500D01*
X181750000Y-134124999D01*
X181249999Y-134124999D01*
X181250000Y-134124998D01*
X181250000Y-133287500D01*
X180275001Y-133287500D01*
X180275001Y-133424986D01*
X158724999Y-133424986D01*
X158725000Y-133424973D01*
X158725000Y-133287500D01*
X157750000Y-133287500D01*
X157750000Y-134124999D01*
X157249999Y-134124999D01*
X157250000Y-134124998D01*
X157250000Y-133287500D01*
X156275001Y-133287500D01*
X156275001Y-133424986D01*
X134724999Y-133424986D01*
X134725000Y-133424973D01*
X134725000Y-133287500D01*
X133750000Y-133287500D01*
X133750000Y-134124999D01*
X133249999Y-134124999D01*
X133250000Y-134124998D01*
X133250000Y-133287500D01*
X132275001Y-133287500D01*
X132275001Y-133424986D01*
X110724999Y-133424986D01*
X110725000Y-133424973D01*
X110725000Y-133287500D01*
X109750000Y-133287500D01*
X109750000Y-134124999D01*
X109249999Y-134124999D01*
X109250000Y-134124998D01*
X109250000Y-133287500D01*
X108275001Y-133287500D01*
X108275001Y-133424986D01*
X86724999Y-133424986D01*
X86725000Y-133424973D01*
X86725000Y-133287500D01*
X85750000Y-133287500D01*
X85750000Y-134124999D01*
X85249999Y-134124999D01*
X85250000Y-134124998D01*
X85250000Y-133287500D01*
X84275001Y-133287500D01*
X84275001Y-133424986D01*
X78946419Y-133424986D01*
X78863009Y-133308212D01*
X76549551Y-130069371D01*
X76526603Y-130003377D01*
X76542977Y-129935453D01*
X76547028Y-129928893D01*
X77433171Y-128589046D01*
X106172074Y-85135823D01*
X106225474Y-85090767D01*
X106294757Y-85081732D01*
X106357926Y-85111589D01*
X106394926Y-85170859D01*
X106399500Y-85204228D01*
X106399500Y-90996178D01*
X106398552Y-91071495D01*
X106399500Y-91075219D01*
X106399500Y-91079056D01*
X106418772Y-91150985D01*
X106419166Y-91152491D01*
X106437550Y-91224722D01*
X106437800Y-91225347D01*
X106437799Y-91225347D01*
X106439255Y-91228989D01*
X106439259Y-91228999D01*
X106439924Y-91230665D01*
X106440159Y-91231149D01*
X106440419Y-91231778D01*
X106477668Y-91296295D01*
X106478439Y-91297650D01*
X106514879Y-91362640D01*
X106515285Y-91363183D01*
X106515293Y-91363194D01*
X106517640Y-91366335D01*
X106518706Y-91367761D01*
X106519061Y-91368171D01*
X106519476Y-91368712D01*
X106572162Y-91421398D01*
X106573259Y-91422508D01*
X114604569Y-99658521D01*
X115413874Y-100488453D01*
X115415711Y-100491638D01*
X115469028Y-100545013D01*
X115469579Y-100545578D01*
X115488276Y-100564751D01*
X115521697Y-100599024D01*
X115521699Y-100599025D01*
X115521701Y-100599027D01*
X115521906Y-100599189D01*
X115522338Y-100599572D01*
X115524062Y-100600897D01*
X115524075Y-100600907D01*
X115527225Y-100603327D01*
X115527226Y-100603328D01*
X115527455Y-100603504D01*
X115565127Y-100625280D01*
X115592200Y-100640931D01*
X115593454Y-100641666D01*
X115657620Y-100679797D01*
X115657872Y-100679905D01*
X115661552Y-100681483D01*
X115661648Y-100681524D01*
X115663571Y-100682349D01*
X115664105Y-100682534D01*
X115664338Y-100682630D01*
X115664344Y-100682634D01*
X115664350Y-100682635D01*
X115664351Y-100682636D01*
X115736495Y-100702009D01*
X115737911Y-100702398D01*
X115809823Y-100722641D01*
X115809829Y-100722641D01*
X115810114Y-100722683D01*
X115810113Y-100722683D01*
X115814044Y-100723251D01*
X115814050Y-100723252D01*
X115816208Y-100723563D01*
X115816801Y-100723606D01*
X115817044Y-100723637D01*
X115817048Y-100723639D01*
X115891754Y-100723678D01*
X115893047Y-100723687D01*
X115962397Y-100724560D01*
X115967922Y-100724630D01*
X115967922Y-100724629D01*
X115967926Y-100724630D01*
X115967929Y-100724629D01*
X115968203Y-100724597D01*
X115982921Y-100723728D01*
X144566785Y-100739179D01*
X144633814Y-100758900D01*
X144654578Y-100775677D01*
X145863361Y-101989413D01*
X145896720Y-102050803D01*
X145899500Y-102076913D01*
X145899500Y-103319699D01*
X145879815Y-103386738D01*
X145827011Y-103432493D01*
X145814507Y-103437403D01*
X145781962Y-103448188D01*
X145730668Y-103465185D01*
X145730663Y-103465187D01*
X145581342Y-103557289D01*
X145457289Y-103681342D01*
X145365187Y-103830663D01*
X145365186Y-103830666D01*
X145310001Y-103997203D01*
X145310001Y-103997204D01*
X145310000Y-103997204D01*
X145299500Y-104099983D01*
X145299500Y-104900001D01*
X145299501Y-104900019D01*
X145310000Y-105002796D01*
X145310001Y-105002799D01*
X145365185Y-105169331D01*
X145365187Y-105169336D01*
X145457289Y-105318657D01*
X145550951Y-105412319D01*
X145553737Y-105417422D01*
X145558569Y-105420664D01*
X145570297Y-105447749D01*
X145584436Y-105473642D01*
X145584021Y-105479442D01*
X145586333Y-105484781D01*
X145581556Y-105513903D01*
X145579452Y-105543334D01*
X145575721Y-105549481D01*
X145575025Y-105553730D01*
X145561989Y-105572113D01*
X145555361Y-105583038D01*
X145553223Y-105585408D01*
X145457288Y-105681344D01*
X145436870Y-105714445D01*
X145429332Y-105722806D01*
X145408773Y-105735451D01*
X145390830Y-105751590D01*
X145379552Y-105753424D01*
X145369819Y-105759412D01*
X145345686Y-105758935D01*
X145321867Y-105762811D01*
X145304100Y-105758113D01*
X145299963Y-105758032D01*
X145297473Y-105756361D01*
X145289790Y-105754330D01*
X145233497Y-105731013D01*
X145233492Y-105731012D01*
X145233489Y-105731011D01*
X145078845Y-105700250D01*
X145078842Y-105700250D01*
X144921158Y-105700250D01*
X144921155Y-105700250D01*
X144766510Y-105731011D01*
X144766498Y-105731014D01*
X144620827Y-105791352D01*
X144620814Y-105791359D01*
X144489711Y-105878960D01*
X144489707Y-105878963D01*
X144378213Y-105990457D01*
X144378210Y-105990461D01*
X144290609Y-106121564D01*
X144290602Y-106121577D01*
X144230264Y-106267248D01*
X144230261Y-106267260D01*
X144199500Y-106421903D01*
X144199500Y-106579596D01*
X144230261Y-106734239D01*
X144230264Y-106734251D01*
X144290602Y-106879922D01*
X144290609Y-106879935D01*
X144378210Y-107011038D01*
X144378213Y-107011042D01*
X144489707Y-107122536D01*
X144489711Y-107122539D01*
X144620814Y-107210140D01*
X144620827Y-107210147D01*
X144766498Y-107270485D01*
X144766503Y-107270487D01*
X144896414Y-107296328D01*
X144921153Y-107301249D01*
X144921156Y-107301250D01*
X144921158Y-107301250D01*
X145078844Y-107301250D01*
X145078845Y-107301249D01*
X145233497Y-107270487D01*
X145290526Y-107246864D01*
X145359993Y-107239395D01*
X145422473Y-107270669D01*
X145443513Y-107296323D01*
X145457288Y-107318656D01*
X145581344Y-107442712D01*
X145730666Y-107534814D01*
X145897203Y-107589999D01*
X145999991Y-107600500D01*
X147000008Y-107600499D01*
X147000016Y-107600498D01*
X147000019Y-107600498D01*
X147056302Y-107594748D01*
X147102797Y-107589999D01*
X147269334Y-107534814D01*
X147418656Y-107442712D01*
X147542712Y-107318656D01*
X147634814Y-107169334D01*
X147689999Y-107002797D01*
X147700500Y-106900009D01*
X147700499Y-106099992D01*
X147689999Y-105997203D01*
X147634814Y-105830666D01*
X147542712Y-105681344D01*
X147449049Y-105587681D01*
X147415564Y-105526358D01*
X147420548Y-105456666D01*
X147449049Y-105412319D01*
X147542712Y-105318656D01*
X147634814Y-105169334D01*
X147689999Y-105002797D01*
X147700500Y-104900009D01*
X147700499Y-104099992D01*
X147689999Y-103997203D01*
X147634814Y-103830666D01*
X147542712Y-103681344D01*
X147418656Y-103557288D01*
X147269334Y-103465186D01*
X147185495Y-103437404D01*
X147128051Y-103397632D01*
X147101228Y-103333116D01*
X147100500Y-103319699D01*
X147100500Y-101778423D01*
X147100661Y-101699854D01*
X147100500Y-101699248D01*
X147100500Y-101698627D01*
X147080214Y-101622920D01*
X147060049Y-101547044D01*
X147059756Y-101546536D01*
X147059604Y-101545966D01*
X147059577Y-101545901D01*
X147059577Y-101545900D01*
X147020236Y-101477759D01*
X146981272Y-101409951D01*
X146980833Y-101409510D01*
X146980520Y-101408968D01*
X146924896Y-101353344D01*
X145348794Y-99770784D01*
X145348565Y-99770386D01*
X145292867Y-99714627D01*
X145237544Y-99659078D01*
X145237543Y-99659077D01*
X145237541Y-99659075D01*
X145237059Y-99658704D01*
X145236821Y-99658521D01*
X145168582Y-99619074D01*
X145168583Y-99619071D01*
X145168574Y-99619069D01*
X145100774Y-99579740D01*
X145100354Y-99579626D01*
X145099969Y-99579404D01*
X145099937Y-99579390D01*
X145024583Y-99559156D01*
X145024404Y-99559108D01*
X144948129Y-99538503D01*
X144947248Y-99538385D01*
X144869425Y-99538342D01*
X144869365Y-99538324D01*
X144869244Y-99538342D01*
X144864111Y-99538332D01*
X144790017Y-99538181D01*
X144790016Y-99538181D01*
X144783112Y-99538167D01*
X144781121Y-99538294D01*
X116201974Y-99522846D01*
X116134945Y-99503125D01*
X116113265Y-99485419D01*
X112314907Y-95590248D01*
X107635722Y-90791798D01*
X107603012Y-90730058D01*
X107600500Y-90705227D01*
X107600500Y-87424986D01*
X114275001Y-87424986D01*
X114285494Y-87527697D01*
X114340641Y-87694119D01*
X114340643Y-87694124D01*
X114432684Y-87843345D01*
X114556654Y-87967315D01*
X114705875Y-88059356D01*
X114705880Y-88059358D01*
X114872302Y-88114505D01*
X114872309Y-88114506D01*
X114975019Y-88124999D01*
X115249999Y-88124999D01*
X115750000Y-88124999D01*
X116024972Y-88124999D01*
X116024986Y-88124998D01*
X116127697Y-88114505D01*
X116294119Y-88059358D01*
X116294124Y-88059356D01*
X116443345Y-87967315D01*
X116567315Y-87843345D01*
X116659356Y-87694124D01*
X116659358Y-87694119D01*
X116714505Y-87527697D01*
X116714506Y-87527690D01*
X116724999Y-87424986D01*
X134275001Y-87424986D01*
X134285494Y-87527697D01*
X134340641Y-87694119D01*
X134340643Y-87694124D01*
X134432684Y-87843345D01*
X134556654Y-87967315D01*
X134705875Y-88059356D01*
X134705880Y-88059358D01*
X134872302Y-88114505D01*
X134872309Y-88114506D01*
X134975019Y-88124999D01*
X135249999Y-88124999D01*
X135750000Y-88124999D01*
X136024972Y-88124999D01*
X136024986Y-88124998D01*
X136127697Y-88114505D01*
X136294119Y-88059358D01*
X136294124Y-88059356D01*
X136443345Y-87967315D01*
X136567315Y-87843345D01*
X136659356Y-87694124D01*
X136659358Y-87694119D01*
X136714505Y-87527697D01*
X136714506Y-87527690D01*
X136724999Y-87424986D01*
X154275001Y-87424986D01*
X154285494Y-87527697D01*
X154340641Y-87694119D01*
X154340643Y-87694124D01*
X154432684Y-87843345D01*
X154556654Y-87967315D01*
X154705875Y-88059356D01*
X154705880Y-88059358D01*
X154872302Y-88114505D01*
X154872309Y-88114506D01*
X154975019Y-88124999D01*
X155249999Y-88124999D01*
X155750000Y-88124999D01*
X156024972Y-88124999D01*
X156024986Y-88124998D01*
X156127697Y-88114505D01*
X156294119Y-88059358D01*
X156294124Y-88059356D01*
X156443345Y-87967315D01*
X156567315Y-87843345D01*
X156659356Y-87694124D01*
X156659358Y-87694119D01*
X156714505Y-87527697D01*
X156714506Y-87527690D01*
X156724999Y-87424986D01*
X174275001Y-87424986D01*
X174285494Y-87527697D01*
X174340641Y-87694119D01*
X174340643Y-87694124D01*
X174432684Y-87843345D01*
X174556654Y-87967315D01*
X174705875Y-88059356D01*
X174705880Y-88059358D01*
X174872302Y-88114505D01*
X174872309Y-88114506D01*
X174975019Y-88124999D01*
X175249999Y-88124999D01*
X175750000Y-88124999D01*
X176024972Y-88124999D01*
X176024986Y-88124998D01*
X176127697Y-88114505D01*
X176294119Y-88059358D01*
X176294124Y-88059356D01*
X176443345Y-87967315D01*
X176567315Y-87843345D01*
X176659356Y-87694124D01*
X176659358Y-87694119D01*
X176714505Y-87527697D01*
X176714506Y-87527690D01*
X176724999Y-87424986D01*
X176725000Y-87424973D01*
X176725000Y-87287500D01*
X175750000Y-87287500D01*
X175750000Y-88124999D01*
X175249999Y-88124999D01*
X175250000Y-88124998D01*
X175250000Y-87287500D01*
X174275001Y-87287500D01*
X174275001Y-87424986D01*
X156724999Y-87424986D01*
X156725000Y-87424973D01*
X156725000Y-87287500D01*
X155750000Y-87287500D01*
X155750000Y-88124999D01*
X155249999Y-88124999D01*
X155250000Y-88124998D01*
X155250000Y-87287500D01*
X154275001Y-87287500D01*
X154275001Y-87424986D01*
X136724999Y-87424986D01*
X136725000Y-87424973D01*
X136725000Y-87287500D01*
X135750000Y-87287500D01*
X135750000Y-88124999D01*
X135249999Y-88124999D01*
X135250000Y-88124998D01*
X135250000Y-87287500D01*
X134275001Y-87287500D01*
X134275001Y-87424986D01*
X116724999Y-87424986D01*
X116725000Y-87424973D01*
X116725000Y-87287500D01*
X115750000Y-87287500D01*
X115750000Y-88124999D01*
X115249999Y-88124999D01*
X115250000Y-88124998D01*
X115250000Y-87287500D01*
X114275001Y-87287500D01*
X114275001Y-87424986D01*
X107600500Y-87424986D01*
X107600500Y-84718151D01*
X107620185Y-84651112D01*
X107621116Y-84649684D01*
X107947834Y-84156344D01*
X139227105Y-36924986D01*
X144275001Y-36924986D01*
X144285494Y-37027697D01*
X144340641Y-37194119D01*
X144340643Y-37194124D01*
X144432684Y-37343345D01*
X144556654Y-37467315D01*
X144705875Y-37559356D01*
X144705880Y-37559358D01*
X144872302Y-37614505D01*
X144872309Y-37614506D01*
X144975019Y-37624999D01*
X145249999Y-37624999D01*
X145750000Y-37624999D01*
X146024972Y-37624999D01*
X146024986Y-37624998D01*
X146127697Y-37614505D01*
X146294119Y-37559358D01*
X146294124Y-37559356D01*
X146443345Y-37467315D01*
X146567315Y-37343345D01*
X146659356Y-37194124D01*
X146659358Y-37194119D01*
X146714505Y-37027697D01*
X146714506Y-37027690D01*
X146724999Y-36924986D01*
X146725000Y-36924973D01*
X146725000Y-36787500D01*
X145750000Y-36787500D01*
X145750000Y-37624999D01*
X145249999Y-37624999D01*
X145250000Y-37624998D01*
X145250000Y-36787500D01*
X144275001Y-36787500D01*
X144275001Y-36924986D01*
X139227105Y-36924986D01*
X139780785Y-36088935D01*
X139834211Y-36043912D01*
X139886554Y-36033427D01*
X144153395Y-36115768D01*
X144220040Y-36136741D01*
X144264767Y-36190418D01*
X144275000Y-36239744D01*
X144275000Y-36287500D01*
X146724999Y-36287500D01*
X146726790Y-36285708D01*
X146744684Y-36224770D01*
X146797488Y-36179015D01*
X146851387Y-36167832D01*
X147209990Y-36174753D01*
X147276637Y-36195728D01*
X147321364Y-36249405D01*
X147323779Y-36255397D01*
X147356202Y-36342328D01*
X147356206Y-36342335D01*
X147442452Y-36457544D01*
X147442455Y-36457547D01*
X147557664Y-36543793D01*
X147557671Y-36543797D01*
X147692517Y-36594091D01*
X147692516Y-36594091D01*
X147699444Y-36594835D01*
X147752127Y-36600500D01*
X149347872Y-36600499D01*
X149407483Y-36594091D01*
X149542331Y-36543796D01*
X149657546Y-36457546D01*
X149743796Y-36342331D01*
X149794091Y-36207483D01*
X149800500Y-36147873D01*
X149800500Y-36147844D01*
X152200000Y-36147844D01*
X152206401Y-36207372D01*
X152206403Y-36207379D01*
X152256645Y-36342086D01*
X152256649Y-36342093D01*
X152342809Y-36457187D01*
X152342812Y-36457190D01*
X152457906Y-36543350D01*
X152457913Y-36543354D01*
X152592620Y-36593596D01*
X152592627Y-36593598D01*
X152652155Y-36599999D01*
X152652172Y-36600000D01*
X153200000Y-36600000D01*
X153700000Y-36600000D01*
X154247828Y-36600000D01*
X154247844Y-36599999D01*
X154307372Y-36593598D01*
X154307379Y-36593596D01*
X154442086Y-36543354D01*
X154442093Y-36543350D01*
X154557187Y-36457190D01*
X154557190Y-36457187D01*
X154643350Y-36342093D01*
X154643354Y-36342086D01*
X154693596Y-36207379D01*
X154693598Y-36207372D01*
X154699999Y-36147844D01*
X154700000Y-36147827D01*
X154700000Y-35850000D01*
X153700000Y-35850000D01*
X153700000Y-36600000D01*
X153200000Y-36600000D01*
X153200000Y-35850000D01*
X152200000Y-35850000D01*
X152200000Y-36147844D01*
X149800500Y-36147844D01*
X149800499Y-35623998D01*
X149820184Y-35556961D01*
X149872988Y-35511206D01*
X149924499Y-35500000D01*
X150500000Y-35500000D01*
X150835884Y-35052155D01*
X152200000Y-35052155D01*
X152200000Y-35350000D01*
X153200000Y-35350000D01*
X153700000Y-35350000D01*
X154700000Y-35350000D01*
X154700000Y-35052172D01*
X154699999Y-35052155D01*
X154693598Y-34992627D01*
X154693596Y-34992620D01*
X154643354Y-34857913D01*
X154643350Y-34857906D01*
X154557190Y-34742812D01*
X154557187Y-34742809D01*
X154442093Y-34656649D01*
X154442086Y-34656645D01*
X154307379Y-34606403D01*
X154307372Y-34606401D01*
X154247844Y-34600000D01*
X153700000Y-34600000D01*
X153700000Y-35350000D01*
X153200000Y-35350000D01*
X153200000Y-34600000D01*
X152652155Y-34600000D01*
X152592627Y-34606401D01*
X152592620Y-34606403D01*
X152457913Y-34656645D01*
X152457906Y-34656649D01*
X152342812Y-34742809D01*
X152342809Y-34742812D01*
X152256649Y-34857906D01*
X152256645Y-34857913D01*
X152206403Y-34992620D01*
X152206401Y-34992627D01*
X152200000Y-35052155D01*
X150835884Y-35052155D01*
X150894162Y-34974451D01*
X151962800Y-33549600D01*
X152018771Y-33507779D01*
X152062000Y-33500000D01*
X155275500Y-33500000D01*
X155342539Y-33519685D01*
G37*
%TD.AperFunction*%
%TD*%
%TA.AperFunction,Conductor*%
%TO.N,Net-(D1-VSS)*%
G36*
X157000587Y-27519685D02*
G01*
X157036799Y-27555333D01*
X225454277Y-130431249D01*
X225475011Y-130497971D01*
X225456380Y-130565311D01*
X225454200Y-130568699D01*
X224779570Y-131580643D01*
X224726005Y-131625504D01*
X224656689Y-131634284D01*
X224595192Y-131605571D01*
X224582338Y-131594433D01*
X224582335Y-131594431D01*
X224582333Y-131594430D01*
X224451467Y-131534664D01*
X224451462Y-131534662D01*
X224451461Y-131534662D01*
X224384422Y-131514977D01*
X224384424Y-131514977D01*
X224384419Y-131514976D01*
X224322356Y-131506053D01*
X224242002Y-131494500D01*
X214890486Y-131494500D01*
X214887165Y-131494500D01*
X214887165Y-131493340D01*
X214823782Y-131478359D01*
X214775269Y-131428077D01*
X214761858Y-131383856D01*
X214760577Y-131371938D01*
X214710283Y-131237092D01*
X214710279Y-131237085D01*
X214624033Y-131121876D01*
X214624030Y-131121873D01*
X214508821Y-131035627D01*
X214508814Y-131035623D01*
X214373968Y-130985329D01*
X214373969Y-130985329D01*
X214314369Y-130978922D01*
X214314367Y-130978921D01*
X214314359Y-130978921D01*
X214314350Y-130978921D01*
X212718615Y-130978921D01*
X212718609Y-130978922D01*
X212659002Y-130985329D01*
X212524157Y-131035623D01*
X212524150Y-131035627D01*
X212408941Y-131121873D01*
X212408938Y-131121876D01*
X212322692Y-131237085D01*
X212322688Y-131237092D01*
X212272394Y-131371937D01*
X212271117Y-131383822D01*
X212244378Y-131448373D01*
X212186985Y-131488220D01*
X212146915Y-131493259D01*
X212146915Y-131494500D01*
X209987665Y-131494500D01*
X209987665Y-131493491D01*
X209923759Y-131478370D01*
X209875258Y-131428076D01*
X209861861Y-131383884D01*
X209860577Y-131371937D01*
X209810283Y-131237092D01*
X209810279Y-131237085D01*
X209724033Y-131121876D01*
X209724030Y-131121873D01*
X209608821Y-131035627D01*
X209608814Y-131035623D01*
X209473968Y-130985329D01*
X209473969Y-130985329D01*
X209414369Y-130978922D01*
X209414367Y-130978921D01*
X209414359Y-130978921D01*
X209414350Y-130978921D01*
X207818615Y-130978921D01*
X207818609Y-130978922D01*
X207759002Y-130985329D01*
X207624157Y-131035623D01*
X207624150Y-131035627D01*
X207508941Y-131121873D01*
X207508938Y-131121876D01*
X207422692Y-131237085D01*
X207422688Y-131237092D01*
X207399877Y-131298254D01*
X207358006Y-131354188D01*
X207292542Y-131378605D01*
X207283695Y-131378921D01*
X206849000Y-131378921D01*
X206781961Y-131359236D01*
X206736206Y-131306432D01*
X206725000Y-131254921D01*
X206725000Y-131212500D01*
X204275001Y-131212500D01*
X204275001Y-131254921D01*
X204255316Y-131321960D01*
X204202512Y-131367715D01*
X204151001Y-131378921D01*
X193112733Y-131378921D01*
X193045694Y-131359236D01*
X193025052Y-131342602D01*
X192257463Y-130575013D01*
X204275000Y-130575013D01*
X204275000Y-130712500D01*
X205250000Y-130712500D01*
X205750000Y-130712500D01*
X206724999Y-130712500D01*
X206724999Y-130575028D01*
X206724998Y-130575013D01*
X206714505Y-130472302D01*
X206659358Y-130305880D01*
X206659356Y-130305875D01*
X206567315Y-130156654D01*
X206443345Y-130032684D01*
X206294124Y-129940643D01*
X206294119Y-129940641D01*
X206127697Y-129885494D01*
X206127690Y-129885493D01*
X206024986Y-129875000D01*
X205750000Y-129875000D01*
X205750000Y-130712500D01*
X205250000Y-130712500D01*
X205250000Y-129875000D01*
X204975029Y-129875000D01*
X204975012Y-129875001D01*
X204872302Y-129885494D01*
X204705880Y-129940641D01*
X204705875Y-129940643D01*
X204556654Y-130032684D01*
X204432684Y-130156654D01*
X204340643Y-130305875D01*
X204340641Y-130305880D01*
X204285494Y-130472302D01*
X204285493Y-130472309D01*
X204275000Y-130575013D01*
X192257463Y-130575013D01*
X191009715Y-129327265D01*
X207366486Y-129327265D01*
X207372887Y-129386793D01*
X207372889Y-129386800D01*
X207423131Y-129521507D01*
X207423135Y-129521514D01*
X207509295Y-129636608D01*
X207509298Y-129636611D01*
X207624392Y-129722771D01*
X207624399Y-129722775D01*
X207759106Y-129773017D01*
X207759113Y-129773019D01*
X207818641Y-129779420D01*
X207818658Y-129779421D01*
X208366486Y-129779421D01*
X208866486Y-129779421D01*
X209414314Y-129779421D01*
X209414330Y-129779420D01*
X209473858Y-129773019D01*
X209473865Y-129773017D01*
X209608572Y-129722775D01*
X209608579Y-129722771D01*
X209723673Y-129636611D01*
X209723676Y-129636608D01*
X209809836Y-129521514D01*
X209809840Y-129521507D01*
X209860082Y-129386800D01*
X209860084Y-129386793D01*
X209866485Y-129327265D01*
X209866486Y-129327248D01*
X209866486Y-129029421D01*
X208866486Y-129029421D01*
X208866486Y-129779421D01*
X208366486Y-129779421D01*
X208366486Y-129029421D01*
X207366486Y-129029421D01*
X207366486Y-129327265D01*
X191009715Y-129327265D01*
X190827886Y-129145436D01*
X190813182Y-129118508D01*
X190796590Y-129092690D01*
X190795698Y-129086489D01*
X190794401Y-129084113D01*
X190791567Y-129057755D01*
X190791567Y-128231576D01*
X207366486Y-128231576D01*
X207366486Y-128529421D01*
X208366486Y-128529421D01*
X208866486Y-128529421D01*
X209866486Y-128529421D01*
X209866486Y-128231585D01*
X209866483Y-128231556D01*
X212265986Y-128231556D01*
X212265986Y-129327291D01*
X212265987Y-129327297D01*
X212272394Y-129386904D01*
X212322688Y-129521749D01*
X212322692Y-129521756D01*
X212408938Y-129636965D01*
X212408941Y-129636968D01*
X212524150Y-129723214D01*
X212524157Y-129723218D01*
X212659003Y-129773512D01*
X212659002Y-129773512D01*
X212665930Y-129774256D01*
X212718613Y-129779921D01*
X214314358Y-129779920D01*
X214373969Y-129773512D01*
X214508817Y-129723217D01*
X214624032Y-129636967D01*
X214710282Y-129521752D01*
X214760577Y-129386904D01*
X214766986Y-129327294D01*
X214766985Y-128231549D01*
X214760577Y-128171938D01*
X214756127Y-128160008D01*
X214710283Y-128037092D01*
X214710279Y-128037085D01*
X214624033Y-127921876D01*
X214624030Y-127921873D01*
X214508821Y-127835627D01*
X214508814Y-127835623D01*
X214373968Y-127785329D01*
X214373969Y-127785329D01*
X214314369Y-127778922D01*
X214314367Y-127778921D01*
X214314359Y-127778921D01*
X214314350Y-127778921D01*
X212718615Y-127778921D01*
X212718609Y-127778922D01*
X212659002Y-127785329D01*
X212524157Y-127835623D01*
X212524150Y-127835627D01*
X212408941Y-127921873D01*
X212408938Y-127921876D01*
X212322692Y-128037085D01*
X212322688Y-128037092D01*
X212272394Y-128171938D01*
X212265987Y-128231537D01*
X212265987Y-128231544D01*
X212265986Y-128231556D01*
X209866483Y-128231556D01*
X209860084Y-128172048D01*
X209860082Y-128172041D01*
X209809840Y-128037334D01*
X209809836Y-128037327D01*
X209723676Y-127922233D01*
X209723673Y-127922230D01*
X209608579Y-127836070D01*
X209608572Y-127836066D01*
X209473865Y-127785824D01*
X209473858Y-127785822D01*
X209414330Y-127779421D01*
X208866486Y-127779421D01*
X208866486Y-128529421D01*
X208366486Y-128529421D01*
X208366486Y-127779421D01*
X207818641Y-127779421D01*
X207759113Y-127785822D01*
X207759106Y-127785824D01*
X207624399Y-127836066D01*
X207624392Y-127836070D01*
X207509298Y-127922230D01*
X207509295Y-127922233D01*
X207423135Y-128037327D01*
X207423131Y-128037334D01*
X207372889Y-128172041D01*
X207372887Y-128172048D01*
X207366486Y-128231576D01*
X190791567Y-128231576D01*
X190791567Y-128159982D01*
X190791566Y-128159976D01*
X190791565Y-128159969D01*
X190785159Y-128100370D01*
X190761555Y-128037085D01*
X190734865Y-127965524D01*
X190734861Y-127965517D01*
X190648615Y-127850308D01*
X190648612Y-127850305D01*
X190533403Y-127764059D01*
X190533396Y-127764055D01*
X190398550Y-127713761D01*
X190398551Y-127713761D01*
X190338951Y-127707354D01*
X190338949Y-127707353D01*
X190338941Y-127707353D01*
X190338932Y-127707353D01*
X188743197Y-127707353D01*
X188743191Y-127707354D01*
X188683584Y-127713761D01*
X188548739Y-127764055D01*
X188548732Y-127764059D01*
X188433523Y-127850305D01*
X188433520Y-127850308D01*
X188347274Y-127965517D01*
X188347270Y-127965524D01*
X188296976Y-128100370D01*
X188290569Y-128159969D01*
X188290569Y-128159976D01*
X188290568Y-128159988D01*
X188290568Y-129255723D01*
X188290569Y-129255729D01*
X188296976Y-129315336D01*
X188347270Y-129450181D01*
X188347274Y-129450188D01*
X188433520Y-129565397D01*
X188433523Y-129565400D01*
X188548732Y-129651646D01*
X188548739Y-129651650D01*
X188683585Y-129701944D01*
X188683584Y-129701944D01*
X188690512Y-129702688D01*
X188743195Y-129708353D01*
X189640970Y-129708352D01*
X189708009Y-129728036D01*
X189728651Y-129744671D01*
X191266799Y-131282819D01*
X191300284Y-131344142D01*
X191295300Y-131413834D01*
X191253428Y-131469767D01*
X191187964Y-131494184D01*
X191179118Y-131494500D01*
X191036519Y-131494500D01*
X191009732Y-131486634D01*
X190982200Y-131481970D01*
X190974045Y-131476155D01*
X190969480Y-131474815D01*
X190952996Y-131462151D01*
X190950876Y-131460219D01*
X190854396Y-131363739D01*
X190819207Y-131340226D01*
X190812321Y-131333951D01*
X190798818Y-131311737D01*
X190782148Y-131291790D01*
X190779662Y-131285632D01*
X190734866Y-131165526D01*
X190734861Y-131165517D01*
X190648615Y-131050308D01*
X190648612Y-131050305D01*
X190533403Y-130964059D01*
X190533396Y-130964055D01*
X190398550Y-130913761D01*
X190398551Y-130913761D01*
X190338951Y-130907354D01*
X190338949Y-130907353D01*
X190338941Y-130907353D01*
X190338932Y-130907353D01*
X188743197Y-130907353D01*
X188743191Y-130907354D01*
X188683584Y-130913761D01*
X188548739Y-130964055D01*
X188548732Y-130964059D01*
X188433523Y-131050305D01*
X188433520Y-131050308D01*
X188347274Y-131165517D01*
X188347270Y-131165524D01*
X188296976Y-131300370D01*
X188290648Y-131359236D01*
X188290569Y-131359976D01*
X188290568Y-131359988D01*
X188290568Y-131370500D01*
X188270883Y-131437539D01*
X188218079Y-131483294D01*
X188166568Y-131494500D01*
X186015567Y-131494500D01*
X185948528Y-131474815D01*
X185902773Y-131422011D01*
X185891567Y-131370500D01*
X185891567Y-131359982D01*
X185891566Y-131359976D01*
X185891565Y-131359969D01*
X185885159Y-131300370D01*
X185880421Y-131287668D01*
X185834865Y-131165524D01*
X185834861Y-131165517D01*
X185748615Y-131050308D01*
X185748612Y-131050305D01*
X185633403Y-130964059D01*
X185633396Y-130964055D01*
X185498550Y-130913761D01*
X185498551Y-130913761D01*
X185438951Y-130907354D01*
X185438949Y-130907353D01*
X185438941Y-130907353D01*
X185438932Y-130907353D01*
X183843197Y-130907353D01*
X183843191Y-130907354D01*
X183783584Y-130913761D01*
X183648739Y-130964055D01*
X183648732Y-130964059D01*
X183533523Y-131050305D01*
X183533520Y-131050308D01*
X183447274Y-131165517D01*
X183447270Y-131165524D01*
X183424459Y-131226686D01*
X183382588Y-131282620D01*
X183317124Y-131307037D01*
X183308277Y-131307353D01*
X182849000Y-131307353D01*
X182781961Y-131287668D01*
X182736206Y-131234864D01*
X182733103Y-131220603D01*
X182725000Y-131212500D01*
X180275001Y-131212500D01*
X180262884Y-131224616D01*
X180255316Y-131250392D01*
X180202512Y-131296147D01*
X180151001Y-131307353D01*
X168851044Y-131307353D01*
X168784005Y-131287668D01*
X168763363Y-131271034D01*
X168067342Y-130575013D01*
X180275000Y-130575013D01*
X180275000Y-130712500D01*
X181250000Y-130712500D01*
X181750000Y-130712500D01*
X182724999Y-130712500D01*
X182724999Y-130575028D01*
X182724998Y-130575013D01*
X182714505Y-130472302D01*
X182659358Y-130305880D01*
X182659356Y-130305875D01*
X182567315Y-130156654D01*
X182443345Y-130032684D01*
X182294124Y-129940643D01*
X182294119Y-129940641D01*
X182127697Y-129885494D01*
X182127690Y-129885493D01*
X182024986Y-129875000D01*
X181750000Y-129875000D01*
X181750000Y-130712500D01*
X181250000Y-130712500D01*
X181250000Y-129875000D01*
X180975029Y-129875000D01*
X180975012Y-129875001D01*
X180872302Y-129885494D01*
X180705880Y-129940641D01*
X180705875Y-129940643D01*
X180556654Y-130032684D01*
X180432684Y-130156654D01*
X180340643Y-130305875D01*
X180340641Y-130305880D01*
X180285494Y-130472302D01*
X180285493Y-130472309D01*
X180275000Y-130575013D01*
X168067342Y-130575013D01*
X166780900Y-129288571D01*
X166762949Y-129255697D01*
X183391068Y-129255697D01*
X183397469Y-129315225D01*
X183397471Y-129315232D01*
X183447713Y-129449939D01*
X183447717Y-129449946D01*
X183533877Y-129565040D01*
X183533880Y-129565043D01*
X183648974Y-129651203D01*
X183648981Y-129651207D01*
X183783688Y-129701449D01*
X183783695Y-129701451D01*
X183843223Y-129707852D01*
X183843240Y-129707853D01*
X184391068Y-129707853D01*
X184891068Y-129707853D01*
X185438896Y-129707853D01*
X185438912Y-129707852D01*
X185498440Y-129701451D01*
X185498447Y-129701449D01*
X185633154Y-129651207D01*
X185633161Y-129651203D01*
X185748255Y-129565043D01*
X185748258Y-129565040D01*
X185834418Y-129449946D01*
X185834422Y-129449939D01*
X185884664Y-129315232D01*
X185884666Y-129315225D01*
X185891067Y-129255697D01*
X185891068Y-129255680D01*
X185891068Y-128957853D01*
X184891068Y-128957853D01*
X184891068Y-129707853D01*
X184391068Y-129707853D01*
X184391068Y-128957853D01*
X183391068Y-128957853D01*
X183391068Y-129255697D01*
X166762949Y-129255697D01*
X166747415Y-129227248D01*
X166744581Y-129200890D01*
X166744581Y-128303118D01*
X166744580Y-128303112D01*
X166744579Y-128303105D01*
X166738173Y-128243506D01*
X166707031Y-128160008D01*
X183391068Y-128160008D01*
X183391068Y-128457853D01*
X184391068Y-128457853D01*
X184891068Y-128457853D01*
X185891068Y-128457853D01*
X185891068Y-128160025D01*
X185891067Y-128160008D01*
X185884666Y-128100480D01*
X185884664Y-128100473D01*
X185834422Y-127965766D01*
X185834418Y-127965759D01*
X185748258Y-127850665D01*
X185748255Y-127850662D01*
X185633161Y-127764502D01*
X185633154Y-127764498D01*
X185498447Y-127714256D01*
X185498440Y-127714254D01*
X185438912Y-127707853D01*
X184891068Y-127707853D01*
X184891068Y-128457853D01*
X184391068Y-128457853D01*
X184391068Y-127707853D01*
X183843223Y-127707853D01*
X183783695Y-127714254D01*
X183783688Y-127714256D01*
X183648981Y-127764498D01*
X183648974Y-127764502D01*
X183533880Y-127850662D01*
X183533877Y-127850665D01*
X183447717Y-127965759D01*
X183447713Y-127965766D01*
X183397471Y-128100473D01*
X183397469Y-128100480D01*
X183391068Y-128160008D01*
X166707031Y-128160008D01*
X166707016Y-128159969D01*
X166687880Y-128108662D01*
X166687875Y-128108653D01*
X166601629Y-127993444D01*
X166601626Y-127993441D01*
X166486417Y-127907195D01*
X166486410Y-127907191D01*
X166351564Y-127856897D01*
X166351565Y-127856897D01*
X166291965Y-127850490D01*
X166291963Y-127850489D01*
X166291955Y-127850489D01*
X166291946Y-127850489D01*
X164696211Y-127850489D01*
X164696205Y-127850490D01*
X164636598Y-127856897D01*
X164501753Y-127907191D01*
X164501746Y-127907195D01*
X164386537Y-127993441D01*
X164386534Y-127993444D01*
X164300288Y-128108653D01*
X164300284Y-128108660D01*
X164249990Y-128243506D01*
X164243583Y-128303105D01*
X164243583Y-128303112D01*
X164243582Y-128303124D01*
X164243582Y-129398859D01*
X164243583Y-129398865D01*
X164249990Y-129458472D01*
X164300284Y-129593317D01*
X164300288Y-129593324D01*
X164386534Y-129708533D01*
X164386537Y-129708536D01*
X164501746Y-129794782D01*
X164501753Y-129794786D01*
X164636599Y-129845080D01*
X164636598Y-129845080D01*
X164643526Y-129845824D01*
X164696209Y-129851489D01*
X165593984Y-129851488D01*
X165661023Y-129871172D01*
X165681665Y-129887807D01*
X167076676Y-131282819D01*
X167110161Y-131344142D01*
X167105177Y-131413834D01*
X167063305Y-131469767D01*
X166997841Y-131494184D01*
X166988995Y-131494500D01*
X166843288Y-131494500D01*
X166776249Y-131474815D01*
X166730494Y-131422011D01*
X166727106Y-131413833D01*
X166687879Y-131308660D01*
X166687875Y-131308653D01*
X166601629Y-131193444D01*
X166601626Y-131193441D01*
X166486417Y-131107195D01*
X166486410Y-131107191D01*
X166351564Y-131056897D01*
X166351565Y-131056897D01*
X166291965Y-131050490D01*
X166291963Y-131050489D01*
X166291955Y-131050489D01*
X166291946Y-131050489D01*
X164696211Y-131050489D01*
X164696205Y-131050490D01*
X164636598Y-131056897D01*
X164501753Y-131107191D01*
X164501746Y-131107195D01*
X164386537Y-131193441D01*
X164386534Y-131193444D01*
X164300288Y-131308653D01*
X164300284Y-131308660D01*
X164261058Y-131413833D01*
X164219187Y-131469767D01*
X164153723Y-131494184D01*
X164144876Y-131494500D01*
X161968581Y-131494500D01*
X161968573Y-131494500D01*
X161968569Y-131494501D01*
X161957254Y-131495717D01*
X161888496Y-131483307D01*
X161837361Y-131435694D01*
X161827825Y-131415760D01*
X161787879Y-131308660D01*
X161787875Y-131308653D01*
X161701629Y-131193444D01*
X161701626Y-131193441D01*
X161586417Y-131107195D01*
X161586410Y-131107191D01*
X161451564Y-131056897D01*
X161451565Y-131056897D01*
X161391965Y-131050490D01*
X161391963Y-131050489D01*
X161391955Y-131050489D01*
X161391946Y-131050489D01*
X159796211Y-131050489D01*
X159796205Y-131050490D01*
X159736598Y-131056897D01*
X159601753Y-131107191D01*
X159601746Y-131107195D01*
X159486537Y-131193441D01*
X159486534Y-131193444D01*
X159400288Y-131308653D01*
X159400284Y-131308660D01*
X159377473Y-131369822D01*
X159335602Y-131425756D01*
X159270138Y-131450173D01*
X159261291Y-131450489D01*
X158849000Y-131450489D01*
X158781961Y-131430804D01*
X158736206Y-131378000D01*
X158725000Y-131326489D01*
X158725000Y-131212500D01*
X156275001Y-131212500D01*
X156275001Y-131326489D01*
X156255316Y-131393528D01*
X156202512Y-131439283D01*
X156151001Y-131450489D01*
X145018761Y-131450489D01*
X144951722Y-131430804D01*
X144931080Y-131414170D01*
X144091923Y-130575013D01*
X156275000Y-130575013D01*
X156275000Y-130712500D01*
X157250000Y-130712500D01*
X157750000Y-130712500D01*
X158724999Y-130712500D01*
X158724999Y-130575028D01*
X158724998Y-130575013D01*
X158714505Y-130472302D01*
X158659358Y-130305880D01*
X158659356Y-130305875D01*
X158567315Y-130156654D01*
X158443345Y-130032684D01*
X158294124Y-129940643D01*
X158294119Y-129940641D01*
X158127697Y-129885494D01*
X158127690Y-129885493D01*
X158024986Y-129875000D01*
X157750000Y-129875000D01*
X157750000Y-130712500D01*
X157250000Y-130712500D01*
X157250000Y-129875000D01*
X156975029Y-129875000D01*
X156975012Y-129875001D01*
X156872302Y-129885494D01*
X156705880Y-129940641D01*
X156705875Y-129940643D01*
X156556654Y-130032684D01*
X156432684Y-130156654D01*
X156340643Y-130305875D01*
X156340641Y-130305880D01*
X156285494Y-130472302D01*
X156285493Y-130472309D01*
X156275000Y-130575013D01*
X144091923Y-130575013D01*
X142915743Y-129398833D01*
X159344082Y-129398833D01*
X159350483Y-129458361D01*
X159350485Y-129458368D01*
X159400727Y-129593075D01*
X159400731Y-129593082D01*
X159486890Y-129708175D01*
X159486894Y-129708179D01*
X159601988Y-129794339D01*
X159601995Y-129794343D01*
X159736702Y-129844585D01*
X159736709Y-129844587D01*
X159796237Y-129850988D01*
X159796254Y-129850989D01*
X160344082Y-129850989D01*
X160844082Y-129850989D01*
X161391910Y-129850989D01*
X161391926Y-129850988D01*
X161451454Y-129844587D01*
X161451461Y-129844585D01*
X161586168Y-129794343D01*
X161586175Y-129794339D01*
X161701269Y-129708179D01*
X161701274Y-129708175D01*
X161787432Y-129593082D01*
X161787436Y-129593075D01*
X161837678Y-129458368D01*
X161837680Y-129458361D01*
X161844081Y-129398833D01*
X161844082Y-129398816D01*
X161844082Y-129100989D01*
X160844082Y-129100989D01*
X160844082Y-129850989D01*
X160344082Y-129850989D01*
X160344082Y-129100989D01*
X159344082Y-129100989D01*
X159344082Y-129398833D01*
X142915743Y-129398833D01*
X142805482Y-129288572D01*
X142790778Y-129261644D01*
X142774186Y-129235826D01*
X142773294Y-129229625D01*
X142771997Y-129227249D01*
X142769163Y-129200891D01*
X142769163Y-128303144D01*
X159344082Y-128303144D01*
X159344082Y-128600989D01*
X160344082Y-128600989D01*
X160844082Y-128600989D01*
X161844082Y-128600989D01*
X161844082Y-128303161D01*
X161844081Y-128303144D01*
X161837680Y-128243616D01*
X161837678Y-128243609D01*
X161787436Y-128108902D01*
X161787432Y-128108895D01*
X161701272Y-127993801D01*
X161701269Y-127993798D01*
X161586175Y-127907638D01*
X161586168Y-127907634D01*
X161451461Y-127857392D01*
X161451454Y-127857390D01*
X161391926Y-127850989D01*
X160844082Y-127850989D01*
X160844082Y-128600989D01*
X160344082Y-128600989D01*
X160344082Y-127850989D01*
X159796237Y-127850989D01*
X159736709Y-127857390D01*
X159736702Y-127857392D01*
X159601995Y-127907634D01*
X159601988Y-127907638D01*
X159486894Y-127993798D01*
X159486891Y-127993801D01*
X159400731Y-128108895D01*
X159400727Y-128108902D01*
X159350485Y-128243609D01*
X159350483Y-128243616D01*
X159344082Y-128303144D01*
X142769163Y-128303144D01*
X142769163Y-128303118D01*
X142769162Y-128303112D01*
X142769161Y-128303105D01*
X142762755Y-128243506D01*
X142758305Y-128231576D01*
X142712461Y-128108660D01*
X142712457Y-128108653D01*
X142626211Y-127993444D01*
X142626208Y-127993441D01*
X142510999Y-127907195D01*
X142510992Y-127907191D01*
X142376146Y-127856897D01*
X142376147Y-127856897D01*
X142316547Y-127850490D01*
X142316545Y-127850489D01*
X142316537Y-127850489D01*
X142316528Y-127850489D01*
X140720793Y-127850489D01*
X140720787Y-127850490D01*
X140661180Y-127856897D01*
X140526335Y-127907191D01*
X140526328Y-127907195D01*
X140411119Y-127993441D01*
X140411116Y-127993444D01*
X140324870Y-128108653D01*
X140324866Y-128108660D01*
X140274572Y-128243506D01*
X140268165Y-128303105D01*
X140268165Y-128303112D01*
X140268164Y-128303124D01*
X140268164Y-129398859D01*
X140268165Y-129398865D01*
X140274572Y-129458472D01*
X140324866Y-129593317D01*
X140324870Y-129593324D01*
X140411116Y-129708533D01*
X140411119Y-129708536D01*
X140526328Y-129794782D01*
X140526335Y-129794786D01*
X140661181Y-129845080D01*
X140661180Y-129845080D01*
X140668108Y-129845824D01*
X140720791Y-129851489D01*
X141618566Y-129851488D01*
X141685605Y-129871172D01*
X141706247Y-129887807D01*
X143101259Y-131282819D01*
X143134744Y-131344142D01*
X143129760Y-131413834D01*
X143087888Y-131469767D01*
X143022424Y-131494184D01*
X143013578Y-131494500D01*
X142867870Y-131494500D01*
X142800831Y-131474815D01*
X142755076Y-131422011D01*
X142751688Y-131413833D01*
X142712461Y-131308660D01*
X142712457Y-131308653D01*
X142626211Y-131193444D01*
X142626208Y-131193441D01*
X142510999Y-131107195D01*
X142510992Y-131107191D01*
X142376146Y-131056897D01*
X142376147Y-131056897D01*
X142316547Y-131050490D01*
X142316545Y-131050489D01*
X142316537Y-131050489D01*
X142316528Y-131050489D01*
X140720793Y-131050489D01*
X140720787Y-131050490D01*
X140661180Y-131056897D01*
X140526335Y-131107191D01*
X140526328Y-131107195D01*
X140411119Y-131193441D01*
X140411116Y-131193444D01*
X140324870Y-131308653D01*
X140324866Y-131308660D01*
X140285640Y-131413833D01*
X140243769Y-131469767D01*
X140178305Y-131494184D01*
X140169458Y-131494500D01*
X137993163Y-131494500D01*
X137993155Y-131494500D01*
X137993151Y-131494501D01*
X137981836Y-131495717D01*
X137913078Y-131483307D01*
X137861943Y-131435694D01*
X137852407Y-131415760D01*
X137812461Y-131308660D01*
X137812457Y-131308653D01*
X137726211Y-131193444D01*
X137726208Y-131193441D01*
X137610999Y-131107195D01*
X137610992Y-131107191D01*
X137476146Y-131056897D01*
X137476147Y-131056897D01*
X137416547Y-131050490D01*
X137416545Y-131050489D01*
X137416537Y-131050489D01*
X137416528Y-131050489D01*
X135820793Y-131050489D01*
X135820787Y-131050490D01*
X135761180Y-131056897D01*
X135626335Y-131107191D01*
X135626328Y-131107195D01*
X135511119Y-131193441D01*
X135511116Y-131193444D01*
X135424870Y-131308653D01*
X135424866Y-131308660D01*
X135402055Y-131369822D01*
X135360184Y-131425756D01*
X135294720Y-131450173D01*
X135285873Y-131450489D01*
X134849000Y-131450489D01*
X134781961Y-131430804D01*
X134736206Y-131378000D01*
X134725000Y-131326489D01*
X134725000Y-131212500D01*
X132275001Y-131212500D01*
X132275001Y-131326489D01*
X132255316Y-131393528D01*
X132202512Y-131439283D01*
X132151001Y-131450489D01*
X121043344Y-131450489D01*
X120976305Y-131430804D01*
X120955663Y-131414170D01*
X120116506Y-130575013D01*
X132275000Y-130575013D01*
X132275000Y-130712500D01*
X133250000Y-130712500D01*
X133750000Y-130712500D01*
X134724999Y-130712500D01*
X134724999Y-130575028D01*
X134724998Y-130575013D01*
X134714505Y-130472302D01*
X134659358Y-130305880D01*
X134659356Y-130305875D01*
X134567315Y-130156654D01*
X134443345Y-130032684D01*
X134294124Y-129940643D01*
X134294119Y-129940641D01*
X134127697Y-129885494D01*
X134127690Y-129885493D01*
X134024986Y-129875000D01*
X133750000Y-129875000D01*
X133750000Y-130712500D01*
X133250000Y-130712500D01*
X133250000Y-129875000D01*
X132975029Y-129875000D01*
X132975012Y-129875001D01*
X132872302Y-129885494D01*
X132705880Y-129940641D01*
X132705875Y-129940643D01*
X132556654Y-130032684D01*
X132432684Y-130156654D01*
X132340643Y-130305875D01*
X132340641Y-130305880D01*
X132285494Y-130472302D01*
X132285493Y-130472309D01*
X132275000Y-130575013D01*
X120116506Y-130575013D01*
X118940326Y-129398833D01*
X135368664Y-129398833D01*
X135375065Y-129458361D01*
X135375067Y-129458368D01*
X135425309Y-129593075D01*
X135425313Y-129593082D01*
X135511472Y-129708175D01*
X135511476Y-129708179D01*
X135626570Y-129794339D01*
X135626577Y-129794343D01*
X135761284Y-129844585D01*
X135761291Y-129844587D01*
X135820819Y-129850988D01*
X135820836Y-129850989D01*
X136368664Y-129850989D01*
X136868664Y-129850989D01*
X137416492Y-129850989D01*
X137416508Y-129850988D01*
X137476036Y-129844587D01*
X137476043Y-129844585D01*
X137610750Y-129794343D01*
X137610757Y-129794339D01*
X137725851Y-129708179D01*
X137725856Y-129708175D01*
X137812014Y-129593082D01*
X137812018Y-129593075D01*
X137862260Y-129458368D01*
X137862262Y-129458361D01*
X137868663Y-129398833D01*
X137868664Y-129398816D01*
X137868664Y-129100989D01*
X136868664Y-129100989D01*
X136868664Y-129850989D01*
X136368664Y-129850989D01*
X136368664Y-129100989D01*
X135368664Y-129100989D01*
X135368664Y-129398833D01*
X118940326Y-129398833D01*
X118830065Y-129288572D01*
X118815361Y-129261644D01*
X118798769Y-129235826D01*
X118797877Y-129229625D01*
X118796580Y-129227249D01*
X118793746Y-129200891D01*
X118793746Y-128303144D01*
X135368664Y-128303144D01*
X135368664Y-128600989D01*
X136368664Y-128600989D01*
X136868664Y-128600989D01*
X137868664Y-128600989D01*
X137868664Y-128303161D01*
X137868663Y-128303144D01*
X137862262Y-128243616D01*
X137862260Y-128243609D01*
X137812018Y-128108902D01*
X137812014Y-128108895D01*
X137725854Y-127993801D01*
X137725851Y-127993798D01*
X137610757Y-127907638D01*
X137610750Y-127907634D01*
X137476043Y-127857392D01*
X137476036Y-127857390D01*
X137416508Y-127850989D01*
X136868664Y-127850989D01*
X136868664Y-128600989D01*
X136368664Y-128600989D01*
X136368664Y-127850989D01*
X135820819Y-127850989D01*
X135761291Y-127857390D01*
X135761284Y-127857392D01*
X135626577Y-127907634D01*
X135626570Y-127907638D01*
X135511476Y-127993798D01*
X135511473Y-127993801D01*
X135425313Y-128108895D01*
X135425309Y-128108902D01*
X135375067Y-128243609D01*
X135375065Y-128243616D01*
X135368664Y-128303144D01*
X118793746Y-128303144D01*
X118793746Y-128303118D01*
X118793745Y-128303112D01*
X118793744Y-128303105D01*
X118787338Y-128243506D01*
X118782888Y-128231576D01*
X118737044Y-128108660D01*
X118737040Y-128108653D01*
X118650794Y-127993444D01*
X118650791Y-127993441D01*
X118535582Y-127907195D01*
X118535575Y-127907191D01*
X118400729Y-127856897D01*
X118400730Y-127856897D01*
X118341130Y-127850490D01*
X118341128Y-127850489D01*
X118341120Y-127850489D01*
X118341111Y-127850489D01*
X116745376Y-127850489D01*
X116745370Y-127850490D01*
X116685763Y-127856897D01*
X116550918Y-127907191D01*
X116550911Y-127907195D01*
X116435702Y-127993441D01*
X116435699Y-127993444D01*
X116349453Y-128108653D01*
X116349449Y-128108660D01*
X116299155Y-128243506D01*
X116292748Y-128303105D01*
X116292748Y-128303112D01*
X116292747Y-128303124D01*
X116292747Y-129398859D01*
X116292748Y-129398865D01*
X116299155Y-129458472D01*
X116349449Y-129593317D01*
X116349453Y-129593324D01*
X116435699Y-129708533D01*
X116435702Y-129708536D01*
X116550911Y-129794782D01*
X116550918Y-129794786D01*
X116685764Y-129845080D01*
X116685763Y-129845080D01*
X116692691Y-129845824D01*
X116745374Y-129851489D01*
X117643149Y-129851488D01*
X117710188Y-129871172D01*
X117730830Y-129887807D01*
X119125842Y-131282819D01*
X119159327Y-131344142D01*
X119154343Y-131413834D01*
X119112471Y-131469767D01*
X119047007Y-131494184D01*
X119038161Y-131494500D01*
X118892453Y-131494500D01*
X118825414Y-131474815D01*
X118779659Y-131422011D01*
X118776271Y-131413833D01*
X118737044Y-131308660D01*
X118737040Y-131308653D01*
X118650794Y-131193444D01*
X118650791Y-131193441D01*
X118535582Y-131107195D01*
X118535575Y-131107191D01*
X118400729Y-131056897D01*
X118400730Y-131056897D01*
X118341130Y-131050490D01*
X118341128Y-131050489D01*
X118341120Y-131050489D01*
X118341111Y-131050489D01*
X116745376Y-131050489D01*
X116745370Y-131050490D01*
X116685763Y-131056897D01*
X116550918Y-131107191D01*
X116550911Y-131107195D01*
X116435702Y-131193441D01*
X116435699Y-131193444D01*
X116349453Y-131308653D01*
X116349449Y-131308660D01*
X116310223Y-131413833D01*
X116268352Y-131469767D01*
X116202888Y-131494184D01*
X116194041Y-131494500D01*
X114017746Y-131494500D01*
X114017738Y-131494500D01*
X114017734Y-131494501D01*
X114006419Y-131495717D01*
X113937661Y-131483307D01*
X113886526Y-131435694D01*
X113876990Y-131415760D01*
X113837044Y-131308660D01*
X113837040Y-131308653D01*
X113750794Y-131193444D01*
X113750791Y-131193441D01*
X113635582Y-131107195D01*
X113635575Y-131107191D01*
X113500729Y-131056897D01*
X113500730Y-131056897D01*
X113441130Y-131050490D01*
X113441128Y-131050489D01*
X113441120Y-131050489D01*
X113441111Y-131050489D01*
X111845376Y-131050489D01*
X111845370Y-131050490D01*
X111785763Y-131056897D01*
X111650918Y-131107191D01*
X111650911Y-131107195D01*
X111535702Y-131193441D01*
X111535699Y-131193444D01*
X111449453Y-131308653D01*
X111449449Y-131308660D01*
X111426638Y-131369822D01*
X111384767Y-131425756D01*
X111319303Y-131450173D01*
X111310456Y-131450489D01*
X110849000Y-131450489D01*
X110781961Y-131430804D01*
X110736206Y-131378000D01*
X110725000Y-131326489D01*
X110725000Y-131212500D01*
X108275001Y-131212500D01*
X108275001Y-131326489D01*
X108255316Y-131393528D01*
X108202512Y-131439283D01*
X108151001Y-131450489D01*
X96963009Y-131450489D01*
X96895970Y-131430804D01*
X96875328Y-131414170D01*
X96036171Y-130575013D01*
X108275000Y-130575013D01*
X108275000Y-130712500D01*
X109250000Y-130712500D01*
X109750000Y-130712500D01*
X110724999Y-130712500D01*
X110724999Y-130575028D01*
X110724998Y-130575013D01*
X110714505Y-130472302D01*
X110659358Y-130305880D01*
X110659356Y-130305875D01*
X110567315Y-130156654D01*
X110443345Y-130032684D01*
X110294124Y-129940643D01*
X110294119Y-129940641D01*
X110127697Y-129885494D01*
X110127690Y-129885493D01*
X110024986Y-129875000D01*
X109750000Y-129875000D01*
X109750000Y-130712500D01*
X109250000Y-130712500D01*
X109250000Y-129875000D01*
X108975029Y-129875000D01*
X108975012Y-129875001D01*
X108872302Y-129885494D01*
X108705880Y-129940641D01*
X108705875Y-129940643D01*
X108556654Y-130032684D01*
X108432684Y-130156654D01*
X108340643Y-130305875D01*
X108340641Y-130305880D01*
X108285494Y-130472302D01*
X108285493Y-130472309D01*
X108275000Y-130575013D01*
X96036171Y-130575013D01*
X94859991Y-129398833D01*
X111393247Y-129398833D01*
X111399648Y-129458361D01*
X111399650Y-129458368D01*
X111449892Y-129593075D01*
X111449896Y-129593082D01*
X111536055Y-129708175D01*
X111536059Y-129708179D01*
X111651153Y-129794339D01*
X111651160Y-129794343D01*
X111785867Y-129844585D01*
X111785874Y-129844587D01*
X111845402Y-129850988D01*
X111845419Y-129850989D01*
X112393247Y-129850989D01*
X112893247Y-129850989D01*
X113441075Y-129850989D01*
X113441091Y-129850988D01*
X113500619Y-129844587D01*
X113500626Y-129844585D01*
X113635333Y-129794343D01*
X113635340Y-129794339D01*
X113750434Y-129708179D01*
X113750439Y-129708175D01*
X113836597Y-129593082D01*
X113836601Y-129593075D01*
X113886843Y-129458368D01*
X113886845Y-129458361D01*
X113893246Y-129398833D01*
X113893247Y-129398816D01*
X113893247Y-129100989D01*
X112893247Y-129100989D01*
X112893247Y-129850989D01*
X112393247Y-129850989D01*
X112393247Y-129100989D01*
X111393247Y-129100989D01*
X111393247Y-129398833D01*
X94859991Y-129398833D01*
X94749730Y-129288572D01*
X94735026Y-129261644D01*
X94718434Y-129235826D01*
X94717542Y-129229625D01*
X94716245Y-129227249D01*
X94713411Y-129200891D01*
X94713411Y-128303144D01*
X111393247Y-128303144D01*
X111393247Y-128600989D01*
X112393247Y-128600989D01*
X112893247Y-128600989D01*
X113893247Y-128600989D01*
X113893247Y-128303161D01*
X113893246Y-128303144D01*
X113886845Y-128243616D01*
X113886843Y-128243609D01*
X113836601Y-128108902D01*
X113836597Y-128108895D01*
X113750437Y-127993801D01*
X113750434Y-127993798D01*
X113635340Y-127907638D01*
X113635333Y-127907634D01*
X113500626Y-127857392D01*
X113500619Y-127857390D01*
X113441091Y-127850989D01*
X112893247Y-127850989D01*
X112893247Y-128600989D01*
X112393247Y-128600989D01*
X112393247Y-127850989D01*
X111845402Y-127850989D01*
X111785874Y-127857390D01*
X111785867Y-127857392D01*
X111651160Y-127907634D01*
X111651153Y-127907638D01*
X111536059Y-127993798D01*
X111536056Y-127993801D01*
X111449896Y-128108895D01*
X111449892Y-128108902D01*
X111399650Y-128243609D01*
X111399648Y-128243616D01*
X111393247Y-128303144D01*
X94713411Y-128303144D01*
X94713411Y-128303118D01*
X94713410Y-128303112D01*
X94713409Y-128303105D01*
X94707003Y-128243506D01*
X94702553Y-128231576D01*
X94656709Y-128108660D01*
X94656705Y-128108653D01*
X94570459Y-127993444D01*
X94570456Y-127993441D01*
X94455247Y-127907195D01*
X94455240Y-127907191D01*
X94320394Y-127856897D01*
X94320395Y-127856897D01*
X94260795Y-127850490D01*
X94260793Y-127850489D01*
X94260785Y-127850489D01*
X94260776Y-127850489D01*
X92665041Y-127850489D01*
X92665035Y-127850490D01*
X92605428Y-127856897D01*
X92470583Y-127907191D01*
X92470576Y-127907195D01*
X92355367Y-127993441D01*
X92355364Y-127993444D01*
X92269118Y-128108653D01*
X92269114Y-128108660D01*
X92218820Y-128243506D01*
X92212413Y-128303105D01*
X92212413Y-128303112D01*
X92212412Y-128303124D01*
X92212412Y-129398859D01*
X92212413Y-129398865D01*
X92218820Y-129458472D01*
X92269114Y-129593317D01*
X92269118Y-129593324D01*
X92355364Y-129708533D01*
X92355367Y-129708536D01*
X92470576Y-129794782D01*
X92470583Y-129794786D01*
X92605429Y-129845080D01*
X92605428Y-129845080D01*
X92612356Y-129845824D01*
X92665039Y-129851489D01*
X93562814Y-129851488D01*
X93629853Y-129871172D01*
X93650495Y-129887807D01*
X95045507Y-131282819D01*
X95078992Y-131344142D01*
X95074008Y-131413834D01*
X95032136Y-131469767D01*
X94966672Y-131494184D01*
X94957826Y-131494500D01*
X94812118Y-131494500D01*
X94745079Y-131474815D01*
X94699324Y-131422011D01*
X94695936Y-131413833D01*
X94656709Y-131308660D01*
X94656705Y-131308653D01*
X94570459Y-131193444D01*
X94570456Y-131193441D01*
X94455247Y-131107195D01*
X94455240Y-131107191D01*
X94320394Y-131056897D01*
X94320395Y-131056897D01*
X94260795Y-131050490D01*
X94260793Y-131050489D01*
X94260785Y-131050489D01*
X94260776Y-131050489D01*
X92665041Y-131050489D01*
X92665035Y-131050490D01*
X92605428Y-131056897D01*
X92470583Y-131107191D01*
X92470576Y-131107195D01*
X92355367Y-131193441D01*
X92355364Y-131193444D01*
X92269118Y-131308653D01*
X92269114Y-131308660D01*
X92229888Y-131413833D01*
X92188017Y-131469767D01*
X92122553Y-131494184D01*
X92113706Y-131494500D01*
X89937411Y-131494500D01*
X89937403Y-131494500D01*
X89937399Y-131494501D01*
X89926084Y-131495717D01*
X89857326Y-131483307D01*
X89806191Y-131435694D01*
X89796655Y-131415760D01*
X89756709Y-131308660D01*
X89756705Y-131308653D01*
X89670459Y-131193444D01*
X89670456Y-131193441D01*
X89555247Y-131107195D01*
X89555240Y-131107191D01*
X89420394Y-131056897D01*
X89420395Y-131056897D01*
X89360795Y-131050490D01*
X89360793Y-131050489D01*
X89360785Y-131050489D01*
X89360776Y-131050489D01*
X87765041Y-131050489D01*
X87765035Y-131050490D01*
X87705428Y-131056897D01*
X87570583Y-131107191D01*
X87570576Y-131107195D01*
X87455367Y-131193441D01*
X87455364Y-131193444D01*
X87369118Y-131308653D01*
X87369115Y-131308659D01*
X87351304Y-131356413D01*
X87309432Y-131412346D01*
X87243968Y-131436763D01*
X87233873Y-131437073D01*
X86847751Y-131433184D01*
X86780913Y-131412825D01*
X86735693Y-131359563D01*
X86725000Y-131309190D01*
X86725000Y-131212500D01*
X84275001Y-131212500D01*
X84275001Y-131282017D01*
X84255316Y-131349056D01*
X84202512Y-131394811D01*
X84149753Y-131406011D01*
X83889087Y-131403387D01*
X83822249Y-131383028D01*
X83787163Y-131348178D01*
X83271720Y-130575013D01*
X84275000Y-130575013D01*
X84275000Y-130712500D01*
X85250000Y-130712500D01*
X85750000Y-130712500D01*
X86724999Y-130712500D01*
X86724999Y-130575028D01*
X86724998Y-130575013D01*
X86714505Y-130472302D01*
X86659358Y-130305880D01*
X86659356Y-130305875D01*
X86567315Y-130156654D01*
X86443345Y-130032684D01*
X86294124Y-129940643D01*
X86294119Y-129940641D01*
X86127697Y-129885494D01*
X86127690Y-129885493D01*
X86024986Y-129875000D01*
X85750000Y-129875000D01*
X85750000Y-130712500D01*
X85250000Y-130712500D01*
X85250000Y-129875000D01*
X84975029Y-129875000D01*
X84975012Y-129875001D01*
X84872302Y-129885494D01*
X84705880Y-129940641D01*
X84705875Y-129940643D01*
X84556654Y-130032684D01*
X84432684Y-130156654D01*
X84340643Y-130305875D01*
X84340641Y-130305880D01*
X84285494Y-130472302D01*
X84285493Y-130472309D01*
X84275000Y-130575013D01*
X83271720Y-130575013D01*
X83121326Y-130349422D01*
X83100518Y-130282723D01*
X83100500Y-130280639D01*
X83100500Y-129398833D01*
X87312912Y-129398833D01*
X87319313Y-129458361D01*
X87319315Y-129458368D01*
X87369557Y-129593075D01*
X87369561Y-129593082D01*
X87455720Y-129708175D01*
X87455724Y-129708179D01*
X87570818Y-129794339D01*
X87570825Y-129794343D01*
X87705532Y-129844585D01*
X87705539Y-129844587D01*
X87765067Y-129850988D01*
X87765084Y-129850989D01*
X88312912Y-129850989D01*
X88812912Y-129850989D01*
X89360740Y-129850989D01*
X89360756Y-129850988D01*
X89420284Y-129844587D01*
X89420291Y-129844585D01*
X89554998Y-129794343D01*
X89555005Y-129794339D01*
X89670099Y-129708179D01*
X89670104Y-129708175D01*
X89756262Y-129593082D01*
X89756266Y-129593075D01*
X89806508Y-129458368D01*
X89806510Y-129458361D01*
X89812911Y-129398833D01*
X89812912Y-129398816D01*
X89812912Y-129100989D01*
X88812912Y-129100989D01*
X88812912Y-129850989D01*
X88312912Y-129850989D01*
X88312912Y-129100989D01*
X87312912Y-129100989D01*
X87312912Y-129398833D01*
X83100500Y-129398833D01*
X83100500Y-128800097D01*
X83120185Y-128733058D01*
X83136819Y-128712416D01*
X83546091Y-128303144D01*
X87312912Y-128303144D01*
X87312912Y-128600989D01*
X88312912Y-128600989D01*
X88812912Y-128600989D01*
X89812912Y-128600989D01*
X89812912Y-128303161D01*
X89812911Y-128303144D01*
X89806510Y-128243616D01*
X89806508Y-128243609D01*
X89756266Y-128108902D01*
X89756262Y-128108895D01*
X89670102Y-127993801D01*
X89670099Y-127993798D01*
X89555005Y-127907638D01*
X89554998Y-127907634D01*
X89420291Y-127857392D01*
X89420284Y-127857390D01*
X89360756Y-127850989D01*
X88812912Y-127850989D01*
X88812912Y-128600989D01*
X88312912Y-128600989D01*
X88312912Y-127850989D01*
X87765067Y-127850989D01*
X87705539Y-127857390D01*
X87705532Y-127857392D01*
X87570825Y-127907634D01*
X87570818Y-127907638D01*
X87455724Y-127993798D01*
X87455721Y-127993801D01*
X87369561Y-128108895D01*
X87369557Y-128108902D01*
X87319315Y-128243609D01*
X87319313Y-128243616D01*
X87312912Y-128303144D01*
X83546091Y-128303144D01*
X88986903Y-122862332D01*
X101101062Y-122862332D01*
X101101062Y-123137667D01*
X101101063Y-123137684D01*
X101137000Y-123410655D01*
X101137001Y-123410660D01*
X101137002Y-123410666D01*
X101137003Y-123410668D01*
X101208266Y-123676630D01*
X101313637Y-123931017D01*
X101313642Y-123931028D01*
X101393371Y-124069121D01*
X101451313Y-124169479D01*
X101451315Y-124169482D01*
X101451316Y-124169483D01*
X101618932Y-124387926D01*
X101618938Y-124387933D01*
X101813628Y-124582623D01*
X101813634Y-124582628D01*
X102032083Y-124750249D01*
X102185340Y-124838732D01*
X102270533Y-124887919D01*
X102270538Y-124887921D01*
X102270541Y-124887923D01*
X102524930Y-124993295D01*
X102790896Y-125064560D01*
X103063888Y-125100500D01*
X103063895Y-125100500D01*
X103339229Y-125100500D01*
X103339236Y-125100500D01*
X103612228Y-125064560D01*
X103878194Y-124993295D01*
X104132583Y-124887923D01*
X104371041Y-124750249D01*
X104589490Y-124582628D01*
X104784190Y-124387928D01*
X104951811Y-124169479D01*
X105089485Y-123931021D01*
X105194857Y-123676632D01*
X105266122Y-123410666D01*
X105302062Y-123137674D01*
X105302062Y-122862332D01*
X197601062Y-122862332D01*
X197601062Y-123137667D01*
X197601063Y-123137684D01*
X197637000Y-123410655D01*
X197637001Y-123410660D01*
X197637002Y-123410666D01*
X197637003Y-123410668D01*
X197708266Y-123676630D01*
X197813637Y-123931017D01*
X197813642Y-123931028D01*
X197893371Y-124069121D01*
X197951313Y-124169479D01*
X197951315Y-124169482D01*
X197951316Y-124169483D01*
X198118932Y-124387926D01*
X198118938Y-124387933D01*
X198313628Y-124582623D01*
X198313634Y-124582628D01*
X198532083Y-124750249D01*
X198685340Y-124838732D01*
X198770533Y-124887919D01*
X198770538Y-124887921D01*
X198770541Y-124887923D01*
X199024930Y-124993295D01*
X199290896Y-125064560D01*
X199563888Y-125100500D01*
X199563895Y-125100500D01*
X199839229Y-125100500D01*
X199839236Y-125100500D01*
X200112228Y-125064560D01*
X200378194Y-124993295D01*
X200632583Y-124887923D01*
X200871041Y-124750249D01*
X201089490Y-124582628D01*
X201284190Y-124387928D01*
X201451811Y-124169479D01*
X201589485Y-123931021D01*
X201694857Y-123676632D01*
X201766122Y-123410666D01*
X201802062Y-123137674D01*
X201802062Y-122862326D01*
X201766122Y-122589334D01*
X201694857Y-122323368D01*
X201589485Y-122068979D01*
X201589483Y-122068976D01*
X201589481Y-122068971D01*
X201540294Y-121983778D01*
X201451811Y-121830521D01*
X201284190Y-121612072D01*
X201284185Y-121612066D01*
X201089495Y-121417376D01*
X201089488Y-121417370D01*
X200871045Y-121249754D01*
X200871044Y-121249753D01*
X200871041Y-121249751D01*
X200775969Y-121194861D01*
X200632590Y-121112080D01*
X200632579Y-121112075D01*
X200378192Y-121006704D01*
X200245211Y-120971072D01*
X200112228Y-120935440D01*
X200112222Y-120935439D01*
X200112217Y-120935438D01*
X199839246Y-120899501D01*
X199839241Y-120899500D01*
X199839236Y-120899500D01*
X199563888Y-120899500D01*
X199563882Y-120899500D01*
X199563877Y-120899501D01*
X199290906Y-120935438D01*
X199290899Y-120935439D01*
X199290896Y-120935440D01*
X199234687Y-120950500D01*
X199024931Y-121006704D01*
X198770544Y-121112075D01*
X198770533Y-121112080D01*
X198532078Y-121249754D01*
X198313635Y-121417370D01*
X198313628Y-121417376D01*
X198118938Y-121612066D01*
X198118932Y-121612073D01*
X197951316Y-121830516D01*
X197813642Y-122068971D01*
X197813637Y-122068982D01*
X197708266Y-122323369D01*
X197637003Y-122589331D01*
X197637000Y-122589344D01*
X197601063Y-122862315D01*
X197601062Y-122862332D01*
X105302062Y-122862332D01*
X105302062Y-122862326D01*
X105266122Y-122589334D01*
X105194857Y-122323368D01*
X105089485Y-122068979D01*
X105089483Y-122068976D01*
X105089481Y-122068971D01*
X105040294Y-121983778D01*
X104951811Y-121830521D01*
X104784190Y-121612072D01*
X104784185Y-121612066D01*
X104589495Y-121417376D01*
X104589488Y-121417370D01*
X104371045Y-121249754D01*
X104371044Y-121249753D01*
X104371041Y-121249751D01*
X104275969Y-121194861D01*
X104132590Y-121112080D01*
X104132579Y-121112075D01*
X103878192Y-121006704D01*
X103745211Y-120971072D01*
X103612228Y-120935440D01*
X103612222Y-120935439D01*
X103612217Y-120935438D01*
X103339246Y-120899501D01*
X103339241Y-120899500D01*
X103339236Y-120899500D01*
X103063888Y-120899500D01*
X103063882Y-120899500D01*
X103063877Y-120899501D01*
X102790906Y-120935438D01*
X102790899Y-120935439D01*
X102790896Y-120935440D01*
X102734687Y-120950500D01*
X102524931Y-121006704D01*
X102270544Y-121112075D01*
X102270533Y-121112080D01*
X102032078Y-121249754D01*
X101813635Y-121417370D01*
X101813628Y-121417376D01*
X101618938Y-121612066D01*
X101618932Y-121612073D01*
X101451316Y-121830516D01*
X101313642Y-122068971D01*
X101313637Y-122068982D01*
X101208266Y-122323369D01*
X101137003Y-122589331D01*
X101137000Y-122589344D01*
X101101063Y-122862315D01*
X101101062Y-122862332D01*
X88986903Y-122862332D01*
X89078649Y-122770586D01*
X90237163Y-121612073D01*
X97212417Y-114636819D01*
X97273740Y-114603334D01*
X97300098Y-114600500D01*
X170413331Y-114600500D01*
X170413347Y-114600501D01*
X170420943Y-114600501D01*
X170579054Y-114600501D01*
X170579057Y-114600501D01*
X170731785Y-114559577D01*
X170781904Y-114530639D01*
X170868716Y-114480520D01*
X170980520Y-114368716D01*
X170980520Y-114368714D01*
X170990728Y-114358507D01*
X170990730Y-114358504D01*
X186868713Y-98480521D01*
X186868716Y-98480520D01*
X186980520Y-98368716D01*
X187030639Y-98281904D01*
X187059577Y-98231785D01*
X187100501Y-98079057D01*
X187100501Y-97920943D01*
X187100501Y-97913348D01*
X187100500Y-97913330D01*
X187100500Y-85773535D01*
X187100500Y-85773532D01*
X187099568Y-85770055D01*
X187087207Y-85723921D01*
X187059577Y-85620805D01*
X186998478Y-85514977D01*
X186980524Y-85483879D01*
X186980521Y-85483875D01*
X186980520Y-85483873D01*
X186868716Y-85372069D01*
X186868715Y-85372068D01*
X186864385Y-85367738D01*
X186864374Y-85367728D01*
X184689934Y-83193288D01*
X184656449Y-83131965D01*
X184653615Y-83105607D01*
X184653615Y-82207834D01*
X184653614Y-82207828D01*
X184653613Y-82207821D01*
X184647207Y-82148222D01*
X184614207Y-82059745D01*
X184596913Y-82013376D01*
X184596909Y-82013369D01*
X184510663Y-81898160D01*
X184510660Y-81898157D01*
X184395451Y-81811911D01*
X184395444Y-81811907D01*
X184260598Y-81761613D01*
X184260599Y-81761613D01*
X184200999Y-81755206D01*
X184200997Y-81755205D01*
X184200989Y-81755205D01*
X184200980Y-81755205D01*
X182605245Y-81755205D01*
X182605239Y-81755206D01*
X182545632Y-81761613D01*
X182410787Y-81811907D01*
X182410780Y-81811911D01*
X182295571Y-81898157D01*
X182295568Y-81898160D01*
X182209322Y-82013369D01*
X182209318Y-82013376D01*
X182159024Y-82148222D01*
X182154053Y-82194466D01*
X182152617Y-82207828D01*
X182152616Y-82207840D01*
X182152616Y-83303575D01*
X182152617Y-83303581D01*
X182159024Y-83363188D01*
X182209318Y-83498033D01*
X182209322Y-83498040D01*
X182295568Y-83613249D01*
X182295571Y-83613252D01*
X182410780Y-83699498D01*
X182410787Y-83699502D01*
X182545633Y-83749796D01*
X182545632Y-83749796D01*
X182552560Y-83750540D01*
X182605243Y-83756205D01*
X183503018Y-83756204D01*
X183570057Y-83775888D01*
X183590699Y-83792523D01*
X185088794Y-85290618D01*
X185100391Y-85311857D01*
X185115607Y-85330684D01*
X185116837Y-85341974D01*
X185122279Y-85351941D01*
X185120552Y-85376080D01*
X185123174Y-85400143D01*
X185118105Y-85410304D01*
X185117295Y-85421633D01*
X185102789Y-85441009D01*
X185091987Y-85462666D01*
X185082228Y-85468474D01*
X185075423Y-85477566D01*
X185052747Y-85486023D01*
X185031949Y-85498404D01*
X185017442Y-85499191D01*
X185009959Y-85501983D01*
X184996862Y-85502226D01*
X184990130Y-85501995D01*
X184938000Y-85494500D01*
X184777116Y-85494500D01*
X184775331Y-85494627D01*
X184770067Y-85494447D01*
X184740773Y-85484743D01*
X184710882Y-85477065D01*
X184707901Y-85473853D01*
X184703742Y-85472476D01*
X184684339Y-85448468D01*
X184663350Y-85425855D01*
X184661808Y-85420590D01*
X184659824Y-85418135D01*
X184659074Y-85411251D01*
X184651028Y-85383771D01*
X184651026Y-85383757D01*
X184647207Y-85348222D01*
X184647206Y-85348220D01*
X184596913Y-85213376D01*
X184596909Y-85213369D01*
X184510663Y-85098160D01*
X184510660Y-85098157D01*
X184395451Y-85011911D01*
X184395444Y-85011907D01*
X184260598Y-84961613D01*
X184260599Y-84961613D01*
X184200999Y-84955206D01*
X184200997Y-84955205D01*
X184200989Y-84955205D01*
X184200980Y-84955205D01*
X182605245Y-84955205D01*
X182605239Y-84955206D01*
X182545632Y-84961613D01*
X182410787Y-85011907D01*
X182410780Y-85011911D01*
X182295571Y-85098157D01*
X182295568Y-85098160D01*
X182209322Y-85213369D01*
X182209318Y-85213376D01*
X182159024Y-85348221D01*
X182155204Y-85383757D01*
X182128466Y-85448307D01*
X182071073Y-85488155D01*
X182031915Y-85494500D01*
X179874317Y-85494500D01*
X179807278Y-85474815D01*
X179761523Y-85422011D01*
X179751027Y-85383754D01*
X179747207Y-85348221D01*
X179696913Y-85213376D01*
X179696909Y-85213369D01*
X179610663Y-85098160D01*
X179610660Y-85098157D01*
X179495451Y-85011911D01*
X179495444Y-85011907D01*
X179360598Y-84961613D01*
X179360599Y-84961613D01*
X179300999Y-84955206D01*
X179300997Y-84955205D01*
X179300989Y-84955205D01*
X179300980Y-84955205D01*
X177705245Y-84955205D01*
X177705239Y-84955206D01*
X177645632Y-84961613D01*
X177510787Y-85011907D01*
X177510780Y-85011911D01*
X177395571Y-85098157D01*
X177395568Y-85098160D01*
X177309322Y-85213369D01*
X177309318Y-85213376D01*
X177286507Y-85274538D01*
X177244636Y-85330472D01*
X177179172Y-85354889D01*
X177170325Y-85355205D01*
X176849000Y-85355205D01*
X176781961Y-85335520D01*
X176736206Y-85282716D01*
X176725000Y-85231205D01*
X176725000Y-85212500D01*
X174275001Y-85212500D01*
X174275001Y-85231205D01*
X174255316Y-85298244D01*
X174202512Y-85343999D01*
X174151001Y-85355205D01*
X166881216Y-85355205D01*
X166814177Y-85335520D01*
X166793535Y-85318886D01*
X166049662Y-84575013D01*
X174275000Y-84575013D01*
X174275000Y-84712500D01*
X175250000Y-84712500D01*
X175750000Y-84712500D01*
X176724999Y-84712500D01*
X176724999Y-84575028D01*
X176724998Y-84575013D01*
X176714505Y-84472302D01*
X176659358Y-84305880D01*
X176659356Y-84305875D01*
X176567315Y-84156654D01*
X176443345Y-84032684D01*
X176294124Y-83940643D01*
X176294119Y-83940641D01*
X176127697Y-83885494D01*
X176127690Y-83885493D01*
X176024986Y-83875000D01*
X175750000Y-83875000D01*
X175750000Y-84712500D01*
X175250000Y-84712500D01*
X175250000Y-83875000D01*
X174975029Y-83875000D01*
X174975012Y-83875001D01*
X174872302Y-83885494D01*
X174705880Y-83940641D01*
X174705875Y-83940643D01*
X174556654Y-84032684D01*
X174432684Y-84156654D01*
X174340643Y-84305875D01*
X174340641Y-84305880D01*
X174285494Y-84472302D01*
X174285493Y-84472309D01*
X174275000Y-84575013D01*
X166049662Y-84575013D01*
X164778198Y-83303549D01*
X177253116Y-83303549D01*
X177259517Y-83363077D01*
X177259519Y-83363084D01*
X177309761Y-83497791D01*
X177309765Y-83497798D01*
X177395925Y-83612892D01*
X177395928Y-83612895D01*
X177511022Y-83699055D01*
X177511029Y-83699059D01*
X177645736Y-83749301D01*
X177645743Y-83749303D01*
X177705271Y-83755704D01*
X177705288Y-83755705D01*
X178253116Y-83755705D01*
X178753116Y-83755705D01*
X179300944Y-83755705D01*
X179300960Y-83755704D01*
X179360488Y-83749303D01*
X179360495Y-83749301D01*
X179495202Y-83699059D01*
X179495209Y-83699055D01*
X179610303Y-83612895D01*
X179610306Y-83612892D01*
X179696466Y-83497798D01*
X179696470Y-83497791D01*
X179746712Y-83363084D01*
X179746714Y-83363077D01*
X179753115Y-83303549D01*
X179753116Y-83303532D01*
X179753116Y-83005705D01*
X178753116Y-83005705D01*
X178753116Y-83755705D01*
X178253116Y-83755705D01*
X178253116Y-83005705D01*
X177253116Y-83005705D01*
X177253116Y-83303549D01*
X164778198Y-83303549D01*
X164667937Y-83193288D01*
X164653233Y-83166360D01*
X164636641Y-83140542D01*
X164635749Y-83134341D01*
X164634452Y-83131965D01*
X164631618Y-83105607D01*
X164631618Y-82207860D01*
X177253116Y-82207860D01*
X177253116Y-82505705D01*
X178253116Y-82505705D01*
X178753116Y-82505705D01*
X179753116Y-82505705D01*
X179753116Y-82207877D01*
X179753115Y-82207860D01*
X179746714Y-82148332D01*
X179746712Y-82148325D01*
X179696470Y-82013618D01*
X179696466Y-82013611D01*
X179610306Y-81898517D01*
X179610303Y-81898514D01*
X179495209Y-81812354D01*
X179495202Y-81812350D01*
X179360495Y-81762108D01*
X179360488Y-81762106D01*
X179300960Y-81755705D01*
X178753116Y-81755705D01*
X178753116Y-82505705D01*
X178253116Y-82505705D01*
X178253116Y-81755705D01*
X177705271Y-81755705D01*
X177645743Y-81762106D01*
X177645736Y-81762108D01*
X177511029Y-81812350D01*
X177511022Y-81812354D01*
X177395928Y-81898514D01*
X177395925Y-81898517D01*
X177309765Y-82013611D01*
X177309761Y-82013618D01*
X177259519Y-82148325D01*
X177259517Y-82148332D01*
X177253116Y-82207860D01*
X164631618Y-82207860D01*
X164631618Y-82207834D01*
X164631617Y-82207828D01*
X164631616Y-82207821D01*
X164625210Y-82148222D01*
X164592210Y-82059745D01*
X164574916Y-82013376D01*
X164574912Y-82013369D01*
X164488666Y-81898160D01*
X164488663Y-81898157D01*
X164373454Y-81811911D01*
X164373447Y-81811907D01*
X164238601Y-81761613D01*
X164238602Y-81761613D01*
X164179002Y-81755206D01*
X164179000Y-81755205D01*
X164178992Y-81755205D01*
X164178983Y-81755205D01*
X162583248Y-81755205D01*
X162583242Y-81755206D01*
X162523635Y-81761613D01*
X162388790Y-81811907D01*
X162388783Y-81811911D01*
X162273574Y-81898157D01*
X162273571Y-81898160D01*
X162187325Y-82013369D01*
X162187321Y-82013376D01*
X162137027Y-82148222D01*
X162132056Y-82194466D01*
X162130620Y-82207828D01*
X162130619Y-82207840D01*
X162130619Y-83303575D01*
X162130620Y-83303581D01*
X162137027Y-83363188D01*
X162187321Y-83498033D01*
X162187325Y-83498040D01*
X162273571Y-83613249D01*
X162273574Y-83613252D01*
X162388783Y-83699498D01*
X162388790Y-83699502D01*
X162523636Y-83749796D01*
X162523635Y-83749796D01*
X162530563Y-83750540D01*
X162583246Y-83756205D01*
X163481021Y-83756204D01*
X163548060Y-83775888D01*
X163568702Y-83792523D01*
X165058998Y-85282819D01*
X165092483Y-85344142D01*
X165087499Y-85413834D01*
X165045627Y-85469767D01*
X164980163Y-85494184D01*
X164971317Y-85494500D01*
X164752320Y-85494500D01*
X164685281Y-85474815D01*
X164639526Y-85422011D01*
X164629030Y-85383754D01*
X164625210Y-85348221D01*
X164574916Y-85213376D01*
X164574912Y-85213369D01*
X164488666Y-85098160D01*
X164488663Y-85098157D01*
X164373454Y-85011911D01*
X164373447Y-85011907D01*
X164238601Y-84961613D01*
X164238602Y-84961613D01*
X164179002Y-84955206D01*
X164179000Y-84955205D01*
X164178992Y-84955205D01*
X164178983Y-84955205D01*
X162583248Y-84955205D01*
X162583242Y-84955206D01*
X162523635Y-84961613D01*
X162388790Y-85011907D01*
X162388783Y-85011911D01*
X162273574Y-85098157D01*
X162273571Y-85098160D01*
X162187325Y-85213369D01*
X162187321Y-85213376D01*
X162137027Y-85348221D01*
X162133207Y-85383757D01*
X162106469Y-85448307D01*
X162049076Y-85488155D01*
X162009918Y-85494500D01*
X159852320Y-85494500D01*
X159785281Y-85474815D01*
X159739526Y-85422011D01*
X159729030Y-85383754D01*
X159725210Y-85348221D01*
X159674916Y-85213376D01*
X159674912Y-85213369D01*
X159588666Y-85098160D01*
X159588663Y-85098157D01*
X159473454Y-85011911D01*
X159473447Y-85011907D01*
X159338601Y-84961613D01*
X159338602Y-84961613D01*
X159279002Y-84955206D01*
X159279000Y-84955205D01*
X159278992Y-84955205D01*
X159278983Y-84955205D01*
X157683248Y-84955205D01*
X157683242Y-84955206D01*
X157623635Y-84961613D01*
X157488790Y-85011907D01*
X157488783Y-85011911D01*
X157373574Y-85098157D01*
X157373571Y-85098160D01*
X157287325Y-85213369D01*
X157287321Y-85213376D01*
X157264510Y-85274538D01*
X157222639Y-85330472D01*
X157157175Y-85354889D01*
X157148328Y-85355205D01*
X156849000Y-85355205D01*
X156781961Y-85335520D01*
X156736206Y-85282716D01*
X156725000Y-85231205D01*
X156725000Y-85212500D01*
X154275001Y-85212500D01*
X154275001Y-85231205D01*
X154255316Y-85298244D01*
X154202512Y-85343999D01*
X154151001Y-85355205D01*
X146859217Y-85355205D01*
X146792178Y-85335520D01*
X146771536Y-85318886D01*
X146027663Y-84575013D01*
X154275000Y-84575013D01*
X154275000Y-84712500D01*
X155250000Y-84712500D01*
X155750000Y-84712500D01*
X156724999Y-84712500D01*
X156724999Y-84575028D01*
X156724998Y-84575013D01*
X156714505Y-84472302D01*
X156659358Y-84305880D01*
X156659356Y-84305875D01*
X156567315Y-84156654D01*
X156443345Y-84032684D01*
X156294124Y-83940643D01*
X156294119Y-83940641D01*
X156127697Y-83885494D01*
X156127690Y-83885493D01*
X156024986Y-83875000D01*
X155750000Y-83875000D01*
X155750000Y-84712500D01*
X155250000Y-84712500D01*
X155250000Y-83875000D01*
X154975029Y-83875000D01*
X154975012Y-83875001D01*
X154872302Y-83885494D01*
X154705880Y-83940641D01*
X154705875Y-83940643D01*
X154556654Y-84032684D01*
X154432684Y-84156654D01*
X154340643Y-84305875D01*
X154340641Y-84305880D01*
X154285494Y-84472302D01*
X154285493Y-84472309D01*
X154275000Y-84575013D01*
X146027663Y-84575013D01*
X144756199Y-83303549D01*
X157231119Y-83303549D01*
X157237520Y-83363077D01*
X157237522Y-83363084D01*
X157287764Y-83497791D01*
X157287768Y-83497798D01*
X157373928Y-83612892D01*
X157373931Y-83612895D01*
X157489025Y-83699055D01*
X157489032Y-83699059D01*
X157623739Y-83749301D01*
X157623746Y-83749303D01*
X157683274Y-83755704D01*
X157683291Y-83755705D01*
X158231119Y-83755705D01*
X158731119Y-83755705D01*
X159278947Y-83755705D01*
X159278963Y-83755704D01*
X159338491Y-83749303D01*
X159338498Y-83749301D01*
X159473205Y-83699059D01*
X159473212Y-83699055D01*
X159588306Y-83612895D01*
X159588309Y-83612892D01*
X159674469Y-83497798D01*
X159674473Y-83497791D01*
X159724715Y-83363084D01*
X159724717Y-83363077D01*
X159731118Y-83303549D01*
X159731119Y-83303532D01*
X159731119Y-83005705D01*
X158731119Y-83005705D01*
X158731119Y-83755705D01*
X158231119Y-83755705D01*
X158231119Y-83005705D01*
X157231119Y-83005705D01*
X157231119Y-83303549D01*
X144756199Y-83303549D01*
X144692072Y-83239422D01*
X144677368Y-83212494D01*
X144660776Y-83186676D01*
X144659884Y-83180475D01*
X144658587Y-83178099D01*
X144655753Y-83151741D01*
X144655753Y-82253968D01*
X144655753Y-82253967D01*
X144651500Y-82214411D01*
X144650796Y-82207860D01*
X157231119Y-82207860D01*
X157231119Y-82505705D01*
X158231119Y-82505705D01*
X158731119Y-82505705D01*
X159731119Y-82505705D01*
X159731119Y-82207877D01*
X159731118Y-82207860D01*
X159724717Y-82148332D01*
X159724715Y-82148325D01*
X159674473Y-82013618D01*
X159674469Y-82013611D01*
X159588309Y-81898517D01*
X159588306Y-81898514D01*
X159473212Y-81812354D01*
X159473205Y-81812350D01*
X159338498Y-81762108D01*
X159338491Y-81762106D01*
X159278963Y-81755705D01*
X158731119Y-81755705D01*
X158731119Y-82505705D01*
X158231119Y-82505705D01*
X158231119Y-81755705D01*
X157683274Y-81755705D01*
X157623746Y-81762106D01*
X157623739Y-81762108D01*
X157489032Y-81812350D01*
X157489025Y-81812354D01*
X157373931Y-81898514D01*
X157373928Y-81898517D01*
X157287768Y-82013611D01*
X157287764Y-82013618D01*
X157237522Y-82148325D01*
X157237520Y-82148332D01*
X157231119Y-82207860D01*
X144650796Y-82207860D01*
X144649345Y-82194355D01*
X144599051Y-82059510D01*
X144599047Y-82059503D01*
X144512801Y-81944294D01*
X144512798Y-81944291D01*
X144397589Y-81858045D01*
X144397582Y-81858041D01*
X144262736Y-81807747D01*
X144262737Y-81807747D01*
X144203137Y-81801340D01*
X144203135Y-81801339D01*
X144203127Y-81801339D01*
X144203118Y-81801339D01*
X142607383Y-81801339D01*
X142607377Y-81801340D01*
X142547770Y-81807747D01*
X142412925Y-81858041D01*
X142412918Y-81858045D01*
X142297709Y-81944291D01*
X142297706Y-81944294D01*
X142211460Y-82059503D01*
X142211456Y-82059510D01*
X142161162Y-82194356D01*
X142154755Y-82253955D01*
X142154754Y-82253974D01*
X142154754Y-83349709D01*
X142154755Y-83349715D01*
X142161162Y-83409322D01*
X142211456Y-83544167D01*
X142211460Y-83544174D01*
X142297706Y-83659383D01*
X142297709Y-83659386D01*
X142412918Y-83745632D01*
X142412925Y-83745636D01*
X142547771Y-83795930D01*
X142547770Y-83795930D01*
X142554698Y-83796674D01*
X142607381Y-83802339D01*
X143505156Y-83802338D01*
X143572195Y-83822022D01*
X143592837Y-83838657D01*
X145036999Y-85282819D01*
X145070484Y-85344142D01*
X145065500Y-85413834D01*
X145023628Y-85469767D01*
X144958164Y-85494184D01*
X144949318Y-85494500D01*
X144771123Y-85494500D01*
X144704084Y-85474815D01*
X144658329Y-85422011D01*
X144650446Y-85399016D01*
X144649344Y-85394353D01*
X144599051Y-85259510D01*
X144599047Y-85259503D01*
X144512801Y-85144294D01*
X144512798Y-85144291D01*
X144397589Y-85058045D01*
X144397582Y-85058041D01*
X144262736Y-85007747D01*
X144262737Y-85007747D01*
X144203137Y-85001340D01*
X144203135Y-85001339D01*
X144203127Y-85001339D01*
X144203118Y-85001339D01*
X142607383Y-85001339D01*
X142607377Y-85001340D01*
X142547770Y-85007747D01*
X142412925Y-85058041D01*
X142412918Y-85058045D01*
X142297709Y-85144291D01*
X142297706Y-85144294D01*
X142211460Y-85259503D01*
X142211456Y-85259510D01*
X142161163Y-85394353D01*
X142160062Y-85399016D01*
X142125488Y-85459732D01*
X142063577Y-85492117D01*
X142039385Y-85494500D01*
X139879747Y-85494500D01*
X139877825Y-85494603D01*
X139877389Y-85494500D01*
X139876432Y-85494500D01*
X139876432Y-85494273D01*
X139809828Y-85478535D01*
X139761313Y-85428255D01*
X139750512Y-85399293D01*
X139749346Y-85394358D01*
X139699051Y-85259510D01*
X139699047Y-85259503D01*
X139612801Y-85144294D01*
X139612798Y-85144291D01*
X139497589Y-85058045D01*
X139497582Y-85058041D01*
X139362736Y-85007747D01*
X139362737Y-85007747D01*
X139303137Y-85001340D01*
X139303135Y-85001339D01*
X139303127Y-85001339D01*
X139303118Y-85001339D01*
X137707383Y-85001339D01*
X137707377Y-85001340D01*
X137647770Y-85007747D01*
X137512925Y-85058041D01*
X137512918Y-85058045D01*
X137397709Y-85144291D01*
X137397706Y-85144294D01*
X137311460Y-85259503D01*
X137311456Y-85259510D01*
X137288645Y-85320672D01*
X137246774Y-85376606D01*
X137181310Y-85401023D01*
X137172463Y-85401339D01*
X136849000Y-85401339D01*
X136781961Y-85381654D01*
X136736206Y-85328850D01*
X136725000Y-85277339D01*
X136725000Y-85212500D01*
X134275001Y-85212500D01*
X134275001Y-85277339D01*
X134255316Y-85344378D01*
X134202512Y-85390133D01*
X134151001Y-85401339D01*
X126901936Y-85401339D01*
X126834897Y-85381654D01*
X126814255Y-85365020D01*
X126024248Y-84575013D01*
X134275000Y-84575013D01*
X134275000Y-84712500D01*
X135250000Y-84712500D01*
X135750000Y-84712500D01*
X136724999Y-84712500D01*
X136724999Y-84575028D01*
X136724998Y-84575013D01*
X136714505Y-84472302D01*
X136659358Y-84305880D01*
X136659356Y-84305875D01*
X136567315Y-84156654D01*
X136443345Y-84032684D01*
X136294124Y-83940643D01*
X136294119Y-83940641D01*
X136127697Y-83885494D01*
X136127690Y-83885493D01*
X136024986Y-83875000D01*
X135750000Y-83875000D01*
X135750000Y-84712500D01*
X135250000Y-84712500D01*
X135250000Y-83875000D01*
X134975029Y-83875000D01*
X134975012Y-83875001D01*
X134872302Y-83885494D01*
X134705880Y-83940641D01*
X134705875Y-83940643D01*
X134556654Y-84032684D01*
X134432684Y-84156654D01*
X134340643Y-84305875D01*
X134340641Y-84305880D01*
X134285494Y-84472302D01*
X134285493Y-84472309D01*
X134275000Y-84575013D01*
X126024248Y-84575013D01*
X124798918Y-83349683D01*
X137255254Y-83349683D01*
X137261655Y-83409211D01*
X137261657Y-83409218D01*
X137311899Y-83543925D01*
X137311903Y-83543932D01*
X137398063Y-83659026D01*
X137398066Y-83659029D01*
X137513160Y-83745189D01*
X137513167Y-83745193D01*
X137647874Y-83795435D01*
X137647881Y-83795437D01*
X137707409Y-83801838D01*
X137707426Y-83801839D01*
X138255254Y-83801839D01*
X138755254Y-83801839D01*
X139303082Y-83801839D01*
X139303098Y-83801838D01*
X139362626Y-83795437D01*
X139362633Y-83795435D01*
X139497340Y-83745193D01*
X139497347Y-83745189D01*
X139612441Y-83659029D01*
X139612444Y-83659026D01*
X139698604Y-83543932D01*
X139698608Y-83543925D01*
X139748850Y-83409218D01*
X139748852Y-83409211D01*
X139755253Y-83349683D01*
X139755254Y-83349666D01*
X139755254Y-83051839D01*
X138755254Y-83051839D01*
X138755254Y-83801839D01*
X138255254Y-83801839D01*
X138255254Y-83051839D01*
X137255254Y-83051839D01*
X137255254Y-83349683D01*
X124798918Y-83349683D01*
X124686818Y-83237583D01*
X124672114Y-83210655D01*
X124655522Y-83184837D01*
X124654630Y-83178636D01*
X124653333Y-83176260D01*
X124650499Y-83149902D01*
X124650499Y-82253994D01*
X137255254Y-82253994D01*
X137255254Y-82551839D01*
X138255254Y-82551839D01*
X138755254Y-82551839D01*
X139755254Y-82551839D01*
X139755254Y-82254011D01*
X139755253Y-82253994D01*
X139748852Y-82194466D01*
X139748850Y-82194459D01*
X139698608Y-82059752D01*
X139698604Y-82059745D01*
X139612444Y-81944651D01*
X139612441Y-81944648D01*
X139497347Y-81858488D01*
X139497340Y-81858484D01*
X139362633Y-81808242D01*
X139362626Y-81808240D01*
X139303098Y-81801839D01*
X138755254Y-81801839D01*
X138755254Y-82551839D01*
X138255254Y-82551839D01*
X138255254Y-81801839D01*
X137707409Y-81801839D01*
X137647881Y-81808240D01*
X137647874Y-81808242D01*
X137513167Y-81858484D01*
X137513160Y-81858488D01*
X137398066Y-81944648D01*
X137398063Y-81944651D01*
X137311903Y-82059745D01*
X137311899Y-82059752D01*
X137261657Y-82194459D01*
X137261655Y-82194466D01*
X137255254Y-82253994D01*
X124650499Y-82253994D01*
X124650499Y-82252129D01*
X124650498Y-82252123D01*
X124650497Y-82252116D01*
X124644091Y-82192517D01*
X124639235Y-82179498D01*
X124593797Y-82057671D01*
X124593793Y-82057664D01*
X124507547Y-81942455D01*
X124507544Y-81942452D01*
X124392335Y-81856206D01*
X124392328Y-81856202D01*
X124257482Y-81805908D01*
X124257483Y-81805908D01*
X124197883Y-81799501D01*
X124197881Y-81799500D01*
X124197873Y-81799500D01*
X124197864Y-81799500D01*
X122602129Y-81799500D01*
X122602123Y-81799501D01*
X122542516Y-81805908D01*
X122407671Y-81856202D01*
X122407664Y-81856206D01*
X122292455Y-81942452D01*
X122292452Y-81942455D01*
X122206206Y-82057664D01*
X122206202Y-82057671D01*
X122155908Y-82192517D01*
X122149501Y-82252116D01*
X122149501Y-82252123D01*
X122149500Y-82252135D01*
X122149500Y-83347870D01*
X122149501Y-83347876D01*
X122155908Y-83407483D01*
X122206202Y-83542328D01*
X122206206Y-83542335D01*
X122292452Y-83657544D01*
X122292455Y-83657547D01*
X122407664Y-83743793D01*
X122407671Y-83743797D01*
X122542517Y-83794091D01*
X122542516Y-83794091D01*
X122549444Y-83794835D01*
X122602127Y-83800500D01*
X123499902Y-83800499D01*
X123566941Y-83820183D01*
X123587583Y-83836818D01*
X125033584Y-85282819D01*
X125067069Y-85344142D01*
X125062085Y-85413834D01*
X125020213Y-85469767D01*
X124954749Y-85494184D01*
X124945903Y-85494500D01*
X124773988Y-85494500D01*
X124772978Y-85494554D01*
X124772750Y-85494500D01*
X124770679Y-85494500D01*
X124770679Y-85494010D01*
X124704983Y-85478477D01*
X124656474Y-85428190D01*
X124645681Y-85399246D01*
X124644091Y-85392521D01*
X124644091Y-85392517D01*
X124614007Y-85311857D01*
X124593797Y-85257671D01*
X124593793Y-85257664D01*
X124507547Y-85142455D01*
X124507544Y-85142452D01*
X124392335Y-85056206D01*
X124392328Y-85056202D01*
X124257482Y-85005908D01*
X124257483Y-85005908D01*
X124197883Y-84999501D01*
X124197881Y-84999500D01*
X124197873Y-84999500D01*
X124197864Y-84999500D01*
X122602129Y-84999500D01*
X122602123Y-84999501D01*
X122542516Y-85005908D01*
X122407671Y-85056202D01*
X122407664Y-85056206D01*
X122292455Y-85142452D01*
X122292452Y-85142455D01*
X122206206Y-85257664D01*
X122206202Y-85257671D01*
X122172430Y-85348220D01*
X122160765Y-85363801D01*
X122153473Y-85381851D01*
X122133377Y-85400389D01*
X122130559Y-85404154D01*
X122127851Y-85406124D01*
X122126487Y-85407088D01*
X122053457Y-85455886D01*
X122043702Y-85465640D01*
X122035083Y-85471737D01*
X122011612Y-85479776D01*
X121989838Y-85491666D01*
X121970981Y-85493693D01*
X121968983Y-85494378D01*
X121967654Y-85494051D01*
X121963480Y-85494500D01*
X119874493Y-85494500D01*
X119873000Y-85494580D01*
X119872661Y-85494500D01*
X119871178Y-85494500D01*
X119871178Y-85494149D01*
X119805003Y-85478512D01*
X119756488Y-85428232D01*
X119745686Y-85399270D01*
X119744091Y-85392521D01*
X119744091Y-85392517D01*
X119740113Y-85381851D01*
X119693797Y-85257671D01*
X119693793Y-85257664D01*
X119607547Y-85142455D01*
X119607544Y-85142452D01*
X119492335Y-85056206D01*
X119492328Y-85056202D01*
X119357482Y-85005908D01*
X119357483Y-85005908D01*
X119297883Y-84999501D01*
X119297881Y-84999500D01*
X119297873Y-84999500D01*
X119297864Y-84999500D01*
X117702129Y-84999500D01*
X117702123Y-84999501D01*
X117642516Y-85005908D01*
X117507671Y-85056202D01*
X117507664Y-85056206D01*
X117392455Y-85142452D01*
X117392452Y-85142455D01*
X117306206Y-85257664D01*
X117306202Y-85257671D01*
X117283391Y-85318833D01*
X117241520Y-85374767D01*
X117176056Y-85399184D01*
X117167209Y-85399500D01*
X116849000Y-85399500D01*
X116781961Y-85379815D01*
X116736206Y-85327011D01*
X116725000Y-85275500D01*
X116725000Y-85212500D01*
X114275001Y-85212500D01*
X114275001Y-85275500D01*
X114255316Y-85342539D01*
X114202512Y-85388294D01*
X114151001Y-85399500D01*
X113889207Y-85399500D01*
X113822168Y-85379815D01*
X113776413Y-85327011D01*
X113771574Y-85314723D01*
X113606863Y-84820589D01*
X113606387Y-84817656D01*
X113605523Y-84816312D01*
X113600500Y-84781377D01*
X113600500Y-84575013D01*
X114275000Y-84575013D01*
X114275000Y-84712500D01*
X115250000Y-84712500D01*
X115750000Y-84712500D01*
X116724999Y-84712500D01*
X116724999Y-84575028D01*
X116724998Y-84575013D01*
X116714505Y-84472302D01*
X116659358Y-84305880D01*
X116659356Y-84305875D01*
X116567315Y-84156654D01*
X116443345Y-84032684D01*
X116294124Y-83940643D01*
X116294119Y-83940641D01*
X116127697Y-83885494D01*
X116127690Y-83885493D01*
X116024986Y-83875000D01*
X115750000Y-83875000D01*
X115750000Y-84712500D01*
X115250000Y-84712500D01*
X115250000Y-83875000D01*
X114975029Y-83875000D01*
X114975012Y-83875001D01*
X114872302Y-83885494D01*
X114705880Y-83940641D01*
X114705875Y-83940643D01*
X114556654Y-84032684D01*
X114432684Y-84156654D01*
X114340643Y-84305875D01*
X114340641Y-84305880D01*
X114285494Y-84472302D01*
X114285493Y-84472309D01*
X114275000Y-84575013D01*
X113600500Y-84575013D01*
X113600500Y-83347844D01*
X117250000Y-83347844D01*
X117256401Y-83407372D01*
X117256403Y-83407379D01*
X117306645Y-83542086D01*
X117306649Y-83542093D01*
X117392809Y-83657187D01*
X117392812Y-83657190D01*
X117507906Y-83743350D01*
X117507913Y-83743354D01*
X117642620Y-83793596D01*
X117642627Y-83793598D01*
X117702155Y-83799999D01*
X117702172Y-83800000D01*
X118250000Y-83800000D01*
X118750000Y-83800000D01*
X119297828Y-83800000D01*
X119297844Y-83799999D01*
X119357372Y-83793598D01*
X119357379Y-83793596D01*
X119492086Y-83743354D01*
X119492093Y-83743350D01*
X119607187Y-83657190D01*
X119607190Y-83657187D01*
X119693350Y-83542093D01*
X119693354Y-83542086D01*
X119743596Y-83407379D01*
X119743598Y-83407372D01*
X119749999Y-83347844D01*
X119750000Y-83347827D01*
X119750000Y-83050000D01*
X118750000Y-83050000D01*
X118750000Y-83800000D01*
X118250000Y-83800000D01*
X118250000Y-83050000D01*
X117250000Y-83050000D01*
X117250000Y-83347844D01*
X113600500Y-83347844D01*
X113600500Y-83221552D01*
X113620185Y-83154513D01*
X113621708Y-83152199D01*
X113720548Y-83005705D01*
X114228967Y-82252155D01*
X117250000Y-82252155D01*
X117250000Y-82550000D01*
X118250000Y-82550000D01*
X118750000Y-82550000D01*
X119750000Y-82550000D01*
X119750000Y-82252172D01*
X119749999Y-82252155D01*
X119743598Y-82192627D01*
X119743596Y-82192620D01*
X119693354Y-82057913D01*
X119693350Y-82057906D01*
X119607190Y-81942812D01*
X119607187Y-81942809D01*
X119492093Y-81856649D01*
X119492086Y-81856645D01*
X119357379Y-81806403D01*
X119357372Y-81806401D01*
X119297844Y-81800000D01*
X118750000Y-81800000D01*
X118750000Y-82550000D01*
X118250000Y-82550000D01*
X118250000Y-81800000D01*
X117702155Y-81800000D01*
X117642627Y-81806401D01*
X117642620Y-81806403D01*
X117507913Y-81856645D01*
X117507906Y-81856649D01*
X117392812Y-81942809D01*
X117392809Y-81942812D01*
X117306649Y-82057906D01*
X117306645Y-82057913D01*
X117256403Y-82192620D01*
X117256401Y-82192627D01*
X117250000Y-82252155D01*
X114228967Y-82252155D01*
X129899655Y-59025957D01*
X135271650Y-51063894D01*
X148899500Y-51063894D01*
X148899500Y-51339229D01*
X148899501Y-51339246D01*
X148935438Y-51612217D01*
X148935439Y-51612222D01*
X148935440Y-51612228D01*
X148935441Y-51612230D01*
X149006704Y-51878192D01*
X149112075Y-52132579D01*
X149112080Y-52132590D01*
X149191809Y-52270683D01*
X149249751Y-52371041D01*
X149249753Y-52371044D01*
X149249754Y-52371045D01*
X149417370Y-52589488D01*
X149417376Y-52589495D01*
X149612066Y-52784185D01*
X149612072Y-52784190D01*
X149830521Y-52951811D01*
X149983778Y-53040294D01*
X150068971Y-53089481D01*
X150068976Y-53089483D01*
X150068979Y-53089485D01*
X150323368Y-53194857D01*
X150589334Y-53266122D01*
X150862326Y-53302062D01*
X150862333Y-53302062D01*
X151137667Y-53302062D01*
X151137674Y-53302062D01*
X151410666Y-53266122D01*
X151676632Y-53194857D01*
X151931021Y-53089485D01*
X152169479Y-52951811D01*
X152387928Y-52784190D01*
X152582628Y-52589490D01*
X152750249Y-52371041D01*
X152887923Y-52132583D01*
X152993295Y-51878194D01*
X153064560Y-51612228D01*
X153100500Y-51339236D01*
X153100500Y-51063888D01*
X153064560Y-50790896D01*
X152993295Y-50524930D01*
X152887923Y-50270541D01*
X152887921Y-50270538D01*
X152887919Y-50270533D01*
X152838732Y-50185340D01*
X152750249Y-50032083D01*
X152582628Y-49813634D01*
X152582623Y-49813628D01*
X152387933Y-49618938D01*
X152387926Y-49618932D01*
X152169483Y-49451316D01*
X152169482Y-49451315D01*
X152169479Y-49451313D01*
X152074407Y-49396423D01*
X151931028Y-49313642D01*
X151931017Y-49313637D01*
X151676630Y-49208266D01*
X151543649Y-49172634D01*
X151410666Y-49137002D01*
X151410660Y-49137001D01*
X151410655Y-49137000D01*
X151137684Y-49101063D01*
X151137679Y-49101062D01*
X151137674Y-49101062D01*
X150862326Y-49101062D01*
X150862320Y-49101062D01*
X150862315Y-49101063D01*
X150589344Y-49137000D01*
X150589337Y-49137001D01*
X150589334Y-49137002D01*
X150533125Y-49152062D01*
X150323369Y-49208266D01*
X150068982Y-49313637D01*
X150068971Y-49313642D01*
X149830516Y-49451316D01*
X149612073Y-49618932D01*
X149612066Y-49618938D01*
X149417376Y-49813628D01*
X149417370Y-49813635D01*
X149249754Y-50032078D01*
X149112080Y-50270533D01*
X149112075Y-50270544D01*
X149006704Y-50524931D01*
X148935441Y-50790893D01*
X148935438Y-50790906D01*
X148899501Y-51063877D01*
X148899500Y-51063894D01*
X135271650Y-51063894D01*
X135321185Y-50990476D01*
X141282371Y-42155147D01*
X141336184Y-42110583D01*
X141385163Y-42100500D01*
X153413331Y-42100500D01*
X153413347Y-42100501D01*
X153420943Y-42100501D01*
X153579054Y-42100501D01*
X153579057Y-42100501D01*
X153731785Y-42059577D01*
X153781904Y-42030639D01*
X153868716Y-41980520D01*
X153980520Y-41868716D01*
X153980520Y-41868714D01*
X153990728Y-41858507D01*
X153990730Y-41858504D01*
X156368713Y-39480521D01*
X156368716Y-39480520D01*
X156480520Y-39368716D01*
X156530639Y-39281904D01*
X156559577Y-39231785D01*
X156600501Y-39079057D01*
X156600501Y-38920943D01*
X156600501Y-38913348D01*
X156600500Y-38913330D01*
X156600500Y-32920945D01*
X156600500Y-32920943D01*
X156559577Y-32768216D01*
X156559577Y-32768215D01*
X156559577Y-32768214D01*
X156530639Y-32718095D01*
X156530637Y-32718092D01*
X156491325Y-32650000D01*
X156480520Y-32631284D01*
X156368716Y-32519480D01*
X156368715Y-32519479D01*
X156364385Y-32515149D01*
X156364374Y-32515139D01*
X155887590Y-32038355D01*
X155887588Y-32038352D01*
X155768717Y-31919481D01*
X155768709Y-31919475D01*
X155652059Y-31852128D01*
X155652056Y-31852127D01*
X155631785Y-31840423D01*
X155479057Y-31799499D01*
X155320943Y-31799499D01*
X155313347Y-31799499D01*
X155313331Y-31799500D01*
X154782791Y-31799500D01*
X154715752Y-31779815D01*
X154669997Y-31727011D01*
X154666609Y-31718833D01*
X154643797Y-31657671D01*
X154643793Y-31657664D01*
X154557547Y-31542455D01*
X154557544Y-31542452D01*
X154442335Y-31456206D01*
X154442328Y-31456202D01*
X154307482Y-31405908D01*
X154307483Y-31405908D01*
X154247883Y-31399501D01*
X154247881Y-31399500D01*
X154247873Y-31399500D01*
X154247864Y-31399500D01*
X152652129Y-31399500D01*
X152652123Y-31399501D01*
X152592516Y-31405908D01*
X152457671Y-31456202D01*
X152457664Y-31456206D01*
X152342455Y-31542452D01*
X152342452Y-31542455D01*
X152256206Y-31657664D01*
X152256202Y-31657671D01*
X152205908Y-31792517D01*
X152199501Y-31852116D01*
X152199500Y-31852127D01*
X152199501Y-32870500D01*
X152179817Y-32937539D01*
X152127013Y-32983294D01*
X152075501Y-32994500D01*
X152061997Y-32994500D01*
X151972480Y-33002490D01*
X151929236Y-33010271D01*
X151842538Y-33033993D01*
X151716203Y-33102832D01*
X151716200Y-33102834D01*
X151660226Y-33144656D01*
X151660226Y-33144657D01*
X151558400Y-33246299D01*
X150431484Y-34748855D01*
X150284450Y-34944900D01*
X150228479Y-34986721D01*
X150185250Y-34994500D01*
X149924499Y-34994500D01*
X149895601Y-34997606D01*
X149826843Y-34985200D01*
X149775706Y-34937589D01*
X149766167Y-34917649D01*
X149743798Y-34857673D01*
X149743793Y-34857664D01*
X149657547Y-34742455D01*
X149657544Y-34742452D01*
X149542335Y-34656206D01*
X149542328Y-34656202D01*
X149407482Y-34605908D01*
X149407483Y-34605908D01*
X149347883Y-34599501D01*
X149347881Y-34599500D01*
X149347873Y-34599500D01*
X149347864Y-34599500D01*
X147752129Y-34599500D01*
X147752123Y-34599501D01*
X147692516Y-34605908D01*
X147557671Y-34656202D01*
X147557664Y-34656206D01*
X147442455Y-34742452D01*
X147442452Y-34742455D01*
X147356207Y-34857663D01*
X147356203Y-34857669D01*
X147342964Y-34893165D01*
X147301092Y-34949098D01*
X147235627Y-34973513D01*
X147224390Y-34973806D01*
X146846607Y-34966515D01*
X146779960Y-34945540D01*
X146735233Y-34891863D01*
X146725000Y-34842538D01*
X146725000Y-34712500D01*
X144275001Y-34712500D01*
X144275001Y-34790473D01*
X144255316Y-34857512D01*
X144202512Y-34903267D01*
X144148609Y-34914450D01*
X139694970Y-34828507D01*
X139628322Y-34807533D01*
X139583595Y-34753856D01*
X139574987Y-34684518D01*
X139595178Y-34634285D01*
X139979678Y-34075013D01*
X144275000Y-34075013D01*
X144275000Y-34212500D01*
X145250000Y-34212500D01*
X145750000Y-34212500D01*
X146724999Y-34212500D01*
X146724999Y-34075028D01*
X146724998Y-34075013D01*
X146714505Y-33972302D01*
X146659358Y-33805880D01*
X146659356Y-33805875D01*
X146567315Y-33656654D01*
X146443345Y-33532684D01*
X146294124Y-33440643D01*
X146294119Y-33440641D01*
X146127697Y-33385494D01*
X146127690Y-33385493D01*
X146024986Y-33375000D01*
X145750000Y-33375000D01*
X145750000Y-34212500D01*
X145250000Y-34212500D01*
X145250000Y-33375000D01*
X144975029Y-33375000D01*
X144975012Y-33375001D01*
X144872302Y-33385494D01*
X144705880Y-33440641D01*
X144705875Y-33440643D01*
X144556654Y-33532684D01*
X144432684Y-33656654D01*
X144340643Y-33805875D01*
X144340641Y-33805880D01*
X144285494Y-33972302D01*
X144285493Y-33972309D01*
X144275000Y-34075013D01*
X139979678Y-34075013D01*
X140754607Y-32947844D01*
X147300000Y-32947844D01*
X147306401Y-33007372D01*
X147306403Y-33007379D01*
X147356645Y-33142086D01*
X147356649Y-33142093D01*
X147442809Y-33257187D01*
X147442812Y-33257190D01*
X147557906Y-33343350D01*
X147557913Y-33343354D01*
X147692620Y-33393596D01*
X147692627Y-33393598D01*
X147752155Y-33399999D01*
X147752172Y-33400000D01*
X148300000Y-33400000D01*
X148800000Y-33400000D01*
X149347828Y-33400000D01*
X149347844Y-33399999D01*
X149407372Y-33393598D01*
X149407379Y-33393596D01*
X149542086Y-33343354D01*
X149542093Y-33343350D01*
X149657187Y-33257190D01*
X149657190Y-33257187D01*
X149743350Y-33142093D01*
X149743354Y-33142086D01*
X149793596Y-33007379D01*
X149793598Y-33007372D01*
X149799999Y-32947844D01*
X149800000Y-32947827D01*
X149800000Y-32650000D01*
X148800000Y-32650000D01*
X148800000Y-33400000D01*
X148300000Y-33400000D01*
X148300000Y-32650000D01*
X147300000Y-32650000D01*
X147300000Y-32947844D01*
X140754607Y-32947844D01*
X141507893Y-31852155D01*
X147300000Y-31852155D01*
X147300000Y-32150000D01*
X148300000Y-32150000D01*
X148800000Y-32150000D01*
X149800000Y-32150000D01*
X149800000Y-31852172D01*
X149799999Y-31852155D01*
X149793598Y-31792627D01*
X149793596Y-31792620D01*
X149743354Y-31657913D01*
X149743350Y-31657906D01*
X149657190Y-31542812D01*
X149657187Y-31542809D01*
X149542093Y-31456649D01*
X149542086Y-31456645D01*
X149407379Y-31406403D01*
X149407372Y-31406401D01*
X149347844Y-31400000D01*
X148800000Y-31400000D01*
X148800000Y-32150000D01*
X148300000Y-32150000D01*
X148300000Y-31400000D01*
X147752155Y-31400000D01*
X147692627Y-31406401D01*
X147692620Y-31406403D01*
X147557913Y-31456645D01*
X147557906Y-31456649D01*
X147442812Y-31542809D01*
X147442809Y-31542812D01*
X147356649Y-31657906D01*
X147356645Y-31657913D01*
X147306403Y-31792620D01*
X147306401Y-31792627D01*
X147300000Y-31852155D01*
X141507893Y-31852155D01*
X144463047Y-27553750D01*
X144517248Y-27509659D01*
X144565228Y-27500000D01*
X156933548Y-27500000D01*
X157000587Y-27519685D01*
G37*
%TD.AperFunction*%
%TD*%
M02*
