%TF.GenerationSoftware,KiCad,Pcbnew,9.0.6*%
%TF.CreationDate,2025-11-19T18:33:24-08:00*%
%TF.ProjectId,pyramid_clock,70797261-6d69-4645-9f63-6c6f636b2e6b,rev?*%
%TF.SameCoordinates,Original*%
%TF.FileFunction,Legend,Top*%
%TF.FilePolarity,Positive*%
%FSLAX46Y46*%
G04 Gerber Fmt 4.6, Leading zero omitted, Abs format (unit mm)*
G04 Created by KiCad (PCBNEW 9.0.6) date 2025-11-19 18:33:24*
%MOMM*%
%LPD*%
G01*
G04 APERTURE LIST*
%ADD10C,0.150000*%
%ADD11C,0.120000*%
G04 APERTURE END LIST*
D10*
X160193024Y-81310524D02*
X160193024Y-80310524D01*
X160193024Y-80310524D02*
X160431119Y-80310524D01*
X160431119Y-80310524D02*
X160573976Y-80358143D01*
X160573976Y-80358143D02*
X160669214Y-80453381D01*
X160669214Y-80453381D02*
X160716833Y-80548619D01*
X160716833Y-80548619D02*
X160764452Y-80739095D01*
X160764452Y-80739095D02*
X160764452Y-80881952D01*
X160764452Y-80881952D02*
X160716833Y-81072428D01*
X160716833Y-81072428D02*
X160669214Y-81167666D01*
X160669214Y-81167666D02*
X160573976Y-81262905D01*
X160573976Y-81262905D02*
X160431119Y-81310524D01*
X160431119Y-81310524D02*
X160193024Y-81310524D01*
X161335881Y-80739095D02*
X161240643Y-80691476D01*
X161240643Y-80691476D02*
X161193024Y-80643857D01*
X161193024Y-80643857D02*
X161145405Y-80548619D01*
X161145405Y-80548619D02*
X161145405Y-80501000D01*
X161145405Y-80501000D02*
X161193024Y-80405762D01*
X161193024Y-80405762D02*
X161240643Y-80358143D01*
X161240643Y-80358143D02*
X161335881Y-80310524D01*
X161335881Y-80310524D02*
X161526357Y-80310524D01*
X161526357Y-80310524D02*
X161621595Y-80358143D01*
X161621595Y-80358143D02*
X161669214Y-80405762D01*
X161669214Y-80405762D02*
X161716833Y-80501000D01*
X161716833Y-80501000D02*
X161716833Y-80548619D01*
X161716833Y-80548619D02*
X161669214Y-80643857D01*
X161669214Y-80643857D02*
X161621595Y-80691476D01*
X161621595Y-80691476D02*
X161526357Y-80739095D01*
X161526357Y-80739095D02*
X161335881Y-80739095D01*
X161335881Y-80739095D02*
X161240643Y-80786714D01*
X161240643Y-80786714D02*
X161193024Y-80834333D01*
X161193024Y-80834333D02*
X161145405Y-80929571D01*
X161145405Y-80929571D02*
X161145405Y-81120047D01*
X161145405Y-81120047D02*
X161193024Y-81215285D01*
X161193024Y-81215285D02*
X161240643Y-81262905D01*
X161240643Y-81262905D02*
X161335881Y-81310524D01*
X161335881Y-81310524D02*
X161526357Y-81310524D01*
X161526357Y-81310524D02*
X161621595Y-81262905D01*
X161621595Y-81262905D02*
X161669214Y-81215285D01*
X161669214Y-81215285D02*
X161716833Y-81120047D01*
X161716833Y-81120047D02*
X161716833Y-80929571D01*
X161716833Y-80929571D02*
X161669214Y-80834333D01*
X161669214Y-80834333D02*
X161621595Y-80786714D01*
X161621595Y-80786714D02*
X161526357Y-80739095D01*
X138330569Y-127405808D02*
X138330569Y-126405808D01*
X138330569Y-126405808D02*
X138568664Y-126405808D01*
X138568664Y-126405808D02*
X138711521Y-126453427D01*
X138711521Y-126453427D02*
X138806759Y-126548665D01*
X138806759Y-126548665D02*
X138854378Y-126643903D01*
X138854378Y-126643903D02*
X138901997Y-126834379D01*
X138901997Y-126834379D02*
X138901997Y-126977236D01*
X138901997Y-126977236D02*
X138854378Y-127167712D01*
X138854378Y-127167712D02*
X138806759Y-127262950D01*
X138806759Y-127262950D02*
X138711521Y-127358189D01*
X138711521Y-127358189D02*
X138568664Y-127405808D01*
X138568664Y-127405808D02*
X138330569Y-127405808D01*
X139759140Y-126739141D02*
X139759140Y-127405808D01*
X139521045Y-126358189D02*
X139282950Y-127072474D01*
X139282950Y-127072474D02*
X139901997Y-127072474D01*
X84179581Y-132166666D02*
X84227201Y-132214285D01*
X84227201Y-132214285D02*
X84274820Y-132357142D01*
X84274820Y-132357142D02*
X84274820Y-132452380D01*
X84274820Y-132452380D02*
X84227201Y-132595237D01*
X84227201Y-132595237D02*
X84131962Y-132690475D01*
X84131962Y-132690475D02*
X84036724Y-132738094D01*
X84036724Y-132738094D02*
X83846248Y-132785713D01*
X83846248Y-132785713D02*
X83703391Y-132785713D01*
X83703391Y-132785713D02*
X83512915Y-132738094D01*
X83512915Y-132738094D02*
X83417677Y-132690475D01*
X83417677Y-132690475D02*
X83322439Y-132595237D01*
X83322439Y-132595237D02*
X83274820Y-132452380D01*
X83274820Y-132452380D02*
X83274820Y-132357142D01*
X83274820Y-132357142D02*
X83322439Y-132214285D01*
X83322439Y-132214285D02*
X83370058Y-132166666D01*
X83274820Y-131309523D02*
X83274820Y-131499999D01*
X83274820Y-131499999D02*
X83322439Y-131595237D01*
X83322439Y-131595237D02*
X83370058Y-131642856D01*
X83370058Y-131642856D02*
X83512915Y-131738094D01*
X83512915Y-131738094D02*
X83703391Y-131785713D01*
X83703391Y-131785713D02*
X84084343Y-131785713D01*
X84084343Y-131785713D02*
X84179581Y-131738094D01*
X84179581Y-131738094D02*
X84227201Y-131690475D01*
X84227201Y-131690475D02*
X84274820Y-131595237D01*
X84274820Y-131595237D02*
X84274820Y-131404761D01*
X84274820Y-131404761D02*
X84227201Y-131309523D01*
X84227201Y-131309523D02*
X84179581Y-131261904D01*
X84179581Y-131261904D02*
X84084343Y-131214285D01*
X84084343Y-131214285D02*
X83846248Y-131214285D01*
X83846248Y-131214285D02*
X83751010Y-131261904D01*
X83751010Y-131261904D02*
X83703391Y-131309523D01*
X83703391Y-131309523D02*
X83655772Y-131404761D01*
X83655772Y-131404761D02*
X83655772Y-131595237D01*
X83655772Y-131595237D02*
X83703391Y-131690475D01*
X83703391Y-131690475D02*
X83751010Y-131738094D01*
X83751010Y-131738094D02*
X83846248Y-131785713D01*
X132179581Y-132166666D02*
X132227201Y-132214285D01*
X132227201Y-132214285D02*
X132274820Y-132357142D01*
X132274820Y-132357142D02*
X132274820Y-132452380D01*
X132274820Y-132452380D02*
X132227201Y-132595237D01*
X132227201Y-132595237D02*
X132131962Y-132690475D01*
X132131962Y-132690475D02*
X132036724Y-132738094D01*
X132036724Y-132738094D02*
X131846248Y-132785713D01*
X131846248Y-132785713D02*
X131703391Y-132785713D01*
X131703391Y-132785713D02*
X131512915Y-132738094D01*
X131512915Y-132738094D02*
X131417677Y-132690475D01*
X131417677Y-132690475D02*
X131322439Y-132595237D01*
X131322439Y-132595237D02*
X131274820Y-132452380D01*
X131274820Y-132452380D02*
X131274820Y-132357142D01*
X131274820Y-132357142D02*
X131322439Y-132214285D01*
X131322439Y-132214285D02*
X131370058Y-132166666D01*
X131608153Y-131309523D02*
X132274820Y-131309523D01*
X131227201Y-131547618D02*
X131941486Y-131785713D01*
X131941486Y-131785713D02*
X131941486Y-131166666D01*
X114355152Y-127405808D02*
X114355152Y-126405808D01*
X114355152Y-126405808D02*
X114593247Y-126405808D01*
X114593247Y-126405808D02*
X114736104Y-126453427D01*
X114736104Y-126453427D02*
X114831342Y-126548665D01*
X114831342Y-126548665D02*
X114878961Y-126643903D01*
X114878961Y-126643903D02*
X114926580Y-126834379D01*
X114926580Y-126834379D02*
X114926580Y-126977236D01*
X114926580Y-126977236D02*
X114878961Y-127167712D01*
X114878961Y-127167712D02*
X114831342Y-127262950D01*
X114831342Y-127262950D02*
X114736104Y-127358189D01*
X114736104Y-127358189D02*
X114593247Y-127405808D01*
X114593247Y-127405808D02*
X114355152Y-127405808D01*
X115831342Y-126405808D02*
X115355152Y-126405808D01*
X115355152Y-126405808D02*
X115307533Y-126881998D01*
X115307533Y-126881998D02*
X115355152Y-126834379D01*
X115355152Y-126834379D02*
X115450390Y-126786760D01*
X115450390Y-126786760D02*
X115688485Y-126786760D01*
X115688485Y-126786760D02*
X115783723Y-126834379D01*
X115783723Y-126834379D02*
X115831342Y-126881998D01*
X115831342Y-126881998D02*
X115878961Y-126977236D01*
X115878961Y-126977236D02*
X115878961Y-127215331D01*
X115878961Y-127215331D02*
X115831342Y-127310569D01*
X115831342Y-127310569D02*
X115783723Y-127358189D01*
X115783723Y-127358189D02*
X115688485Y-127405808D01*
X115688485Y-127405808D02*
X115450390Y-127405808D01*
X115450390Y-127405808D02*
X115355152Y-127358189D01*
X115355152Y-127358189D02*
X115307533Y-127310569D01*
X119735714Y-81354819D02*
X119735714Y-80354819D01*
X119735714Y-80354819D02*
X119973809Y-80354819D01*
X119973809Y-80354819D02*
X120116666Y-80402438D01*
X120116666Y-80402438D02*
X120211904Y-80497676D01*
X120211904Y-80497676D02*
X120259523Y-80592914D01*
X120259523Y-80592914D02*
X120307142Y-80783390D01*
X120307142Y-80783390D02*
X120307142Y-80926247D01*
X120307142Y-80926247D02*
X120259523Y-81116723D01*
X120259523Y-81116723D02*
X120211904Y-81211961D01*
X120211904Y-81211961D02*
X120116666Y-81307200D01*
X120116666Y-81307200D02*
X119973809Y-81354819D01*
X119973809Y-81354819D02*
X119735714Y-81354819D01*
X121259523Y-81354819D02*
X120688095Y-81354819D01*
X120973809Y-81354819D02*
X120973809Y-80354819D01*
X120973809Y-80354819D02*
X120878571Y-80497676D01*
X120878571Y-80497676D02*
X120783333Y-80592914D01*
X120783333Y-80592914D02*
X120688095Y-80640533D01*
X121878571Y-80354819D02*
X121973809Y-80354819D01*
X121973809Y-80354819D02*
X122069047Y-80402438D01*
X122069047Y-80402438D02*
X122116666Y-80450057D01*
X122116666Y-80450057D02*
X122164285Y-80545295D01*
X122164285Y-80545295D02*
X122211904Y-80735771D01*
X122211904Y-80735771D02*
X122211904Y-80973866D01*
X122211904Y-80973866D02*
X122164285Y-81164342D01*
X122164285Y-81164342D02*
X122116666Y-81259580D01*
X122116666Y-81259580D02*
X122069047Y-81307200D01*
X122069047Y-81307200D02*
X121973809Y-81354819D01*
X121973809Y-81354819D02*
X121878571Y-81354819D01*
X121878571Y-81354819D02*
X121783333Y-81307200D01*
X121783333Y-81307200D02*
X121735714Y-81259580D01*
X121735714Y-81259580D02*
X121688095Y-81164342D01*
X121688095Y-81164342D02*
X121640476Y-80973866D01*
X121640476Y-80973866D02*
X121640476Y-80735771D01*
X121640476Y-80735771D02*
X121688095Y-80545295D01*
X121688095Y-80545295D02*
X121735714Y-80450057D01*
X121735714Y-80450057D02*
X121783333Y-80402438D01*
X121783333Y-80402438D02*
X121878571Y-80354819D01*
X144179581Y-36142857D02*
X144227201Y-36190476D01*
X144227201Y-36190476D02*
X144274820Y-36333333D01*
X144274820Y-36333333D02*
X144274820Y-36428571D01*
X144274820Y-36428571D02*
X144227201Y-36571428D01*
X144227201Y-36571428D02*
X144131962Y-36666666D01*
X144131962Y-36666666D02*
X144036724Y-36714285D01*
X144036724Y-36714285D02*
X143846248Y-36761904D01*
X143846248Y-36761904D02*
X143703391Y-36761904D01*
X143703391Y-36761904D02*
X143512915Y-36714285D01*
X143512915Y-36714285D02*
X143417677Y-36666666D01*
X143417677Y-36666666D02*
X143322439Y-36571428D01*
X143322439Y-36571428D02*
X143274820Y-36428571D01*
X143274820Y-36428571D02*
X143274820Y-36333333D01*
X143274820Y-36333333D02*
X143322439Y-36190476D01*
X143322439Y-36190476D02*
X143370058Y-36142857D01*
X144274820Y-35190476D02*
X144274820Y-35761904D01*
X144274820Y-35476190D02*
X143274820Y-35476190D01*
X143274820Y-35476190D02*
X143417677Y-35571428D01*
X143417677Y-35571428D02*
X143512915Y-35666666D01*
X143512915Y-35666666D02*
X143560534Y-35761904D01*
X144274820Y-34238095D02*
X144274820Y-34809523D01*
X144274820Y-34523809D02*
X143274820Y-34523809D01*
X143274820Y-34523809D02*
X143417677Y-34619047D01*
X143417677Y-34619047D02*
X143512915Y-34714285D01*
X143512915Y-34714285D02*
X143560534Y-34809523D01*
X134179581Y-86166666D02*
X134227201Y-86214285D01*
X134227201Y-86214285D02*
X134274820Y-86357142D01*
X134274820Y-86357142D02*
X134274820Y-86452380D01*
X134274820Y-86452380D02*
X134227201Y-86595237D01*
X134227201Y-86595237D02*
X134131962Y-86690475D01*
X134131962Y-86690475D02*
X134036724Y-86738094D01*
X134036724Y-86738094D02*
X133846248Y-86785713D01*
X133846248Y-86785713D02*
X133703391Y-86785713D01*
X133703391Y-86785713D02*
X133512915Y-86738094D01*
X133512915Y-86738094D02*
X133417677Y-86690475D01*
X133417677Y-86690475D02*
X133322439Y-86595237D01*
X133322439Y-86595237D02*
X133274820Y-86452380D01*
X133274820Y-86452380D02*
X133274820Y-86357142D01*
X133274820Y-86357142D02*
X133322439Y-86214285D01*
X133322439Y-86214285D02*
X133370058Y-86166666D01*
X134274820Y-85690475D02*
X134274820Y-85499999D01*
X134274820Y-85499999D02*
X134227201Y-85404761D01*
X134227201Y-85404761D02*
X134179581Y-85357142D01*
X134179581Y-85357142D02*
X134036724Y-85261904D01*
X134036724Y-85261904D02*
X133846248Y-85214285D01*
X133846248Y-85214285D02*
X133465296Y-85214285D01*
X133465296Y-85214285D02*
X133370058Y-85261904D01*
X133370058Y-85261904D02*
X133322439Y-85309523D01*
X133322439Y-85309523D02*
X133274820Y-85404761D01*
X133274820Y-85404761D02*
X133274820Y-85595237D01*
X133274820Y-85595237D02*
X133322439Y-85690475D01*
X133322439Y-85690475D02*
X133370058Y-85738094D01*
X133370058Y-85738094D02*
X133465296Y-85785713D01*
X133465296Y-85785713D02*
X133703391Y-85785713D01*
X133703391Y-85785713D02*
X133798629Y-85738094D01*
X133798629Y-85738094D02*
X133846248Y-85690475D01*
X133846248Y-85690475D02*
X133893867Y-85595237D01*
X133893867Y-85595237D02*
X133893867Y-85404761D01*
X133893867Y-85404761D02*
X133846248Y-85309523D01*
X133846248Y-85309523D02*
X133798629Y-85261904D01*
X133798629Y-85261904D02*
X133703391Y-85214285D01*
X114179581Y-86642857D02*
X114227201Y-86690476D01*
X114227201Y-86690476D02*
X114274820Y-86833333D01*
X114274820Y-86833333D02*
X114274820Y-86928571D01*
X114274820Y-86928571D02*
X114227201Y-87071428D01*
X114227201Y-87071428D02*
X114131962Y-87166666D01*
X114131962Y-87166666D02*
X114036724Y-87214285D01*
X114036724Y-87214285D02*
X113846248Y-87261904D01*
X113846248Y-87261904D02*
X113703391Y-87261904D01*
X113703391Y-87261904D02*
X113512915Y-87214285D01*
X113512915Y-87214285D02*
X113417677Y-87166666D01*
X113417677Y-87166666D02*
X113322439Y-87071428D01*
X113322439Y-87071428D02*
X113274820Y-86928571D01*
X113274820Y-86928571D02*
X113274820Y-86833333D01*
X113274820Y-86833333D02*
X113322439Y-86690476D01*
X113322439Y-86690476D02*
X113370058Y-86642857D01*
X114274820Y-85690476D02*
X114274820Y-86261904D01*
X114274820Y-85976190D02*
X113274820Y-85976190D01*
X113274820Y-85976190D02*
X113417677Y-86071428D01*
X113417677Y-86071428D02*
X113512915Y-86166666D01*
X113512915Y-86166666D02*
X113560534Y-86261904D01*
X113274820Y-85071428D02*
X113274820Y-84976190D01*
X113274820Y-84976190D02*
X113322439Y-84880952D01*
X113322439Y-84880952D02*
X113370058Y-84833333D01*
X113370058Y-84833333D02*
X113465296Y-84785714D01*
X113465296Y-84785714D02*
X113655772Y-84738095D01*
X113655772Y-84738095D02*
X113893867Y-84738095D01*
X113893867Y-84738095D02*
X114084343Y-84785714D01*
X114084343Y-84785714D02*
X114179581Y-84833333D01*
X114179581Y-84833333D02*
X114227201Y-84880952D01*
X114227201Y-84880952D02*
X114274820Y-84976190D01*
X114274820Y-84976190D02*
X114274820Y-85071428D01*
X114274820Y-85071428D02*
X114227201Y-85166666D01*
X114227201Y-85166666D02*
X114179581Y-85214285D01*
X114179581Y-85214285D02*
X114084343Y-85261904D01*
X114084343Y-85261904D02*
X113893867Y-85309523D01*
X113893867Y-85309523D02*
X113655772Y-85309523D01*
X113655772Y-85309523D02*
X113465296Y-85261904D01*
X113465296Y-85261904D02*
X113370058Y-85214285D01*
X113370058Y-85214285D02*
X113322439Y-85166666D01*
X113322439Y-85166666D02*
X113274820Y-85071428D01*
X156179581Y-132166666D02*
X156227201Y-132214285D01*
X156227201Y-132214285D02*
X156274820Y-132357142D01*
X156274820Y-132357142D02*
X156274820Y-132452380D01*
X156274820Y-132452380D02*
X156227201Y-132595237D01*
X156227201Y-132595237D02*
X156131962Y-132690475D01*
X156131962Y-132690475D02*
X156036724Y-132738094D01*
X156036724Y-132738094D02*
X155846248Y-132785713D01*
X155846248Y-132785713D02*
X155703391Y-132785713D01*
X155703391Y-132785713D02*
X155512915Y-132738094D01*
X155512915Y-132738094D02*
X155417677Y-132690475D01*
X155417677Y-132690475D02*
X155322439Y-132595237D01*
X155322439Y-132595237D02*
X155274820Y-132452380D01*
X155274820Y-132452380D02*
X155274820Y-132357142D01*
X155274820Y-132357142D02*
X155322439Y-132214285D01*
X155322439Y-132214285D02*
X155370058Y-132166666D01*
X155274820Y-131833332D02*
X155274820Y-131214285D01*
X155274820Y-131214285D02*
X155655772Y-131547618D01*
X155655772Y-131547618D02*
X155655772Y-131404761D01*
X155655772Y-131404761D02*
X155703391Y-131309523D01*
X155703391Y-131309523D02*
X155751010Y-131261904D01*
X155751010Y-131261904D02*
X155846248Y-131214285D01*
X155846248Y-131214285D02*
X156084343Y-131214285D01*
X156084343Y-131214285D02*
X156179581Y-131261904D01*
X156179581Y-131261904D02*
X156227201Y-131309523D01*
X156227201Y-131309523D02*
X156274820Y-131404761D01*
X156274820Y-131404761D02*
X156274820Y-131690475D01*
X156274820Y-131690475D02*
X156227201Y-131785713D01*
X156227201Y-131785713D02*
X156179581Y-131833332D01*
X162305987Y-127405808D02*
X162305987Y-126405808D01*
X162305987Y-126405808D02*
X162544082Y-126405808D01*
X162544082Y-126405808D02*
X162686939Y-126453427D01*
X162686939Y-126453427D02*
X162782177Y-126548665D01*
X162782177Y-126548665D02*
X162829796Y-126643903D01*
X162829796Y-126643903D02*
X162877415Y-126834379D01*
X162877415Y-126834379D02*
X162877415Y-126977236D01*
X162877415Y-126977236D02*
X162829796Y-127167712D01*
X162829796Y-127167712D02*
X162782177Y-127262950D01*
X162782177Y-127262950D02*
X162686939Y-127358189D01*
X162686939Y-127358189D02*
X162544082Y-127405808D01*
X162544082Y-127405808D02*
X162305987Y-127405808D01*
X163210749Y-126405808D02*
X163829796Y-126405808D01*
X163829796Y-126405808D02*
X163496463Y-126786760D01*
X163496463Y-126786760D02*
X163639320Y-126786760D01*
X163639320Y-126786760D02*
X163734558Y-126834379D01*
X163734558Y-126834379D02*
X163782177Y-126881998D01*
X163782177Y-126881998D02*
X163829796Y-126977236D01*
X163829796Y-126977236D02*
X163829796Y-127215331D01*
X163829796Y-127215331D02*
X163782177Y-127310569D01*
X163782177Y-127310569D02*
X163734558Y-127358189D01*
X163734558Y-127358189D02*
X163639320Y-127405808D01*
X163639320Y-127405808D02*
X163353606Y-127405808D01*
X163353606Y-127405808D02*
X163258368Y-127358189D01*
X163258368Y-127358189D02*
X163210749Y-127310569D01*
X180179581Y-132166666D02*
X180227201Y-132214285D01*
X180227201Y-132214285D02*
X180274820Y-132357142D01*
X180274820Y-132357142D02*
X180274820Y-132452380D01*
X180274820Y-132452380D02*
X180227201Y-132595237D01*
X180227201Y-132595237D02*
X180131962Y-132690475D01*
X180131962Y-132690475D02*
X180036724Y-132738094D01*
X180036724Y-132738094D02*
X179846248Y-132785713D01*
X179846248Y-132785713D02*
X179703391Y-132785713D01*
X179703391Y-132785713D02*
X179512915Y-132738094D01*
X179512915Y-132738094D02*
X179417677Y-132690475D01*
X179417677Y-132690475D02*
X179322439Y-132595237D01*
X179322439Y-132595237D02*
X179274820Y-132452380D01*
X179274820Y-132452380D02*
X179274820Y-132357142D01*
X179274820Y-132357142D02*
X179322439Y-132214285D01*
X179322439Y-132214285D02*
X179370058Y-132166666D01*
X179370058Y-131785713D02*
X179322439Y-131738094D01*
X179322439Y-131738094D02*
X179274820Y-131642856D01*
X179274820Y-131642856D02*
X179274820Y-131404761D01*
X179274820Y-131404761D02*
X179322439Y-131309523D01*
X179322439Y-131309523D02*
X179370058Y-131261904D01*
X179370058Y-131261904D02*
X179465296Y-131214285D01*
X179465296Y-131214285D02*
X179560534Y-131214285D01*
X179560534Y-131214285D02*
X179703391Y-131261904D01*
X179703391Y-131261904D02*
X180274820Y-131833332D01*
X180274820Y-131833332D02*
X180274820Y-131214285D01*
X149785714Y-30954819D02*
X149785714Y-29954819D01*
X149785714Y-29954819D02*
X150023809Y-29954819D01*
X150023809Y-29954819D02*
X150166666Y-30002438D01*
X150166666Y-30002438D02*
X150261904Y-30097676D01*
X150261904Y-30097676D02*
X150309523Y-30192914D01*
X150309523Y-30192914D02*
X150357142Y-30383390D01*
X150357142Y-30383390D02*
X150357142Y-30526247D01*
X150357142Y-30526247D02*
X150309523Y-30716723D01*
X150309523Y-30716723D02*
X150261904Y-30811961D01*
X150261904Y-30811961D02*
X150166666Y-30907200D01*
X150166666Y-30907200D02*
X150023809Y-30954819D01*
X150023809Y-30954819D02*
X149785714Y-30954819D01*
X151309523Y-30954819D02*
X150738095Y-30954819D01*
X151023809Y-30954819D02*
X151023809Y-29954819D01*
X151023809Y-29954819D02*
X150928571Y-30097676D01*
X150928571Y-30097676D02*
X150833333Y-30192914D01*
X150833333Y-30192914D02*
X150738095Y-30240533D01*
X152261904Y-30954819D02*
X151690476Y-30954819D01*
X151976190Y-30954819D02*
X151976190Y-29954819D01*
X151976190Y-29954819D02*
X151880952Y-30097676D01*
X151880952Y-30097676D02*
X151785714Y-30192914D01*
X151785714Y-30192914D02*
X151690476Y-30240533D01*
X204179581Y-132166666D02*
X204227201Y-132214285D01*
X204227201Y-132214285D02*
X204274820Y-132357142D01*
X204274820Y-132357142D02*
X204274820Y-132452380D01*
X204274820Y-132452380D02*
X204227201Y-132595237D01*
X204227201Y-132595237D02*
X204131962Y-132690475D01*
X204131962Y-132690475D02*
X204036724Y-132738094D01*
X204036724Y-132738094D02*
X203846248Y-132785713D01*
X203846248Y-132785713D02*
X203703391Y-132785713D01*
X203703391Y-132785713D02*
X203512915Y-132738094D01*
X203512915Y-132738094D02*
X203417677Y-132690475D01*
X203417677Y-132690475D02*
X203322439Y-132595237D01*
X203322439Y-132595237D02*
X203274820Y-132452380D01*
X203274820Y-132452380D02*
X203274820Y-132357142D01*
X203274820Y-132357142D02*
X203322439Y-132214285D01*
X203322439Y-132214285D02*
X203370058Y-132166666D01*
X204274820Y-131214285D02*
X204274820Y-131785713D01*
X204274820Y-131499999D02*
X203274820Y-131499999D01*
X203274820Y-131499999D02*
X203417677Y-131595237D01*
X203417677Y-131595237D02*
X203512915Y-131690475D01*
X203512915Y-131690475D02*
X203560534Y-131785713D01*
X210328391Y-127334240D02*
X210328391Y-126334240D01*
X210328391Y-126334240D02*
X210566486Y-126334240D01*
X210566486Y-126334240D02*
X210709343Y-126381859D01*
X210709343Y-126381859D02*
X210804581Y-126477097D01*
X210804581Y-126477097D02*
X210852200Y-126572335D01*
X210852200Y-126572335D02*
X210899819Y-126762811D01*
X210899819Y-126762811D02*
X210899819Y-126905668D01*
X210899819Y-126905668D02*
X210852200Y-127096144D01*
X210852200Y-127096144D02*
X210804581Y-127191382D01*
X210804581Y-127191382D02*
X210709343Y-127286621D01*
X210709343Y-127286621D02*
X210566486Y-127334240D01*
X210566486Y-127334240D02*
X210328391Y-127334240D01*
X211852200Y-127334240D02*
X211280772Y-127334240D01*
X211566486Y-127334240D02*
X211566486Y-126334240D01*
X211566486Y-126334240D02*
X211471248Y-126477097D01*
X211471248Y-126477097D02*
X211376010Y-126572335D01*
X211376010Y-126572335D02*
X211280772Y-126619954D01*
X174179581Y-86166666D02*
X174227201Y-86214285D01*
X174227201Y-86214285D02*
X174274820Y-86357142D01*
X174274820Y-86357142D02*
X174274820Y-86452380D01*
X174274820Y-86452380D02*
X174227201Y-86595237D01*
X174227201Y-86595237D02*
X174131962Y-86690475D01*
X174131962Y-86690475D02*
X174036724Y-86738094D01*
X174036724Y-86738094D02*
X173846248Y-86785713D01*
X173846248Y-86785713D02*
X173703391Y-86785713D01*
X173703391Y-86785713D02*
X173512915Y-86738094D01*
X173512915Y-86738094D02*
X173417677Y-86690475D01*
X173417677Y-86690475D02*
X173322439Y-86595237D01*
X173322439Y-86595237D02*
X173274820Y-86452380D01*
X173274820Y-86452380D02*
X173274820Y-86357142D01*
X173274820Y-86357142D02*
X173322439Y-86214285D01*
X173322439Y-86214285D02*
X173370058Y-86166666D01*
X173274820Y-85833332D02*
X173274820Y-85166666D01*
X173274820Y-85166666D02*
X174274820Y-85595237D01*
X154179581Y-86166666D02*
X154227201Y-86214285D01*
X154227201Y-86214285D02*
X154274820Y-86357142D01*
X154274820Y-86357142D02*
X154274820Y-86452380D01*
X154274820Y-86452380D02*
X154227201Y-86595237D01*
X154227201Y-86595237D02*
X154131962Y-86690475D01*
X154131962Y-86690475D02*
X154036724Y-86738094D01*
X154036724Y-86738094D02*
X153846248Y-86785713D01*
X153846248Y-86785713D02*
X153703391Y-86785713D01*
X153703391Y-86785713D02*
X153512915Y-86738094D01*
X153512915Y-86738094D02*
X153417677Y-86690475D01*
X153417677Y-86690475D02*
X153322439Y-86595237D01*
X153322439Y-86595237D02*
X153274820Y-86452380D01*
X153274820Y-86452380D02*
X153274820Y-86357142D01*
X153274820Y-86357142D02*
X153322439Y-86214285D01*
X153322439Y-86214285D02*
X153370058Y-86166666D01*
X153703391Y-85595237D02*
X153655772Y-85690475D01*
X153655772Y-85690475D02*
X153608153Y-85738094D01*
X153608153Y-85738094D02*
X153512915Y-85785713D01*
X153512915Y-85785713D02*
X153465296Y-85785713D01*
X153465296Y-85785713D02*
X153370058Y-85738094D01*
X153370058Y-85738094D02*
X153322439Y-85690475D01*
X153322439Y-85690475D02*
X153274820Y-85595237D01*
X153274820Y-85595237D02*
X153274820Y-85404761D01*
X153274820Y-85404761D02*
X153322439Y-85309523D01*
X153322439Y-85309523D02*
X153370058Y-85261904D01*
X153370058Y-85261904D02*
X153465296Y-85214285D01*
X153465296Y-85214285D02*
X153512915Y-85214285D01*
X153512915Y-85214285D02*
X153608153Y-85261904D01*
X153608153Y-85261904D02*
X153655772Y-85309523D01*
X153655772Y-85309523D02*
X153703391Y-85404761D01*
X153703391Y-85404761D02*
X153703391Y-85595237D01*
X153703391Y-85595237D02*
X153751010Y-85690475D01*
X153751010Y-85690475D02*
X153798629Y-85738094D01*
X153798629Y-85738094D02*
X153893867Y-85785713D01*
X153893867Y-85785713D02*
X154084343Y-85785713D01*
X154084343Y-85785713D02*
X154179581Y-85738094D01*
X154179581Y-85738094D02*
X154227201Y-85690475D01*
X154227201Y-85690475D02*
X154274820Y-85595237D01*
X154274820Y-85595237D02*
X154274820Y-85404761D01*
X154274820Y-85404761D02*
X154227201Y-85309523D01*
X154227201Y-85309523D02*
X154179581Y-85261904D01*
X154179581Y-85261904D02*
X154084343Y-85214285D01*
X154084343Y-85214285D02*
X153893867Y-85214285D01*
X153893867Y-85214285D02*
X153798629Y-85261904D01*
X153798629Y-85261904D02*
X153751010Y-85309523D01*
X153751010Y-85309523D02*
X153703391Y-85404761D01*
X145304819Y-105666666D02*
X144828628Y-105999999D01*
X145304819Y-106238094D02*
X144304819Y-106238094D01*
X144304819Y-106238094D02*
X144304819Y-105857142D01*
X144304819Y-105857142D02*
X144352438Y-105761904D01*
X144352438Y-105761904D02*
X144400057Y-105714285D01*
X144400057Y-105714285D02*
X144495295Y-105666666D01*
X144495295Y-105666666D02*
X144638152Y-105666666D01*
X144638152Y-105666666D02*
X144733390Y-105714285D01*
X144733390Y-105714285D02*
X144781009Y-105761904D01*
X144781009Y-105761904D02*
X144828628Y-105857142D01*
X144828628Y-105857142D02*
X144828628Y-106238094D01*
X145304819Y-104714285D02*
X145304819Y-105285713D01*
X145304819Y-104999999D02*
X144304819Y-104999999D01*
X144304819Y-104999999D02*
X144447676Y-105095237D01*
X144447676Y-105095237D02*
X144542914Y-105190475D01*
X144542914Y-105190475D02*
X144590533Y-105285713D01*
X108179581Y-132166666D02*
X108227201Y-132214285D01*
X108227201Y-132214285D02*
X108274820Y-132357142D01*
X108274820Y-132357142D02*
X108274820Y-132452380D01*
X108274820Y-132452380D02*
X108227201Y-132595237D01*
X108227201Y-132595237D02*
X108131962Y-132690475D01*
X108131962Y-132690475D02*
X108036724Y-132738094D01*
X108036724Y-132738094D02*
X107846248Y-132785713D01*
X107846248Y-132785713D02*
X107703391Y-132785713D01*
X107703391Y-132785713D02*
X107512915Y-132738094D01*
X107512915Y-132738094D02*
X107417677Y-132690475D01*
X107417677Y-132690475D02*
X107322439Y-132595237D01*
X107322439Y-132595237D02*
X107274820Y-132452380D01*
X107274820Y-132452380D02*
X107274820Y-132357142D01*
X107274820Y-132357142D02*
X107322439Y-132214285D01*
X107322439Y-132214285D02*
X107370058Y-132166666D01*
X107274820Y-131261904D02*
X107274820Y-131738094D01*
X107274820Y-131738094D02*
X107751010Y-131785713D01*
X107751010Y-131785713D02*
X107703391Y-131738094D01*
X107703391Y-131738094D02*
X107655772Y-131642856D01*
X107655772Y-131642856D02*
X107655772Y-131404761D01*
X107655772Y-131404761D02*
X107703391Y-131309523D01*
X107703391Y-131309523D02*
X107751010Y-131261904D01*
X107751010Y-131261904D02*
X107846248Y-131214285D01*
X107846248Y-131214285D02*
X108084343Y-131214285D01*
X108084343Y-131214285D02*
X108179581Y-131261904D01*
X108179581Y-131261904D02*
X108227201Y-131309523D01*
X108227201Y-131309523D02*
X108274820Y-131404761D01*
X108274820Y-131404761D02*
X108274820Y-131642856D01*
X108274820Y-131642856D02*
X108227201Y-131738094D01*
X108227201Y-131738094D02*
X108179581Y-131785713D01*
X180215021Y-81310524D02*
X180215021Y-80310524D01*
X180215021Y-80310524D02*
X180453116Y-80310524D01*
X180453116Y-80310524D02*
X180595973Y-80358143D01*
X180595973Y-80358143D02*
X180691211Y-80453381D01*
X180691211Y-80453381D02*
X180738830Y-80548619D01*
X180738830Y-80548619D02*
X180786449Y-80739095D01*
X180786449Y-80739095D02*
X180786449Y-80881952D01*
X180786449Y-80881952D02*
X180738830Y-81072428D01*
X180738830Y-81072428D02*
X180691211Y-81167666D01*
X180691211Y-81167666D02*
X180595973Y-81262905D01*
X180595973Y-81262905D02*
X180453116Y-81310524D01*
X180453116Y-81310524D02*
X180215021Y-81310524D01*
X181119783Y-80310524D02*
X181786449Y-80310524D01*
X181786449Y-80310524D02*
X181357878Y-81310524D01*
X186352973Y-127262672D02*
X186352973Y-126262672D01*
X186352973Y-126262672D02*
X186591068Y-126262672D01*
X186591068Y-126262672D02*
X186733925Y-126310291D01*
X186733925Y-126310291D02*
X186829163Y-126405529D01*
X186829163Y-126405529D02*
X186876782Y-126500767D01*
X186876782Y-126500767D02*
X186924401Y-126691243D01*
X186924401Y-126691243D02*
X186924401Y-126834100D01*
X186924401Y-126834100D02*
X186876782Y-127024576D01*
X186876782Y-127024576D02*
X186829163Y-127119814D01*
X186829163Y-127119814D02*
X186733925Y-127215053D01*
X186733925Y-127215053D02*
X186591068Y-127262672D01*
X186591068Y-127262672D02*
X186352973Y-127262672D01*
X187305354Y-126357910D02*
X187352973Y-126310291D01*
X187352973Y-126310291D02*
X187448211Y-126262672D01*
X187448211Y-126262672D02*
X187686306Y-126262672D01*
X187686306Y-126262672D02*
X187781544Y-126310291D01*
X187781544Y-126310291D02*
X187829163Y-126357910D01*
X187829163Y-126357910D02*
X187876782Y-126453148D01*
X187876782Y-126453148D02*
X187876782Y-126548386D01*
X187876782Y-126548386D02*
X187829163Y-126691243D01*
X187829163Y-126691243D02*
X187257735Y-127262672D01*
X187257735Y-127262672D02*
X187876782Y-127262672D01*
X140217159Y-81356658D02*
X140217159Y-80356658D01*
X140217159Y-80356658D02*
X140455254Y-80356658D01*
X140455254Y-80356658D02*
X140598111Y-80404277D01*
X140598111Y-80404277D02*
X140693349Y-80499515D01*
X140693349Y-80499515D02*
X140740968Y-80594753D01*
X140740968Y-80594753D02*
X140788587Y-80785229D01*
X140788587Y-80785229D02*
X140788587Y-80928086D01*
X140788587Y-80928086D02*
X140740968Y-81118562D01*
X140740968Y-81118562D02*
X140693349Y-81213800D01*
X140693349Y-81213800D02*
X140598111Y-81309039D01*
X140598111Y-81309039D02*
X140455254Y-81356658D01*
X140455254Y-81356658D02*
X140217159Y-81356658D01*
X141264778Y-81356658D02*
X141455254Y-81356658D01*
X141455254Y-81356658D02*
X141550492Y-81309039D01*
X141550492Y-81309039D02*
X141598111Y-81261419D01*
X141598111Y-81261419D02*
X141693349Y-81118562D01*
X141693349Y-81118562D02*
X141740968Y-80928086D01*
X141740968Y-80928086D02*
X141740968Y-80547134D01*
X141740968Y-80547134D02*
X141693349Y-80451896D01*
X141693349Y-80451896D02*
X141645730Y-80404277D01*
X141645730Y-80404277D02*
X141550492Y-80356658D01*
X141550492Y-80356658D02*
X141360016Y-80356658D01*
X141360016Y-80356658D02*
X141264778Y-80404277D01*
X141264778Y-80404277D02*
X141217159Y-80451896D01*
X141217159Y-80451896D02*
X141169540Y-80547134D01*
X141169540Y-80547134D02*
X141169540Y-80785229D01*
X141169540Y-80785229D02*
X141217159Y-80880467D01*
X141217159Y-80880467D02*
X141264778Y-80928086D01*
X141264778Y-80928086D02*
X141360016Y-80975705D01*
X141360016Y-80975705D02*
X141550492Y-80975705D01*
X141550492Y-80975705D02*
X141645730Y-80928086D01*
X141645730Y-80928086D02*
X141693349Y-80880467D01*
X141693349Y-80880467D02*
X141740968Y-80785229D01*
X90274817Y-127405808D02*
X90274817Y-126405808D01*
X90274817Y-126405808D02*
X90512912Y-126405808D01*
X90512912Y-126405808D02*
X90655769Y-126453427D01*
X90655769Y-126453427D02*
X90751007Y-126548665D01*
X90751007Y-126548665D02*
X90798626Y-126643903D01*
X90798626Y-126643903D02*
X90846245Y-126834379D01*
X90846245Y-126834379D02*
X90846245Y-126977236D01*
X90846245Y-126977236D02*
X90798626Y-127167712D01*
X90798626Y-127167712D02*
X90751007Y-127262950D01*
X90751007Y-127262950D02*
X90655769Y-127358189D01*
X90655769Y-127358189D02*
X90512912Y-127405808D01*
X90512912Y-127405808D02*
X90274817Y-127405808D01*
X91703388Y-126405808D02*
X91512912Y-126405808D01*
X91512912Y-126405808D02*
X91417674Y-126453427D01*
X91417674Y-126453427D02*
X91370055Y-126501046D01*
X91370055Y-126501046D02*
X91274817Y-126643903D01*
X91274817Y-126643903D02*
X91227198Y-126834379D01*
X91227198Y-126834379D02*
X91227198Y-127215331D01*
X91227198Y-127215331D02*
X91274817Y-127310569D01*
X91274817Y-127310569D02*
X91322436Y-127358189D01*
X91322436Y-127358189D02*
X91417674Y-127405808D01*
X91417674Y-127405808D02*
X91608150Y-127405808D01*
X91608150Y-127405808D02*
X91703388Y-127358189D01*
X91703388Y-127358189D02*
X91751007Y-127310569D01*
X91751007Y-127310569D02*
X91798626Y-127215331D01*
X91798626Y-127215331D02*
X91798626Y-126977236D01*
X91798626Y-126977236D02*
X91751007Y-126881998D01*
X91751007Y-126881998D02*
X91703388Y-126834379D01*
X91703388Y-126834379D02*
X91608150Y-126786760D01*
X91608150Y-126786760D02*
X91417674Y-126786760D01*
X91417674Y-126786760D02*
X91322436Y-126834379D01*
X91322436Y-126834379D02*
X91274817Y-126881998D01*
X91274817Y-126881998D02*
X91227198Y-126977236D01*
D11*
%TO.C,D8*%
X157431119Y-82055705D02*
X157431119Y-87105705D01*
X157881119Y-81605705D02*
X157431119Y-82055705D01*
X158231119Y-83455705D02*
X158231119Y-85255705D01*
X163631119Y-83455705D02*
X163631119Y-85255705D01*
X164431119Y-81605705D02*
X157881119Y-81605705D01*
X164431119Y-87105705D02*
X157431119Y-87105705D01*
X164431119Y-87105705D02*
X164431119Y-81605705D01*
%TO.C,D4*%
X135568664Y-128150989D02*
X135568664Y-133200989D01*
X136018664Y-127700989D02*
X135568664Y-128150989D01*
X136368664Y-129550989D02*
X136368664Y-131350989D01*
X141768664Y-129550989D02*
X141768664Y-131350989D01*
X142568664Y-127700989D02*
X136018664Y-127700989D01*
X142568664Y-133200989D02*
X135568664Y-133200989D01*
X142568664Y-133200989D02*
X142568664Y-127700989D01*
%TO.C,C6*%
X84765000Y-132261253D02*
X84765000Y-131738747D01*
X86235000Y-132261253D02*
X86235000Y-131738747D01*
%TO.C,C4*%
X132765000Y-132261253D02*
X132765000Y-131738747D01*
X134235000Y-132261253D02*
X134235000Y-131738747D01*
%TO.C,D5*%
X111593247Y-128150989D02*
X111593247Y-133200989D01*
X112043247Y-127700989D02*
X111593247Y-128150989D01*
X112393247Y-129550989D02*
X112393247Y-131350989D01*
X117793247Y-129550989D02*
X117793247Y-131350989D01*
X118593247Y-127700989D02*
X112043247Y-127700989D01*
X118593247Y-133200989D02*
X111593247Y-133200989D01*
X118593247Y-133200989D02*
X118593247Y-127700989D01*
%TO.C,D10*%
X117450000Y-82100000D02*
X117450000Y-87150000D01*
X117900000Y-81650000D02*
X117450000Y-82100000D01*
X118250000Y-83500000D02*
X118250000Y-85300000D01*
X123650000Y-83500000D02*
X123650000Y-85300000D01*
X124450000Y-81650000D02*
X117900000Y-81650000D01*
X124450000Y-87150000D02*
X117450000Y-87150000D01*
X124450000Y-87150000D02*
X124450000Y-81650000D01*
%TO.C,C11*%
X144765000Y-35761253D02*
X144765000Y-35238747D01*
X146235000Y-35761253D02*
X146235000Y-35238747D01*
%TO.C,C9*%
X134765000Y-86261253D02*
X134765000Y-85738747D01*
X136235000Y-86261253D02*
X136235000Y-85738747D01*
%TO.C,C10*%
X114765000Y-86261253D02*
X114765000Y-85738747D01*
X116235000Y-86261253D02*
X116235000Y-85738747D01*
%TO.C,C3*%
X156765000Y-132261253D02*
X156765000Y-131738747D01*
X158235000Y-132261253D02*
X158235000Y-131738747D01*
%TO.C,D3*%
X159544082Y-128150989D02*
X159544082Y-133200989D01*
X159994082Y-127700989D02*
X159544082Y-128150989D01*
X160344082Y-129550989D02*
X160344082Y-131350989D01*
X165744082Y-129550989D02*
X165744082Y-131350989D01*
X166544082Y-127700989D02*
X159994082Y-127700989D01*
X166544082Y-133200989D02*
X159544082Y-133200989D01*
X166544082Y-133200989D02*
X166544082Y-127700989D01*
%TO.C,C2*%
X180765000Y-132261253D02*
X180765000Y-131738747D01*
X182235000Y-132261253D02*
X182235000Y-131738747D01*
%TO.C,D11*%
X147500000Y-31700000D02*
X147500000Y-36750000D01*
X147950000Y-31250000D02*
X147500000Y-31700000D01*
X148300000Y-33100000D02*
X148300000Y-34900000D01*
X153700000Y-33100000D02*
X153700000Y-34900000D01*
X154500000Y-31250000D02*
X147950000Y-31250000D01*
X154500000Y-36750000D02*
X147500000Y-36750000D01*
X154500000Y-36750000D02*
X154500000Y-31250000D01*
%TO.C,C1*%
X204765000Y-132261253D02*
X204765000Y-131738747D01*
X206235000Y-132261253D02*
X206235000Y-131738747D01*
%TO.C,D1*%
X207566486Y-128079421D02*
X207566486Y-133129421D01*
X208016486Y-127629421D02*
X207566486Y-128079421D01*
X208366486Y-129479421D02*
X208366486Y-131279421D01*
X213766486Y-129479421D02*
X213766486Y-131279421D01*
X214566486Y-127629421D02*
X208016486Y-127629421D01*
X214566486Y-133129421D02*
X207566486Y-133129421D01*
X214566486Y-133129421D02*
X214566486Y-127629421D01*
%TO.C,C7*%
X174765000Y-86261253D02*
X174765000Y-85738747D01*
X176235000Y-86261253D02*
X176235000Y-85738747D01*
%TO.C,C8*%
X154765000Y-86261253D02*
X154765000Y-85738747D01*
X156235000Y-86261253D02*
X156235000Y-85738747D01*
%TO.C,R1*%
X145765000Y-105727064D02*
X145765000Y-105272936D01*
X147235000Y-105727064D02*
X147235000Y-105272936D01*
%TO.C,C5*%
X108765000Y-132261253D02*
X108765000Y-131738747D01*
X110235000Y-132261253D02*
X110235000Y-131738747D01*
%TO.C,D7*%
X177453116Y-82055705D02*
X177453116Y-87105705D01*
X177903116Y-81605705D02*
X177453116Y-82055705D01*
X178253116Y-83455705D02*
X178253116Y-85255705D01*
X183653116Y-83455705D02*
X183653116Y-85255705D01*
X184453116Y-81605705D02*
X177903116Y-81605705D01*
X184453116Y-87105705D02*
X177453116Y-87105705D01*
X184453116Y-87105705D02*
X184453116Y-81605705D01*
%TO.C,D2*%
X183591068Y-128007853D02*
X183591068Y-133057853D01*
X184041068Y-127557853D02*
X183591068Y-128007853D01*
X184391068Y-129407853D02*
X184391068Y-131207853D01*
X189791068Y-129407853D02*
X189791068Y-131207853D01*
X190591068Y-127557853D02*
X184041068Y-127557853D01*
X190591068Y-133057853D02*
X183591068Y-133057853D01*
X190591068Y-133057853D02*
X190591068Y-127557853D01*
%TO.C,D9*%
X137455254Y-82101839D02*
X137455254Y-87151839D01*
X137905254Y-81651839D02*
X137455254Y-82101839D01*
X138255254Y-83501839D02*
X138255254Y-85301839D01*
X143655254Y-83501839D02*
X143655254Y-85301839D01*
X144455254Y-81651839D02*
X137905254Y-81651839D01*
X144455254Y-87151839D02*
X137455254Y-87151839D01*
X144455254Y-87151839D02*
X144455254Y-81651839D01*
%TO.C,D6*%
X87512912Y-128150989D02*
X87512912Y-133200989D01*
X87962912Y-127700989D02*
X87512912Y-128150989D01*
X88312912Y-129550989D02*
X88312912Y-131350989D01*
X93712912Y-129550989D02*
X93712912Y-131350989D01*
X94512912Y-127700989D02*
X87962912Y-127700989D01*
X94512912Y-133200989D02*
X87512912Y-133200989D01*
X94512912Y-133200989D02*
X94512912Y-127700989D01*
%TD*%
M02*
